<svg width="164" height="164" viewBox="0 0 164 164" fill="none" xmlns="http://www.w3.org/2000/svg">
<path d="M81.9241 163.818C126.937 163.818 163.427 127.328 163.427 82.3152C163.427 37.3022 126.937 0.812012 81.9241 0.812012C36.9111 0.812012 0.420904 37.3022 0.420904 82.3152C0.420904 127.328 36.9111 163.818 81.9241 163.818Z" fill="#BFDEEF"/>
<mask id="mask0_20_36477" style="mask-type:luminance" maskUnits="userSpaceOnUse" x="0" y="0" width="164" height="164">
<path d="M81.9241 163.818C126.937 163.818 163.427 127.328 163.427 82.3152C163.427 37.3022 126.937 0.812012 81.9241 0.812012C36.9111 0.812012 0.420904 37.3022 0.420904 82.3152C0.420904 127.328 36.9111 163.818 81.9241 163.818Z" fill="white"/>
</mask>
<g mask="url(#mask0_20_36477)">
<path d="M104.521 93.527C104.521 93.527 106.23 80.1717 118.269 91.5354C125.76 98.6059 141.665 117.405 138.557 136.542C136.689 148.071 114.017 148.306 115.829 136.212C118.751 116.654 102.501 92.4037 104.528 93.527H104.521Z" fill="#EDA18A"/>
<path d="M131.893 104.884C131.893 104.884 122.638 112.678 114.168 114.215C108.249 115.29 81.2624 81.2951 87.7953 80.1305C100.93 77.7874 127.441 83.459 131.893 104.884Z" fill="#AA3570"/>
<path d="M65.3023 93.9953C65.3023 93.9953 63.5932 80.64 51.5542 92.0037C44.0634 99.0741 28.1583 117.874 31.2663 137.011C33.1338 148.54 55.8061 148.774 53.9937 136.68C51.0718 117.122 67.3214 92.872 65.2954 93.9953H65.3023Z" fill="#EDA18A"/>
<path d="M82.365 31.9808C88.4888 31.9808 93.4531 27.0165 93.4531 20.8928C93.4531 14.769 88.4888 9.80469 82.365 9.80469C76.2412 9.80469 71.2769 14.769 71.2769 20.8928C71.2769 27.0165 76.2412 31.9808 82.365 31.9808Z" fill="#352B4C"/>
<path d="M92.1368 28.7971C92.1368 28.7971 97.002 30.134 100.179 38.1003C102.591 44.1439 101.082 49.1401 106.994 56.0727C112.907 63.0054 112.859 73.0597 100.62 73.7489C93.0257 74.1761 89.3458 79.7994 82.6681 78.1662C75.9905 76.5329 75.9698 75.6026 69.5334 75.7749C62.0081 75.9816 58.3764 74.314 56.0265 69.2971C52.1122 60.9449 59.3136 56.8928 59.2998 49.4571C59.286 42.0214 64.7095 19.7075 92.1368 28.8039V28.7971Z" fill="#352B4C"/>
<path d="M86.4239 56.3003C86.4239 56.3003 86.1345 74.9136 86.4239 77.5185C86.7065 80.1166 95.3895 83.4795 100.468 88.2207C105.547 92.9688 96.5128 102.375 86.1483 108.412C78.2095 113.043 60.6712 94.0025 63.5518 88.1862C67.3213 80.5714 74.7846 80.151 74.4951 75.3891C74.2057 70.6342 74.0334 66.3064 74.0334 66.3064C74.0334 66.3064 85.4867 57.0239 86.4308 56.3003H86.4239Z" fill="#EDA18A"/>
<path d="M93.9424 41.8077C93.9424 41.8077 98.4906 72.5221 81.0764 73.6385C69.0993 74.4034 62.973 54.3912 65.8191 44.7778C68.6652 35.1576 86.5411 34.6063 93.9424 41.8146V41.8077Z" fill="#EDA18A"/>
<path d="M68.0794 56.6656C68.0794 56.6656 65.7501 51.0286 63.3382 53.6955C60.9262 56.3624 64.2065 63.0952 66.6666 62.916C69.1268 62.7299 69.3887 58.9466 68.0794 56.6656Z" fill="#EDA18A"/>
<path d="M93.5152 56.6516C93.5152 56.6516 94.0113 51.3798 96.7334 53.7228C99.4554 56.0728 96.2717 62.8951 93.8046 63.0192C91.3375 63.1432 92.5021 59.0774 93.5152 56.6516Z" fill="#EDA18A"/>
<path d="M90.2761 30.8369C90.2761 30.8369 99.0556 35.2611 98.8627 45.3155C98.7869 49.2297 85.0319 50.16 82.6613 47.0383C80.2907 43.9165 80.1253 35.268 80.1253 35.268C80.1253 35.268 80.1391 45.6049 76.1903 48.2787C72.2416 50.9525 61.5602 49.6432 62.5043 48.4028C63.4484 47.1623 64.9162 31.8844 74.4124 28.7488C83.9086 25.6133 90.2692 30.8438 90.2692 30.8438L90.2761 30.8369Z" fill="#352B4C"/>
<path d="M88.5603 65.5483C90.2882 65.5483 91.6889 64.1476 91.6889 62.4197C91.6889 60.6918 90.2882 59.291 88.5603 59.291C86.8324 59.291 85.4317 60.6918 85.4317 62.4197C85.4317 64.1476 86.8324 65.5483 88.5603 65.5483Z" fill="#CB5C6C"/>
<path d="M71.9041 65.5483C73.632 65.5483 75.0328 64.1476 75.0328 62.4197C75.0328 60.6918 73.632 59.291 71.9041 59.291C70.1762 59.291 68.7755 60.6918 68.7755 62.4197C68.7755 64.1476 70.1762 65.5483 71.9041 65.5483Z" fill="#CB5C6C"/>
<path d="M89.6837 46.956C86.5275 43.6207 85.6179 31.2026 85.5834 30.6719L86.5275 30.603C86.5344 30.7271 87.4441 43.2141 90.3728 46.3014L89.6837 46.956Z" fill="#3F345C"/>
<path d="M72.1937 44.5647C72.1661 44.4751 71.5253 42.3319 72.2626 39.3893C72.9311 36.6948 74.9295 32.7875 80.6355 29.459L81.111 30.279C70.7879 36.302 73.0758 44.2132 73.1034 44.289L72.1937 44.5647Z" fill="#3F345C"/>
<path d="M64.1789 44.2819L63.283 43.9787C63.4691 43.4274 67.9415 30.4787 77.7754 28.873L77.927 29.8103C68.6582 31.3195 64.2271 44.151 64.1789 44.2819Z" fill="#3F345C"/>
<path d="M94.6593 45.4741L93.7427 45.2398C93.7634 45.1571 95.7412 37.1012 90.2902 31.1609L90.9862 30.52C96.7956 36.8462 94.7558 45.1226 94.6593 45.4741Z" fill="#3F345C"/>
<path d="M104.569 67.1817C104.555 59.8287 100.696 55.0599 100.661 55.0117L101.392 54.4121C101.557 54.6188 105.499 59.4979 105.52 67.1885H104.569V67.1817Z" fill="#3F345C"/>
<path d="M96.3061 71.461L95.7824 70.6686C95.7824 70.6686 98.9248 68.4289 97.6361 61.3446L98.5733 61.1724C99.9792 68.9251 96.4577 71.3577 96.3061 71.4542V71.461Z" fill="#3F345C"/>
<path d="M69.2509 73.5283C69.0924 73.4594 65.2747 71.7434 64.2548 64.232L65.192 64.1079C66.1361 71.0405 69.5886 72.6462 69.6231 72.66L69.2441 73.5283H69.2509Z" fill="#3F345C"/>
<path d="M61.4983 71.6543C61.2847 71.5716 56.3574 69.5938 60.375 58.0991L61.2709 58.4092C57.5565 69.0287 61.7809 70.7446 61.8291 70.7584L61.4983 71.6474V71.6543Z" fill="#3F345C"/>
<path d="M84.2052 24.9175L84.5222 24.125C85.7144 21.1755 82.7512 14.9252 82.7236 14.8631L83.5781 14.4565C83.6953 14.7046 86.2864 20.1832 85.6386 23.6495C86.6379 23.3463 88.3538 22.6365 89.0085 21.2238C89.5184 20.1212 89.2979 18.7429 88.3538 17.1304L89.1738 16.648C90.2902 18.55 90.5176 20.2245 89.8699 21.6235C88.7121 24.1181 85.1907 24.7452 85.0391 24.7728L84.1983 24.9175H84.2052Z" fill="#3F345C"/>
<path d="M80.3942 24.7386C79.4707 24.3527 78.8092 23.6636 78.4233 22.6988C77.1415 19.4806 79.4294 14.1605 79.5328 13.9331L80.4011 14.3121C80.3804 14.3673 78.1683 19.5013 79.3053 22.3474C79.5948 23.0778 80.0703 23.5671 80.7594 23.8634L80.3873 24.7386H80.3942Z" fill="#3F345C"/>
<path d="M70.078 52.7994H70.0642V52.0344C70.6224 52.0482 72.1799 51.9517 72.8552 51.5176L73.2687 52.1654C72.297 52.7787 70.3054 52.7994 70.0849 52.7994H70.078Z" fill="#2E1F35"/>
<path d="M90.173 52.9303C89.1875 52.9303 88.1883 52.7098 88.1263 52.696L88.2916 51.9448C88.8223 52.062 90.3728 52.317 91.124 52.0344L91.3858 52.758C91.0413 52.882 90.6071 52.9303 90.1661 52.9303H90.173Z" fill="#2E1F35"/>
<path d="M66.6736 60.311L65.6882 60.0284C66.0534 58.7535 64.6614 57.1479 64.0963 56.6379L64.7785 55.8799C64.8819 55.9695 67.2869 58.1747 66.6667 60.3179L66.6736 60.311Z" fill="#CB5C6C"/>
<path d="M94.2319 59.3392L93.2119 59.2359C93.4325 57.0651 94.7418 56.2864 94.7969 56.252L95.3069 57.1409L95.0519 56.6999L95.3138 57.1409C95.2793 57.1616 94.3972 57.7198 94.2319 59.3461V59.3392Z" fill="#CB5C6C"/>
<path d="M81.2832 53.1098C81.2832 53.1098 83.6469 59.1535 82.5374 59.4085C81.4348 59.6635 78.7266 59.8702 78.3889 59.4085C78.0512 58.9468 80.1531 51.2837 81.2832 53.1098Z" fill="#C74A65"/>
<path d="M61.7258 75.396C61.6293 75.3753 52.0159 73.1977 52.1882 63.0055C52.2916 56.762 55.2617 53.3852 57.653 50.6701C59.0795 49.0506 60.2097 47.7688 60.2924 46.3354L61.3123 46.3975C61.202 48.1823 59.9134 49.6502 58.4179 51.3454C56.1438 53.9296 53.3046 57.1479 53.2081 63.0192C53.0496 72.3776 61.8498 74.3692 61.9394 74.3898L61.7258 75.3891V75.396Z" fill="#352B4C"/>
<path d="M107.677 72.1638L107.587 71.1439C107.587 71.1439 109.496 70.951 110.764 69.2764C111.922 67.7534 112.232 65.4862 111.694 62.5505C110.881 58.1332 108.834 56.431 106.457 54.4601C104.362 52.7166 101.985 50.7388 100.289 46.5558L101.233 46.1699C102.825 50.1117 105.003 51.9241 107.105 53.6676C109.524 55.6799 111.812 57.5819 112.694 62.3575C113.293 65.5964 112.907 68.1393 111.563 69.8966C110.013 71.9226 107.773 72.1363 107.677 72.1432V72.1638Z" fill="#352B4C"/>
<path d="M100.131 63.2399C100.076 63.2399 100.027 63.233 99.9861 63.2192C99.3659 63.0607 98.8766 62.9367 101.502 45.3984C102.329 39.8854 101.289 35.6059 98.408 32.6771C92.6331 26.8057 81.2901 28.2322 81.1798 28.246L81.0489 27.233C81.5382 27.171 93.0122 25.7307 99.1385 31.9604C102.253 35.1235 103.384 39.6993 102.515 45.55C100.338 60.1044 100.455 62.1856 100.537 62.475C100.517 62.4061 100.406 62.2476 100.2 62.22C100.083 62.2062 99.9861 62.2269 99.9172 62.2683L100.813 62.599C100.62 63.1297 100.344 63.2468 100.138 63.2468L100.131 63.2399Z" fill="#352B4C"/>
<path d="M72.1385 79.951C72.1385 79.951 74.1577 92.8377 85.4525 89.4541C91.186 87.7312 87.8437 79.062 87.8437 79.062C110.998 79.7236 115.567 103.181 116.16 108.205C118.517 128.052 125.229 132.972 122.672 163.907C122.259 168.883 71.346 176.78 50.369 164.445C44.153 160.793 47.1921 127.184 56.3437 95.7113C58.4318 88.5169 67.3146 79.7442 72.1316 79.9579L72.1385 79.951Z" fill="#AA3570"/>
<path d="M74.2264 29.2173C70.6843 27.7633 68.741 25.8061 68.4584 23.408C67.8865 18.5221 74.4607 13.7257 74.7364 13.5259L75.3359 14.3528C75.2739 14.4011 68.9684 19.0044 69.4715 23.2908C69.7058 25.2962 71.4355 26.9708 74.6123 28.2732L74.2264 29.2173Z" fill="#352B4C"/>
<path d="M76.9553 64.6318C76.9553 64.6318 79.9462 60.3799 82.5097 62.3302C85.0733 64.2735 85.7004 66.9887 81.5932 67.8018C77.486 68.615 75.8665 65.8792 76.9484 64.6387L76.9553 64.6318Z" fill="#F7ECE9"/>
<path d="M33.7196 111.355C33.0098 113.305 57.8528 120.513 61.5121 117.295C65.1714 114.077 72.1385 79.9512 72.1385 79.9512C48.5014 82.1219 43.0779 85.6916 33.7196 111.355Z" fill="#AA3570"/>
<path d="M89.6284 120.362C88.319 119.452 82.6889 123.242 82.6889 123.242C80.1942 124.124 46.5992 125.682 40.3006 127.143C28.3098 129.934 30.8044 142.366 39.8044 147.817C48.8044 153.268 81.159 135.44 83.9224 133.483C86.6789 131.526 91.5717 130.044 92.1919 125.971C92.6261 123.125 86.7478 128.535 86.7478 128.535C86.7478 128.535 90.8068 124.848 90.6483 123.056C90.5242 121.657 87.4783 123.642 86.1414 124.586C87.5265 123.559 90.6621 121.078 89.6284 120.362Z" fill="#EDA18A"/>
<path d="M85.8936 137.866C85.8936 137.866 79.1815 136.866 78.389 138.245C77.5965 139.623 84.1156 140.705 84.1156 140.705C84.1156 140.705 78.003 139.43 78.6301 141.118C79.2573 142.807 84.5084 144.392 84.5084 144.392C84.5084 144.392 76.8729 142.028 78.4854 144.412C80.794 147.83 85.8522 147.059 89.1807 147.644C92.5092 148.23 129.398 150.435 135.18 141.642C140.962 132.849 137.874 120.555 125.849 123.187C119.53 124.572 88.526 137.59 85.8936 137.873V137.866Z" fill="#EDA18A"/>
<path d="M56.1576 118.108C55.7303 115.71 59.3414 107.337 59.7548 106.386L60.5129 106.717C59.4172 109.225 56.6538 116.144 56.9708 117.964L56.1576 118.108Z" fill="#352B4C"/>
<path d="M113.693 115.179C114.12 112.781 110.509 104.408 110.095 103.457L109.337 103.788C110.433 106.296 113.197 113.215 112.88 115.034L113.693 115.179Z" fill="#352B4C"/>
<path d="M90.2832 54.5981L87.637 55.8041L90.2832 57.1548" stroke="#2E1F35" stroke-width="1.01991" stroke-linecap="round" stroke-linejoin="round"/>
<path d="M71.0909 57.1548L73.7854 56.0659L71.2011 54.605" stroke="#2E1F35" stroke-width="1.01991" stroke-linecap="round" stroke-linejoin="round"/>
<path d="M38.0265 129.775C38.0265 129.775 42.7402 126.398 47.9293 125.978" stroke="#CB5C6C" stroke-width="0.826954" stroke-miterlimit="10"/>
<path d="M140.5 46.4113C140.5 46.4113 131.562 56.4105 130.439 54.3569C129.308 52.3033 126.903 45.6188 124.988 46.8247C123.072 48.0307 112.928 53.3783 113.204 51.8623C113.472 50.3462 126.366 36.5774 127.379 37.8316C128.392 39.0858 131.975 47.693 133.223 47.2106C134.47 46.7283 145.014 39.2788 140.507 46.4113H140.5Z" fill="#F9BC64"/>
<path d="M142.602 76.1264C142.602 76.1264 130.129 81.0605 130.039 78.7175C129.949 76.3745 130.797 69.3247 128.544 69.5452C126.29 69.7657 114.823 69.9931 115.753 68.7596C116.677 67.5261 134.374 61 134.718 62.5781C135.063 64.1562 134.401 73.4526 135.738 73.5835C137.068 73.7075 149.838 71.7849 142.609 76.1333L142.602 76.1264Z" fill="#F9BC64"/>
<path d="M80.5871 75.6648C77.8168 75.6648 75.9149 73.6939 75.8391 73.6043L76.349 73.1219C76.349 73.1219 78.127 74.955 80.5871 74.955C80.6216 74.955 80.6561 74.955 80.6974 74.955C82.4409 74.9206 84.1293 73.9765 85.7143 72.1641L86.2449 72.6327C84.5221 74.6036 82.6545 75.6235 80.7043 75.6648C80.6629 75.6648 80.6285 75.6648 80.5871 75.6648Z" fill="#CB5C6C"/>
</g>
</svg>
