<svg width="164" height="164" viewBox="0 0 164 164" fill="none" xmlns="http://www.w3.org/2000/svg">
<path d="M81.9241 163.413C126.937 163.413 163.427 126.922 163.427 81.9094C163.427 36.8965 126.937 0.40625 81.9241 0.40625C36.9111 0.40625 0.420904 36.8965 0.420904 81.9094C0.420904 126.922 36.9111 163.413 81.9241 163.413Z" fill="#BFDEEF"/>
<path d="M65.2611 48.3071L65.2129 34.0215L57.1846 34.1593L56.8882 48.3278C51.6026 49.5544 47.6677 54.2956 47.6815 59.9534L47.8262 134.545C47.8262 137.149 49.9487 139.258 52.5536 139.251L69.9541 139.217C72.559 139.217 74.6677 137.094 74.6608 134.489L74.5161 59.8982C74.5023 54.2405 70.5536 49.5131 65.2611 48.3071Z" fill="#243B9B"/>
<path d="M65.2611 48.3073L65.2059 32.478H60.9196L60.9747 48.9482C66.2672 50.1817 70.2159 55.0125 70.2297 60.7874C70.2297 60.7874 65.9502 139.224 52.5467 139.245C50.2794 139.245 69.9471 139.21 69.9471 139.21C72.552 139.21 74.6608 137.088 74.6539 134.483L74.5092 59.8915C74.4954 54.2338 70.5467 49.5064 65.2542 48.3004L65.2611 48.3073Z" fill="#1B2C89"/>
<path d="M74.5375 72.5188L55.8621 72.5547L55.894 89.1695L74.5694 89.1337L74.5375 72.5188Z" fill="white"/>
<path d="M74.5713 89.1383L66.5154 89.1521L68.4656 72.5303L74.5368 72.5234L74.5713 89.1383Z" fill="#EFF7F9"/>
<path d="M54.7658 52.4143C53.3255 52.8967 51.6579 54.2611 51.7612 55.7014C51.9059 57.7275 55.5032 59.7604 57.7911 58.4304C59.4588 57.4656 60.3133 54.778 59.1487 53.2275C58.115 51.8423 55.9649 52.0146 54.7658 52.4143Z" fill="#4465CC"/>
<path d="M52.6226 119.687C51.8232 119.687 51.1685 119.04 51.1685 118.24L51.0652 65.646C51.0652 64.8466 51.7129 64.1919 52.5123 64.1919C53.3117 64.1919 53.9664 64.8397 53.9664 65.6391L54.0698 118.233C54.0698 119.033 53.422 119.687 52.6226 119.687Z" fill="#4465CC"/>
<path d="M58.8109 42.4015C58.3423 42.4015 57.9633 42.0224 57.9564 41.5538L57.9289 27.9229C57.9289 27.4543 58.3079 27.0753 58.7765 27.0684C59.2451 27.0684 59.6241 27.4474 59.631 27.916L59.6586 41.5469C59.6586 42.0155 59.2796 42.3946 58.8109 42.4015Z" fill="#4465CC"/>
<path d="M65.468 19.1157L56.7367 19.1295L56.7712 36.5782L65.5024 36.6402L65.468 19.1157Z" fill="#F4F8F9"/>
<path d="M65.4681 19.1157L60.9957 19.1226L61.0301 36.6058L65.5026 36.6402L65.4681 19.1157Z" fill="#E1E7EA"/>
<path d="M56.7931 15.4518L65.3865 15.4353C66.0412 15.4341 66.5728 15.9637 66.5741 16.6184L66.5787 19.0027C66.5799 19.6574 66.0503 20.189 65.3956 20.1903L56.8022 20.2068C56.1476 20.2081 55.6159 19.6784 55.6147 19.0238L55.6101 16.6394C55.6088 15.9847 56.1384 15.4531 56.7931 15.4518Z" fill="#F4F8F9"/>
<path d="M65.3921 15.436H64.6203C64.6203 15.4774 64.6203 15.5118 64.6203 15.5463V17.9307C64.6203 18.5854 64.0965 19.1229 63.4418 19.1229L55.6202 19.1367C55.6754 19.7431 56.1853 20.2117 56.8055 20.2117L65.399 20.1979C66.0536 20.1979 66.5843 19.6604 66.5843 19.0057V16.6213C66.5843 15.9667 66.0467 15.436 65.3921 15.436Z" fill="#E1E7EA"/>
<path d="M60.4858 17.8205H57.7224C57.3847 17.8205 57.1021 17.5517 57.1021 17.2071C57.1021 16.8695 57.3778 16.5869 57.7224 16.5869H60.4858C60.8234 16.5869 61.106 16.8557 61.106 17.2002C61.106 17.5379 60.8303 17.8205 60.4858 17.8205Z" fill="white"/>
<path d="M58.887 35.0418C58.3977 35.0418 57.998 34.7041 57.998 34.2837L57.9774 22.0931C57.9774 21.6727 58.3771 21.335 58.8594 21.3281C59.3487 21.3281 59.7484 21.6658 59.7484 22.0862L59.7691 34.2768C59.7691 34.6972 59.3694 35.0349 58.887 35.0418Z" fill="white"/>
<path d="M84.3982 94.0449C84.3776 96.7877 84.3982 100.571 84.6257 105.085C84.7428 107.462 84.86 109.881 85.1907 113.079C85.7076 118.082 86.2106 122.775 88.0093 128.398C88.7949 130.865 89.6081 132.815 90.1525 134.028H90.2214C90.2007 134.083 90.1869 134.138 90.1869 134.2C90.1869 135.475 95.2727 136.509 101.544 136.509C107.815 136.509 112.901 135.475 112.901 134.2C112.901 134.145 112.887 134.09 112.866 134.028H112.901C113.438 132.808 114.251 130.865 115.044 128.398C116.835 122.775 117.345 118.082 117.862 113.079C118.193 109.874 118.31 107.462 118.427 105.085C118.648 100.571 118.675 96.7945 118.655 94.0449H84.4189H84.3982Z" fill="white"/>
<path d="M109.6 94.0449C109.944 103.831 109.455 115.504 106.202 123.994C104.004 129.742 101.33 131.947 99.4142 133.05C96.4234 134.765 93.1707 134.986 90.4556 134.703C91.5858 135.737 96.1202 136.509 101.537 136.509C107.808 136.509 112.894 135.475 112.894 134.2C112.894 134.145 112.88 134.09 112.859 134.028H112.894C113.431 132.808 114.244 130.865 115.037 128.398C116.829 122.775 117.338 118.082 117.855 113.079C118.186 109.874 118.303 107.462 118.42 105.085C118.641 100.571 118.668 96.7945 118.648 94.0449H109.613H109.6Z" fill="#EFF7F9"/>
<path d="M101.502 96.7534C110.949 96.7534 118.606 95.5162 118.606 93.99C118.606 92.4638 110.949 91.2266 101.502 91.2266C92.0559 91.2266 84.3981 92.4638 84.3981 93.99C84.3981 95.5162 92.0559 96.7534 101.502 96.7534Z" fill="#E5F4F9"/>
<path d="M112.742 92.4254C109.745 91.9086 105.748 91.6191 101.503 91.6191C97.2575 91.6191 93.2606 91.9017 90.2629 92.4254C86.011 93.1628 85.8938 93.9829 85.8938 93.9897C85.8938 93.9966 86.011 94.8167 90.2629 95.5541C93.2606 96.0709 97.2575 96.3603 101.503 96.3603C105.748 96.3603 109.745 96.0778 112.742 95.5541C116.994 94.8167 117.111 93.9966 117.111 93.9897C117.111 93.9829 116.994 93.1628 112.742 92.4254Z" fill="#6293BF"/>
<path d="M127.869 100.068C126.16 99.0066 124.526 98.9032 123.307 98.8274C122.294 98.7654 120.901 98.6965 119.365 99.3925C118.772 99.6612 118 100.013 117.394 100.798C116.098 102.494 116.312 105.229 117.222 105.643C117.787 105.898 118.682 105.285 119.082 104.912C119.509 104.513 119.482 104.278 120.15 103.451C120.516 103.004 120.757 102.707 121.108 102.438C121.908 101.832 122.783 101.763 123.417 101.708C123.885 101.667 125.057 101.584 126.346 102.156C128.385 103.066 129.185 104.94 129.385 105.422C130.274 107.586 129.667 109.543 129.44 110.267C129.04 111.542 128.413 112.396 127.696 113.361C126.959 114.353 126.332 114.96 125.105 116.118C121.225 119.798 118.131 121.837 117.449 121.748C116.663 121.644 116.491 120.687 116.043 120.68C114.823 120.645 112.99 127.661 114.3 128.281C114.596 128.419 114.934 128.184 117.339 126.082C119.999 123.76 121.694 122.203 123.079 120.955C125.333 118.936 125.677 118.716 126.849 117.523C129.026 115.311 129.764 114.105 130.005 113.692C130.549 112.768 131.3 111.466 131.638 109.585C131.797 108.696 132.093 106.911 131.411 104.795C131.176 104.072 130.343 101.611 127.862 100.068H127.869Z" fill="white"/>
<path opacity="0.4" d="M104.431 53.6824C102.777 49.2582 107.27 45.0407 106.871 44.7995C106.326 44.4688 98.5941 51.6839 100.255 57.6862C101.53 62.2827 107.222 62.2207 108.09 67.2651C108.58 70.0905 107.381 73.5362 105.127 75.2728C103.962 76.1687 96.2236 79.1043 96.2442 85.8923C96.258 90.8815 100.6 95.292 100.6 95.292C100.6 95.292 99.8759 87.9803 103.907 84.1488C106.471 81.7161 108.669 83.3218 112.087 80.8409C115.912 78.0706 118.427 72.3647 116.787 68.3057C113.128 59.2643 106.512 59.2643 104.424 53.6824H104.431Z" fill="white"/>
<path opacity="0.31" d="M89.6288 28.1023C89.4083 28.2884 90.566 29.4324 91.3723 32.1062C91.834 33.6498 92.4267 35.6345 91.8961 37.6812C91.0967 40.7409 89.1258 40.865 88.0645 43.4285C85.7628 49.0036 92.8195 55.9155 93.1158 55.7915C93.4948 55.633 89.5255 50.2854 91.0278 44.8206C92.2751 40.293 96.1411 39.8313 96.2514 36.2892C96.3961 31.7134 90.0974 27.7164 89.6357 28.1092L89.6288 28.1023Z" fill="white"/>
</svg>
