<svg width="164" height="163" viewBox="0 0 164 163" fill="none" xmlns="http://www.w3.org/2000/svg">
<path d="M82.0759 163.006C127.089 163.006 163.579 126.516 163.579 81.5032C163.579 36.4902 127.089 0 82.0759 0C37.063 0 0.572754 36.4902 0.572754 81.5032C0.572754 126.516 37.063 163.006 82.0759 163.006Z" fill="#BFDEEF"/>
<mask id="mask0_20_36296" style="mask-type:luminance" maskUnits="userSpaceOnUse" x="0" y="0" width="164" height="164">
<path d="M82.0759 163.006C127.089 163.006 163.579 126.516 163.579 81.5032C163.579 36.4902 127.089 0 82.0759 0C37.063 0 0.572754 36.4902 0.572754 81.5032C0.572754 126.516 37.063 163.006 82.0759 163.006Z" fill="white"/>
</mask>
<g mask="url(#mask0_20_36296)">
<path d="M58.7209 88.3323C58.7209 88.3323 33.3265 67.1348 29.9154 68.6509C26.5111 70.1669 17.8763 75.17 20.178 79.8974C22.4728 84.6248 40.4177 107.07 44.9659 105.65C49.5142 104.231 60.5884 90.1448 58.7209 88.3323Z" fill="#EDA18A"/>
<path d="M85.7552 39.5974C92.0084 39.5974 97.0776 34.5282 97.0776 28.275C97.0776 22.0218 92.0084 16.9526 85.7552 16.9526C79.5021 16.9526 74.4329 22.0218 74.4329 28.275C74.4329 34.5282 79.5021 39.5974 85.7552 39.5974Z" fill="#352B4C"/>
<path d="M95.7272 36.3446C95.7272 36.3446 100.696 37.7091 103.942 45.8408C106.402 52.0085 104.858 57.115 110.902 64.1923C116.939 71.2697 116.89 81.5377 104.396 82.2337C96.6437 82.6678 92.8879 88.4083 86.0725 86.7406C79.2501 85.0729 79.2363 84.1219 72.662 84.3011C64.9852 84.5078 61.2708 82.8125 58.8726 77.6923C54.8756 69.1678 62.2286 65.0262 62.2149 57.4389C62.2011 49.4932 67.7417 27.069 95.734 36.3515L95.7272 36.3446Z" fill="#352B4C"/>
<path d="M91.1785 64.3784C91.1785 64.3784 90.8684 84.6526 91.1785 87.4849C91.4886 90.3172 109.675 88.9527 115.202 94.1212C120.728 99.2896 102.163 114.561 90.8822 121.135C82.2337 126.179 52.739 92.991 59.8025 92.7498C66.8661 92.5086 78.5055 90.3517 78.1885 85.1694C77.8715 79.9872 77.6854 75.2735 77.6854 75.2735C77.6854 75.2735 90.1586 65.164 91.1854 64.3784H91.1785Z" fill="#EDA18A"/>
<path d="M97.5736 49.6312C97.5736 49.6312 102.218 80.9866 84.4388 82.1236C72.2068 82.9092 65.9564 62.4766 68.8645 52.6565C71.7726 42.8364 90.0208 42.2714 97.5736 49.6312Z" fill="#EDA18A"/>
<path d="M71.1734 64.7917C71.1734 64.7917 68.7959 59.0375 66.3357 61.7595C63.8756 64.4816 67.2178 71.3591 69.7331 71.173C72.2485 70.987 72.5103 67.121 71.1734 64.7917Z" fill="#EDA18A"/>
<path d="M97.1399 64.7782C97.1399 64.7782 97.6429 59.3962 100.427 61.7943C103.204 64.1925 99.9515 71.1596 97.4362 71.2836C94.9209 71.4077 96.1062 67.2591 97.1399 64.7851V64.7782Z" fill="#EDA18A"/>
<path d="M93.8318 38.4328C93.8318 38.4328 102.79 42.9466 102.597 53.2146C102.522 57.2115 88.4772 58.1625 86.0584 54.9718C83.6396 51.7812 83.4742 42.9534 83.4742 42.9534C83.4742 42.9534 83.4948 53.504 79.4565 56.2329C75.4251 58.9619 64.5231 57.625 65.4879 56.357C66.4527 55.089 67.9481 39.494 77.6441 36.2896C87.3402 33.0851 93.8318 38.4328 93.8318 38.4328Z" fill="#352B4C"/>
<path d="M92.0812 73.8678C93.8472 73.8678 95.2788 72.4362 95.2788 70.6702C95.2788 68.9042 93.8472 67.4727 92.0812 67.4727C90.3153 67.4727 88.8837 68.9042 88.8837 70.6702C88.8837 72.4362 90.3153 73.8678 92.0812 73.8678Z" fill="#CB5C6C"/>
<path d="M75.0805 73.8678C76.8464 73.8678 78.278 72.4362 78.278 70.6702C78.278 68.9042 76.8464 67.4727 75.0805 67.4727C73.3145 67.4727 71.8829 68.9042 71.8829 70.6702C71.8829 72.4362 73.3145 73.8678 75.0805 73.8678Z" fill="#CB5C6C"/>
<path d="M93.2257 54.8821C90.0005 51.4778 89.0771 38.7978 89.0358 38.2603L90.0006 38.1914C90.0074 38.3223 90.9378 51.0643 93.9286 54.2205L93.2257 54.889V54.8821Z" fill="#3F345C"/>
<path d="M75.3702 52.4425C75.3426 52.3529 74.688 50.1684 75.4391 47.1569C76.1213 44.4073 78.1612 40.4172 83.9843 37.0129L84.4736 37.8468C73.9299 44.0007 76.2729 52.0704 76.2936 52.1531L75.3702 52.4356V52.4425Z" fill="#3F345C"/>
<path d="M67.1835 52.1532L66.267 51.8431C66.453 51.278 71.022 38.0605 81.0625 36.4204L81.221 37.3783C71.7593 38.9219 67.2317 52.0223 67.1904 52.1532H67.1835Z" fill="#3F345C"/>
<path d="M98.3044 53.3729L97.3671 53.1317C97.3878 53.049 99.407 44.8277 93.8388 38.7565L94.5555 38.1018C100.489 44.5658 98.4008 53.0145 98.3113 53.3729H98.3044Z" fill="#3F345C"/>
<path d="M108.421 75.5285C108.407 68.0239 104.472 63.1518 104.431 63.1036L105.175 62.4902C105.347 62.697 109.372 67.6794 109.386 75.5285H108.414H108.421Z" fill="#3F345C"/>
<path d="M99.9856 79.8973L99.4481 79.091C99.4481 79.091 102.659 76.8031 101.343 69.5741L102.294 69.4019C103.734 77.3199 100.137 79.8008 99.9787 79.9042L99.9856 79.8973Z" fill="#3F345C"/>
<path d="M72.3652 82.0065C72.1998 81.9376 68.3062 80.1872 67.2657 72.5103L68.2235 72.3794C69.1814 79.4567 72.7098 81.0969 72.7442 81.1106L72.3583 81.9996L72.3652 82.0065Z" fill="#3F345C"/>
<path d="M64.4542 80.1043C64.2406 80.0216 59.2031 77.9956 63.3103 66.2666L64.2268 66.5836C60.4297 77.4305 64.7506 79.174 64.7919 79.1946L64.4542 80.1043Z" fill="#3F345C"/>
<path d="M87.6298 32.3822L87.9537 31.5759C89.1665 28.5644 86.1482 22.1831 86.1137 22.1211L86.9889 21.7007C87.1129 21.9557 89.7523 27.5445 89.0976 31.0866C90.1175 30.7765 91.8679 30.0529 92.5364 28.6126C93.0601 27.4825 92.8327 26.0766 91.8679 24.4296L92.7018 23.9404C93.8388 25.8768 94.0731 27.5858 93.4116 29.0192C92.2263 31.5621 88.6359 32.2099 88.4843 32.2374L87.6298 32.3822Z" fill="#3F345C"/>
<path d="M83.7433 32.2031C82.7992 31.8034 82.1238 31.1074 81.731 30.1219C80.4217 26.8348 82.7578 21.4045 82.8612 21.1702L83.7502 21.5561C83.7295 21.6112 81.4692 26.8486 82.6338 29.7567C82.9301 30.501 83.4194 31.004 84.1223 31.3003L83.7433 32.1962V32.2031Z" fill="#3F345C"/>
<path d="M76.4727 61.5046C75.9559 61.291 74.426 60.7811 73.6129 60.9327L73.4819 60.2366C74.6672 60.0092 76.6519 60.8155 76.7346 60.85L76.4659 61.5046H76.4727Z" fill="#261E35"/>
<path d="M90.8338 60.7328L90.379 60.1953C91.2956 59.4097 93.4181 59.1202 93.5077 59.1064L93.6041 59.8094C93.0459 59.8852 91.4678 60.1953 90.8407 60.7328H90.8338Z" fill="#261E35"/>
<path d="M75.0809 65.164C75.9677 65.164 76.6866 64.4451 76.6866 63.5583C76.6866 62.6715 75.9677 61.9526 75.0809 61.9526C74.1941 61.9526 73.4752 62.6715 73.4752 63.5583C73.4752 64.4451 74.1941 65.164 75.0809 65.164Z" fill="#261E35"/>
<path d="M92.4538 64.7851C93.3405 64.7851 94.0594 64.0662 94.0594 63.1794C94.0594 62.2926 93.3405 61.5737 92.4538 61.5737C91.567 61.5737 90.8481 62.2926 90.8481 63.1794C90.8481 64.0662 91.567 64.7851 92.4538 64.7851Z" fill="#261E35"/>
<path d="M69.6847 68.5061L68.7819 68.2443C69.2437 66.6593 67.1625 64.7504 67.1418 64.7297L67.7758 64.0337C67.8792 64.1302 70.3118 66.3561 69.6916 68.513L69.6847 68.5061Z" fill="#CB5C6C"/>
<path d="M97.8219 67.5205L96.8847 67.424C97.1121 65.2326 98.4215 64.447 98.4766 64.4194L98.9452 65.2395L98.7109 64.8329L98.9521 65.2395C98.9107 65.2602 97.9942 65.839 97.8219 67.5274V67.5205Z" fill="#CB5C6C"/>
<path d="M84.6526 61.1672C84.6526 61.1672 87.0645 67.3418 85.9343 67.5968C84.8042 67.8518 82.0408 68.0654 81.6962 67.5968C81.3516 67.1282 83.5017 59.2997 84.6526 61.1672Z" fill="#C74A65"/>
<path d="M64.7644 83.8809C64.6404 83.874 52.4566 83.0264 52.6357 72.5999C52.7391 66.2324 56.6465 62.3043 59.782 59.1481C61.6082 57.315 63.1794 55.73 63.269 54.2622L64.2062 54.3173C64.0959 56.1366 62.4076 57.8388 60.4436 59.8097C57.4252 62.8487 53.6694 66.6252 53.5661 72.6137C53.4972 76.59 55.344 79.5325 59.0584 81.3587C61.8838 82.7439 64.7782 82.9368 64.8126 82.9368L64.7575 83.874L64.7644 83.8809Z" fill="#352B4C"/>
<path d="M111.59 80.5728L111.508 79.6356C111.508 79.6356 113.479 79.4357 114.781 77.7129C115.973 76.1417 116.29 73.8194 115.739 70.8079C114.905 66.2803 112.81 64.5368 110.378 62.5177C108.241 60.7397 105.822 58.7275 104.1 54.4686L104.975 54.1172C106.608 58.1555 108.834 60.0023 110.984 61.7941C113.451 63.8408 115.774 65.7772 116.669 70.6356C117.276 73.9296 116.89 76.507 115.525 78.2918C113.961 80.3454 111.687 80.559 111.59 80.5659V80.5728Z" fill="#352B4C"/>
<path d="M103.886 71.4559C103.838 71.4559 103.79 71.4559 103.756 71.4422C103.197 71.2974 102.667 71.1665 105.341 53.3043C106.181 47.6604 105.12 43.2775 102.171 40.2798C96.2647 34.2706 84.6529 35.7247 84.5358 35.7384L84.4117 34.8012C84.9079 34.7392 96.6024 33.2714 102.839 39.6113C106.002 42.8296 107.16 47.4812 106.271 53.4421C104.086 68.0792 104.162 70.374 104.252 70.7255L104.541 70.8288C104.355 71.3388 104.093 71.4559 103.893 71.4559H103.886ZM103.728 70.5394L104.238 70.7255C104.203 70.6566 104.107 70.5463 103.942 70.5187C103.859 70.505 103.783 70.5187 103.728 70.5394Z" fill="#352B4C"/>
<path d="M73.7439 90.2206C73.7439 90.2206 74.7087 105.581 88.0571 101.005C94.8312 98.6831 95.2861 89.1663 95.2861 89.1663C99.5104 88.8975 118.427 89.8209 121.645 95.5407C124.863 101.26 124.533 150.533 125.608 157.156C126.683 163.778 58.5969 160.057 50.1206 160.47C41.6375 160.884 50.0173 115.76 48.3358 105.822C46.6474 95.8853 68.0655 89.9312 73.7577 90.2206H73.7439Z" fill="#AA3570"/>
<path d="M84.556 83.7498C81.7857 83.7498 79.8837 81.7789 79.8079 81.6893L80.3179 81.2069C80.3179 81.2069 82.0958 83.04 84.556 83.04C84.5905 83.04 84.6249 83.04 84.6663 83.04C86.4098 83.0055 88.0981 82.0614 89.6831 80.249L90.2138 80.7176C88.4909 82.6885 86.6234 83.7084 84.6732 83.7498C84.6318 83.7498 84.5974 83.7498 84.556 83.7498Z" fill="#CB5C6C"/>
<path d="M59.7616 53.3178C59.7616 53.3178 61.1881 52.4013 64.241 52.229C66.6598 52.0911 70.4983 52.9457 72.6208 51.3055C75.267 49.2588 63.7517 48.9005 64.6062 48.7695C65.4676 48.6317 76.1836 48.4112 73.937 46.7228C71.6905 45.0345 67.6246 45.2205 65.5297 45.2757C65.5297 45.2757 75.1361 44.4694 74.13 43.1049C73.1169 41.7404 70.45 41.7129 66.1568 42.7741C61.8635 43.8354 53.8765 47.2328 53.3596 48.4043C52.8428 49.5758 57.5427 53.7726 59.7616 53.3316V53.3178Z" fill="#EDA18A"/>
<path d="M108.269 53.3731C108.269 53.3731 103.996 50.2514 100.943 50.2307C98.5245 50.2169 94.7343 51.2713 92.5291 49.7414C89.7795 47.8326 101.267 46.8816 100.399 46.792C99.5307 46.7024 88.8216 47.0332 90.9717 45.2276C93.1218 43.4221 97.2014 43.4015 99.2964 43.3463C99.2964 43.3463 89.6555 43.0362 90.5996 41.6166C91.5368 40.2039 94.2037 40.0316 98.5383 40.8724C102.873 41.7131 109.923 45.3103 110.502 46.4543C111.08 47.5983 110.508 53.6901 108.269 53.3663V53.3731Z" fill="#EDA18A"/>
<path d="M68.8649 44.9658C66.956 38.805 59.1688 40.7346 58.8381 40.8242L58.6038 39.9145C58.6933 39.8938 67.5969 37.6679 69.7676 44.6902L68.8649 44.9658Z" fill="#352B4C"/>
<path d="M73.6331 46.1923C66.0389 44.1594 56.6186 45.8064 56.5221 45.8202L56.3567 44.8899C56.7495 44.821 66.0734 43.1946 73.8743 45.2758L73.6331 46.1854V46.1923Z" fill="#352B4C"/>
<path d="M60.9533 51.4435L60.2849 50.775C65.0192 46.0476 73.2612 48.5629 73.6126 48.6732L73.3301 49.5759C73.2474 49.5484 65.2811 47.1226 60.9533 51.4435Z" fill="#352B4C"/>
<path d="M59.761 53.3177C59.761 53.3177 42.1193 82.1439 30.7625 82.9364C23.8023 83.4257 16.9179 81.9372 19.4677 71.2763C21.0389 64.7365 57.9348 44.2419 58.941 45.7304C59.9471 47.2189 59.761 53.3108 59.761 53.3108V53.3177Z" fill="#EDA18A"/>
<path d="M108.483 87.7811C108.483 87.7811 133.877 66.5835 137.288 68.0996C140.692 69.6157 148.438 75.1769 146.143 79.9043C143.849 84.6318 126.786 106.518 122.245 105.099C117.703 103.679 106.622 89.5935 108.49 87.7811H108.483Z" fill="#EDA18A"/>
<path d="M107.435 52.7666C107.435 52.7666 125.077 81.5928 136.433 82.3853C143.394 82.8746 149.61 81.3309 147.06 70.6701C145.489 64.1303 109.489 44.4901 108.482 45.9787C107.476 47.4672 107.435 52.7597 107.435 52.7597V52.7666Z" fill="#EDA18A"/>
<path d="M73.7436 90.069C73.7436 90.069 56.033 81.324 52.9112 83.412C49.7895 85.5001 32.1892 96.5675 33.8913 101.963C35.5934 107.359 49.7068 118.875 53.0146 120.639C56.3224 122.403 74.3569 94.3278 73.7436 90.0759V90.069Z" fill="#AA3570"/>
<path d="M98.0352 90.0069C98.0352 90.0069 113.355 79.2427 116.476 81.3308C119.598 83.4188 138.804 94.376 137.102 99.7718C135.4 105.168 121.383 118.874 118.075 120.639C114.767 122.403 97.4219 94.2657 98.0352 90.0069Z" fill="#AA3570"/>
<path d="M95.5134 44.0213L95.0448 43.2012C99.3863 40.7066 105.878 41.4991 106.147 41.5336L106.03 42.4708C105.967 42.4639 99.5793 41.6783 95.5134 44.0144V44.0213Z" fill="#352B4C"/>
<path d="M107.477 48.7628C102.439 44.8968 95.2999 48.0737 95.231 48.1081L94.8382 47.2536C95.1552 47.1089 102.563 43.808 108.049 48.0185L107.477 48.7628Z" fill="#352B4C"/>
<path d="M124.402 47.8873C122.493 47.8873 120.984 46.4884 119.509 45.117C119.033 44.676 118.551 44.2281 118.041 43.8146C115.305 41.5818 112.473 43.2495 112.356 43.3253L111.867 42.519C111.901 42.4984 115.381 40.4241 118.641 43.0841C119.164 43.5183 119.667 43.98 120.15 44.4279C122.479 46.5918 124.326 48.2939 127.689 45.3858L128.302 46.0956C126.807 47.3843 125.532 47.8805 124.395 47.8805L124.402 47.8873Z" fill="#352B4C"/>
<path d="M104.927 30.0048L104.1 29.5568C104.12 29.5224 106.105 25.9802 110.254 26.6694C110.922 26.7796 111.584 26.9312 112.231 27.0828C115.332 27.7926 117.779 28.3577 119.247 24.1541L120.136 24.4642C118.385 29.4603 115.146 28.7161 112.018 27.9994C111.384 27.8547 110.743 27.71 110.095 27.5997C106.581 27.0139 104.94 29.9772 104.92 30.0048H104.927Z" fill="#352B4C"/>
<path d="M141.561 40.2178C139.576 40.2178 138.081 38.7155 136.62 37.2476C136.165 36.7859 135.697 36.3173 135.207 35.8832C132.554 33.5264 129.577 35.1389 129.55 35.1527L129.095 34.3326C129.129 34.312 132.699 32.3824 135.841 35.1803C136.344 35.6282 136.827 36.1106 137.295 36.5861C139.535 38.8464 141.306 40.6244 144.793 37.861L145.379 38.5983C143.904 39.7699 142.664 40.2247 141.568 40.2247L141.561 40.2178Z" fill="#352B4C"/>
<path d="M19.6334 37.4402L18.7858 37.0267C21.1288 32.2786 24.2506 33.4088 27.2689 34.5045C27.8754 34.725 28.4956 34.9524 29.1296 35.1316C32.5408 36.1308 34.5392 33.395 34.5599 33.3674L35.3248 33.9187C35.3248 33.9187 32.906 37.2197 28.8677 36.0344C28.213 35.8414 27.5721 35.614 26.9519 35.3866C23.9611 34.3046 21.5974 33.457 19.6334 37.4402Z" fill="#352B4C"/>
<path d="M33.0509 49.9616C31.9139 49.9616 30.639 49.4654 29.1436 48.1767L29.7569 47.4669C33.1198 50.375 34.9667 48.666 37.2959 46.509C37.7783 46.0611 38.2814 45.5994 38.8051 45.1652C42.0647 42.4983 45.5448 44.5795 45.5793 44.6002L45.09 45.4064C44.9728 45.3375 42.1405 43.6629 39.4047 45.8957C38.8947 46.3092 38.4123 46.7571 37.9368 47.1982C36.4621 48.5695 34.9529 49.9685 33.044 49.9685L33.0509 49.9616Z" fill="#352B4C"/>
<path d="M55.7503 29.6535C55.6814 29.5294 54.0619 26.6627 50.575 27.2415C49.9272 27.3449 49.2863 27.4965 48.6523 27.6412C45.5236 28.3579 42.2847 29.1022 40.5344 24.106L41.4233 23.7959C42.8912 27.9927 45.3376 27.4345 48.4387 26.7247C49.0795 26.58 49.748 26.4215 50.4165 26.3112C54.565 25.6221 56.5497 29.1573 56.5704 29.1987L55.7434 29.6535H55.7503Z" fill="#352B4C"/>
<path d="M77.4652 36.7307C73.868 35.2491 71.8971 33.2644 71.6077 30.8387C71.0219 25.8839 77.7133 21.0048 78.0028 20.7981L78.5541 21.563C78.492 21.6113 72.028 26.3249 72.5449 30.7353C72.7861 32.8027 74.564 34.5255 77.8236 35.8624L77.4652 36.7376V36.7307Z" fill="#352B4C"/>
<path d="M84.7835 106.491C73.7437 106.491 69.6503 95.782 69.6089 95.6718L70.491 95.341C70.6564 95.7889 74.6809 106.291 85.9344 105.506C97.1052 104.741 97.6909 93.7215 97.7047 93.2529L98.6488 93.2874C98.6488 93.4114 98.0217 105.616 85.9964 106.443C85.5829 106.47 85.1763 106.484 84.7835 106.484V106.491Z" fill="#352B4C"/>
<path d="M123.781 116.718C121.886 108.586 117.42 102.232 117.372 102.17L118.137 101.626C118.185 101.688 122.754 108.193 124.698 116.504L123.781 116.718Z" fill="#352B4C"/>
<path d="M49.0452 118.303L48.108 118.234C48.1287 117.945 48.6731 111.095 51.1678 105.575L52.0292 105.961C49.5965 111.336 49.0521 118.234 49.0521 118.31L49.0452 118.303Z" fill="#352B4C"/>
<path d="M80.0978 72.9096C80.0978 72.9096 81.9378 67.4173 85.6867 70.1807C89.4355 72.9441 88.3467 74.5635 85.0389 75.3905C81.7242 76.2174 79.4018 74.3637 80.0978 72.9096Z" fill="#F7ECE9"/>
</g>
</svg>
