<svg width="164" height="164" viewBox="0 0 164 164" fill="none" xmlns="http://www.w3.org/2000/svg">
<g clip-path="url(#clip0_20_36533)">
<path d="M82.0725 163.818C127.085 163.818 163.576 127.328 163.576 82.3152C163.576 37.3022 127.085 0.812012 82.0725 0.812012C37.0595 0.812012 0.569305 37.3022 0.569305 82.3152C0.569305 127.328 37.0595 163.818 82.0725 163.818Z" fill="#BFDEEF"/>
<path d="M142.075 71.0754L119.561 62.4751C116.288 61.2278 112.594 62.8817 111.34 66.1481C110.093 69.4215 111.747 73.1152 115.013 74.3694L137.527 82.9698C140.8 84.2171 144.494 82.5632 145.748 79.2967C146.996 76.0233 145.342 72.3296 142.075 71.0754Z" fill="white"/>
<path d="M142.075 71.0755L130.815 66.7754L126.274 78.6697L137.534 82.9699C140.807 84.2172 144.501 82.5633 145.755 79.2968C147.003 76.0235 145.349 72.3298 142.082 71.0755H142.075Z" fill="#7BB7FF"/>
<path opacity="0.09" d="M138.643 80.0549L116.13 71.4546C113.359 70.4002 111.754 67.5817 112.077 64.7632C111.781 65.1836 111.533 65.6453 111.34 66.1483C110.093 69.4217 111.747 73.1154 115.013 74.3696L137.527 82.9699C140.8 84.2173 144.494 82.5634 145.748 79.2969C145.941 78.7938 146.065 78.2839 146.12 77.7739C144.487 80.0963 141.407 81.1231 138.636 80.0618L138.643 80.0549Z" fill="#243B9B"/>
<path opacity="0.31" d="M139.029 71.7716L120.436 64.6736C119.919 64.4737 119.334 64.7356 119.134 65.2525C118.934 65.7693 119.196 66.3551 119.713 66.5549L138.305 73.6529C138.822 73.8528 139.408 73.5909 139.608 73.0741C139.808 72.5572 139.546 71.9715 139.029 71.7716Z" fill="white"/>
<path d="M122.434 31.4093C120.208 27.7845 115.419 26.6474 111.801 28.8733L86.8684 44.2064C83.2436 46.4323 82.1065 51.2217 84.3324 54.8396C86.5583 58.4645 91.3477 59.6015 94.9656 57.3756L119.898 42.0425C123.523 39.8167 124.66 35.0272 122.434 31.4093Z" fill="#FFDE1A"/>
<path d="M111.795 28.8733L99.3282 36.5433L107.432 49.7125L119.899 42.0425C123.524 39.8167 124.661 35.0272 122.435 31.4093C120.209 27.7845 115.419 26.6474 111.801 28.8733H111.795Z" fill="#FF766C"/>
<path opacity="0.15" d="M121.242 29.9209C122.269 33.2149 120.987 36.9362 117.921 38.8244L92.988 54.1575C89.9214 56.0457 86.021 55.5151 83.547 53.1101C83.7331 53.7096 83.9949 54.2885 84.3395 54.8467C86.5654 58.4715 91.3548 59.6085 94.9727 57.3826L119.905 42.0496C123.53 39.8237 124.667 35.0342 122.441 31.4163C122.097 30.8581 121.697 30.3619 121.249 29.9278L121.242 29.9209Z" fill="#AD0000"/>
<path opacity="0.31" d="M110.216 32.3186L89.6245 44.9848C89.0525 45.3362 88.8733 46.0943 89.2248 46.6663C89.5762 47.2382 90.3343 47.4174 90.9063 47.066L111.497 34.3998C112.069 34.0483 112.249 33.2903 111.897 32.7183C111.546 32.1463 110.788 31.9672 110.216 32.3186Z" fill="white"/>
<path d="M122.07 95.9462C114.572 90.4332 104.021 92.0388 98.5084 99.5434C92.9954 107.041 94.6011 117.592 102.106 123.105C109.603 128.618 120.154 127.012 125.667 119.507C131.18 112.01 129.574 101.459 122.07 95.9462Z" fill="white"/>
<path d="M123.544 111.617C118.031 119.115 107.48 120.727 99.9827 115.214C97.9636 113.733 96.3786 111.879 95.2346 109.825C95.3242 114.897 97.6948 119.873 102.098 123.112C109.596 128.625 120.147 127.019 125.66 119.515C129.691 114.036 129.912 106.924 126.81 101.342C126.872 104.905 125.818 108.523 123.537 111.617H123.544Z" fill="#EAF5F9"/>
<path d="M110.251 96.8353C109.906 95.9739 108.928 95.5604 108.067 95.9119C107.205 96.2564 106.792 97.235 107.143 98.0964L115.709 119.266C116.054 120.128 117.032 120.541 117.893 120.19C118.755 119.845 119.168 118.867 118.817 118.005L110.244 96.8353H110.251Z" fill="#EAF5F9"/>
<path d="M78.0754 74.7212C78.041 71.5581 76.8419 68.519 74.6849 66.1967C71.8664 63.1576 68.0486 58.7817 66.567 55.8873C64.7339 52.3107 51.6887 52.2212 50.4828 56.0527C49.7385 58.4302 45.6864 63.1852 42.6818 66.493C40.518 68.8705 39.3396 71.9853 39.374 75.1967L39.9253 127.708C39.9529 130.113 41.9238 132.043 44.3288 132.022L74.3197 131.712C76.7247 131.685 78.6543 129.714 78.6267 127.309L78.0754 74.7212Z" fill="#243B9B"/>
<path d="M78.0754 74.7209C78.0409 71.5578 76.8419 68.5187 74.6849 66.1964C71.8664 63.1573 68.0486 58.7814 66.567 55.887C65.4299 53.668 59.9858 52.7928 55.727 53.3579C57.5601 55.9766 60.2821 59.0639 62.4253 61.3794C64.5754 63.7017 65.7814 66.7408 65.8158 69.9039C65.8158 69.9039 69.3648 114.153 65.8985 121.003C60.3166 132.043 39.9184 127.122 39.9184 127.122V127.708C39.9528 130.113 41.9169 132.043 44.3288 132.015L74.3196 131.705C76.7247 131.677 78.6543 129.706 78.6267 127.301L78.0754 74.714V74.7209Z" fill="#1B2C89"/>
<path d="M66.5672 55.8937C64.7342 52.3171 51.689 52.2275 50.483 56.0591C50.29 56.6724 49.8834 57.4373 49.3253 58.2918L67.9248 58.0989C67.3735 57.3064 66.9049 56.5552 66.5603 55.8868L66.5672 55.8937Z" fill="#0A1A60"/>
<path d="M59.2475 24.6591L56.6358 24.6865C54.2116 24.7118 52.2669 26.6977 52.2923 29.1219L52.4205 41.3671C52.4459 43.7913 54.4318 45.736 56.856 45.7106L59.4677 45.6832C61.8919 45.6579 63.8366 43.672 63.8112 41.2478L63.683 29.0026C63.6576 26.5784 61.6717 24.6337 59.2475 24.6591Z" fill="white"/>
<path d="M63.6861 29.0038C63.6586 26.5781 61.6739 24.6348 59.2481 24.6554L57.9732 24.6692C59.3584 25.3997 60.3025 26.84 60.3232 28.5146L60.4541 40.7604C60.4817 43.1861 58.5314 45.1708 56.1057 45.1983L54.7757 45.2121C55.4028 45.5429 56.1126 45.7221 56.8638 45.7152L59.4687 45.6876C61.8944 45.6601 63.8377 43.6754 63.8171 41.2496L63.6861 29.0038Z" fill="#F0F9FC"/>
<path d="M63.7854 38.8075L52.3947 38.9268L52.4431 43.5506L63.8338 43.4313L63.7854 38.8075Z" fill="#EAF5F9"/>
<path d="M65.251 39.9888L50.9585 40.1404C49.2632 40.1611 47.8987 41.5462 47.9194 43.2483L48.0435 54.9429L68.483 54.7292L68.359 43.0347C68.3383 41.3395 66.9531 39.975 65.251 39.9957V39.9888Z" fill="white"/>
<path d="M65.2509 39.9891L59.8275 40.0442C61.3711 40.0304 62.6391 41.2708 62.6529 42.8145L62.7494 52.2693L48.0089 52.4209L48.0365 54.9293L68.476 54.7157L68.352 43.0212C68.3313 41.326 66.9461 39.9615 65.244 39.9822L65.2509 39.9891Z" fill="#EAF5F9"/>
<path d="M68.8342 53.0889L47.6573 53.3094C46.658 53.3232 45.8586 54.1364 45.8655 55.1356C45.8793 56.1349 46.6925 56.9342 47.6917 56.9274L68.8686 56.7068C69.8678 56.6931 70.6672 55.8799 70.6603 54.8806C70.6466 53.8814 69.8334 53.082 68.8342 53.0889Z" fill="white"/>
<path d="M48.2779 77.4708C48.2641 76.2923 47.2924 75.3413 46.1209 75.3551C44.9425 75.3689 43.9915 76.3406 44.0053 77.5121L44.4394 119.094C44.4532 120.272 45.4249 121.223 46.5964 121.21C47.7748 121.196 48.7258 120.224 48.712 119.053L48.2779 77.4708Z" fill="#4465CC"/>
<path d="M49.793 64.4943C48.6215 64.0326 47.0847 65.1352 46.3612 66.9545C45.6445 68.7738 46.0097 70.6275 47.1812 71.0961C48.3527 71.5647 49.8895 70.4552 50.6131 68.6359C51.3298 66.8166 50.9645 64.9629 49.793 64.4943Z" fill="#4465CC"/>
<path d="M73.6098 83.9216L44.1236 84.2304C43.4767 84.2372 42.9577 84.7672 42.9644 85.4141L43.2073 108.602C43.2141 109.249 43.744 109.768 44.391 109.761L73.8772 109.452C74.5241 109.446 75.0431 108.916 75.0364 108.269L74.7935 85.0808C74.7867 84.4338 74.2568 83.9148 73.6098 83.9216Z" fill="#E4F3F9"/>
<path d="M74.7954 85.0787C74.7954 84.4309 74.2579 83.9141 73.6101 83.921L66.3812 83.9968C66.5466 87.9661 66.6706 92.0113 66.7464 96.1254C66.8291 100.681 66.8567 105.146 66.8291 109.522L73.8789 109.446C74.5267 109.446 75.0435 108.909 75.0366 108.261L74.7954 85.0718V85.0787Z" fill="#B2DCED"/>
<path d="M48.6656 84.1834L44.1245 84.231L44.3918 109.762L48.933 109.714L48.6656 84.1834Z" fill="#F8FDFF"/>
<path d="M74.8176 87.3903L42.9885 87.7236L43.0078 89.5635L74.8368 89.2302L74.8176 87.3903Z" fill="#F4D41E"/>
<path d="M48.7087 87.6639L44.1194 87.7119L44.1387 89.5518L48.728 89.5037L48.7087 87.6639Z" fill="#FFE04A"/>
<path d="M74.8229 87.3901L66.4229 87.478L66.4421 89.3179L74.8422 89.2299L74.8229 87.3901Z" fill="#F4CA19"/>
<path d="M74.9983 104.595L43.1692 104.929L43.1885 106.769L75.0175 106.435L74.9983 104.595Z" fill="#FF766C"/>
<path d="M48.8755 104.875L44.3069 104.923L44.3261 106.763L48.8948 106.715L48.8755 104.875Z" fill="#FF928F"/>
<path d="M74.9962 104.595L66.7823 104.681L66.8015 106.521L75.0155 106.435L74.9962 104.595Z" fill="#F76C69"/>
<path d="M53.1773 92.004L47.7263 92.0592C47.3128 92.0592 46.9751 92.321 46.982 92.6312C46.982 92.9413 47.3266 93.1962 47.74 93.1893L53.1911 93.1342C53.6045 93.1342 53.9422 92.8723 53.9353 92.5622C53.9353 92.2521 53.5907 91.9972 53.1773 92.004Z" fill="#90AFBF"/>
<path d="M57.3047 94.8707L47.7602 94.9672C47.3468 94.9672 47.0091 95.2291 47.016 95.5392C47.016 95.8493 47.3605 96.1043 47.774 96.0974L57.3184 96.0009C57.7319 96.0009 58.0696 95.739 58.0627 95.4289C58.0627 95.1188 57.7181 94.8639 57.3047 94.8707Z" fill="#90AFBF"/>
<path d="M57.3669 101.156L47.8225 101.252C47.409 101.252 47.0713 101.514 47.0782 101.824C47.0782 102.134 47.4228 102.389 47.8363 102.383L57.3807 102.286C57.7942 102.286 58.1318 102.024 58.1249 101.714C58.1249 101.404 57.7804 101.149 57.3669 101.156Z" fill="#90AFBF"/>
<path d="M53.2396 97.8893L47.7885 97.9444C47.3751 97.9444 47.0374 98.2063 47.0443 98.5164C47.0443 98.8265 47.3889 99.0815 47.8023 99.0746L53.2533 99.0195C53.6668 99.0195 54.0045 98.7576 53.9976 98.4475C53.9976 98.1374 53.653 97.8824 53.2396 97.8893Z" fill="#90AFBF"/>
<path d="M63.0521 97.7858L57.6011 97.8409C57.1876 97.8409 56.8499 98.1028 56.8568 98.4129C56.8568 98.723 57.2014 98.978 57.6148 98.9711L63.0658 98.916C63.4793 98.916 63.817 98.6541 63.8101 98.344C63.8101 98.0339 63.4655 97.7789 63.0521 97.7858Z" fill="#90AFBF"/>
<path d="M64.4375 91.8869L56.0853 91.9764C55.6718 91.9764 55.3342 92.2383 55.341 92.5484C55.341 92.8585 55.6856 93.1135 56.0991 93.1066L64.4513 93.017C64.8648 93.017 65.2025 92.7552 65.1956 92.445C65.1956 92.1349 64.851 91.88 64.4375 91.8869Z" fill="#90AFBF"/>
<path d="M69.3164 101.032L60.6678 101.121C60.0063 101.128 59.4756 101.39 59.4825 101.7C59.4825 102.01 60.02 102.259 60.6816 102.252L69.3302 102.162C69.9917 102.155 70.5224 101.893 70.5155 101.583C70.5155 101.273 69.9779 101.025 69.3164 101.032Z" fill="#90AFBF"/>
<path d="M70.1028 97.7789L65.3341 97.8272C65.1273 97.8272 64.9619 98.0822 64.9619 98.3992C64.9619 98.7093 65.1342 98.9642 65.341 98.9573L70.1097 98.9091C70.3165 98.9091 70.4819 98.6541 70.4819 98.3371C70.4819 98.027 70.3096 97.7721 70.1028 97.7789Z" fill="#90AFBF"/>
<path d="M70.0888 91.8252L65.9403 91.8665C65.7611 91.8665 65.6164 92.1215 65.6164 92.4385C65.6164 92.7555 65.768 93.0036 65.9471 93.0036L70.0957 92.9623C70.2749 92.9623 70.4196 92.7073 70.4196 92.3903C70.4196 92.0733 70.268 91.8252 70.0888 91.8252Z" fill="#90AFBF"/>
<path d="M70.4539 95.3674C70.4539 95.0573 69.9164 94.8092 69.2548 94.8161L60.6063 94.9056C59.9447 94.9056 59.4141 95.1744 59.421 95.4845C59.421 95.7946 59.9585 96.0427 60.6201 96.0358L69.2686 95.9462C69.9302 95.9462 70.4608 95.6775 70.4539 95.3674Z" fill="#90AFBF"/>
</g>
<defs>
<clipPath id="clip0_20_36533">
<rect width="163.013" height="163.013" fill="white" transform="translate(0.569077 0.812012)"/>
</clipPath>
</defs>
</svg>
