<svg width="164" height="164" viewBox="0 0 164 164" fill="none" xmlns="http://www.w3.org/2000/svg">
<path d="M82.0759 163.231C127.089 163.231 163.579 126.741 163.579 81.7283C163.579 36.7153 127.089 0.225098 82.0759 0.225098C37.063 0.225098 0.572754 36.7153 0.572754 81.7283C0.572754 126.741 37.063 163.231 82.0759 163.231Z" fill="#BFDEEF"/>
<path d="M138.309 36.8662H32.3623V103.553H138.309V36.8662Z" fill="#181860"/>
<path d="M136.069 96.7165V39.1123L34.6159 39.1123V96.7165H136.069Z" fill="#6848C1"/>
<path d="M149.479 120.306H21.1983L32.3622 103.553H138.309L149.479 120.306Z" fill="#3D5586"/>
<path d="M149.479 120.306H21.1983V121.925H149.479V120.306Z" fill="#06063D"/>
<path d="M136.062 113.566H34.6087L39.5773 104.938H131.638L136.062 113.566Z" fill="#06063D"/>
<path d="M35.3322 113.566L39.9355 105.565H131.252L135.359 113.566H35.3322Z" fill="#12295B"/>
<path d="M35.3322 113.566L39.9355 105.565H131.252L135.359 113.566H35.3322Z" fill="#12295B"/>
<path d="M35.3322 113.566L39.9355 105.565H131.252L135.359 113.566H35.3322Z" fill="#12295B"/>
<path d="M109.021 119.582H62.05L63.7315 113.945H107.346L109.021 119.582Z" fill="#1C1C70"/>
<path d="M62.6839 119.582L64.2 114.49H106.878L108.394 119.582H62.6839Z" fill="#173475"/>
<path d="M124.141 107.302L123.328 105.565H117.27L117.946 107.302H124.141Z" fill="#284372"/>
<path d="M124.934 107.805H117.601L116.54 105.069H123.645L124.934 107.805ZM118.283 106.799H123.349L123.004 106.069H118.001L118.283 106.799Z" fill="#181860"/>
<path d="M111.055 107.302L110.421 105.565H103.302L103.847 107.302H111.055Z" fill="#284372"/>
<path d="M111.771 107.805H103.481L102.627 105.069H110.779L111.778 107.805H111.771ZM104.218 106.799H110.338L110.069 106.069H103.984L104.212 106.799H104.218Z" fill="#181860"/>
<path d="M117.946 107.302L117.27 105.565H110.42L111.054 107.302H117.946Z" fill="#284372"/>
<path d="M118.676 107.805H110.696L109.697 105.069H117.608L118.669 107.805H118.676ZM111.399 106.799H117.208L116.926 106.069H111.137L111.406 106.799H111.399Z" fill="#181860"/>
<path d="M106.81 107.302L107.85 110.616H115.224L114.018 107.302H106.81Z" fill="#284372"/>
<path d="M115.94 111.12H107.484L106.134 106.799H114.376L115.947 111.12H115.94ZM108.222 110.114H114.507L113.666 107.805H107.491L108.215 110.114H108.222Z" fill="#181860"/>
<path d="M132.148 107.302L131.252 105.565H123.327L124.141 107.302H132.148Z" fill="#284372"/>
<path d="M132.968 107.805H123.824L122.535 105.069H131.562L132.968 107.805ZM124.464 106.799H131.328L130.956 106.069H124.127L124.471 106.799H124.464Z" fill="#181860"/>
<path d="M90.6758 107.302L90.4277 105.565H84.2118V107.302H90.6758Z" fill="#284372"/>
<path d="M91.2549 107.805H83.7158V105.069H90.869L91.2549 107.805ZM84.7151 106.799H90.0971L89.9938 106.069H84.7151V106.799Z" fill="#181860"/>
<path d="M84.2133 107.302V105.565H77.9973L77.7492 107.302H84.2133Z" fill="#284372"/>
<path d="M84.7163 107.805H77.1772L77.5631 105.069H84.7163V107.805ZM78.3281 106.799H83.7101V106.069H78.4314L78.3281 106.799Z" fill="#181860"/>
<path d="M97.0651 107.302L96.6309 105.565H90.4288L90.6769 107.302H97.0651Z" fill="#284372"/>
<path d="M97.7061 107.805H90.2359L89.85 105.069H97.0169L97.7061 107.805ZM91.1111 106.799H96.4174L96.2313 106.069H91.0008L91.1042 106.799H91.1111Z" fill="#181860"/>
<path d="M103.846 107.302L103.302 105.565H96.6313L97.0655 107.302H103.846Z" fill="#284372"/>
<path d="M104.528 107.805H96.6724L95.9832 105.069H103.667L104.522 107.805H104.528ZM97.458 106.799H103.164L102.937 106.069H97.2788L97.4649 106.799H97.458Z" fill="#181860"/>
<path d="M68.5348 107.302H59.5348L58.3288 110.616H67.4942H74.482L75.3158 107.302H68.5348Z" fill="#284372"/>
<path d="M74.8748 111.12H57.6121L59.1833 106.799H75.9636L74.8748 111.12ZM59.0455 110.114H74.0961L74.6749 107.805H59.8862L59.0455 110.114Z" fill="#181860"/>
<path d="M61.5603 106.827H52.5603L51.3543 110.141H60.5197H67.5075L68.3413 106.827H61.5603Z" fill="#284372"/>
<path d="M67.9003 110.645H50.6376L52.2088 106.324H68.9891L67.9003 110.645ZM52.071 109.638H67.1216L67.7004 107.33H52.9118L52.071 109.638Z" fill="#181860"/>
<path d="M52.636 107.302H46.4408L44.8765 110.616H51.3543H58.3282L59.5342 107.302H52.636Z" fill="#284372"/>
<path d="M58.6799 111.12H44.0911L46.124 106.799H60.2511L58.6799 111.12ZM45.6692 110.114H57.977L58.8178 107.805H46.758L45.6692 110.114Z" fill="#181860"/>
<path d="M52.6368 107.302H46.4415L44.8772 110.616H51.355H52.1131L53.5947 107.302H52.6368Z" fill="#284372"/>
<path d="M52.4369 111.12H44.0846L46.1176 106.799H54.3664L52.43 111.12H52.4369ZM45.6696 110.114H51.7891L52.8228 107.805H46.7584L45.6696 110.114Z" fill="#181860"/>
<path d="M73.5518 107.302H67.1635L66.3228 110.616H73.0832H80.0089V107.302H73.5518Z" fill="#284372"/>
<path d="M80.5122 111.12H65.6821L66.7709 106.799H80.5191V111.12H80.5122ZM66.9708 110.114H79.5129V107.805H67.5566L66.9777 110.114H66.9708Z" fill="#181860"/>
<path d="M77.7487 107.302L77.9968 105.565H71.8015L71.3605 107.302H77.7487Z" fill="#284372"/>
<path d="M78.1898 107.805H70.7197L71.4088 105.069H78.5758L78.1898 107.805ZM72.0084 106.799H77.3147L77.418 106.069H72.1875L72.0015 106.799H72.0084Z" fill="#181860"/>
<path d="M100.118 107.302L100.951 110.616H107.939L106.899 107.302H100.118Z" fill="#284372"/>
<path d="M108.622 111.12H100.566L99.4769 106.799H107.271L108.622 111.12ZM101.344 110.114H107.257L106.534 107.805H100.766L101.344 110.114Z" fill="#181860"/>
<path d="M124.141 107.302L125.705 110.616H133.843L132.148 107.302H124.141Z" fill="#284372"/>
<path d="M134.671 111.12H125.388L123.355 106.799H132.452L134.664 111.12H134.671ZM126.029 110.114H133.031L131.845 107.805H124.94L126.029 110.114Z" fill="#181860"/>
<path d="M57.378 107.302L58.0051 105.565H51.1552L50.4799 107.302H57.378Z" fill="#284372"/>
<path d="M57.7299 107.805H49.7498L50.811 105.069H58.7222L57.723 107.805H57.7299ZM51.2176 106.799H57.0269L57.2957 106.069H51.507L51.2245 106.799H51.2176Z" fill="#181860"/>
<path d="M50.4808 107.302L51.1562 105.565H45.0987L44.2856 107.302H50.4808Z" fill="#284372"/>
<path d="M50.8251 107.805H43.4928L44.7815 105.069H51.8864L50.8251 107.805ZM45.0709 106.799H50.136L50.4185 106.069H45.4155L45.0709 106.799Z" fill="#181860"/>
<path d="M45.0975 105.565H39.9359L38.9366 107.302H44.2843L45.0975 105.565Z" fill="#284372"/>
<path d="M44.6013 107.805H38.0752L39.6533 105.069H45.8968L44.6082 107.805H44.6013ZM39.805 106.799H43.9604L44.305 106.069H40.2253L39.805 106.799Z" fill="#181860"/>
<path d="M64.5796 107.302L65.124 105.565H58.0053L57.3782 107.302H64.5796Z" fill="#284372"/>
<path d="M64.9517 107.805H56.6615L57.6607 105.069H65.8131L64.9586 107.805H64.9517ZM58.0949 106.799H64.2143L64.4417 106.069H58.3567L58.088 106.799H58.0949Z" fill="#181860"/>
<path d="M46.4408 107.302H38.9362L37.0342 110.616H44.8765L46.4408 107.302Z" fill="#284372"/>
<path d="M45.1938 111.12H36.1593L38.6471 106.799H47.2267L45.1938 111.12ZM37.8959 110.114H44.5529L45.6417 107.805H39.226L37.8959 110.114Z" fill="#181860"/>
<path d="M42.7206 110.169L41.3355 113.118H48.0545L49.1984 110.169H42.7206Z" fill="#284372"/>
<path d="M48.3988 113.622H40.5428L42.4034 109.673H49.9287L48.3988 113.622ZM42.1277 112.615H47.7166L48.4677 110.672H43.0443L42.1277 112.615Z" fill="#181860"/>
<path d="M49.1974 110.169L48.0535 113.118H55.0964L56.1714 110.169H49.1974Z" fill="#284372"/>
<path d="M55.4481 113.622H47.3233L48.8531 109.673H56.8884L55.4481 113.622ZM48.7842 112.615H54.7452L55.455 110.672H49.5423L48.7911 112.615H48.7842Z" fill="#181860"/>
<path d="M37.3385 110.169L35.6432 113.118H41.6386L43.0238 110.169H37.3385Z" fill="#284372"/>
<path d="M41.9558 113.622H34.7751L37.0492 109.673H43.8165L41.9558 113.622ZM36.5048 112.615H41.3149L42.2315 110.672H37.6212L36.5048 112.615Z" fill="#181860"/>
<path d="M63.5457 110.169H56.1721L55.097 113.118H62.6223H69.7892L70.5266 110.169H63.5457Z" fill="#284372"/>
<path d="M70.1753 113.622H54.3805L55.8208 109.673H71.1745L70.1822 113.622H70.1753ZM55.8139 112.615H69.3966L69.8859 110.672H56.5237L55.8139 112.615Z" fill="#181860"/>
<path d="M71.3602 107.302L71.8012 105.565H63.0355L62.4429 107.302H71.3602Z" fill="#284372"/>
<path d="M71.7532 107.805H61.7402L62.6774 105.069H72.4423L71.7532 107.805ZM63.146 106.799H70.9745L71.1606 106.069H63.401L63.1529 106.799H63.146Z" fill="#181860"/>
<path d="M126.573 107.302H120.55H120.371H113.659L114.865 110.616H121.653H121.839H128.131L126.573 107.302Z" fill="#284372"/>
<path d="M128.923 111.12H114.513L112.942 106.799H126.89L128.923 111.12ZM115.216 110.114H127.345L126.256 107.805H114.376L115.216 110.114Z" fill="#181860"/>
<path d="M120.468 107.302H117.291H117.194H113.659L114.293 110.616H117.877H117.973H121.288L120.468 107.302Z" fill="#284372"/>
<path d="M121.929 111.12H113.873L113.046 106.799H120.854L121.929 111.12ZM114.707 110.114H120.647L120.075 107.805H114.266L114.707 110.114Z" fill="#181860"/>
<path d="M81.2562 107.302H74.868L74.0341 110.616H80.7876H87.7202V107.302H81.2562Z" fill="#284372"/>
<path d="M88.2235 111.12H73.3934L74.4823 106.799H88.2304V111.12H88.2235ZM74.6821 110.114H87.2242V107.805H75.2679L74.689 110.114H74.6821Z" fill="#181860"/>
<path d="M100.394 107.302H93.9986H87.5415V110.616H94.4672H101.228L100.394 107.302Z" fill="#284372"/>
<path d="M101.868 111.12H87.038V106.799H100.779L101.868 111.12ZM88.0373 110.114H100.579L100.001 107.805H88.0442V110.114H88.0373Z" fill="#181860"/>
<path d="M100.813 107.302H97.6983H94.5421V110.616H97.9257H101.227L100.813 107.302Z" fill="#284372"/>
<path d="M101.792 111.12H94.0461V106.799H101.261L101.792 111.12ZM95.0453 110.114H100.655L100.372 107.805H95.0453V110.114Z" fill="#181860"/>
<path d="M87.9898 107.302H84.4545H80.878V110.616H84.7164H88.4515L87.9898 107.302Z" fill="#284372"/>
<path d="M89.03 111.12H80.3746V106.799H88.4236L89.0231 111.12H89.03ZM81.3807 110.114H87.8792L87.5553 107.805H81.3807V110.114Z" fill="#181860"/>
<path d="M77.2868 110.169L76.8733 113.118H84.2125V110.169H77.2868Z" fill="#284372"/>
<path d="M84.7158 113.622H76.2946L76.8528 109.673H84.7158V113.622ZM77.4524 112.615H83.7166V110.672H77.728L77.4524 112.615Z" fill="#181860"/>
<path d="M91.1388 110.169L91.5523 113.118H98.6434L97.8991 110.169H91.1388Z" fill="#284372"/>
<path d="M99.2844 113.622H91.1182L90.56 109.673H98.2851L99.2775 113.622H99.2844ZM91.9934 112.615H97.9957L97.5064 110.672H91.7178L91.9934 112.615Z" fill="#181860"/>
<path d="M84.2126 110.169V113.118H91.5518L91.1383 110.169H84.2126Z" fill="#284372"/>
<path d="M92.1303 113.622H83.7092V109.673H91.5722L92.1303 113.622ZM84.7153 112.615H90.9795L90.7038 110.672H84.7153V112.615Z" fill="#181860"/>
<path d="M70.5271 110.169L69.7898 113.118H76.874L77.2875 110.169H70.5271Z" fill="#284372"/>
<path d="M77.3077 113.622H69.1416L70.1339 109.673H77.859L77.3008 113.622H77.3077ZM70.4302 112.615H76.4325L76.7082 110.672H70.9195L70.4302 112.615Z" fill="#181860"/>
<path d="M97.8987 110.169L98.643 113.118H105.81L104.886 110.169H97.8987Z" fill="#284372"/>
<path d="M106.492 113.622H98.2502L97.2579 109.673H105.252L106.492 113.622ZM99.0358 112.615H105.128L104.521 110.672H98.5465L99.0358 112.615Z" fill="#181860"/>
<path d="M126.89 113.105H135.153L133.644 110.155H125.505L126.89 113.105Z" fill="#284372"/>
<path d="M135.98 113.608H126.573L124.713 109.659H133.954L135.98 113.608ZM127.214 112.602H134.34L133.341 110.658H126.298L127.214 112.602Z" fill="#181860"/>
<path d="M119.131 110.155L120.268 113.105H126.994L125.602 110.155H119.131Z" fill="#284372"/>
<path d="M127.779 113.608H119.923L118.393 109.659H125.919L127.779 113.608ZM120.612 112.602H126.201L125.285 110.658H119.861L120.612 112.602Z" fill="#181860"/>
<path d="M119.228 110.169H112.261H104.887L105.811 113.118H113.329H120.372L119.228 110.169Z" fill="#284372"/>
<path d="M121.109 113.622H105.438L104.198 109.673H119.573L121.102 113.622H121.109ZM106.176 112.615H119.641L118.89 110.672H105.569L106.176 112.615Z" fill="#181860"/>
<path d="M136.062 39.1123H135.001C134.229 45.3903 133.174 50.7103 132.189 54.9209C129.887 64.7203 128.626 69.8198 124.374 75.4776C119.102 82.486 112.39 86.1522 109.606 87.6407C109.606 87.6407 103.866 90.7004 97.1537 92.2716C90.8688 93.7395 75.9354 95.3107 54.662 96.7165H136.062V39.1123Z" fill="#4A399E"/>
<path d="M57.4671 39.1123L34.6087 65.182V77.9309L68.6447 39.1123H57.4671Z" fill="#6F57C9"/>
<path d="M36.235 40.6146H136.062V39.1123H34.6087V96.7165H36.235V40.6146Z" fill="#1C1C7F"/>
<path d="M45.5727 67.9321H21.2464C19.4424 67.9321 17.98 69.3946 17.98 71.1986V123.124C17.98 124.928 19.4424 126.391 21.2464 126.391H45.5727C47.3767 126.391 48.8391 124.928 48.8391 123.124V71.1986C48.8391 69.3946 47.3767 67.9321 45.5727 67.9321Z" fill="#1C1C70"/>
<path d="M45.5317 69.1587H21.1986C20.0682 69.1587 19.1519 70.075 19.1519 71.2054V123.124C19.1519 124.255 20.0682 125.171 21.1986 125.171H45.5317C46.6621 125.171 47.5784 124.255 47.5784 123.124V71.2054C47.5784 70.075 46.6621 69.1587 45.5317 69.1587Z" fill="#F4F8F9"/>
<path d="M19.1519 91.3969V101.224L38.4819 69.1587H31.9352L19.1519 91.3969Z" fill="white"/>
<path d="M45.6691 69.1445C46.5167 75.5052 46.82 84.8084 43.7602 95.2694C41.7962 101.975 39.2947 110.561 31.5144 117.156C27.6415 120.443 23.3758 122.455 19.2548 123.655C19.4891 124.523 20.2885 125.171 21.2326 125.171H45.5589C46.689 125.171 47.578 124.24 47.578 123.117V71.1912C47.578 70.1024 46.7442 69.2134 45.6691 69.1514V69.1445Z" fill="#E1E7EA"/>
<path d="M33.3753 121.153C32.9549 121.153 32.6172 121.491 32.6172 121.911C32.6172 122.332 32.9549 122.669 33.3753 122.669C33.7956 122.669 34.1333 122.332 34.1333 121.911C34.1333 121.491 33.7956 121.153 33.3753 121.153Z" fill="#1C1C70"/>
<path d="M29.861 121.153C29.4406 121.153 29.103 121.491 29.103 121.911C29.103 122.332 29.4406 122.669 29.861 122.669C30.2814 122.669 30.619 122.332 30.619 121.911C30.619 121.491 30.2814 121.153 29.861 121.153Z" fill="#1C1C70"/>
<path d="M36.8902 121.153C36.4699 121.153 36.1322 121.491 36.1322 121.911C36.1322 122.332 36.4699 122.669 36.8902 122.669C37.3106 122.669 37.6483 122.332 37.6483 121.911C37.6483 121.491 37.3106 121.153 36.8902 121.153Z" fill="#1C1C70"/>
</svg>
