<svg width="164" height="164" viewBox="0 0 164 164" fill="none" xmlns="http://www.w3.org/2000/svg">
<path d="M163.582 81.9094C163.582 100.888 157.098 118.344 146.223 132.195C142.261 137.246 137.719 141.815 132.689 145.798C132.523 145.929 132.358 146.06 132.193 146.191C118.369 156.983 100.975 163.413 82.0723 163.413C63.1695 163.413 45.9276 157.038 32.1381 146.329C27.9482 143.076 24.0822 139.424 20.6021 135.427C8.12199 121.1 0.569153 102.39 0.569153 81.9094C0.569153 36.8956 37.0654 0.40625 82.0723 0.40625C111.374 0.40625 137.079 15.8703 151.433 39.0939C151.571 39.3075 151.702 39.528 151.833 39.7417C157.249 48.6797 160.991 58.7409 162.631 69.4913C163.252 73.5434 163.569 77.6851 163.569 81.9094H163.582Z" fill="#BFDEEF"/>
<mask id="mask0_20_36395" style="mask-type:luminance" maskUnits="userSpaceOnUse" x="0" y="0" width="164" height="164">
<path d="M163.582 81.9094C163.582 100.888 157.098 118.344 146.223 132.195C142.261 137.246 137.719 141.815 132.689 145.798C132.523 145.929 132.358 146.06 132.193 146.191C118.369 156.983 100.975 163.413 82.0723 163.413C63.1695 163.413 45.9276 157.038 32.1381 146.329C27.9482 143.076 24.0822 139.424 20.6021 135.427C8.12199 121.1 0.569153 102.39 0.569153 81.9094C0.569153 36.8956 37.0654 0.40625 82.0723 0.40625C111.374 0.40625 137.079 15.8703 151.433 39.0939C151.571 39.3075 151.702 39.528 151.833 39.7417C157.249 48.6797 160.991 58.7409 162.631 69.4913C163.252 73.5434 163.569 77.6851 163.569 81.9094H163.582Z" fill="white"/>
</mask>
<g mask="url(#mask0_20_36395)">
<path d="M122.305 42.6175C122.305 42.6175 50.2535 39.1896 46.8039 48.1167C39.8181 66.2018 5.24277 152.925 29.4332 153.228C36.6644 153.322 98.0571 155.278 113.725 148.646C129.392 142.013 122.305 42.6103 122.305 42.6103V42.6175Z" fill="#AA3570"/>
<path d="M12.5891 117.087C12.5891 117.087 26.3658 72.2853 31.5114 63.618C36.6569 54.9507 32.2763 49.6464 35.5527 48.6C38.8291 47.5536 41.4488 53.1177 43.1592 53.5507C44.8695 53.9837 61.4463 51.2991 84.4605 56.3291C87.8956 57.0797 92.6587 52.7568 92.9906 54.9219C93.3226 57.0941 85.7306 101.65 77.7922 113.341C69.8538 125.025 72.9137 132.704 70.9796 133.353C69.0455 134.003 66.3826 129.398 66.3826 129.398C66.3826 129.398 28.17 118.458 23.2626 120.356C18.3553 122.254 12.5602 125.805 11.355 124.52C10.1499 123.235 12.5963 117.087 12.5963 117.087H12.5891Z" fill="#F9BC64"/>
<path d="M33.2575 93.4884C33.2575 93.4884 34.7947 99.2979 41.3114 104.703C46.262 108.81 51.3282 107.265 56.0407 114.937C60.7604 122.608 63.8203 126.058 69.7308 121.417C75.6413 116.777 71.4917 112.692 76.8104 111.278C82.1292 109.856 86.5314 108.196 87.0221 101.42C87.5201 94.6431 81.891 94.9173 89.1294 93.2142C96.3678 91.511 94.7729 83.7459 88.8118 76.8539C82.8508 69.9619 67.8256 69.7382 61.6553 67.3278C54.4963 64.5277 28.0254 67.5948 33.2431 93.4956L33.2575 93.4884Z" fill="#352B4C"/>
<path d="M69.428 94.0224C69.428 94.0224 79.618 97.9772 82.3748 97.1617C85.1316 96.3462 84.2583 77.3013 92.2184 76.125C100.178 74.9486 120.789 83.8685 120.789 83.8685L98.1289 144.626C98.1289 144.626 73.6137 136.709 73.758 132.617C73.9023 128.526 80.419 113.926 77.655 111.054C74.891 108.182 64.8598 106.284 64.8598 106.284L69.4352 94.0224H69.428Z" fill="#CC5D6C"/>
<path d="M40.1426 94.4338C40.1426 94.4338 60.3062 117.159 73.2169 103.592C81.3934 95.0039 68.959 78.2899 59.7793 74.5589C50.5997 70.8206 39.1395 84.2726 40.1354 94.441L40.1426 94.4338Z" fill="#EDA18A"/>
<path d="M65.6887 87.2067C66.1181 86.7353 65.9766 85.9071 65.3725 85.3569C64.7685 84.8067 63.9307 84.7428 63.5013 85.2142C63.0718 85.6857 63.2134 86.5139 63.8174 87.0641C64.4215 87.6143 65.2593 87.6782 65.6887 87.2067Z" fill="#2E1F35"/>
<path d="M56.619 99.8674C57.0484 99.3959 56.9069 98.5677 56.3028 98.0175C55.6988 97.4673 54.861 97.4034 54.4316 97.8749C54.0021 98.3463 54.1437 99.1746 54.7477 99.7248C55.3518 100.275 56.1896 100.339 56.619 99.8674Z" fill="#2E1F35"/>
<path d="M68.0784 84.0273C68.0784 84.0273 65.1628 78.7519 68.7134 78.5354C72.2568 78.3189 75.4394 85.0088 73.7724 86.7913C72.1125 88.5811 69.031 86.4377 68.0784 84.0273Z" fill="#EDA18A"/>
<path d="M50.939 102.51C50.939 102.51 46.5657 99.6374 46.6956 103.188C46.8255 106.739 54.0639 108.492 55.6732 106.659C57.2897 104.833 53.436 103.217 50.939 102.51Z" fill="#EDA18A"/>
<path d="M36.6205 87.4844C36.6205 87.4844 41.5351 90.2412 42.8197 93.1279C44.1042 96.0145 51.7323 101.571 49.3652 101.716C46.9981 101.86 33.5317 96.8156 36.6205 87.4844Z" fill="#352B4C"/>
<path d="M35.2931 89.0069C35.2931 89.0069 39.1108 103.765 42.6686 102.242C46.2265 100.72 54.0422 93.4957 53.0968 89.7358C52.1442 85.9831 46.4791 83.1108 46.4791 83.1108C46.4791 83.1108 51.7689 86.8491 56.2722 85.4491C60.7754 84.049 63.9147 74.2126 62.3703 74.1765C60.8331 74.1404 51.3648 68.8001 43.08 74.191C34.7952 79.5819 35.2859 89.0069 35.2859 89.0069H35.2931Z" fill="#352B4C"/>
<path d="M123.113 149.144C113.804 143.984 92.6369 125.819 92.4276 125.632L92.9111 125.076C93.1204 125.257 114.237 143.378 123.474 148.502L123.12 149.151L123.113 149.144Z" fill="white"/>
<path d="M169.805 72.8415C167.597 94.4844 159.298 122.262 152.615 138.506C148.466 143.796 143.71 148.581 138.442 152.752C138.153 152.781 137.864 152.81 137.583 152.839C131.615 153.445 126.26 153.784 121.367 153.994C121.367 153.994 121.362 153.994 121.352 153.994C112.49 154.376 105.129 154.311 98.3382 154.542H98.3238C94.4051 154.679 90.6812 154.91 86.9646 155.379C86.0337 155.495 85.0955 155.617 84.1573 155.747C76.4643 156.794 68.6342 157.984 63.6618 156.339C61.9731 155.79 60.6164 154.903 59.7071 153.575C58.2998 151.533 57.9534 148.437 59.0864 143.876C59.0864 143.876 59.7648 140.022 61.1721 134.184C61.5906 132.416 62.0814 130.46 62.6371 128.374C63.0556 126.794 63.5175 125.134 64.0082 123.431C64.4701 121.843 64.9681 120.212 65.5021 118.552C66.664 114.908 67.9919 111.126 69.4857 107.402C69.6445 107.005 69.8105 106.601 69.9765 106.204C70.561 104.783 71.1744 103.368 71.8023 101.983C72.6683 100.085 73.4333 97.9629 74.0972 95.6824C74.458 94.4844 74.7828 93.2287 75.0859 91.9513C76.2189 87.2244 77.0488 82.0283 77.6984 76.7818C77.9365 74.9054 78.1458 73.0435 78.3334 71.1816C78.8097 66.599 79.185 62.1174 79.5314 58.0327C79.6108 57.1306 79.683 56.2646 79.7696 55.4058C80.2819 49.6325 80.7943 44.8694 81.581 42.1199C81.9562 40.792 82.3964 39.926 82.9377 39.6517C84.2728 38.9589 86.2574 38.8723 88.8987 39.0455C93.8422 39.3703 101.102 40.6332 110.744 40.626C112.829 40.626 115.038 40.5683 117.347 40.4311C119.021 40.3301 120.681 40.2579 122.341 40.2074C122.579 40.2074 122.825 40.193 123.063 40.1858C124.015 40.1641 124.961 40.1425 125.906 40.1353C126 40.1353 126.094 40.1353 126.188 40.1353C126.382 40.1353 126.57 40.1353 126.772 40.1353C127.934 40.1208 129.089 40.1353 130.236 40.1353C130.539 40.1353 130.842 40.1353 131.145 40.1497C131.578 40.1497 132.011 40.1641 132.444 40.1713C135.129 40.2291 137.72 40.3301 140.166 40.4528C142.562 40.5755 144.814 40.7198 146.892 40.8641C149.584 41.059 151.966 41.2538 153.929 41.4126C155.906 41.5642 157.45 41.6869 158.482 41.7085C164.155 51.0686 168.073 61.605 169.791 72.8631L169.805 72.8415Z" fill="#6C868B"/>
<path d="M98.331 154.535C98.331 154.535 94.8165 140.065 110.874 117.419C126.924 94.7728 122.081 75.8867 121.756 66.0647C121.432 56.2427 121.518 40.3587 123.734 39.2762C125.949 38.1937 134.92 39.0814 139.041 39.6948C143.161 40.3082 138.593 53.1179 139.683 70.6618C140.773 88.2056 132.062 118.523 124.86 128.258C117.657 137.987 125.942 151.496 122.507 153.56C119.072 155.624 98.331 154.542 98.331 154.542V154.535Z" fill="#566B7D"/>
<path d="M170.787 85.8459C170.787 105.721 163.996 124.001 152.608 138.506C148.459 143.796 143.703 148.581 138.435 152.752C138.261 152.889 138.088 153.026 137.915 153.164C137.785 153.062 137.677 152.961 137.576 152.839C137.554 152.817 137.533 152.788 137.511 152.767C137.511 152.767 138.485 140.015 144.93 122.586C153.806 98.5979 157.754 76.6735 157.407 67.2845C157.061 57.8955 152.017 42.4157 153.936 41.3909C154.514 41.0878 156.072 40.9795 158.071 41.0084C158.216 41.2321 158.353 41.4631 158.49 41.6868C164.162 51.0469 168.081 61.5833 169.799 72.8414C170.448 77.0848 170.78 81.4221 170.78 85.8459H170.787Z" fill="#566B7D"/>
<path d="M63.6617 156.324C63.6617 156.324 59.3244 147.996 69.2835 127.327C81.3354 102.321 86.1346 80.1012 85.8098 70.2792C85.4851 60.4573 86.7841 40.2865 88.8986 39.0236C93.4812 36.2885 105.793 39.269 109.914 39.8824C114.034 40.4958 102.43 54.8643 103.52 72.4082C104.609 89.952 97.2339 118.307 90.0316 128.035C82.8293 137.763 87.5851 153.676 84.15 155.74C80.7148 157.804 66.5051 159.788 63.6617 156.324Z" fill="#566B7D"/>
<path d="M60.1835 125.264C60.1835 125.264 62.3269 119.808 67.1549 117.578C71.7591 115.456 80.4769 118.696 81.4584 121.764C82.4399 124.823 69.2333 120.825 69.2333 120.825C69.2333 120.825 80.6285 124.773 79.9285 127.118C79.2862 129.269 69.291 127.335 69.291 127.335C69.291 127.335 79.1202 129.507 78.2109 131.795C77.3016 134.082 65.4589 129.175 61.2877 134.046C59.3464 136.305 58.6247 127.53 60.1835 125.271V125.264Z" fill="#EDA18A"/>
<path d="M68.1728 129.125L67.4583 128.518C67.4872 128.482 70.5615 124.759 69.6594 120.717L70.576 120.515C71.5791 125.018 68.3171 128.959 68.1728 129.125Z" fill="#CB5C6C"/>
<path d="M74.3789 65.4873C74.3789 65.4873 73.5489 71.2896 76.6521 75.6124C79.6038 79.7331 88.7907 81.2126 91.1578 79.0331C93.5248 76.8537 80.0656 73.8226 80.0656 73.8226C80.0656 73.8226 91.9227 76.0093 92.4712 73.6206C92.9764 71.4339 83.3276 68.1864 83.3276 68.1864C83.3276 68.1864 92.9475 71.1452 93.2867 68.706C93.6187 66.2667 80.9028 64.6863 79.6759 58.4005C79.1058 55.4777 74.1407 62.7594 74.3861 65.4873H74.3789Z" fill="#EDA18A"/>
<path d="M81.0687 74.7394L80.3759 74.1116C83.1615 71.03 82.3172 66.2814 82.3099 66.2381L83.2265 66.0649C83.2698 66.2742 84.1646 71.3187 81.0687 74.7394Z" fill="#CB5C6C"/>
<path d="M34.535 77.1427C38.6243 77.1427 41.9394 73.8277 41.9394 69.7383C41.9394 65.649 38.6243 62.334 34.535 62.334C30.4457 62.334 27.1307 65.649 27.1307 69.7383C27.1307 73.8277 30.4457 77.1427 34.535 77.1427Z" fill="#352B4C"/>
<path d="M59.3605 92.4489C59.3605 92.4489 66.8081 94.7077 66.2308 95.9346C65.6463 97.1614 63.8349 99.8677 63.1565 99.846C62.4781 99.8244 56.8058 92.1602 59.3677 92.4489H59.3605Z" fill="#C74A65"/>
<path d="M57.0005 101.542L56.8345 100.857C56.9789 100.82 58.2129 100.452 57.9531 98.9225L58.6459 98.7998C58.949 100.568 57.7078 101.362 57.0077 101.535L57.0005 101.542Z" fill="#2E1F35"/>
<path d="M65.7836 89.7066L65.7259 89.0065C65.7259 89.0065 67.1476 88.8766 67.7033 88.0034L68.295 88.3787C67.5517 89.5478 65.8558 89.6993 65.7836 89.7066Z" fill="#2E1F35"/>
<path d="M68.5185 98.8216C68.4824 98.7494 67.5586 97.1184 68.1576 95.6534C68.504 94.8018 69.2762 94.1956 70.4525 93.8564L70.6474 94.5348C69.6948 94.8091 69.0741 95.2781 68.8143 95.9204C68.3453 97.0679 69.1247 98.4679 69.1319 98.4752L68.5185 98.8216Z" fill="#2E1F35"/>
<path d="M55.9541 81.7034C49.2714 81.7034 46.5074 77.5249 46.3919 77.3445L47.1786 76.8394C47.2868 77.0053 49.8487 80.8302 56.1273 80.7725L56.1417 81.7106C56.084 81.7106 56.0191 81.7106 55.9613 81.7106L55.9541 81.7034Z" fill="#443965"/>
<path d="M57.5277 76.6517C50.1738 76.6517 46.9335 72.8269 46.7964 72.6537L47.5181 72.0547C47.5541 72.098 51.0687 76.1899 58.9277 75.6703L58.9927 76.6084C58.4875 76.6445 58.004 76.659 57.5349 76.659L57.5277 76.6517Z" fill="#443965"/>
<path d="M72.9208 72.9209C72.8631 72.8704 67.2917 67.8692 58.0182 65.9062C48.8674 63.9721 42.4157 70.626 42.3507 70.6909L41.6724 70.0486C41.7373 69.9765 48.5571 62.9474 58.2131 64.9897C67.7464 67.0104 73.3249 72.0188 73.5559 72.2353L72.928 72.9281L72.9208 72.9209Z" fill="#352B4C"/>
<path d="M59.209 123.257C55.9543 121.792 54.9872 117.116 54.2151 113.356C53.9625 112.122 53.7243 110.96 53.4357 110.087C53.0171 108.824 49.9644 107.907 46.7385 106.933C41.9178 105.483 35.9134 103.678 33.0628 99.5215C28.1482 92.3481 33.7701 78.5714 34.0154 77.9868L34.8815 78.3477C34.8237 78.4848 29.2091 92.2399 33.835 98.9947C36.5052 102.885 42.3291 104.638 47.0055 106.038C50.7727 107.171 53.746 108.066 54.3233 109.791C54.6264 110.715 54.8718 111.905 55.1316 113.161C55.8605 116.712 56.7698 121.128 59.5915 122.399L59.209 123.25V123.257Z" fill="#352B4C"/>
<path d="M38.6993 71.9536L38.223 71.8309C34.8384 70.9577 33.1136 66.173 33.0414 65.971L33.9219 65.6606C33.9363 65.7039 35.358 69.6443 37.9272 70.7412C37.9705 69.8391 37.8766 67.9123 36.657 65.7617L37.4725 65.2998C39.3416 68.5762 38.822 71.3474 38.8004 71.4629L38.7066 71.9464L38.6993 71.9536Z" fill="#443965"/>
<path d="M74.4001 80.123C74.3424 80.0725 68.7999 74.9342 65.4802 73.6063C62.1245 72.264 57.5346 71.3764 57.4913 71.3692L57.6645 70.4526C57.8522 70.4887 62.3843 71.3619 65.8267 72.7403C69.3051 74.1332 74.8043 79.2282 75.0352 79.4447L74.4001 80.1303V80.123Z" fill="#443965"/>
<path d="M48.8386 90.6378C41.492 88.9924 40.3589 79.0333 40.3156 78.6147L41.2466 78.5137C41.2538 78.6075 42.358 88.2274 49.0407 89.7212L48.8386 90.6378Z" fill="#443965"/>
<path d="M44.3497 96.642C37.8474 93.2213 37.7608 83.0674 37.7536 82.6416H38.6918C38.6918 82.7426 38.7856 92.6656 44.7827 95.8193L44.3497 96.6493V96.642Z" fill="#443965"/>
<path d="M63.0413 117.643C61.9299 115.521 58.5237 109.827 56.1205 108.954L56.438 108.073C59.6711 109.242 63.698 116.885 63.8712 117.21L63.0413 117.643Z" fill="#443965"/>
<path d="M71.3763 85.4561C69.1319 83.6375 69.0814 81.559 69.0814 81.4724L70.0195 81.458C70.0195 81.5302 70.0845 83.1972 71.9681 84.7272L71.3763 85.4561Z" fill="#CB5C6C"/>
<path d="M53.2123 105.396C51.3865 104.032 50.405 104.783 50.3617 104.819L49.7555 104.104C49.8204 104.054 51.3143 102.798 53.7752 104.645L53.2123 105.396Z" fill="#CB5C6C"/>
<path d="M66.4041 111.963C66.3175 111.927 64.1886 111.104 61.2802 109.329L61.7637 108.528C64.5999 110.253 66.7144 111.075 66.7361 111.09L66.3969 111.963H66.4041Z" fill="#443965"/>
<path d="M44.0758 49.8125C44.0758 49.8125 40.5252 51.8115 40.2149 54.6766C40.2149 54.6766 40.7561 55.1745 41.5211 55.3766C41.9613 55.4921 43.7005 51.7249 45.5264 51.0321C47.3522 50.3393 44.0758 49.8197 44.0758 49.8197V49.8125Z" fill="#352B4C"/>
<path d="M47.295 51.4224C47.295 51.4224 44.1701 54.0348 44.3866 56.9071C44.3866 56.9071 44.9351 57.3184 45.8011 57.3545C46.2558 57.3762 47.2733 53.3637 48.9476 52.3533C50.6219 51.343 47.295 51.4224 47.295 51.4224Z" fill="#352B4C"/>
<path d="M63.4892 41.8457C63.4892 41.8457 67.5233 41.2467 69.5151 43.3251C69.5151 43.3251 69.6739 44.0685 68.9089 44.6747C68.5481 44.9561 64.9469 43.1158 63.0778 43.6932C61.2087 44.2633 63.4819 41.8457 63.4819 41.8457H63.4892Z" fill="#352B4C"/>
<path d="M61.9305 45.0859C61.9305 45.0859 66.0007 45.2375 67.5884 47.6407C67.5884 47.6407 67.7255 48.3046 66.744 48.8603C66.3471 49.084 63.1357 46.6087 61.1944 46.8324C59.2531 47.0561 61.9305 45.0859 61.9305 45.0859Z" fill="#352B4C"/>
<path d="M43.4484 38.3095C43.4484 38.3095 42.6474 34.7733 45.8949 32.9619C49.1352 31.1505 53.1694 34.2537 51.4879 35.2135C49.8064 36.1734 49.9723 29.8876 54.6488 30.1835C59.3252 30.4794 60.7325 38.1074 58.7551 38.1363C56.7777 38.1652 58.7551 34.8166 62.3418 36.7146C65.9357 38.6054 65.611 45.2304 62.5294 45.685C59.4479 46.1397 59.2964 42.5962 60.6603 43.4045C62.0243 44.2128 63.7707 48.2036 58.7262 49.4666C53.6817 50.7295 54.3385 46.3273 55.2766 47.0201C56.2148 47.7129 58.5458 50.8955 53.458 51.8697C48.3702 52.844 47.93 48.8748 48.7455 48.9975C49.561 49.1202 50.8528 53.811 45.8299 52.0935C40.8071 50.3759 41.5504 45.4613 42.7628 45.1005C43.9752 44.7396 46.2557 47.6624 43.6288 46.8036C41.002 45.9448 38.7792 40.8859 43.4556 38.3095H43.4484Z" fill="white"/>
<path d="M42.8781 41.0953C42.8781 41.0953 33.8932 43.7583 37.6531 47.1574C41.4131 50.5564 48.6803 47.4388 47.771 43.6284C46.8617 39.818 45.2235 39.9551 42.8781 41.1025V41.0953Z" fill="#352B4C"/>
<path d="M44.6175 40.9942C44.6175 40.9942 45.7866 37.6384 47.6196 37.7611C49.4527 37.8838 45.6134 41.5787 45.6134 41.5787L46.9629 44.6892C46.9629 44.6892 50.7517 42.3004 51.6754 43.2602C52.5992 44.2201 46.8979 45.9304 46.566 46.0748C46.234 46.2191 44.6247 40.9942 44.6247 40.9942H44.6175Z" fill="#352B4C"/>
<path d="M42.6399 42.1343C42.6399 42.1343 41.745 43.0292 42.012 43.4838C42.279 43.9385 43.4193 43.1879 43.4193 43.1879C43.4193 43.1879 43.7296 43.8519 42.1636 44.1838C40.5975 44.5158 40.5398 42.8776 42.6399 42.1343Z" fill="#F7ECE9"/>
<path d="M43.8236 45.0283C43.8236 45.0283 42.9288 45.9232 43.1958 46.3778C43.4628 46.8325 44.603 46.082 44.603 46.082C44.603 46.082 44.9134 46.7459 43.3473 47.0779C41.7813 47.4098 41.7236 45.7716 43.8236 45.0283Z" fill="#F7ECE9"/>
<path d="M80.8093 29.7358C80.8093 29.7358 76.7391 29.8946 75.1586 32.305C75.1586 32.305 75.4112 32.9978 76.003 33.5246C76.3422 33.8277 79.6114 31.2658 81.5526 31.4823C83.4939 31.6988 80.8165 29.7431 80.8165 29.7431L80.8093 29.7358Z" fill="#352B4C"/>
<path d="M82.9457 32.6366C82.9457 32.6366 78.9693 33.5315 77.8579 36.1872C77.8579 36.1872 78.161 36.8079 78.9116 37.2265C79.3085 37.4502 82.0436 34.347 83.9922 34.2099C85.9407 34.0727 82.9457 32.6294 82.9457 32.6294V32.6366Z" fill="#352B4C"/>
<path d="M101.724 31.4966C101.724 31.4966 105.585 32.8028 106.415 35.5668C106.415 35.5668 106.212 36.3029 105.26 36.4906C104.812 36.5772 102.445 33.3008 100.518 32.9544C98.5916 32.608 101.724 31.4966 101.724 31.4966Z" fill="#352B4C"/>
<path d="M98.8509 33.6763C98.8509 33.6763 102.409 35.6681 102.719 38.5331C102.719 38.5331 102.539 39.1898 101.413 39.2331C100.958 39.2548 99.2261 35.5815 97.4003 34.8959C95.5673 34.2103 98.8509 33.6763 98.8509 33.6763Z" fill="#352B4C"/>
<path d="M85.5006 19.214C85.5006 19.214 86.4026 15.6995 90.112 15.5696C93.8214 15.4397 95.9937 20.0368 94.0596 20.1234C92.1255 20.21 95.1421 14.6892 99.1618 17.0923C103.182 19.4883 100.966 26.9215 99.1907 26.0411C97.4154 25.1606 100.699 23.0822 103.037 26.4091C105.375 29.736 102.063 35.4805 99.1185 34.4774C96.1741 33.4743 97.6463 30.2556 98.4907 31.5907C99.335 32.9258 99.068 37.2775 94.0019 36.1084C88.9357 34.9321 91.5265 31.3093 92.0461 32.3557C92.5657 33.4021 93.1936 37.2919 88.2213 35.8414C83.2489 34.3908 84.6634 30.6526 85.3418 31.1361C86.0202 31.6196 85.0243 36.3826 81.3365 32.565C77.6488 28.7473 80.5499 24.706 81.7984 24.9441C83.0396 25.1823 83.7397 28.8195 81.7912 26.8566C79.8426 24.8864 80.1746 19.38 85.5078 19.214H85.5006Z" fill="white"/>
<path d="M83.7247 21.4366C83.7247 21.4366 74.5161 19.7046 76.3131 24.446C78.1101 29.1802 85.998 29.7286 86.9289 25.9182C87.8599 22.1078 86.3371 21.4871 83.7247 21.4366Z" fill="#352B4C"/>
<path d="M85.3124 22.1366C85.3124 22.1366 87.8816 19.683 89.4548 20.6283C91.0281 21.5665 85.9258 23.1109 85.9258 23.1109L85.7093 26.4955C85.7093 26.4955 90.1693 26.0986 90.559 27.3688C90.9414 28.6461 85.0887 27.5636 84.7279 27.542C84.367 27.5203 85.3196 22.1366 85.3196 22.1366H85.3124Z" fill="#352B4C"/>
<path d="M83.0321 22.2521C83.0321 22.2521 81.8341 22.6418 81.863 23.1686C81.8918 23.6954 83.2486 23.5439 83.2486 23.5439C83.2486 23.5439 83.2197 24.28 81.6753 23.8542C80.1309 23.4284 80.8237 21.949 83.0321 22.2449V22.2521Z" fill="#F7ECE9"/>
<path d="M82.7723 25.3698C82.7723 25.3698 81.5743 25.7595 81.6032 26.2863C81.6321 26.8131 82.9888 26.6616 82.9888 26.6616C82.9888 26.6616 82.9599 27.3977 81.4156 26.9719C79.8712 26.5461 80.564 25.0667 82.7723 25.3625V25.3698Z" fill="#F7ECE9"/>
<path d="M124.535 44.4436C124.535 44.4436 120.595 43.4116 118.379 45.2591C118.379 45.2591 118.422 45.9952 118.834 46.6664C119.072 47.0561 122.94 45.555 124.737 46.3272C126.534 47.0994 124.535 44.4436 124.535 44.4436Z" fill="#352B4C"/>
<path d="M125.726 47.8354C125.726 47.8354 121.663 47.5395 119.823 49.7551C119.823 49.7551 119.931 50.4334 120.523 51.0613C120.84 51.3933 124.355 49.2138 126.26 49.6468C128.165 50.0798 125.719 47.8354 125.719 47.8354H125.726Z" fill="#352B4C"/>
<path d="M144.027 52.2017C144.027 52.2017 147.34 54.576 147.333 57.4554C147.333 57.4554 146.929 58.1049 145.961 58.0039C145.507 57.9606 144.193 54.1357 142.454 53.2481C140.715 52.3604 144.035 52.2017 144.035 52.2017H144.027Z" fill="#352B4C"/>
<path d="M140.65 53.4578C140.65 53.4578 143.472 56.395 142.938 59.2239C142.938 59.2239 142.577 59.8013 141.487 59.5126C141.047 59.3971 140.455 55.3846 138.903 54.1939C137.352 53.0031 140.643 53.4505 140.643 53.4505L140.65 53.4578Z" fill="#352B4C"/>
<path d="M132.077 35.7331C132.077 35.7331 133.96 32.6372 137.547 33.5898C141.134 34.5424 141.877 39.5724 140 39.0961C138.124 38.6198 142.613 34.2104 145.767 37.6744C148.913 41.1385 144.634 47.6046 143.19 46.2479C141.747 44.8912 145.492 43.8592 146.763 47.7201C148.033 51.5811 143.197 56.1132 140.664 54.3018C138.139 52.4904 140.484 49.8346 140.903 51.3573C141.321 52.8801 139.806 56.972 135.295 54.3739C130.785 51.7759 134.321 49.0624 134.516 50.2171C134.711 51.3718 134.177 55.276 129.839 52.4399C125.502 49.6037 127.949 46.4428 128.447 47.0995C128.952 47.7562 126.621 52.0285 124.196 47.3015C121.771 42.5746 125.726 39.558 126.852 40.1426C127.97 40.7271 127.58 44.4149 126.289 41.9684C124.997 39.5219 126.917 34.3403 132.069 35.7404L132.077 35.7331Z" fill="white"/>
<path d="M129.731 37.3425C129.731 37.3425 121.418 33.0124 121.764 38.0641C122.11 43.123 129.493 45.9304 131.492 42.5601C133.491 39.1827 132.214 38.1507 129.731 37.3425Z" fill="#352B4C"/>
<path d="M131.051 38.476C131.051 38.476 134.219 36.8811 135.453 38.2378C136.688 39.5946 131.354 39.5873 131.354 39.5873L130.164 42.7627C130.164 42.7627 134.551 43.6792 134.551 45.0071C134.551 46.3422 129.254 43.6071 128.922 43.4772C128.59 43.3473 131.059 38.476 131.059 38.476H131.051Z" fill="#352B4C"/>
<path d="M128.836 37.9267C128.836 37.9267 127.573 37.9484 127.451 38.4607C127.328 38.9731 128.67 39.2257 128.67 39.2257C128.67 39.2257 128.432 39.9185 127.068 39.067C125.711 38.2154 126.808 36.9957 128.836 37.9267Z" fill="#F7ECE9"/>
<path d="M127.681 40.8281C127.681 40.8281 126.418 40.8497 126.296 41.3621C126.173 41.8745 127.515 42.1271 127.515 42.1271C127.515 42.1271 127.277 42.8199 125.913 41.9683C124.549 41.1167 125.653 39.8971 127.681 40.8281Z" fill="#F7ECE9"/>
</g>
</svg>
