<svg width="164" height="164" viewBox="0 0 164 164" fill="none" xmlns="http://www.w3.org/2000/svg">
<path d="M81.9241 163.231C126.937 163.231 163.427 126.741 163.427 81.7283C163.427 36.7153 126.937 0.225098 81.9241 0.225098C36.9111 0.225098 0.420904 36.7153 0.420904 81.7283C0.420904 126.741 36.9111 163.231 81.9241 163.231Z" fill="#BFDEEF"/>
<mask id="mask0_20_36589" style="mask-type:luminance" maskUnits="userSpaceOnUse" x="0" y="0" width="164" height="164">
<path d="M81.9241 163.231C126.937 163.231 163.427 126.741 163.427 81.7283C163.427 36.7153 126.937 0.225098 81.9241 0.225098C36.9111 0.225098 0.420904 36.7153 0.420904 81.7283C0.420904 126.741 36.9111 163.231 81.9241 163.231Z" fill="white"/>
</mask>
<g mask="url(#mask0_20_36589)">
<path d="M83.3025 32.828C89.3768 32.828 94.301 27.9038 94.301 21.8295C94.301 15.7552 89.3768 10.8311 83.3025 10.8311C77.2282 10.8311 72.304 15.7552 72.304 21.8295C72.304 27.9038 77.2282 32.828 83.3025 32.828Z" fill="#352B4C"/>
<path d="M92.9915 29.6718C92.9915 29.6718 97.8223 31.0018 100.972 38.8992C103.363 44.8946 101.868 49.8563 107.732 56.7338C113.603 63.6113 113.548 73.5899 101.406 74.2652C93.8736 74.6856 90.2212 80.2676 83.5918 78.6481C76.9624 77.0286 76.9486 76.1052 70.5604 76.2775C63.0972 76.4773 59.493 74.8303 57.1569 69.8548C53.2702 61.5715 60.4165 57.547 60.4027 50.1664C60.3889 42.7859 65.771 20.6511 92.9778 29.6718H92.9915Z" fill="#352B4C"/>
<path d="M88.5743 56.9199C88.5743 56.9199 88.2711 76.6221 88.5743 79.3717C88.8775 82.1213 106.547 80.7982 111.922 85.822C117.297 90.8457 99.2489 105.683 88.2849 112.078C79.8844 116.977 51.2167 84.7331 58.0873 84.4919C64.951 84.2576 76.2596 82.1627 75.9495 77.1252C75.6394 72.0876 75.4602 67.5118 75.4602 67.5118C75.4602 67.5118 87.5819 57.6849 88.5812 56.9199H88.5743Z" fill="#EDA18A"/>
<path d="M94.7902 42.5788C94.7902 42.5788 99.3039 73.052 82.0275 74.1546C70.1469 74.9127 64.0619 55.0589 66.8874 45.5145C69.7128 35.9701 87.4441 35.4188 94.7902 42.5719V42.5788Z" fill="#EDA18A"/>
<path d="M69.1341 57.3195C69.1341 57.3195 66.8256 51.7306 64.4343 54.3769C62.043 57.0231 65.2957 63.7077 67.7352 63.5216C70.1747 63.3355 70.4297 59.5798 69.1341 57.3195Z" fill="#EDA18A"/>
<path d="M94.3698 57.306C94.3698 57.306 94.8591 52.0755 97.5605 54.4048C100.262 56.734 97.0988 63.5013 94.6524 63.6253C92.206 63.7425 93.3568 59.7111 94.3698 57.306Z" fill="#EDA18A"/>
<path d="M82.0276 63.067C83.2129 63.2738 84.3568 64.3212 85.4456 66.2094L84.6325 66.6781C83.5781 64.8519 82.4962 63.9147 81.5107 63.9767C80.1187 64.0594 78.9678 66.0441 78.644 66.8021L77.7757 66.43C77.8308 66.299 79.2021 63.1704 81.4487 63.0395C81.6417 63.0257 81.8346 63.0395 82.0276 63.0739V63.067Z" fill="#2E1F35"/>
<path d="M91.1518 31.6978C91.1518 31.6978 99.8624 36.0807 99.6763 46.0662C99.6005 49.9528 85.9558 50.8694 83.6058 47.7752C81.2559 44.6741 81.0905 36.0945 81.0905 36.0945C81.0905 36.0945 81.1043 46.3487 77.1832 49.0018C73.262 51.655 62.6701 50.3525 63.6073 49.1259C64.5446 47.8923 65.9986 32.7384 75.419 29.6236C84.8394 26.5087 91.1518 31.7047 91.1518 31.7047V31.6978Z" fill="#352B4C"/>
<path d="M89.4496 66.1407C91.1661 66.1407 92.5576 64.7493 92.5576 63.0328C92.5576 61.3163 91.1661 59.9248 89.4496 59.9248C87.7331 59.9248 86.3416 61.3163 86.3416 63.0328C86.3416 64.7493 87.7331 66.1407 89.4496 66.1407Z" fill="#CB5C6C"/>
<path d="M72.9243 66.1407C74.6408 66.1407 76.0323 64.7493 76.0323 63.0328C76.0323 61.3163 74.6408 59.9248 72.9243 59.9248C71.2078 59.9248 69.8164 61.3163 69.8164 63.0328C69.8164 64.7493 71.2078 66.1407 72.9243 66.1407Z" fill="#CB5C6C"/>
<path d="M90.5591 47.6855C87.4235 44.3776 86.5277 32.056 86.4863 31.5323L87.4235 31.4634C87.4304 31.5874 88.3332 43.971 91.2413 47.0377L90.5591 47.6855Z" fill="#443965"/>
<path d="M73.2066 45.3148C73.1791 45.2252 72.5451 43.1027 73.2755 40.1739C73.9371 37.5001 75.9218 33.6203 81.5795 30.3193L82.055 31.1325C71.8077 37.1141 74.0818 44.9564 74.1094 45.0322L73.2066 45.3079V45.3148Z" fill="#443965"/>
<path d="M65.2542 45.0393L64.3652 44.7361C64.5513 44.1917 68.9824 31.3394 78.7405 29.7476L78.8921 30.6779C69.6922 32.1802 65.2956 44.9084 65.2542 45.0324V45.0393Z" fill="#443965"/>
<path d="M95.5 46.2178L94.5903 45.9835C94.611 45.9008 96.575 37.9138 91.1585 32.0149L91.8545 31.3809C97.6156 37.6588 95.5896 45.8732 95.5 46.2178Z" fill="#443965"/>
<path d="M105.334 67.7532C105.32 60.4553 101.495 55.721 101.454 55.6728L102.178 55.0732C102.343 55.2731 106.257 60.1177 106.271 67.7463H105.327L105.334 67.7532Z" fill="#443965"/>
<path d="M97.1333 71.998L96.6096 71.2124C96.6096 71.2124 99.7313 68.9934 98.4495 61.9574L99.3799 61.792C100.779 69.4896 97.2849 71.8946 97.1333 71.998Z" fill="#443965"/>
<path d="M68.4174 74.4306C68.2727 74.3273 64.958 71.8395 65.5989 64.3418L66.5361 64.4245C65.9434 71.3433 68.9411 73.645 68.9687 73.6657L68.4174 74.4306Z" fill="#443965"/>
<path d="M62.601 72.1978C62.3943 72.122 57.5015 70.1511 61.4915 58.7529L62.3805 59.063C58.6937 69.5998 62.8905 71.302 62.9318 71.3157L62.601 72.1978Z" fill="#443965"/>
<path d="M85.1287 25.8197L85.4457 25.0341C86.6241 22.1053 83.6884 15.9032 83.6608 15.8412L84.5085 15.4346C84.6256 15.6827 87.1961 21.113 86.5552 24.5517C87.5475 24.2485 89.2497 23.5456 89.8974 22.1467C90.4074 21.051 90.1869 19.6865 89.2497 18.0877L90.0628 17.6122C91.1654 19.4935 91.3997 21.1612 90.752 22.5533C89.6011 25.0272 86.1072 25.6543 85.9625 25.675L85.1287 25.8197Z" fill="#443965"/>
<path d="M81.3452 25.6476C80.4287 25.2617 79.774 24.5794 79.395 23.6284C78.1201 20.4378 80.3942 15.1522 80.4907 14.9316L81.3521 15.3107C81.3314 15.3589 79.14 20.4584 80.2633 23.2839C80.5527 24.0075 81.0213 24.4967 81.7105 24.7862L81.3452 25.6545V25.6476Z" fill="#443965"/>
<path d="M72.2558 59.6693L72.1041 58.9319C72.6348 58.8217 74.1371 58.422 74.709 57.8638L75.2328 58.4013C74.3852 59.2282 72.3384 59.6486 72.2558 59.6693Z" fill="#2E1F35"/>
<path d="M90.3454 59.1871C89.2359 59.1871 87.9059 58.753 87.837 58.7323L88.0713 58.0156C88.5881 58.181 90.0904 58.5807 90.8623 58.3809L91.0483 59.1113C90.8347 59.1665 90.5935 59.1871 90.3454 59.1871Z" fill="#2E1F35"/>
<path d="M72.9241 57.6848C73.7881 57.6848 74.4885 56.9844 74.4885 56.1205C74.4885 55.2565 73.7881 54.5562 72.9241 54.5562C72.0602 54.5562 71.3598 55.2565 71.3598 56.1205C71.3598 56.9844 72.0602 57.6848 72.9241 57.6848Z" fill="#2E1F35"/>
<path d="M89.8148 57.3196C90.6788 57.3196 91.3792 56.6192 91.3792 55.7552C91.3792 54.8913 90.6788 54.1909 89.8148 54.1909C88.9509 54.1909 88.2505 54.8913 88.2505 55.7552C88.2505 56.6192 88.9509 57.3196 89.8148 57.3196Z" fill="#2E1F35"/>
<path d="M82.0415 75.0233C80.3118 75.0233 78.8991 74.5271 77.955 74.0516L78.2375 73.0731C78.2375 73.0731 78.3202 73.1075 78.4098 73.1489C80.1947 74.0448 83.847 75.0371 88.2368 71.6328L88.8501 72.4253C86.3072 74.3962 83.9711 75.0164 82.0415 75.0164V75.0233Z" fill="#CB5C6C"/>
<path d="M67.7281 60.9377L66.7634 60.6551C67.1286 59.394 65.7435 57.7952 65.1853 57.2853L65.8606 56.541C65.964 56.6306 68.3484 58.8151 67.735 60.9377H67.7281Z" fill="#CB5C6C"/>
<path d="M81.7656 54.5491C81.7656 54.5491 84.1086 60.5445 83.0129 60.7994C81.9172 61.0544 79.2296 61.2543 78.8919 60.7994C78.5543 60.3446 80.6423 52.7366 81.7656 54.5491Z" fill="#C74A65"/>
<path d="M62.8562 75.9054C62.7666 75.8916 54.1456 74.4651 54.3179 64.328C54.4213 58.1465 57.0124 54.5355 59.0867 51.6343C60.334 49.8977 61.3194 48.5194 61.409 47.0723L62.4151 47.1343C62.3118 48.8709 61.1954 50.4214 59.9067 52.22C57.9083 55.0041 55.4205 58.4704 55.324 64.3418C55.1655 73.5761 62.6908 74.8579 63.0078 74.9061L62.8562 75.8985V75.9054Z" fill="#352B4C"/>
<path d="M108.414 72.6937L108.325 71.6945C108.325 71.6945 110.22 71.5016 111.481 69.8408C112.625 68.3247 112.935 66.085 112.404 63.17C111.598 58.7871 109.565 57.0988 107.208 55.1417C105.127 53.4119 102.77 51.4479 101.096 47.3063L102.026 46.9272C103.604 50.8415 105.768 52.6332 107.849 54.3698C110.247 56.3683 112.514 58.2496 113.39 62.9908C113.982 66.2022 113.603 68.7175 112.266 70.4679C110.73 72.4801 108.504 72.6869 108.414 72.6937Z" fill="#352B4C"/>
<path d="M100.924 63.8386C100.868 63.8386 100.82 63.8317 100.779 63.8179C100.193 63.6663 99.6831 63.5423 102.281 46.1418C103.101 40.6701 102.067 36.4251 99.2145 33.517C93.4947 27.6938 82.2275 29.0997 82.1103 29.1203L81.9794 28.1211C82.4618 28.0591 93.8462 26.6326 99.9243 32.8072C103.012 35.9496 104.135 40.4841 103.273 46.2865C101.116 60.7306 101.227 62.7911 101.309 63.0806C101.289 63.0117 101.178 62.86 100.979 62.8325C100.868 62.8187 100.772 62.8394 100.703 62.8738L101.585 63.1977C101.399 63.7215 101.123 63.8386 100.917 63.8386H100.924Z" fill="#352B4C"/>
<path d="M61.4159 47.2169C60.017 40.6977 60.9129 35.7084 64.0897 32.3799C70.0231 26.1709 81.6487 28.0453 82.138 28.128L81.9726 29.1204C81.8623 29.0997 70.3815 27.2597 64.8133 33.0829C61.8845 36.1495 61.0714 40.8355 62.4014 47.0101L61.4159 47.2238V47.2169Z" fill="#352B4C"/>
<path d="M94.3077 80.7085C94.3077 80.7085 92.771 95.7659 82.4272 95.1733C72.0833 94.5806 71.8628 80.357 69.4922 81.0737C67.1216 81.7904 50.0588 81.4872 44.4769 92.8096C38.8949 104.132 37.689 127.459 38.64 155.424C38.8467 161.523 120.756 162.797 120.998 155.823C121.583 138.678 121.087 87.8892 114.148 84.7537C107.201 81.6113 94.3146 80.7154 94.3146 80.7154L94.3077 80.7085Z" fill="#AA3570"/>
<path d="M110.516 123.207C110.516 123.207 108.008 106.027 111.715 105.255C115.423 104.484 127.986 99.074 130.274 103.684C132.562 108.288 133.781 127.314 129.109 132.786C127.324 134.874 110.516 123.214 110.516 123.214V123.207Z" fill="#EDA18A"/>
<path d="M108.366 112.574C108.366 112.574 128.709 114.945 132.3 113.904C132.3 113.904 134.574 78.9445 94.308 80.7086C94.308 80.7086 104.231 111.216 108.366 112.581V112.574Z" fill="#AA3570"/>
<path d="M45.242 130.719C45.242 130.719 35.1738 127.369 32.1416 111.209C31.4939 107.757 32.4104 78.2829 66.412 80.874C66.412 80.874 49.3836 129.354 45.2489 130.719H45.242Z" fill="#AA3570"/>
<path d="M51.0584 108.336L32.4174 112.574C32.1142 125.44 38.3439 139.174 54.8141 133.827C59.2521 132.386 62.5392 113.256 51.0584 108.336Z" fill="#EDA18A"/>
<path d="M129.667 125.895C129.667 125.895 137.454 136.694 118.737 143.04C100.021 149.387 62.3048 123.676 54.3867 126.122C46.4686 128.562 45.4074 117.756 60.6784 115.213C75.9495 112.671 115.223 112.719 129.667 125.895Z" fill="#EDA18A"/>
<path d="M121.191 122.208C119.792 120.499 109.861 117.639 106.147 116.681L106.395 115.709C107.794 116.068 120.109 119.3 121.962 121.574L121.184 122.208H121.191Z" fill="#CB5C6C"/>
<path d="M40.1285 132.104C40.1285 132.104 54.3521 143.033 61.4294 124.82C66.8253 110.947 74.4057 73.5003 73.5719 70.7231C72.738 67.9459 68.2242 60.5722 67.7625 58.1327C67.3008 55.6932 66.0328 60.3793 67.7281 63.5217C67.7281 63.5217 66.6599 56.3754 66.5083 55.0799C66.3498 53.7843 63.0696 58.3739 65.516 63.6251C65.516 63.6251 65.6814 53.7705 64.4272 54.377C63.1729 54.9765 61.457 60.8272 61.774 64.3418C62.091 67.8563 66.4945 71.5432 65.516 73.5692C64.5374 75.5952 41.1415 107.281 40.2181 115.572C39.2947 123.862 40.1216 132.104 40.1216 132.104H40.1285Z" fill="#EDA18A"/>
<path d="M74.1508 71.4605L73.1447 71.4329C73.1447 71.4329 73.1792 69.1726 71.7596 67.0777C70.2021 64.7691 66.1087 57.9674 65.902 54.3012L66.9081 54.2461C67.1011 57.6711 71.1807 64.4245 72.6003 66.5195C74.1991 68.897 74.1577 71.3571 74.1577 71.4605H74.1508Z" fill="#CB5C6C"/>
<path d="M42.2472 109.324L39.7572 115.371L40.6875 115.754L43.1776 109.707L42.2472 109.324Z" fill="#CB5C6C"/>
<path d="M95.0727 59.9728L94.0735 59.8694C94.294 57.7125 95.5895 56.9475 95.6447 56.9131L96.1477 57.7814L95.8997 57.3472L96.1546 57.7814C96.1202 57.8021 95.245 58.3534 95.0796 59.9728H95.0727Z" fill="#CB5C6C"/>
<path d="M83.1096 98.0885C75.6119 98.0885 72.6348 93.3955 72.5039 93.1819L73.3584 92.6513C73.4893 92.8649 76.6731 97.8129 84.9151 96.9928C89.8492 96.5035 93.8462 90.4736 93.8875 90.4116L94.7283 90.9629C94.556 91.2248 90.4212 97.4545 85.0116 97.992C84.35 98.0609 83.7091 98.0885 83.1096 98.0885Z" fill="#352B4C"/>
<path d="M110.248 115.02L109.241 114.979C109.462 109.673 106.926 104.325 106.898 104.27L107.801 103.836C107.911 104.063 110.468 109.459 110.241 115.02H110.248Z" fill="#352B4C"/>
</g>
</svg>
