<svg width="164" height="163" viewBox="0 0 164 163" fill="none" xmlns="http://www.w3.org/2000/svg">
<path d="M81.9241 163.006C126.937 163.006 163.427 126.516 163.427 81.5032C163.427 36.4902 126.937 0 81.9241 0C36.9111 0 0.420904 36.4902 0.420904 81.5032C0.420904 126.516 36.9111 163.006 81.9241 163.006Z" fill="#BFDEEF"/>
<path d="M55.3448 139.776C53.2636 139.776 51.2376 139.341 49.3356 138.487C47.5094 137.667 45.8693 136.489 44.4634 134.993C43.0714 133.505 41.9757 131.782 41.2108 129.859C40.4252 127.874 40.0255 125.773 40.0255 123.609C40.0255 120.466 40.88 117.42 42.4925 114.802C43.1748 113.692 44.1809 112.583 45.3249 111.666C45.883 111.218 46.6273 110.694 47.4818 110.288V17.29H63.1871V110.233C63.952 110.605 64.6756 111.101 65.2475 111.556C65.8953 112.066 67.4528 113.382 68.2246 114.871C69.8096 117.475 70.6434 120.494 70.6434 123.602C70.6434 125.766 70.2437 127.874 69.4581 129.852C68.6932 131.775 67.5975 133.505 66.2054 134.986C64.7996 136.482 63.1664 137.66 61.3333 138.48C59.4313 139.335 57.4122 139.769 55.3241 139.769L55.3448 139.776Z" fill="white"/>
<path d="M61.0577 19.4331H49.6319V45.5993H61.0577V19.4331Z" fill="#F95428"/>
<path d="M42.1757 123.602C42.1757 131.354 48.0746 137.639 55.3518 137.639C62.629 137.639 68.5279 131.354 68.5279 123.602C68.5279 120.763 67.7354 118.123 66.3779 115.918H44.3258C42.9682 118.123 42.1757 120.769 42.1757 123.602Z" fill="#1372D8"/>
<path d="M61.0577 45.5996H49.6319V68.7681H61.0577V45.5996Z" fill="#FF6C3C"/>
<path d="M61.0577 68.7681H49.6319V92.0606H61.0577V68.7681Z" fill="#FFC71F"/>
<path d="M49.632 92.0605V111.797C47.73 112.149 45.4145 114.147 44.3188 115.918H66.3709C65.5577 114.271 62.4704 111.797 61.0577 111.797V92.0605H49.632Z" fill="#54A0FC"/>
<path opacity="0.05" d="M61.0578 111.797V19.4334H55.3449C54.5455 19.4334 51.4927 19.1922 50.776 19.4334C53.5876 20.3844 57.9016 23.4234 57.9016 26.559V111.797C61.5402 114.292 63.9521 118.647 63.9521 123.602C63.9521 130.521 59.2523 136.275 53.0639 137.426C53.8081 137.564 54.5731 137.639 55.3518 137.639C62.629 137.639 68.5279 131.355 68.5279 123.602C68.5279 118.647 66.0953 113.382 61.0647 111.797H61.0578Z" fill="#3A2D2D"/>
<path opacity="0.28" d="M52.5953 108.393C52.0923 108.393 51.6788 107.979 51.6788 107.476V33.4295C51.6788 32.9264 52.0923 32.5129 52.5953 32.5129C53.0984 32.5129 53.5119 32.9264 53.5119 33.4295V107.476C53.5119 107.979 53.0984 108.393 52.5953 108.393Z" fill="white"/>
<path opacity="0.1" d="M53.3808 119.874C52.1472 122.003 49.6939 122.892 47.8884 121.851C46.0898 120.811 45.6281 118.24 46.8547 116.111C48.0883 113.982 50.5416 113.093 52.3471 114.133C54.1457 115.174 54.6074 117.744 53.3808 119.874Z" fill="white"/>
<path d="M115.258 102.335H93.8947V116.738H115.258V102.335Z" fill="#6BA4C1"/>
<path d="M131.163 67.3688C131.163 52.5801 119.179 40.5962 104.39 40.5962C89.6013 40.5962 77.6173 52.5801 77.6173 67.3688C77.6173 77.5335 83.2889 86.4163 91.6342 90.9508L93.8876 102.287H115.306L117.249 90.8956C125.539 86.3474 131.163 77.499 131.163 67.3757V67.3688Z" fill="#FFEC00"/>
<path d="M131.163 67.3688C131.163 52.5801 119.179 40.5962 104.39 40.5962C89.6013 40.5962 77.6173 52.5801 77.6173 67.3688C77.6173 77.5335 83.2889 86.4163 91.6342 90.9508L93.8876 102.287H115.306L117.249 90.8956C125.539 86.3474 131.163 77.499 131.163 67.3757V67.3688Z" fill="#FFDE1A"/>
<path d="M104.39 40.5962C103.177 40.5962 101.985 40.6789 100.813 40.8374C112.398 43.587 120.97 53.4002 120.97 65.0878C120.97 74.5495 115.347 82.8466 107.057 87.0985L105.114 97.7731H92.9781L93.8877 102.287H115.306L117.249 90.8956C125.539 86.3474 131.163 77.4852 131.163 67.3619C131.163 52.5732 119.179 40.6031 104.39 40.6031V40.5962Z" fill="#FFCE00"/>
<path d="M114.121 107.745H95.0801C94.012 107.745 93.1368 106.869 93.1368 105.801C93.1368 104.733 94.012 103.858 95.0801 103.858H114.121C115.189 103.858 116.064 104.733 116.064 105.801C116.064 106.869 115.189 107.745 114.121 107.745Z" fill="white"/>
<path d="M104.749 122.286C108.67 122.286 111.847 120.032 111.847 117.234H97.6575C97.6575 120.039 100.834 122.286 104.755 122.286H104.749Z" fill="white"/>
<path d="M107.043 117.228C106.458 119.564 103.832 121.204 100.6 121.369C101.765 121.969 103.198 122.3 104.749 122.3C108.67 122.3 111.847 120.025 111.847 117.228H107.043Z" fill="#DFF1F7"/>
<path d="M114.789 103.837H112.929V104.726C112.929 105.416 112.453 105.863 111.75 105.863H93.1574V106.497C93.1574 107.187 93.7087 107.731 94.4185 107.731H114.796C115.506 107.731 116.043 107.18 116.043 106.497V105.105C116.043 104.416 115.499 103.837 114.796 103.837H114.789Z" fill="#DFF1F7"/>
<path d="M114.121 112.562H95.0801C94.012 112.562 93.1368 111.687 93.1368 110.619C93.1368 109.55 94.012 108.675 95.0801 108.675H114.121C115.189 108.675 116.064 109.55 116.064 110.619C116.064 111.687 115.189 112.562 114.121 112.562Z" fill="white"/>
<path d="M114.775 108.668H113.011C113.011 108.668 112.922 108.744 112.922 108.779V110.171C112.922 110.86 112.439 111.315 111.729 111.315H93.1368C93.1919 112.093 93.7432 112.562 94.4185 112.562H114.775C115.485 112.562 116.036 112.004 116.036 111.315V109.923C116.036 109.234 115.485 108.668 114.775 108.668Z" fill="#DFF1F7"/>
<path d="M114.121 117.42H95.2181C94.1499 117.42 93.2747 116.545 93.2747 115.477C93.2747 114.409 94.1499 113.534 95.2181 113.534H114.121C115.189 113.534 116.064 114.409 116.064 115.477C116.064 116.545 115.189 117.42 114.121 117.42Z" fill="white"/>
<path d="M114.789 113.492H112.618V114.788C112.618 115.477 112.122 116.138 111.419 116.138H93.309V116.166C93.309 116.855 93.8466 117.379 94.5495 117.379H114.789C115.492 117.379 116.043 116.848 116.043 116.166V114.774C116.043 114.085 115.492 113.485 114.789 113.485V113.492Z" fill="#DFF1F7"/>
<path d="M100.4 96.6774L100.304 84.1078C100.304 84.0388 100.29 83.963 100.269 83.901C99.6971 82.3436 95.9758 72.2065 93.9566 68.1889C93.805 67.8857 93.9222 67.5204 94.2185 67.3619C94.5286 67.1965 94.9145 67.3137 95.073 67.6307C97.292 72.0273 101.344 83.1843 101.523 83.6805C101.551 83.7494 101.558 83.8183 101.558 83.8872L101.654 96.6774C101.654 97.022 101.379 97.3045 101.034 97.3045C100.689 97.3045 100.407 97.0289 100.407 96.6843L100.4 96.6774Z" fill="#D36400"/>
<path d="M109.241 97.2909C108.897 97.2909 108.621 97.0083 108.621 96.6638L108.718 83.8736C108.718 83.8046 108.731 83.7357 108.752 83.6668C108.931 83.1706 112.983 72.0137 115.202 67.617C115.361 67.3 115.747 67.1829 116.057 67.3483C116.353 67.5068 116.47 67.8789 116.319 68.1752C114.3 72.1859 110.571 82.3299 110.006 83.8873C109.979 83.9563 109.972 84.0252 109.972 84.0941L109.875 96.6638C109.875 97.0083 109.593 97.284 109.248 97.284L109.241 97.2909Z" fill="#D36400"/>
<path d="M113.397 70.8558C113.273 70.8558 113.149 70.842 113.025 70.8075C112.26 70.6077 111.957 69.8772 111.729 69.3397C111.702 69.2708 111.667 69.195 111.633 69.1192C111.564 69.2294 111.495 69.3948 111.44 69.4844C111.102 70.0564 110.675 70.8213 109.875 70.8213C109.055 70.8213 108.607 70.015 108.249 69.4017C108.201 69.319 108.139 69.1881 108.077 69.0916C108.042 69.1812 108.008 69.2639 107.98 69.3397C107.767 69.9392 107.498 70.6835 106.74 70.78C105.982 70.8764 105.513 70.208 105.134 69.6705C105.024 69.5189 104.865 69.2846 104.735 69.1467C104.659 69.2708 104.576 69.4568 104.521 69.5878C104.287 70.1115 103.99 70.7662 103.267 70.8282C102.454 70.8971 102.012 70.146 101.613 69.4844C101.503 69.2983 101.337 69.0296 101.206 68.8573C101.11 69.0158 101.006 69.2501 100.931 69.4155C100.655 70.0288 100.303 70.7937 99.5179 70.8282C98.7943 70.8558 98.4153 70.2424 98.1189 69.7463C97.9742 69.512 97.7123 69.0778 97.5538 69.0502C97.5538 69.0502 97.1404 69.0089 96.2721 70.2769L95.1488 69.6084C95.7277 68.7608 96.6235 67.6582 97.7537 67.8167C98.5462 67.9339 98.9666 68.623 99.2698 69.1329C99.3249 69.2225 99.3869 69.3328 99.4558 69.4293C99.5385 69.2777 99.635 69.0709 99.697 68.9331C99.9727 68.3198 100.324 67.5548 101.103 67.5066C101.916 67.4584 102.364 68.2095 102.764 68.878C102.86 69.0434 103.005 69.2777 103.122 69.4431C103.177 69.3328 103.239 69.2019 103.28 69.1123C103.508 68.6023 103.825 67.8994 104.569 67.8236C105.355 67.7478 105.844 68.43 106.23 68.9813C106.313 69.0985 106.423 69.257 106.526 69.381C106.588 69.2363 106.65 69.0571 106.699 68.9331C106.905 68.3542 107.167 67.6306 107.898 67.5617C108.649 67.4928 109.042 68.1613 109.393 68.7608C109.51 68.9538 109.703 69.2914 109.848 69.4362C109.972 69.2983 110.151 69.0089 110.254 68.8297C110.578 68.2853 110.985 67.6031 111.736 67.6582C112.453 67.7065 112.728 68.3611 112.949 68.878C113.032 69.064 113.238 69.5671 113.362 69.6016C113.362 69.6016 113.755 69.6222 114.665 68.5679L115.705 69.3466C115.133 70.015 114.3 70.8558 113.383 70.8558H113.397Z" fill="#D36400"/>
<path d="M86.0523 73.068C84.9704 73.6676 83.6059 73.1852 83.1511 72.0343C82.0278 69.2089 80.8356 64.3781 82.7514 59.1545C83.5094 57.0871 84.6809 55.1714 86.197 53.5106C87.0377 52.5871 88.4918 52.6078 89.2981 53.5588L89.3256 53.5933C89.9941 54.3858 89.9596 55.5504 89.2636 56.3153C88.3057 57.3697 87.3134 58.7824 86.6518 60.581C85.1978 64.5642 86.1281 68.2924 87.0033 70.4838C87.3892 71.4486 86.9826 72.5443 86.0799 73.0473L86.0523 73.0611V73.068Z" fill="#FFFC8A"/>
</svg>
