<svg width="1920" height="1129" viewBox="0 0 1920 1129" fill="none" xmlns="http://www.w3.org/2000/svg">
<g opacity="0.5">
<path d="M1342.71 860.37H1303.5V899.58H1342.71V860.37Z" fill="#577FDF"/>
<path d="M574.5 713.09L578.87 713.3C581.59 715.64 581.45 715.81 581.96 719.39C580.58 722.68 580.45 722.95 577.4 724.77C576.75 724.83 576.1 724.92 575.44 724.85C572.38 724.55 572.02 723.78 570.07 721.53C569.62 718.59 569.53 717.01 570.79 714.22L574.49 713.09H574.5Z" fill="#09072F"/>
<path d="M665.43 784.23C666.69 793.58 665.81 803.3 665.57 812.69V845.12L660.7 845.32L660.55 804.86C660.53 798.55 659.76 791.18 660.96 785L665.43 784.23Z" fill="#394486"/>
<path d="M534.65 662.06C534.63 657.53 533.27 643.57 535.88 640.75C537.54 643.31 536.48 645.97 538.81 647.58C549.45 647.44 560.37 648.42 568.5 656.28C577.51 664.99 575.45 679.5 575.44 691.02C575.44 696.33 576.76 708.87 574.5 713.09C573.14 712.81 572.59 712.54 571.58 711.58V700.01C571.6 688.35 574.61 667.85 565.7 659.28C557.54 651.43 547.9 652.11 537.39 652.22L536.21 662.28L534.64 662.06H534.65Z" fill="#F9F1E7"/>
<path d="M1482.04 744.98L1514.83 744.91L1514.9 763.06L1500.77 762.89C1500.78 774.89 1502.3 854.29 1499.98 858.67L1499.93 762.67L1479.67 762.24C1483.69 757.67 1478.52 749.99 1482.05 744.98H1482.04Z" fill="#1E1C5F"/>
<path d="M1401.76 699.94L1458.48 700.13C1461.91 700.13 1471.12 698.97 1474.02 700.1C1474.59 700.32 1474.95 700.9 1475.42 701.31L1475.4 709.62C1474.15 710.28 1472.96 710.98 1471.57 711.32C1466.56 709.78 1457.62 710.89 1452.23 710.89H1400.72C1401.63 707.83 1401.38 703.23 1401.76 699.94Z" fill="#1E3075"/>
<path d="M1400.72 710.89H1452.23C1457.62 710.89 1466.56 709.78 1471.57 711.32V723.18C1463.62 722.25 1454.99 722.86 1446.96 722.84L1399.53 722.67C1399.67 718.24 1398.51 714.88 1400.72 710.88V710.89Z" fill="#09072F"/>
<path d="M1377.71 693.43C1381.01 693.45 1399.1 692.8 1400.4 694.24C1401.6 695.59 1401.59 698.21 1401.76 699.94C1401.38 703.23 1401.63 707.83 1400.72 710.89C1398.51 714.89 1399.68 718.25 1399.53 722.68L1393.89 723.05C1392.17 726.62 1392.98 732.71 1392.99 736.69L1394.69 744.42L1377.67 744.49L1377.97 738.19C1377.27 733.24 1377.76 727.56 1377.75 722.52L1377.72 693.43H1377.71Z" fill="#1E1C5F"/>
<path d="M1356.29 738.19L1356.39 693.52L1377.71 693.42L1377.74 722.51C1377.75 727.55 1377.26 733.22 1377.96 738.18L1377.66 744.48L1356.24 744.44L1356.28 738.19H1356.29Z" fill="#9879AB"/>
<path d="M1356.29 738.189H1377.96L1377.66 744.479L1356.24 744.439L1356.28 738.189H1356.29Z" fill="#7F82CC"/>
<path d="M1399.53 722.68L1446.96 722.85C1454.99 722.88 1463.62 722.26 1471.57 723.19L1472.14 723.47C1476.21 725.42 1482.48 726.32 1485.35 729.66L1484.45 733.68C1480.81 735.16 1476.5 734.74 1473.28 736.36L1471.09 744.62L1394.7 744.41L1393 736.68C1392.99 732.7 1392.19 726.61 1393.9 723.04L1399.54 722.67L1399.53 722.68Z" fill="#F9F1E7"/>
<path d="M1392.99 736.69L1473.28 736.37L1471.09 744.63L1394.7 744.42L1393 736.69H1392.99Z" fill="#415E9D"/>
<path d="M463.01 758.71L457.69 758.05C456.75 757.18 455.56 756.5 455.3 755.22C454.52 751.43 454.21 748.82 456.42 745.49C457.4 744.96 458.51 744.42 459.64 744.34C470.39 743.54 481.62 744.19 492.44 744.18L563.71 744.41L615.87 744.21C624.02 744.18 632.92 743.38 640.94 744.34C643.94 744.7 643.93 745.42 645.75 747.74C645.9 751.13 646.05 752.44 644.48 755.56C641.52 758.28 637.77 757.88 633.99 757.97L529.11 758.53L482.93 758.26C477.28 758.26 469.34 757.4 463.94 758.62L463.01 758.72V758.71Z" fill="#1E3075"/>
<path d="M392.51 899.1L392.6 861.85H467.22L467.12 881.5L466.8 899.58L392.86 899.68L392.5 899.1H392.51Z" fill="#577FDF"/>
<path d="M534.65 662.06L536.22 662.28C541.35 665.36 549.89 660.98 555.42 664.4C559.1 668.87 556.86 726.35 556.82 736.02C556.27 736.88 555.38 738.86 554.42 739.09C546.55 740.95 535.53 739.58 527.21 739.52C524.71 739.5 519.86 740.14 517.74 738.82L517.93 666.14C518.33 665.68 519.8 663.63 520.23 663.47C523.81 662.15 530.43 664.93 533.85 662.65L534.64 662.07L534.65 662.06Z" fill="#ABD4F8"/>
<path d="M704.16 751.58L702 751.28C701.58 750.71 701.34 750.47 701.17 749.7C700.41 746.22 701.13 741.14 701.15 737.47L701.29 706.66L701.44 637.71C701.47 626.01 700.77 613.78 701.74 602.15C701.95 599.66 702.84 598.04 704.45 596.14C706.78 593.36 709.75 591.26 713.43 590.98C719.65 590.52 727.47 589.7 732.44 594.08C740.55 601.24 737.33 620.73 737.88 631.01L737.67 750.21C729.95 750.32 720.24 749.39 712.75 751.02L704.15 751.57L704.16 751.58Z" fill="#415E9D"/>
<path d="M1259.36 630.96C1259.32 622.42 1257.58 609.18 1261.17 601.48L1261.44 600.87C1263.76 595.8 1267.97 592.43 1273.2 590.6C1277.47 589.1 1283.36 589.63 1287.41 591.67C1292.14 594.06 1293.73 597.33 1296.7 601.4C1298.98 604.52 1297.83 819.22 1297.65 845.99C1293.42 846.75 1288.38 846.2 1284.05 846.18L1284.21 796.51C1284.23 788.3 1285.43 778.08 1283.34 770.15C1281.34 763.15 1278.7 762.46 1273.09 759.01L1272.43 758.6L1272 757.91C1268.62 752.72 1264.26 751.82 1258.45 750.6C1259.79 738.97 1258.78 726.15 1258.81 714.41L1259.35 630.95L1259.36 630.96Z" fill="#15123D"/>
<path d="M358.28 665.11L358.75 679.04C362.15 675.71 365.29 665.84 367.46 661.24L392.42 608.83L391.9 841.41L391.72 884.59C391.7 888.02 390.79 896.39 392.51 899.1L392.87 899.68L358.21 899.93L358.34 884.07L358.1 826.9L358.52 733.83C358.57 714.26 359.21 694.64 357.46 675.17L358.28 665.12V665.11Z" fill="#1E1C5F"/>
<path d="M463.95 758.62C469.35 757.4 477.28 758.26 482.94 758.26L529.12 758.53L634 757.97L633.89 834.03C633.88 838.92 635.12 853.32 632.23 856.89L609.19 856.57L604.07 856.8L484.55 856.62L466.09 856.67H464.52C464.07 856.19 463.46 855.84 463.16 855.27C461.99 853 463.16 840.26 463.16 837.1L463.02 758.72L463.95 758.62Z" fill="#29266C"/>
<path d="M545.17 829.85C548.39 831.02 553.07 831.4 555.48 833.9C556.09 834.53 555.64 836.95 555.58 837.89L552.49 838.81C549.81 838.8 545.89 838.88 543.37 838.05C541.73 837.51 541.72 836.67 541.09 835.24L545.16 829.86L545.17 829.85Z" fill="#09072F"/>
<path d="M544.57 783.91L546.85 783.5C550.44 783.12 554.38 784 557.14 786.18C557.82 788.52 557.64 788.61 556.77 790.75L553.46 791.3H551.18C547.01 791.22 542.28 791.35 539.37 788.3C540.27 786.19 542.69 785.09 544.56 783.9L544.57 783.91Z" fill="#09072F"/>
<path d="M463.95 758.62C469.35 757.4 477.28 758.26 482.94 758.26L529.12 758.53L634 757.97L633.89 834.03C633.88 838.92 635.12 853.32 632.23 856.89L609.19 856.57L609.35 812.83C593.06 812.8 469.23 814.78 464.25 812.26L464.12 807.37C464.58 806.92 464.95 806.35 465.51 806.03C465.98 805.76 469.39 806.03 470.09 806.03L488.53 806.07L609.62 806.41L609.66 769.81L463.93 770.7V758.62H463.95Z" fill="#09072F"/>
<path d="M1356.25 744.44L1377.67 744.48L1394.69 744.41L1471.08 744.62L1482.03 744.97C1478.5 749.98 1483.68 757.67 1479.65 762.23L1499.91 762.66L1499.96 858.66L1495.13 860.36C1492.18 859 1485.53 859.95 1482.15 860L1482.07 860.97V887.99C1482.06 891.21 1482.71 895.89 1481.59 898.8L1345.51 898.83L1345.28 913.42C1342.57 915.02 1339.56 914.5 1336.46 914.53C1335.31 913.84 1332.07 914.23 1330.62 914.22C1327.89 916.65 1310.2 914.41 1305.43 914.44L1305.28 899.7L1305.37 898.61C1311.97 900.67 1323.92 899.02 1331.11 899.01L1331.01 862.59C1328.32 859.1 1326.53 861.59 1323.26 859.17L1323.18 759.52L1303.49 759.6V744.52L1356.24 744.44H1356.25Z" fill="#29266C"/>
<path d="M1408.27 793.38L1403.96 789.28C1404.66 786.67 1405 786.53 1407.14 784.82L1415.04 786.69C1413.71 790.09 1412.95 791.38 1409.44 792.9L1408.27 793.38Z" fill="#09072F"/>
<path d="M1415.04 786.689C1418.24 787.359 1419.88 787.02 1421.78 789.77C1421.25 792.66 1421.26 792.69 1418.95 794.49C1415.08 795.61 1412.03 794.11 1408.27 793.38L1409.44 792.9C1412.95 791.37 1413.71 790.089 1415.04 786.689Z" fill="#1E1C5F"/>
<path d="M1417 831.5C1419.44 832.23 1421.34 832.57 1422.91 834.74C1422.57 838.59 1422.67 838.56 1419.79 841.1C1415.75 840.73 1412.03 839.18 1408.08 838.91C1409.34 838.74 1410.8 838.6 1411.97 838.08C1415.16 836.65 1415.77 834.42 1417.01 831.49L1417 831.5Z" fill="#1E1C5F"/>
<path d="M1408.08 838.92C1405.39 837.41 1402.87 836.04 1401.34 833.28C1403.41 832.49 1405.12 830.03 1406.6 828.41C1410.87 828.34 1413.33 829.42 1417.01 831.51C1415.78 834.44 1415.16 836.67 1411.97 838.1C1410.79 838.62 1409.34 838.76 1408.08 838.93V838.92Z" fill="#15123D"/>
<path d="M1305.29 899.71L1330.45 899.58L1330.64 914.22C1327.91 916.65 1310.22 914.41 1305.45 914.44L1305.3 899.7L1305.29 899.71Z" fill="#15123D"/>
<path d="M1482.17 860.01L1479.46 859.5C1476.99 856.3 1478.56 817.95 1478.6 811.65L1334.85 811.43L1333.74 809.32L1335.25 807.75L1478.97 807.27L1479.19 767.68C1464.01 767.68 1337.18 768.77 1334.27 767.46C1333.68 767.19 1333.23 766.7 1332.7 766.32L1332.83 762.9C1335.34 761.45 1339.38 762.06 1342.34 762.06L1367.09 762.04L1479.65 762.24L1499.91 762.67L1499.96 858.67L1495.13 860.37C1492.18 859.01 1485.53 859.96 1482.15 860.01H1482.17Z" fill="#09072F"/>
<path d="M1345.53 898.84C1343.87 887.05 1345.3 872.9 1345.29 860.87L1482.1 860.98V888C1482.09 891.22 1482.74 895.9 1481.62 898.81L1345.54 898.84H1345.53Z" fill="#577FDF"/>
<path d="M1259.36 630.96L1258.82 714.42C1258.79 726.16 1259.8 738.99 1258.46 750.61L1255.91 751.05L994.01 750.96L980.27 751.04L712.76 751.02C720.25 749.38 729.96 750.32 737.68 750.21L737.89 631.01L1101.3 631.16L1259.36 630.96Z" fill="url(#paint0_linear_11_22277)"/>
<path d="M761.92 684.48C762.29 679.17 761.45 673.79 760.9 668.52L816.13 658.05C859.64 651.26 901.7 652.64 945.22 658.72L945.83 659.97C938.97 660.26 932.29 658.91 925.5 658.3L888.24 656.29C881.61 656.05 875.19 655.38 868.54 656.24C862.78 656.98 856.94 656.4 851.16 657.29C839.76 659.04 828.31 659.71 816.92 661.97C797.22 665.87 778.74 673.46 761.93 684.48H761.92Z" fill="#ABD4F8"/>
<path d="M761.92 684.48C778.72 673.46 797.21 665.87 816.91 661.97C828.3 659.71 839.75 659.04 851.15 657.29C856.93 656.4 862.78 656.99 868.53 656.24C875.18 655.38 881.6 656.04 888.23 656.29L925.49 658.3C932.28 658.91 938.96 660.26 945.82 659.97L945.21 658.72L976.4 663.21L974.28 664.55L888.58 694.68C860.01 703.43 830.41 708.57 802.61 719.87C782.86 727.9 765.21 739.87 746.03 749.04C753.34 728.39 759.44 706.25 761.92 684.47V684.48Z" fill="#577FDF"/>
<path d="M976.4 663.2L984.68 664.5C985.38 667.23 983.33 672.55 982.24 675.26C985.46 675.24 998.02 676.24 1000.21 674.99C1002.17 682.6 1004.17 690.5 1004.72 698.36C1003.26 717.09 993.65 732.98 982.03 747.31L981.5 747.51L980.34 750.18L980.25 751.06L712.74 751.04C720.23 749.4 729.94 750.34 737.66 750.23C740.59 750.15 743.26 750.16 746.02 749.07C765.19 739.89 782.85 727.93 802.6 719.9C830.4 708.59 859.99 703.45 888.57 694.71L974.27 664.58L976.39 663.24L976.4 663.2Z" fill="#466EC7"/>
<path d="M976.4 663.2L984.68 664.5C985.38 667.23 983.33 672.55 982.24 675.26C978 691.15 970.79 705.91 967.74 722.22C965.99 731.33 964.35 740.75 964.93 750.07L953.19 749.99C947.84 741.72 943.63 732.87 943.11 722.88C941.97 700.89 960.65 679.95 974.28 664.55L976.4 663.21V663.2Z" fill="#415E9D"/>
<path d="M982.24 675.26C985.46 675.24 998.02 676.24 1000.21 674.99C1002.17 682.6 1004.17 690.5 1004.72 698.36C1003.26 717.09 993.65 732.98 982.03 747.31L981.5 747.51L980.34 750.18L964.91 750.08C964.33 740.76 965.97 731.35 967.72 722.23C970.77 705.92 977.98 691.15 982.22 675.27L982.24 675.26Z" fill="#081643"/>
<path d="M967.74 722.23C971.5 723.68 978.89 741.591 980.99 746.311L981.51 747.51L980.35 750.181L964.92 750.08C964.34 740.76 965.98 731.35 967.73 722.23H967.74Z" fill="#09072F"/>
<path d="M1086.15 664.72C1115.21 665.27 1145 666.24 1173.7 671.26L1205.75 676.36C1207.86 676.71 1214.02 677.11 1215.26 678.5L1211.44 688.05C1223.03 700.19 1233.98 712.31 1243.43 726.25C1248.4 733.58 1252.36 741.6 1257.56 748.74C1256.94 749.42 1256.52 749.82 1255.75 750.36L1255.89 751.07L993.99 750.98L980.25 751.06L980.34 750.18L981.5 747.51L982.03 747.31C993.65 732.98 1003.26 717.1 1004.72 698.36C1004.17 690.5 1002.17 682.6 1000.21 674.99C1007.54 672.66 1016.1 671.9 1023.72 670.47C1044.6 666.22 1064.91 665.09 1086.14 664.72H1086.15Z" fill="#415E9D"/>
<path d="M1205.76 676.36C1207.87 676.71 1214.03 677.11 1215.27 678.5L1211.45 688.05L1189.48 750.33C1182.08 749.52 1173.85 750.22 1166.35 750.21L1166.03 749.11C1170.29 731.78 1174.93 713.96 1185.08 698.99C1190.9 690.41 1198.22 683.4 1205.75 676.37L1205.76 676.36Z" fill="#394486"/>
<path d="M1211.46 688.04C1223.05 700.18 1234 712.3 1243.45 726.24C1248.42 733.57 1252.38 741.59 1257.58 748.73C1256.96 749.41 1256.54 749.81 1255.77 750.35L1189.49 750.33L1211.46 688.05V688.04Z" fill="#15123D"/>
<path d="M1086.15 664.72C1115.21 665.27 1145 666.24 1173.7 671.26C1167.01 675.16 1159.48 677.82 1152.34 680.79C1138.08 686.73 1123.6 692.23 1108.56 695.95C1094.65 699.39 1080.69 701.5 1067.25 706.7C1037.56 718.17 1011.95 736.51 983.28 749.8L994 750.96L980.26 751.04L980.35 750.16L981.51 747.49L982.04 747.29C993.66 732.96 1003.27 717.08 1004.73 698.34C1004.18 690.48 1002.18 682.58 1000.22 674.97C1007.55 672.64 1016.11 671.88 1023.73 670.45C1044.61 666.2 1064.92 665.07 1086.15 664.7V664.72Z" fill="#577FDF"/>
<path d="M1000.22 674.99C1007.55 672.66 1016.11 671.9 1023.73 670.47C1016.15 679.56 1010.13 687.78 1004.73 698.36C1004.18 690.5 1002.18 682.6 1000.22 674.99Z" fill="#ABD4F8"/>
<path d="M1758.68 616.51C1764.89 618.01 1769.3 620.31 1772.77 625.88C1773.9 627.68 1774.76 629.31 1775.17 631.42C1776.73 639.38 1775.69 649.29 1775.68 657.46C1775.68 662.19 1776.34 668.5 1775.16 673.04C1774.19 676.76 1771.5 680.17 1768.11 681.96C1766.09 683.03 1764.09 683.84 1761.78 683.85L1759.1 683.18L1758.69 616.5L1758.68 616.51Z" fill="#15123D"/>
<path d="M1600.28 534.849L1654.45 534.689L1654.41 556.679L1599.89 556.709L1600.29 534.849H1600.28Z" fill="#1E3075"/>
<path d="M1901.15 506.28L1928.09 505.89L1928.05 531.32L1904.33 531.28L1877.29 531.23L1877.27 506.39L1901.15 506.28Z" fill="#29266C"/>
<path d="M1552.87 83.7302L1607.43 83.6602L1607.27 108.73H1552.77L1552.87 83.7202V83.7302Z" fill="#1E3075"/>
<path d="M1797.01 41.3799L1851.52 41.3398L1851.45 66.8098L1797.04 67.0898L1797.01 41.3899V41.3799Z" fill="#1E3075"/>
<path d="M1712.56 606.03C1714.17 615.72 1713.32 626.65 1713.37 636.51L1713.46 696.46C1713.46 701.24 1712.15 711.6 1713.97 715.8C1714.83 716.36 1715.4 716.56 1716.43 716.6C1726.21 716.94 1743.71 719 1751.09 711.79C1758.02 705.02 1756.43 694.05 1756.64 685.14C1752.52 684.51 1747.86 684.06 1744.41 681.52C1740.41 678.57 1737.66 674.39 1737.09 669.42C1736.45 663.81 1736.77 657.78 1736.76 652.13C1736.74 643.73 1735.17 630.75 1740.8 623.93C1745.76 617.93 1751.41 617.21 1758.68 616.52L1759.09 683.2L1761.77 683.87L1759.12 685.2C1758.83 694.53 1760.53 706.62 1752.97 713.58C1747.27 718.82 1740.46 719.2 1733.13 718.85C1726.91 717.77 1719.78 718.4 1713.42 718.43V772.2L1712.45 773.17C1710.84 770.74 1711.48 767.44 1711.48 764.55V738.96L1687.98 738.91C1686.67 738.68 1685.47 738.22 1684.24 737.73C1676.93 734.77 1672.88 730.2 1669.55 723.16C1667.16 718.11 1667.74 712.42 1667.74 706.95L1667.83 682.29L1669.23 681.78C1669.3 685.52 1669.12 689.5 1669.86 693.17C1669.9 701.73 1668.46 714.18 1671.45 722.09C1673.66 727.98 1677.87 732.12 1683.45 734.83C1690.41 738.21 1703.32 736.55 1711.18 736.53L1711.22 609.12L1712.55 606.05L1712.56 606.03Z" fill="#081643"/>
<path d="M1667.12 680.72C1660.94 679.52 1655.36 681 1649.86 676.89C1645.68 673.77 1642.26 668.4 1641.65 663.19C1640.48 653.31 1641.31 642.42 1641.31 632.44C1641.31 626.72 1640.51 619.49 1641.88 614.03C1642.68 610.8 1644.82 607.21 1646.96 604.66C1652.11 598.54 1659.77 597.97 1667.16 597.28C1675.36 598.45 1680.7 600.36 1685.91 607.21C1687.97 609.91 1689.7 613.93 1690.28 617.31C1691.47 624.36 1690.61 633.06 1690.61 640.28C1690.6 647.47 1691.46 656.18 1690.25 663.2C1689.19 669.35 1685.94 674.48 1680.72 677.91C1677.56 679.99 1673.77 680.42 1670.11 680.93C1670.07 684.12 1670.82 690.32 1669.88 693.14C1669.14 689.47 1669.32 685.49 1669.25 681.75L1667.85 682.26L1667.14 680.71L1667.12 680.72Z" fill="#1E3075"/>
<path d="M1711.23 609.1C1710.9 608.14 1710.48 607.33 1710.02 606.43L1703 605.53C1697.03 604.61 1692.5 601.59 1689.05 596.65C1684.74 590.47 1685.49 582.56 1685.47 575.42V551.55C1685.49 543.98 1684.56 534.81 1686.06 527.43L1686.29 526.34C1687.09 522.38 1688.75 519.54 1691.51 516.57C1697.94 509.61 1704.79 508.58 1713.81 508.07C1722.24 509.7 1728.56 512.06 1733.55 519.5C1735.27 522.07 1736.9 525.61 1737.31 528.7C1738.83 540.38 1737.61 553.64 1737.58 565.49C1737.58 573.01 1738.66 582.86 1737.03 590.01C1735.81 595.33 1731.39 600.71 1726.73 603.42C1722.99 605.58 1717.95 606.14 1713.74 606.96L1713.96 715.79C1712.15 711.59 1713.45 701.23 1713.45 696.45L1713.36 636.5C1713.31 626.64 1714.15 615.71 1712.55 606.02L1711.22 609.09L1711.23 609.1Z" fill="#1E3075"/>
<path d="M1687.99 738.88L1711.49 738.93V764.52C1711.49 767.41 1710.85 770.72 1712.46 773.14L1713.43 772.17V718.4C1719.79 718.37 1726.91 717.74 1733.14 718.82L1713.98 719.02L1714 774.25L1738.97 774.33C1731.09 804.58 1713.33 831.61 1686.05 847.56C1678.95 851.71 1671.31 854.23 1663.55 856.78L1642.32 795.01C1640.53 788.24 1637.69 781.62 1636.73 774.68L1710.89 774.2V739.61C1703.67 739.64 1696.08 740.08 1688.93 739.02L1687.98 738.87L1687.99 738.88Z" fill="#1E1C5F"/>
<path d="M1828.01 172.56L1849.87 172.46L1849.9 433.18H1656.8L1609.56 433.3C1605.95 433.3 1598.77 434.29 1595.47 433.32C1593.73 432.81 1591.18 430.76 1589.55 429.8C1586.04 427.73 1580.59 425.77 1577.7 423.12L1576.44 421.6H1828.34L1828.01 172.56Z" fill="#1E1C5F"/>
<path d="M1738.97 774.33H1781.79C1777.5 803.91 1772.64 833.96 1763.59 862.5L1749.01 898.4C1743.67 899.47 1736.88 898.7 1731.39 898.7L1694.63 898.82C1689.87 898.85 1683.6 899.95 1679.45 897.69L1665.68 862.63L1663.55 856.8C1671.31 854.24 1678.95 851.73 1686.05 847.58C1713.32 831.63 1731.08 804.6 1738.97 774.35V774.33Z" fill="#09072F"/>
<path d="M1576.44 421.6C1575.42 413.56 1576.25 404.38 1576.25 396.24L1576.27 342.12L1576.37 162.27L1827.81 162.66C1827.61 166.02 1827.74 169.21 1828.01 172.56L1828.34 421.59H1576.44V421.6Z" fill="#15123D"/>
<path d="M1581.14 165.8L1824.31 165.56L1823.9 416.58L1581.05 416.62L1581.14 165.8Z" fill="url(#paint1_linear_11_22277)"/>
<path d="M1599.94 185.37L1803.71 185.95L1803.69 398.43L1600.41 398.88L1599.95 185.37H1599.94Z" fill="#081643"/>
<path d="M1604.87 191.05L1797.95 191L1797.79 392.63L1605.15 392.6L1604.88 191.05H1604.87Z" fill="url(#paint2_linear_11_22277)"/>
<path d="M1613.92 315.89L1614.69 198.11L1780.64 198.68C1778.76 198.87 1775.25 198.73 1773.61 199.39C1771.31 200.31 1767.81 203.81 1765.73 205.35C1757.31 211.56 1748.59 217.37 1740.51 224.05L1613.92 315.89Z" fill="url(#paint3_linear_11_22277)"/>
<path d="M1788.2 260.05L1788.01 317.34C1788.04 328.29 1789.14 341.15 1787.35 351.88L1787.38 379.92L1704.64 379.83L1625.7 379.94L1754.63 285.99C1765.08 278.12 1780.04 269.96 1788.19 260.05H1788.2Z" fill="url(#paint4_linear_11_22277)"/>
<path d="M1704.65 379.83C1707.06 376.56 1711.02 374.37 1714.32 372.05L1735.1 357.72L1787.03 320.37L1787.36 351.88L1787.39 379.92L1704.65 379.83Z" fill="#7F82CC"/>
<path d="M1780.64 198.68L1787.23 198.91C1789.89 203.02 1788.18 237.24 1788.23 245.01L1788.21 260.06C1780.06 269.97 1765.1 278.13 1754.65 286L1625.72 379.95L1614.39 379.61C1612.25 375.83 1613.33 367.4 1613.36 362.86C1613.43 348.11 1612.43 332.19 1614.18 317.58L1613.93 315.9L1740.52 224.06C1748.59 217.38 1757.31 211.58 1765.74 205.36C1767.83 203.82 1771.33 200.32 1773.62 199.4C1775.26 198.74 1778.77 198.88 1780.65 198.69L1780.64 198.68Z" fill="#9EA9E4"/>
<path d="M1782.39 248.56L1788.23 245L1788.21 260.05C1780.06 269.96 1765.1 278.12 1754.65 285.99L1625.72 379.94L1614.39 379.6C1614.16 377.79 1614.51 375.88 1614.72 374.07C1625.05 364.07 1638.52 356.38 1650.15 347.96L1718.37 298.06L1749.28 275.16C1753.04 272.31 1757.81 267.42 1761.82 265.35C1765.59 263.4 1769.92 257.35 1773.44 256.17C1774.52 255.8 1774.59 253.33 1776.23 252.4C1778.01 251.39 1778.85 250.86 1780.29 249.37C1781.1 248.52 1781.27 248.7 1782.39 248.55V248.56Z" fill="url(#paint5_linear_11_22277)"/>
<path d="M1780.64 198.68L1787.23 198.91C1789.89 203.02 1788.18 237.24 1788.23 245.01L1782.39 248.57L1786.73 243.87C1785.14 238.46 1786.62 232.77 1785.75 227.25L1780.45 231.07L1779.54 231.59C1772.34 238.46 1763.16 243.93 1755.22 249.99C1750.35 253.72 1742.9 260.89 1737.03 262.3C1732.8 263.31 1726.33 269.11 1722.72 271.81L1698.78 289.34L1614.27 351.71C1614.32 341.37 1615.91 327.59 1614.17 317.59L1613.92 315.91L1740.51 224.07C1748.58 217.39 1757.3 211.59 1765.73 205.37C1767.82 203.83 1771.32 200.33 1773.61 199.41C1775.25 198.75 1778.76 198.89 1780.64 198.7V198.68Z" fill="url(#paint6_linear_11_22277)"/>
<path d="M264.92 110.89L314.73 110.79V137.51L264.81 137.79L264.91 110.89H264.92Z" fill="#1E3075"/>
<path d="M453.48 237.15L503.63 237.03L503.47 264.38L453.39 264.32L453.49 237.14L453.48 237.15Z" fill="#1E3075"/>
<path d="M27.73 181.7L81.01 181.45L80.95 208.63H27.67L27.73 181.7Z" fill="#1E3075"/>
<path d="M161.32 0.459961H215.91L215.87 28.99L161.24 29.03L161.33 0.459961H161.32Z" fill="#29266C"/>
<path d="M70.09 863.14L69.69 227.14L392.63 227.2L392.54 253.36L392.6 608.24L392.42 608.84L367.46 661.25C365.29 665.85 362.15 675.72 358.75 679.05L358.28 665.12L357.46 675.17L356.43 676.04C356.39 677.42 356.57 680.08 355.75 681.19C354.96 682.26 355.67 681.26 355.08 682.44C354.47 683.66 353.24 684.4 352.17 685.19V686.18C350.8 688.16 349.54 689.9 347.77 691.55C347.51 692.58 347.55 693.23 346.77 693.97C345.37 695.3 344.96 695.97 344.1 697.65C343.17 699.48 341.35 701.79 340.19 703.52C338.84 705.54 337.43 707.19 336.28 709.38C334.35 713.07 330.48 717.18 327.97 720.62C323.82 726.3 320.13 732.88 315.27 737.98C314.61 728.35 315.04 718.54 315.01 708.88C315 704.67 315.64 699.71 313.82 695.82L312.83 317.49C312.86 314.23 313.81 308.8 311.61 306.5L193.61 306.46C185.7 306.42 157.6 304.59 152.45 307.37C150.3 340.06 151.63 373.79 151.46 406.61L151.37 432.37C151.37 436.17 150.75 440.81 152.16 444.33L102.44 482.92L102.17 884.32L102.12 898.89C92.32 898.89 79.56 900.49 70.13 898.58L70.08 863.16L70.09 863.14Z" fill="#09072F"/>
<path d="M102.44 482.91L102.56 323.66L102.47 281.19C102.47 276.06 101.52 268.56 102.89 263.72L358.67 263.82L358.59 280.7V281.61L312.84 317.49C312.87 314.23 313.82 308.8 311.62 306.5L193.62 306.46C185.71 306.42 157.61 304.59 152.46 307.37C150.31 340.06 151.64 373.79 151.47 406.61L151.38 432.37C151.38 436.17 150.76 440.81 152.17 444.33L102.45 482.92L102.44 482.91Z" fill="#081643"/>
<path d="M358.56 281.61L358.27 665.11L357.45 675.16L356.42 676.03C356.38 677.41 356.56 680.07 355.74 681.18C354.95 682.25 355.66 681.25 355.07 682.43C354.46 683.65 353.23 684.39 352.16 685.18V686.17C350.79 688.15 349.53 689.89 347.76 691.54C347.5 692.57 347.54 693.22 346.76 693.96C345.36 695.29 344.95 695.96 344.09 697.64C343.16 699.47 341.34 701.78 340.18 703.51C338.83 705.53 337.42 707.18 336.27 709.37C334.34 713.06 330.47 717.17 327.96 720.61C323.81 726.29 320.12 732.87 315.26 737.97C314.6 728.34 315.03 718.53 315 708.87C314.99 704.66 315.63 699.7 313.81 695.81L312.82 317.48L358.56 281.6V281.61Z" fill="#1E3075"/>
<path d="M325.17 567.28L344.09 567.16L344.62 652.62L324.97 652.79L325.17 567.29V567.28Z" fill="#15123D"/>
<path d="M152.44 307.37C157.59 304.59 185.69 306.43 193.6 306.46L311.6 306.5C313.8 308.79 312.85 314.22 312.82 317.49L313.81 695.82C315.63 699.71 314.98 704.67 315 708.88C315.03 718.54 314.61 728.35 315.26 737.98C320.12 732.88 323.81 726.31 327.96 720.62C330.47 717.18 334.34 713.07 336.27 709.38C337.42 707.18 338.83 705.53 340.18 703.52C341.33 701.8 343.16 699.48 344.09 697.65C344.95 695.97 345.36 695.3 346.76 693.97C347.54 693.23 347.5 692.57 347.76 691.55C349.53 689.9 350.79 688.16 352.15 686.18V685.19C353.23 684.4 354.46 683.66 355.07 682.44C355.67 681.25 354.95 682.25 355.74 681.19C356.56 680.09 356.38 677.42 356.42 676.04L357.45 675.17C359.2 694.64 358.56 714.26 358.51 733.83L358.09 826.9L358.33 884.07L102.16 884.3L102.43 482.9L152.15 444.31C150.73 440.79 151.35 436.16 151.36 432.35L151.45 406.59C151.63 373.78 150.3 340.04 152.44 307.35V307.37Z" fill="url(#paint7_linear_11_22277)"/>
<path d="M152.44 307.37L172.34 307.28L172.82 308.05C167.38 308.14 161.54 307.81 156.17 308.64L154.23 310.32L154.31 442.35L154.39 822.67L152.57 823.45C150.92 813.7 152.16 802.09 152.15 792.11L152.1 721.88L152.15 444.32C150.73 440.8 151.35 436.17 151.36 432.36L151.45 406.6C151.63 373.79 150.3 340.05 152.44 307.36V307.37Z" fill="#15123D"/>
<path d="M152.44 307.37C157.59 304.59 185.69 306.43 193.6 306.46L311.6 306.5C313.8 308.79 312.85 314.22 312.82 317.49L313.81 695.82L313.37 824.28C296.85 824.33 156.57 826.01 152.57 823.46L154.39 822.68C157.57 821.52 162.65 821.91 166.06 821.83L194.69 821.67L311.36 821.79L310.3 736.89L311.47 334.18C312.65 325.25 310.44 317.83 310.14 309.07C305.76 308.31 300.66 308.77 296.21 308.76H267.76L156.16 308.65C161.53 307.82 167.37 308.15 172.81 308.06L172.33 307.29L152.43 307.38L152.44 307.37Z" fill="#09072F"/>
<path d="M156.18 308.64L267.78 308.74H296.23C300.68 308.76 305.79 308.3 310.16 309.06C310.45 317.82 312.67 325.24 311.49 334.17C310.63 329.47 311.09 323.98 311.02 319.18L301.04 327.93L301.34 721.07V752.58C301.34 756.95 301.99 763.24 300.37 767.3L300.68 768.2C301.96 772.23 300.45 776.1 300.31 779.94V799.05C300.33 802.67 301.14 806.38 301.09 810.26L298.74 811.85V330.45C297.15 330.53 294.63 333 293.3 334.02L275.92 347.57L166.54 433.76L166.1 534.31L166.39 595.73L166.35 704.53L166.31 770.08C166.31 780.87 167.31 792.75 165.8 803.36L164.02 805.25C162.68 793.57 163.69 780.83 163.67 769.03L163.58 693.01L164.02 435.46C161.02 438.07 157.64 440.16 154.32 442.34L154.24 310.31L156.18 308.63V308.64Z" fill="#081643"/>
<path d="M102.44 482.91L152.16 444.32L152.11 721.88L152.16 792.11C152.17 802.09 150.93 813.7 152.58 823.45C156.58 826 296.86 824.33 313.38 824.27L313.82 695.81C315.64 699.7 314.99 704.66 315.01 708.87C315.04 718.53 314.62 728.34 315.27 737.97C320.13 732.87 323.82 726.3 327.97 720.61C330.48 717.17 334.35 713.06 336.28 709.37C337.43 707.17 338.84 705.52 340.19 703.51C341.34 701.79 343.17 699.47 344.1 697.64C344.96 695.96 345.37 695.29 346.77 693.96C347.55 693.22 347.51 692.56 347.77 691.54C349.54 689.89 350.8 688.15 352.16 686.17V685.18C353.24 684.39 354.47 683.65 355.08 682.43C355.68 681.24 354.96 682.24 355.75 681.18C356.57 680.08 356.39 677.41 356.43 676.03L357.46 675.16C359.21 694.63 358.57 714.25 358.52 733.82L358.1 826.89L358.34 884.06L102.17 884.29L102.44 482.89V482.91Z" fill="url(#paint8_linear_11_22277)"/>
<path d="M166.09 534.33L166.53 433.78L275.91 347.59L293.29 334.04C294.62 333.03 297.14 330.55 298.73 330.47V811.87L297.58 812.05C287 813.13 275.15 812.21 264.44 812.22L193.01 812.18L172.01 812.16C170.66 812.16 167.14 812.6 165.99 812.16C165.35 811.91 164.29 810.78 163.71 810.31L164.02 805.27L165.8 803.38C167.3 792.77 166.3 780.89 166.31 770.1L166.35 704.55L166.39 595.75L166.1 534.33H166.09Z" fill="url(#paint9_linear_11_22277)"/>
<path d="M297.31 763.38C299.34 766.22 298.24 802.44 298.51 809.64L259.82 809.58C261.87 805.33 266.52 800.82 269.52 797.1L297.31 763.38Z" fill="#1E3075"/>
<path d="M712.75 751.03L980.26 751.05L994 750.97L1255.9 751.06L1258.45 750.62C1264.26 751.83 1268.62 752.73 1272 757.93L1272.43 758.62L1273.09 759.03C1278.7 762.48 1281.34 763.17 1283.34 770.17C1285.43 778.1 1284.23 788.32 1284.21 796.53L1284.05 846.2C1288.38 846.22 1293.42 846.77 1297.65 846.01L1303.98 845.56C1307.23 849.58 1304.41 889.78 1305.38 898.64L1305.29 899.73L1305.44 914.47C1310.21 914.44 1327.91 916.68 1330.63 914.25C1332.08 914.26 1335.31 913.87 1336.47 914.56C1339.57 914.52 1342.58 915.05 1345.29 913.45L1345.52 898.86L1481.6 898.83C1482.72 895.93 1482.07 891.24 1482.08 888.02V861L1482.16 860.03C1485.54 859.98 1492.19 859.04 1495.14 860.39L1496.18 862.72L1496.82 862.53L1665.68 862.64L1679.45 897.7C1683.6 899.96 1689.86 898.86 1694.63 898.83L1731.39 898.71C1736.88 898.71 1743.66 899.49 1749.01 898.41L1763.59 862.51L1961.16 862.61V1135.06H-40.2V863.52L70.09 863.15L70.14 898.57C79.57 900.48 92.34 898.88 102.13 898.88L102.18 884.31L358.35 884.08L358.22 899.94L392.88 899.69L466.82 899.59L467.14 881.51C468.44 875.48 469.27 861.84 466.12 856.67L484.58 856.62L604.1 856.8L609.22 856.57L632.26 856.89L629.23 859.75L623.86 859.19C623.04 860.41 622.72 861.12 622.55 862.59C628.45 860.17 639.59 861.98 646.12 862.24C646.45 859.22 646.73 856.23 648.29 853.55C651.17 848.62 655.38 846.57 660.73 845.32L665.6 845.12V812.69C665.85 803.29 666.73 793.58 665.47 784.23L665.56 783.71L661.49 783.33L660.95 781.96C662.37 778.05 664.21 774.51 666.77 771.21C675.63 759.76 689.98 753.22 704.2 751.59L712.8 751.04L712.75 751.03Z" fill="#15123D"/>
<path d="M1482.17 860.01C1485.55 859.96 1492.2 859.02 1495.15 860.37L1496.19 862.7C1496.04 874.27 1497.36 887.36 1496.04 898.77L1495.93 911.23L1481.81 911.01L1481.61 898.81C1482.73 895.91 1482.08 891.22 1482.09 888V860.98L1482.17 860.01Z" fill="#1E1C5F"/>
<path d="M466.1 856.67L484.56 856.62L483.82 861.74L479.21 899.6C478.95 904.57 479.13 913.46 476.27 917.37L467.47 917.32C465.32 914.62 466.68 903.53 466.8 899.6L467.12 881.52C468.42 875.49 469.25 861.85 466.1 856.68V856.67Z" fill="#1E3075"/>
<path d="M-40.2 863.51L70.09 863.14L70.14 898.56C58.94 896.9 45.83 898.13 34.44 898.09L-40.2 897.83V863.51Z" fill="#577FDF"/>
<path d="M484.56 856.62L604.08 856.8L604.56 861.79L607.16 888.76C607.53 892.83 608.53 896.07 606.73 899.77C594.39 898.23 580.04 899.5 567.53 899.48L479.21 899.6L483.82 861.74L484.56 856.62Z" fill="#577FDF"/>
<path d="M484.56 856.62L604.08 856.8L604.56 861.79L483.82 861.74L484.56 856.62Z" fill="#415E9D"/>
<path d="M1665.69 862.62L1679.46 897.68C1675.02 899.61 1668.33 898.63 1663.45 898.64L1627.57 898.7L1496.04 898.76C1497.36 887.36 1496.04 874.26 1496.19 862.69L1496.83 862.5L1665.69 862.61V862.62Z" fill="#466EC7"/>
<path d="M1763.59 862.5L1961.16 862.6V897.73L1749 898.4L1763.58 862.5H1763.59Z" fill="#466EC7"/>
<path d="M712.75 751.03L980.26 751.05L994 750.97L1255.9 751.06L1258.45 750.62C1264.26 751.83 1268.62 752.73 1272 757.93L1272.43 758.62L1273.09 759.03C1278.7 762.48 1281.34 763.17 1283.34 770.17C1285.43 778.1 1284.23 788.32 1284.21 796.53L1284.05 846.2C1288.38 846.22 1293.42 846.77 1297.65 846.01L1303.98 845.56C1307.23 849.58 1304.41 889.78 1305.38 898.64L1305.29 899.73L1305.44 914.47C1310.21 914.44 1327.91 916.68 1330.63 914.25C1332.08 914.26 1335.31 913.87 1336.47 914.56L1336.92 914.86C1342.97 918.44 1384.93 918.13 1393.9 918.77L1545.36 932.93C1577.49 937.15 1609.67 941.68 1640.68 951.41C1646.17 953.13 1658.78 956.15 1660.99 961.84C1659.73 965.68 1655.55 967.87 1652.14 969.56C1637.25 976.95 1618.48 980.61 1602.22 983.81C1559.42 992.23 1515.97 996.2 1472.59 1000.12L1289.12 1011.53L994.67 1018.05C840.38 1018.1 685.69 1015.07 532.02 1000.38L429.88 988.59C406.56 985.14 382.36 981.38 360.03 973.61C354.8 971.79 344.48 968.59 342.04 963.11C341.33 961.51 341.98 960.65 342.5 959.06C357.71 943.37 424.23 935.39 447.23 932.05C448.09 931.46 449.92 929.87 450.84 929.59C452.48 929.09 454.32 929.95 456.22 929.23C458.68 928.3 461.42 928.96 463.99 928.36C467.17 927.62 470.71 928.33 473.73 927.4C476.88 926.43 481.73 927.62 484.07 926.66C487.36 925.31 489.76 926.18 493.35 925.68L517.29 922.75C524.7 921.74 534.05 923.17 540.74 920.79C543.56 919.79 548.3 921.48 551.48 920.56C554.69 919.63 557.98 920.21 561.26 919.81C571 918.64 580.73 917.73 590.58 917.86L591.56 916.88L607.84 917.35L607.01 912.03C606.05 907.72 606.32 904.14 606.71 899.79C608.51 896.08 607.51 892.85 607.14 888.78L604.54 861.81L604.06 856.82L609.18 856.59L632.22 856.91L629.19 859.77L623.82 859.21C623 860.43 622.68 861.14 622.51 862.61C628.41 860.19 639.55 862 646.08 862.26C646.41 859.24 646.69 856.25 648.25 853.57C651.13 848.64 655.34 846.59 660.69 845.34L665.56 845.14V812.71C665.81 803.31 666.69 793.6 665.43 784.25L665.52 783.73L661.45 783.35L660.91 781.98C662.33 778.07 664.17 774.53 666.73 771.23C675.59 759.78 689.94 753.24 704.16 751.61L712.76 751.06L712.75 751.03Z" fill="#1E1C5F"/>
<path d="M606.73 899.76C610.95 904.43 606.14 912.25 610.15 916.32L618.46 916.271C620.9 913.361 620.04 903.83 620.2 899.73L645.78 899.82C645.85 905.11 646.5 911.651 645.33 916.771L447.25 932.021C448.11 931.431 449.94 929.841 450.86 929.561C452.5 929.061 454.34 929.92 456.24 929.2C458.7 928.27 461.44 928.93 464.01 928.33C467.19 927.59 470.73 928.3 473.75 927.37C476.9 926.4 481.75 927.59 484.09 926.63C487.38 925.28 489.78 926.151 493.37 925.651L517.31 922.72C524.72 921.71 534.07 923.14 540.76 920.76C543.58 919.76 548.32 921.451 551.5 920.531C554.71 919.601 558 920.181 561.28 919.781C571.02 918.611 580.75 917.7 590.6 917.83L591.58 916.85L607.86 917.32L607.03 912C606.07 907.69 606.34 904.11 606.73 899.76Z" fill="#09072F"/>
<path d="M1231.14 930.71L1282.02 931.04L1282.09 961.28L1231.06 961.1L1231.15 930.71H1231.14Z" fill="#15123D"/>
<path d="M663.53 930.3L713.37 930.04V961.41C710.31 962.88 703.68 962.07 700.15 962.08L663.31 962.12L663.53 930.3Z" fill="#09072F"/>
<path d="M609.2 856.56L632.24 856.88L629.21 859.74L623.84 859.18C623.02 860.4 622.7 861.11 622.53 862.58C628.43 860.16 639.57 861.97 646.1 862.23L645.85 898.83L645.78 899.81L620.2 899.72C620.04 903.81 620.9 913.35 618.46 916.26L610.15 916.31C606.14 912.24 610.95 904.42 606.73 899.75C608.53 896.04 607.53 892.81 607.16 888.74L604.56 861.77L604.08 856.78L609.2 856.55V856.56Z" fill="#1E3075"/>
<path d="M622.51 862.59C628.41 860.17 639.55 861.98 646.08 862.24L645.83 898.84H620.27L622.51 862.58V862.59Z" fill="#577FDF"/>
<path d="M1283.34 770.15C1285.43 778.08 1284.23 788.3 1284.21 796.51L1284.05 846.18C1288.38 846.2 1293.42 846.75 1297.65 845.99L1303.98 845.54C1307.23 849.56 1304.41 889.76 1305.38 898.62L1305.29 899.71L1305.44 914.45L1305.39 931.08L1282.02 931.05L1231.14 930.72C1213.37 928.85 1194.24 930.18 1176.31 930.2L1071.95 930.23L713.99 930.09L714.06 953.12C714.06 955.65 714.58 959.14 713.37 961.41V930.04L663.52 930.3C659.09 930.3 654.27 930.67 650.57 927.82C646.65 924.79 645.96 921.41 645.32 916.77C646.48 911.65 645.83 905.12 645.77 899.82L645.84 898.84L646.09 862.24C646.42 859.22 646.7 856.23 648.26 853.55C651.14 848.62 655.35 846.57 660.7 845.32L665.57 845.12H1283.2L1283.35 770.16L1283.34 770.15Z" fill="#081643"/>
<path d="M712.75 751.03L980.26 751.05L994 750.97L1255.9 751.06L1258.45 750.62C1264.26 751.83 1268.62 752.73 1272 757.93L1272.43 758.62L1273.09 759.03C1278.7 762.48 1281.34 763.17 1283.34 770.17L1283.19 845.15H665.56V812.71C665.8 803.31 666.68 793.6 665.42 784.25L665.51 783.73L661.44 783.35L660.9 781.98C662.32 778.07 664.16 774.53 666.72 771.23C675.58 759.78 689.93 753.24 704.15 751.61L712.75 751.06V751.03Z" fill="#415E9D"/>
<path d="M712.75 751.03L980.26 751.05L994 750.97L1255.9 751.06L1258.45 750.62C1264.26 751.83 1268.62 752.73 1272 757.93L1272.43 758.62L665.52 783.72L661.45 783.34L660.91 781.97C662.33 778.06 664.17 774.52 666.73 771.22C675.59 759.77 689.94 753.23 704.16 751.6L712.76 751.05L712.75 751.03Z" fill="url(#paint10_linear_11_22277)"/>
</g>
<defs>
<linearGradient id="paint0_linear_11_22277" x1="1250.08" y1="604.03" x2="747.74" y2="777.08" gradientUnits="userSpaceOnUse">
<stop stop-color="#02185A"/>
<stop offset="1" stop-color="#406BB1"/>
</linearGradient>
<linearGradient id="paint1_linear_11_22277" x1="1834.52" y1="397.74" x2="1569.96" y2="183.72" gradientUnits="userSpaceOnUse">
<stop stop-color="#113777"/>
<stop offset="1" stop-color="#36629F"/>
</linearGradient>
<linearGradient id="paint2_linear_11_22277" x1="1750.52" y1="409.07" x2="1652.09" y2="173.38" gradientUnits="userSpaceOnUse">
<stop stop-color="#B5C9E4"/>
<stop offset="1" stop-color="#FDFFFE"/>
</linearGradient>
<linearGradient id="paint3_linear_11_22277" x1="1702.54" y1="301.99" x2="1689.5" y2="191.23" gradientUnits="userSpaceOnUse">
<stop stop-color="#9AA8E6"/>
<stop offset="1" stop-color="#C6D1F1"/>
</linearGradient>
<linearGradient id="paint4_linear_11_22277" x1="1706.35" y1="382.88" x2="1714.7" y2="259.6" gradientUnits="userSpaceOnUse">
<stop stop-color="#8488D2"/>
<stop offset="1" stop-color="#AAB7EF"/>
</linearGradient>
<linearGradient id="paint5_linear_11_22277" x1="1677.91" y1="396.15" x2="1726.97" y2="231.38" gradientUnits="userSpaceOnUse">
<stop stop-color="#6D6EC5"/>
<stop offset="1" stop-color="#A0ADE8"/>
</linearGradient>
<linearGradient id="paint6_linear_11_22277" x1="1684.66" y1="363.36" x2="1719.85" y2="185.55" gradientUnits="userSpaceOnUse">
<stop stop-color="#747DCD"/>
<stop offset="1" stop-color="#B8C4F6"/>
</linearGradient>
<linearGradient id="paint7_linear_11_22277" x1="190.93" y1="831.08" x2="326.33" y2="324.56" gradientUnits="userSpaceOnUse">
<stop stop-color="#0B1B4E"/>
<stop offset="1" stop-color="#142E7D"/>
</linearGradient>
<linearGradient id="paint8_linear_11_22277" x1="49.44" y1="800.62" x2="315.07" y2="624.54" gradientUnits="userSpaceOnUse">
<stop stop-color="#0C194D"/>
<stop offset="1" stop-color="#113070"/>
</linearGradient>
<linearGradient id="paint9_linear_11_22277" x1="191.91" y1="812.99" x2="294.59" y2="333.49" gradientUnits="userSpaceOnUse">
<stop stop-color="#0B1847"/>
<stop offset="1" stop-color="#183587"/>
</linearGradient>
<linearGradient id="paint10_linear_11_22277" x1="1019.62" y1="878.69" x2="907.56" y2="649.53" gradientUnits="userSpaceOnUse">
<stop stop-color="#86B5DE"/>
<stop offset="1" stop-color="#A4D5EE"/>
</linearGradient>
</defs>
</svg>
