<svg width="1920" height="60" viewBox="0 0 1920 60" fill="none" xmlns="http://www.w3.org/2000/svg">
<path d="M-0.678501 60H1920.2V6.13931C1903.14 16.1645 1889.7 32.4893 1859.12 32.4893C1809.24 32.4893 1809.24 0.0100152 1759.36 0.0100152C1709.48 0.0100152 1709.48 32.4893 1659.61 32.4893C1609.74 32.4893 1609.74 0 1559.87 0C1510 0 1510 32.4793 1460.13 32.4793C1410.25 32.4793 1410.25 0 1360.38 0C1310.51 0 1310.51 32.4793 1260.63 32.4793C1210.75 32.4793 1210.76 0 1160.88 0C1111 0 1111.01 32.4793 1061.14 32.4793C1011.26 32.4793 1011.27 0 961.398 0C911.529 0 911.529 32.4793 861.651 32.4793C811.772 32.4793 811.782 0 761.903 0C712.024 0 712.034 32.4793 662.156 32.4793C612.277 32.4793 612.287 0 562.418 0C512.549 0 512.549 32.4793 462.671 32.4793C412.792 32.4793 412.802 0 362.923 0C313.044 0 313.054 32.4793 263.176 32.4793C213.297 32.4793 213.307 0 163.438 0C113.569 0 113.569 32.4793 63.6906 32.4793C31.1701 32.4793 18.0436 14.0313 -0.678501 4.31655V60Z" fill="#38388E"/>
<path d="M1936 21.582C1909.78 27.3408 1898.65 51.8179 1859.7 51.8179C1809.82 51.8179 1809.82 21.7723 1759.94 21.7723C1710.06 21.7723 1710.06 51.8179 1660.19 51.8179C1610.32 51.8179 1610.32 21.7723 1560.45 21.7723C1510.57 21.7723 1510.58 51.8179 1460.7 51.8179C1410.82 51.8179 1410.83 21.7723 1360.95 21.7723C1311.07 21.7723 1311.08 51.8179 1261.2 51.8179C1211.32 51.8179 1211.33 21.7723 1161.45 21.7723C1111.58 21.7723 1111.59 51.8179 1061.71 51.8179C1011.83 51.8179 1011.84 21.7723 961.96 21.7723C912.081 21.7723 912.091 51.8179 862.212 51.8179C812.334 51.8179 812.344 21.7723 762.465 21.7723C712.586 21.7723 712.596 51.8179 662.717 51.8179C612.838 51.8179 612.849 21.7723 562.97 21.7723C513.091 21.7723 513.101 51.8179 463.222 51.8179C413.343 51.8179 413.353 21.7723 363.475 21.7723C313.596 21.7723 313.606 51.8179 263.727 51.8179C213.848 51.8179 213.858 21.7723 163.98 21.7723C114.101 21.7723 114.111 51.8179 64.2321 51.8179C25.3439 51.8279 14.2129 27.3508 -12 21.582" stroke="#A5B5E5" stroke-width="2" stroke-miterlimit="10"/>
</svg>
