<svg width="376" height="85" viewBox="0 0 376 85" fill="none" xmlns="http://www.w3.org/2000/svg">
<path d="M16.0059 60.4922C10.5598 58.2348 4.9523 59.2698 3.47884 62.812C2.00537 66.3541 5.23346 71.051 10.6795 73.3136C16.1256 75.571 21.7331 74.5359 23.2066 70.9938C24.6801 67.4516 21.452 62.7548 16.0059 60.4922Z" fill="white"/>
<path d="M7.22758 76.1276C4.34834 74.9313 1.2348 75.8311 0.281993 78.1353C-0.67602 80.4395 0.885957 83.2743 3.7652 84.4706C6.64445 85.6669 9.75799 84.7671 10.7108 82.4629C11.6688 80.1586 10.1068 77.3239 7.22758 76.1276Z" fill="white"/>
<path d="M376 32.7375C376 21.6222 366.982 12.6134 355.856 12.6134C353.351 12.6134 350.951 13.0763 348.738 13.9085C343.959 10.6108 338.205 8.63431 331.994 8.48346C328.344 3.34969 322.346 0 315.567 0C309.319 0 303.733 2.84516 300.041 7.30275C295.61 5.2378 290.674 4.07789 285.463 4.07789C279.647 4.07789 274.169 5.51867 269.359 8.05695C264.829 5.52387 259.612 4.07789 254.051 4.07789C247.907 4.07789 242.18 5.84636 237.338 8.89437C234.355 5.73713 230.127 3.7606 225.431 3.7606C221.697 3.7606 218.261 5.00894 215.507 7.1051C211.258 5.12337 206.52 4.01027 201.522 4.01027C195.029 4.01027 188.979 5.88797 183.866 9.11283C180.17 4.71246 174.63 1.91411 168.429 1.91411C162.78 1.91411 157.677 4.23913 154.017 7.98413C150.227 6.3769 146.056 5.48746 141.677 5.48746C137.299 5.48746 133.232 6.3561 129.478 7.92692C125.886 4.60843 121.085 2.57989 115.806 2.57989C110.526 2.57989 105.934 4.52001 102.373 7.71366C97.0153 4.33796 90.6736 2.37703 83.8738 2.37703C78.5683 2.37703 73.5387 3.57335 69.0402 5.69552C65.0312 2.15337 59.7673 0 53.9932 0C44.0069 0 35.5306 6.43932 32.4796 15.3857C31.4278 15.2193 30.3553 15.1256 29.2567 15.1256C18.1302 15.1256 9.11238 24.1344 9.11238 35.2498C9.11238 46.3652 18.1302 55.374 29.2567 55.374C29.3087 55.374 29.366 55.374 29.4181 55.374C30.6573 65.3034 39.1284 72.9859 49.401 72.9859C55.5083 72.9859 60.9752 70.2656 64.6719 65.9796C70.1753 69.6362 76.772 71.7688 83.8738 71.7688C91.3869 71.7688 98.3377 69.3761 104.023 65.3242C108.189 70.0731 114.301 73.0795 121.122 73.0795C126.537 73.0795 131.504 71.1862 135.409 68.029C137.439 68.4347 139.532 68.6531 141.683 68.6531C144.666 68.6531 147.55 68.2318 150.284 67.462C154.283 70.9573 159.51 73.0795 165.242 73.0795C172.454 73.0795 178.873 69.7194 183.033 64.492C188.313 68.0498 194.675 70.1303 201.522 70.1303C207.921 70.1303 213.888 68.3098 218.954 65.1734C223.124 70.0315 229.304 73.1107 236.208 73.1107C242.326 73.1107 247.871 70.6921 251.958 66.765C252.651 66.8118 253.343 66.843 254.046 66.843C257.399 66.843 260.627 66.3125 263.657 65.3398C269.603 70.1771 277.189 73.0847 285.452 73.0847C291.179 73.0847 296.579 71.6803 301.337 69.2149C304.472 70.8429 308.033 71.774 311.813 71.774C315.807 71.774 319.555 70.7441 322.815 68.934C325.491 69.6934 328.313 70.1043 331.234 70.1043C336.097 70.1043 340.694 68.9756 344.786 66.9731C347.431 68.6999 350.597 69.709 353.992 69.709C363.301 69.709 370.851 62.167 370.851 52.8669C370.851 50.8748 370.502 48.9607 369.867 47.187C373.641 43.5304 375.995 38.4123 375.995 32.7427L376 32.7375Z" fill="white"/>
</svg>
