<svg width="352" height="70" viewBox="0 0 352 70" fill="none" xmlns="http://www.w3.org/2000/svg">
<path d="M21.0503 37.8344C21.0603 39.8658 21.9443 40.9505 23.5161 40.9674C25.1345 40.9876 25.9886 39.95 25.9919 37.9018C25.9986 31.1037 26.0085 24.3022 25.9853 17.504C25.9753 14.1353 24.0545 12.2151 20.6914 12.1982C15.6468 12.1747 10.6055 12.1747 5.5576 12.1915C1.92867 12.205 0.0278065 14.1319 0.0178369 17.8039C0.00454418 22.9176 0.0145138 28.0314 0.0178369 33.1451C0.0178369 34.9441 -0.0353341 36.743 0.0410993 38.5385C0.10424 40.0107 1.14772 40.9708 2.49362 40.9741C3.85945 40.9741 4.84976 40.0309 4.97272 38.5655C5.00927 38.1208 4.98601 37.666 4.98601 37.2146C4.98601 32.6061 4.97272 27.9977 5.00927 23.3892C5.00927 22.9951 5.01592 22.1293 5.58418 22.1428C6.26212 22.163 6.2455 22.9648 6.23553 23.4229C6.2455 23.7362 6.25879 24.0899 6.25879 24.4268C6.25879 38.0804 6.25879 51.7373 6.25879 65.3942C6.25879 67.8029 7.38203 68.955 9.26628 68.9954C11.2635 69.0358 12.3668 67.9174 12.3735 65.3673C12.3868 61.4326 12.3735 57.4979 12.3735 53.5665C12.3735 49.6352 12.3834 45.3872 12.4399 41.6209C12.4466 41.1628 12.5762 40.8966 13.0547 40.8461C13.633 40.8697 13.633 41.4626 13.633 41.6142C13.633 42.2778 13.6429 42.4732 13.6429 43.1369C13.6429 50.6694 13.6496 58.1986 13.6396 65.7277C13.6396 67.1359 14.0517 68.4733 15.4042 68.8438C16.3945 69.1167 17.8567 69.056 18.5912 68.4699C19.3455 67.8669 19.8174 66.4554 19.8241 65.3942C19.9005 51.5688 19.8739 37.7469 19.8673 23.9215C19.8673 23.6958 19.8473 23.5813 19.8573 23.2545C19.8739 22.8839 19.8008 22.2068 20.4056 22.2169C21.0204 22.227 21.0204 22.7829 21.0204 23.1501C21.0104 23.8946 21.047 24.4032 21.0437 25.0197C21.047 29.2879 21.0304 33.5595 21.047 37.8311L21.0503 37.8344Z" fill="#FFF6CC"/>
<path d="M17.9697 5.04976C17.9897 2.25033 15.7897 0 13.0448 0C10.2931 0 8.04335 2.26717 8.06329 5.01944C8.0799 7.71444 10.2699 9.93108 12.9351 9.9614C15.7598 9.99509 17.9531 7.85256 17.973 5.04976H17.9697Z" fill="#FFF6CC"/>
<path d="M57.0516 37.8363C57.0616 39.8678 57.9453 40.9525 59.5168 40.9694C61.1348 40.9896 61.9886 39.952 61.9919 37.9037C61.9986 31.1052 62.0085 24.3034 61.9853 17.5049C61.9753 14.136 60.055 12.2157 56.6928 12.1988C51.6495 12.1753 46.6095 12.1753 41.5628 12.1921C37.9282 12.2056 36.0278 14.1326 36.0178 17.8014C36.0045 22.9154 36.0145 28.0294 36.0178 33.1434C36.0178 34.9424 35.9647 36.7414 36.0411 38.537C36.1042 40.0093 37.1474 40.9694 38.493 40.9728C39.8585 40.9728 40.8485 40.0295 40.9714 38.564C41.008 38.1193 40.9847 37.6645 40.9847 37.2131C40.9847 32.6044 40.9714 27.9957 41.008 23.387C41.008 22.9929 41.0146 22.127 41.5828 22.1405C42.2605 22.1607 42.2439 22.9625 42.2339 23.4207C42.2439 23.734 42.2572 24.0878 42.2572 24.4246C42.2572 38.0789 42.2572 51.7364 42.2572 65.394C42.2572 67.8028 43.3802 68.955 45.2639 68.9954C47.2606 69.0358 48.3637 67.9174 48.3703 65.3671C48.3836 61.4322 48.3703 57.4973 48.3703 53.5658C48.3703 49.6342 48.3803 45.386 48.4368 41.6196C48.4434 41.1614 48.573 40.8953 49.0514 40.8447C49.6295 40.8683 49.6295 41.4613 49.6295 41.6129C49.6295 42.2765 49.6394 42.4719 49.6394 43.1356C49.6394 50.6685 49.6461 58.198 49.6361 65.7276C49.6361 67.1358 50.0481 68.4732 51.4003 68.8438C52.3903 69.1167 53.8522 69.056 54.5864 68.4699C55.3406 67.8668 55.8124 66.4552 55.819 65.394C55.8954 51.568 55.8688 37.7453 55.8622 23.9193C55.8622 23.6936 55.8423 23.579 55.8522 23.2523C55.8688 22.8817 55.7957 22.2045 56.4004 22.2146C57.015 22.2247 57.015 22.7806 57.015 23.1478C57.0051 23.8924 57.0416 24.4011 57.0383 25.0176C57.0416 29.286 57.025 33.5578 57.0416 37.8296L57.0516 37.8363Z" fill="#FFF6CC"/>
<path d="M53.9685 5.05001C53.9884 2.25044 51.789 -0.00336514 49.0447 3.77189e-06C46.2938 3.77189e-06 44.0446 2.26728 44.0646 5.01969C44.0812 7.71482 46.2706 9.93157 48.9351 9.96189C51.7591 9.99558 53.9518 7.85295 53.9718 5.05001H53.9685Z" fill="#FFF6CC"/>
<path d="M93.0516 37.8363C93.0616 39.8678 93.9453 40.9525 95.5168 40.9694C97.1348 40.9896 97.9886 39.952 97.9919 37.9037C97.9986 31.1052 98.0085 24.3034 97.9853 17.5049C97.9753 14.136 96.055 12.2157 92.6928 12.1988C87.6495 12.1753 82.6095 12.1753 77.5628 12.1921C73.9282 12.2056 72.0278 14.1326 72.0178 17.8014C72.0045 22.9154 72.0145 28.0294 72.0178 33.1434C72.0178 34.9424 71.9647 36.7414 72.0411 38.537C72.1042 40.0093 73.1474 40.9694 74.493 40.9728C75.8585 40.9728 76.8485 40.0295 76.9714 38.564C77.008 38.1193 76.9847 37.6645 76.9847 37.2131C76.9847 32.6044 76.9714 27.9957 77.008 23.387C77.008 22.9929 77.0146 22.127 77.5828 22.1405C78.2605 22.1607 78.2439 22.9625 78.2339 23.4207C78.2439 23.734 78.2572 24.0878 78.2572 24.4246C78.2572 38.0789 78.2572 51.7364 78.2572 65.394C78.2572 67.8028 79.3801 68.955 81.2639 68.9954C83.2606 69.0358 84.3637 67.9174 84.3703 65.3671C84.3836 61.4322 84.3703 57.4973 84.3703 53.5658C84.3703 49.6342 84.3803 45.386 84.4368 41.6196C84.4434 41.1614 84.573 40.8953 85.0514 40.8447C85.6295 40.8683 85.6295 41.4613 85.6295 41.6129C85.6295 42.2765 85.6394 42.4719 85.6394 43.1356C85.6394 50.6685 85.6461 58.198 85.6361 65.7276C85.6361 67.1358 86.0481 68.4732 87.4003 68.8438C88.3903 69.1167 89.8522 69.056 90.5864 68.4699C91.3406 67.8668 91.8124 66.4552 91.819 65.394C91.8954 51.568 91.8688 37.7453 91.8622 23.9193C91.8622 23.6936 91.8423 23.579 91.8522 23.2523C91.8688 22.8817 91.7957 22.2045 92.4004 22.2146C93.015 22.2247 93.015 22.7806 93.015 23.1478C93.0051 23.8924 93.0416 24.4011 93.0383 25.0176C93.0416 29.286 93.025 33.5578 93.0416 37.8296L93.0516 37.8363Z" fill="#FFF6CC"/>
<path d="M89.9685 5.05001C89.9884 2.25044 87.789 -0.00336514 85.0447 3.77189e-06C82.2938 3.77189e-06 80.0446 2.26728 80.0646 5.01969C80.0812 7.71482 82.2706 9.93157 84.9351 9.96189C87.7591 9.99558 89.9518 7.85295 89.9718 5.05001H89.9685Z" fill="#FFF6CC"/>
<path d="M129.861 37.8348C129.872 39.8663 130.789 40.9512 132.421 40.968C134.101 40.9882 134.988 39.9506 134.992 37.9022C134.999 31.1034 135.009 24.3012 134.985 17.5024C134.974 14.1333 132.98 12.2129 129.489 12.1961C124.251 12.1725 119.018 12.1725 113.777 12.1893C110.002 12.2028 108.029 14.1299 108.019 17.7989C108.005 22.9131 108.015 28.0274 108.019 33.1417C108.019 34.9407 107.963 36.7398 108.043 38.5355C108.108 40.0078 109.192 40.968 110.589 40.9714C112.007 40.9714 113.035 40.0281 113.163 38.5625C113.201 38.1178 113.176 37.663 113.176 37.2115C113.176 32.6026 113.163 27.9937 113.201 23.3848C113.201 22.9906 113.208 22.1248 113.797 22.1382C114.501 22.1584 114.484 22.9603 114.474 23.4185C114.484 23.7318 114.498 24.0856 114.498 24.4225C114.498 38.0774 114.498 51.7356 114.498 65.3939C114.498 67.8027 115.664 68.955 117.62 68.9954C119.694 69.0358 120.839 67.9173 120.846 65.3669C120.86 61.4318 120.846 57.4967 120.846 53.565C120.846 49.6333 120.856 45.3849 120.915 41.6183C120.922 41.1601 121.057 40.8939 121.553 40.8434C122.154 40.867 122.154 41.4599 122.154 41.6115C122.154 42.2752 122.164 42.4706 122.164 43.1343C122.164 50.6676 122.171 58.1975 122.161 65.7274C122.161 67.1357 122.588 68.4732 123.993 68.8438C125.021 69.1167 126.539 69.0561 127.301 68.4698C128.084 67.8668 128.574 66.4551 128.581 65.3939C128.661 51.5672 128.633 37.7438 128.626 23.9171C128.626 23.6914 128.605 23.5768 128.616 23.25C128.633 22.8794 128.557 22.2022 129.185 22.2124C129.823 22.2225 129.823 22.7784 129.823 23.1456C129.813 23.8902 129.851 24.3989 129.847 25.0154C129.851 29.2841 129.834 33.556 129.851 37.828L129.861 37.8348Z" fill="#FFF6CC"/>
<path d="M126.66 5.05026C126.68 2.25055 124.396 -0.00336531 121.546 3.77207e-06C118.69 3.77207e-06 116.354 2.2674 116.375 5.01993C116.392 7.7152 118.666 9.93205 121.433 9.96238C124.365 9.99607 126.642 7.85333 126.663 5.05026H126.66Z" fill="#FFF6CC"/>
<path d="M166.052 37.8363C166.062 39.8678 166.945 40.9525 168.517 40.9694C170.135 40.9896 170.989 39.952 170.992 37.9037C170.999 31.1052 171.009 24.3034 170.985 17.5049C170.975 14.136 169.055 12.2157 165.693 12.1988C160.649 12.1753 155.609 12.1753 150.563 12.1921C146.928 12.2056 145.028 14.1326 145.018 17.8014C145.005 22.9154 145.015 28.0294 145.018 33.1434C145.018 34.9424 144.965 36.7414 145.041 38.537C145.104 40.0093 146.147 40.9694 147.493 40.9728C148.858 40.9728 149.849 40.0295 149.971 38.564C150.008 38.1193 149.985 37.6645 149.985 37.2131C149.985 32.6044 149.971 27.9957 150.008 23.387C150.008 22.9929 150.015 22.127 150.583 22.1405C151.261 22.1607 151.244 22.9625 151.234 23.4207C151.244 23.734 151.257 24.0878 151.257 24.4246C151.257 38.0789 151.257 51.7364 151.257 65.394C151.257 67.8028 152.38 68.955 154.264 68.9954C156.261 69.0358 157.364 67.9174 157.37 65.3671C157.384 61.4322 157.37 57.4973 157.37 53.5658C157.37 49.6342 157.38 45.386 157.437 41.6196C157.443 41.1614 157.573 40.8953 158.051 40.8447C158.629 40.8683 158.629 41.4613 158.629 41.6129C158.629 42.2765 158.639 42.4719 158.639 43.1356C158.639 50.6685 158.646 58.198 158.636 65.7276C158.636 67.1358 159.048 68.4732 160.4 68.8438C161.39 69.1167 162.852 69.056 163.586 68.4699C164.341 67.8668 164.812 66.4552 164.819 65.394C164.895 51.568 164.869 37.7453 164.862 23.9193C164.862 23.6936 164.842 23.579 164.852 23.2523C164.869 22.8817 164.796 22.2045 165.4 22.2146C166.015 22.2247 166.015 22.7806 166.015 23.1478C166.005 23.8924 166.042 24.4011 166.038 25.0176C166.042 29.286 166.025 33.5578 166.042 37.8296L166.052 37.8363Z" fill="#FFF6CC"/>
<path d="M162.968 5.05001C162.988 2.25044 160.789 -0.00336514 158.045 3.77189e-06C155.294 3.77189e-06 153.045 2.26728 153.065 5.01969C153.081 7.71482 155.271 9.93157 157.935 9.96189C160.759 9.99558 162.952 7.85295 162.972 5.05001H162.968Z" fill="#FFF6CC"/>
<path d="M202.052 38.2879C202.062 40.29 202.945 41.359 204.517 41.3756C206.135 41.3956 206.989 40.373 206.992 38.3544C206.999 31.6544 207.009 24.9511 206.985 18.2512C206.975 14.9311 205.055 13.0387 201.693 13.0221C196.649 12.9988 191.609 12.9988 186.563 13.0154C182.928 13.0287 181.028 14.9278 181.018 18.5434C181.005 23.5833 181.015 28.6232 181.018 33.6631C181.018 35.436 180.965 37.2089 181.041 38.9785C181.104 40.4294 182.147 41.3756 183.493 41.379C184.858 41.379 185.849 40.4493 185.971 39.0051C186.008 38.5668 185.985 38.1186 185.985 37.6737C185.985 33.1318 185.971 28.59 186.008 24.0481C186.008 23.6596 186.015 22.8064 186.583 22.8196C187.261 22.8396 187.244 23.6297 187.234 24.0813C187.244 24.39 187.257 24.7387 187.257 25.0707C187.257 38.527 187.257 51.9866 187.257 65.4463C187.257 67.8202 188.38 68.9556 190.264 68.9955C192.261 69.0353 193.364 67.933 193.37 65.4197C193.384 61.5419 193.37 57.664 193.37 53.7895C193.37 49.9149 193.38 45.7283 193.437 42.0164C193.443 41.5649 193.573 41.3026 194.051 41.2528C194.629 41.276 194.629 41.8604 194.629 42.0098C194.629 42.6638 194.639 42.8564 194.639 43.5105C194.639 50.9342 194.646 58.3546 194.636 65.775C194.636 67.1628 195.048 68.4809 196.4 68.8461C197.39 69.115 198.852 69.0552 199.586 68.4775C200.341 67.8832 200.812 66.4921 200.819 65.4463C200.895 51.8206 200.869 38.1983 200.862 24.5727C200.862 24.3502 200.842 24.2373 200.852 23.9153C200.869 23.5501 200.796 22.8827 201.4 22.8927C202.015 22.9026 202.015 23.4505 202.015 23.8124C202.005 24.5461 202.042 25.0474 202.038 25.655C202.042 29.8616 202.025 34.0714 202.042 38.2813L202.052 38.2879Z" fill="#FFF6CC"/>
<path d="M198.972 5.97682C198.992 3.21782 196.792 0.996684 194.048 1C191.297 1 189.048 3.23443 189.068 5.94694C189.084 8.60301 191.274 10.7876 193.938 10.8175C196.762 10.8507 198.955 8.73914 198.975 5.97682H198.972Z" fill="#FFF6CC"/>
<path d="M238.052 38.288C238.062 40.29 238.945 41.359 240.517 41.3756C242.135 41.3956 242.989 40.373 242.992 38.3544C242.999 31.6544 243.009 24.9511 242.985 18.2512C242.975 14.9311 241.055 13.0387 237.693 13.0221C232.649 12.9988 227.609 12.9988 222.563 13.0154C218.928 13.0287 217.028 14.9278 217.018 18.5434C217.005 23.5833 217.015 28.6232 217.018 33.6631C217.018 35.436 216.965 37.2089 217.041 38.9785C217.104 40.4294 218.147 41.3756 219.493 41.379C220.858 41.379 221.849 40.4493 221.971 39.0051C222.008 38.5668 221.985 38.1186 221.985 37.6737C221.985 33.1318 221.971 28.59 222.008 24.0481C222.008 23.6596 222.015 22.8064 222.583 22.8196C223.261 22.8396 223.244 23.6297 223.234 24.0813C223.244 24.3901 223.257 24.7387 223.257 25.0707C223.257 38.527 223.257 51.9867 223.257 65.4463C223.257 67.8202 224.38 68.9556 226.264 68.9955C228.261 69.0353 229.364 67.9331 229.37 65.4197C229.384 61.5419 229.37 57.664 229.37 53.7895C229.37 49.9149 229.38 45.7283 229.437 42.0164C229.443 41.5649 229.573 41.3026 230.051 41.2528C230.629 41.276 230.629 41.8604 230.629 42.0098C230.629 42.6638 230.639 42.8564 230.639 43.5105C230.639 50.9342 230.646 58.3546 230.636 65.775C230.636 67.1628 231.048 68.4809 232.4 68.8461C233.39 69.115 234.852 69.0552 235.586 68.4775C236.341 67.8832 236.812 66.4921 236.819 65.4463C236.895 51.8206 236.869 38.1983 236.862 24.5727C236.862 24.3502 236.842 24.2373 236.852 23.9153C236.869 23.5501 236.796 22.8827 237.4 22.8927C238.015 22.9026 238.015 23.4505 238.015 23.8124C238.005 24.5461 238.042 25.0474 238.038 25.655C238.042 29.8616 238.025 34.0714 238.042 38.2813L238.052 38.288Z" fill="#38388E"/>
<path d="M234.972 5.97682C234.992 3.21782 232.792 0.996684 230.048 1C227.297 1 225.048 3.23443 225.068 5.94694C225.084 8.60301 227.274 10.7876 229.938 10.8175C232.762 10.8507 234.955 8.73914 234.975 5.97682H234.972Z" fill="#38388E"/>
<path d="M274.861 38.2879C274.872 40.29 275.789 41.359 277.421 41.3756C279.101 41.3956 279.988 40.373 279.992 38.3544C279.999 31.6544 280.009 24.9511 279.985 18.2512C279.974 14.9311 277.98 13.0387 274.489 13.0221C269.251 12.9988 264.018 12.9988 258.777 13.0154C255.002 13.0287 253.029 14.9278 253.019 18.5434C253.005 23.5833 253.015 28.6232 253.019 33.6631C253.019 35.436 252.963 37.2089 253.043 38.9785C253.108 40.4294 254.192 41.3756 255.589 41.379C257.007 41.379 258.035 40.4493 258.163 39.0051C258.201 38.5668 258.176 38.1186 258.176 37.6737C258.176 33.1318 258.163 28.59 258.201 24.0481C258.201 23.6596 258.208 22.8064 258.797 22.8196C259.501 22.8396 259.484 23.6297 259.474 24.0813C259.484 24.39 259.498 24.7387 259.498 25.0707C259.498 38.527 259.498 51.9866 259.498 65.4463C259.498 67.8202 260.664 68.9556 262.62 68.9955C264.694 69.0353 265.839 67.933 265.846 65.4197C265.86 61.5419 265.846 57.664 265.846 53.7895C265.846 49.9149 265.856 45.7283 265.915 42.0164C265.922 41.5649 266.057 41.3026 266.553 41.2528C267.154 41.276 267.154 41.8604 267.154 42.0098C267.154 42.6638 267.164 42.8564 267.164 43.5105C267.164 50.9342 267.171 58.3546 267.161 65.775C267.161 67.1628 267.588 68.4809 268.993 68.8461C270.021 69.115 271.539 69.0552 272.301 68.4775C273.084 67.8832 273.574 66.4921 273.581 65.4463C273.661 51.8206 273.633 38.1983 273.626 24.5727C273.626 24.3502 273.605 24.2373 273.616 23.9153C273.633 23.5501 273.557 22.8827 274.185 22.8927C274.823 22.9026 274.823 23.4505 274.823 23.8124C274.813 24.5461 274.851 25.0474 274.847 25.655C274.851 29.8616 274.834 34.0714 274.851 38.2813L274.861 38.2879Z" fill="#FFF6CC"/>
<path d="M271.66 5.97682C271.68 3.21782 269.396 0.996684 266.546 1C263.69 1 261.354 3.23442 261.375 5.94694C261.392 8.60301 263.666 10.7876 266.433 10.8175C269.365 10.8507 271.642 8.73914 271.663 5.97682H271.66Z" fill="#FFF6CC"/>
<path d="M310.861 38.2864C310.872 40.2886 311.789 41.3577 313.421 41.3743C315.101 41.3942 315.988 40.3716 315.992 38.3529C315.999 31.6526 316.009 24.949 315.985 18.2487C315.974 14.9285 313.98 13.0359 310.489 13.0193C305.251 12.9961 300.018 12.9961 294.777 13.0127C291.002 13.026 289.029 14.9251 289.019 18.5409C289.005 23.581 289.015 28.6212 289.019 33.6613C289.019 35.4343 288.963 37.2074 289.043 38.9771C289.108 40.428 290.192 41.3743 291.589 41.3776C293.007 41.3776 294.035 40.4479 294.163 39.0036C294.201 38.5653 294.176 38.1171 294.176 37.6722C294.176 33.1301 294.163 28.588 294.201 24.0459C294.201 23.6574 294.208 22.8041 294.797 22.8174C295.501 22.8373 295.484 23.6275 295.474 24.0791C295.484 24.3879 295.498 24.7365 295.498 25.0685C295.498 38.5255 295.498 51.9858 295.498 65.4461C295.498 67.8201 296.664 68.9556 298.62 68.9955C300.694 69.0353 301.839 67.933 301.846 65.4196C301.86 61.5415 301.846 57.6634 301.846 53.7887C301.846 49.914 301.856 45.7271 301.915 42.0151C301.922 41.5635 302.057 41.3012 302.553 41.2514C303.154 41.2747 303.154 41.859 303.154 42.0084C303.154 42.6625 303.164 42.8551 303.164 43.5092C303.164 50.9333 303.171 58.3541 303.161 65.7748C303.161 67.1627 303.588 68.4808 304.993 68.8461C306.021 69.115 307.539 69.0552 308.301 68.4775C309.084 67.8832 309.574 66.492 309.581 65.4461C309.661 51.8198 309.633 38.1968 309.626 24.5705C309.626 24.348 309.605 24.2351 309.616 23.9131C309.633 23.5478 309.557 22.8805 310.185 22.8904C310.823 22.9004 310.823 23.4482 310.823 23.8101C310.813 24.5439 310.851 25.0453 310.847 25.6529C310.851 29.8596 310.834 34.0697 310.851 38.2798L310.861 38.2864Z" fill="#FFF6CC"/>
<path d="M307.66 5.97706C307.68 3.21793 305.396 0.996683 302.546 1C299.69 1 297.354 3.23453 297.375 5.94718C297.392 8.60338 299.666 10.7881 302.433 10.818C305.365 10.8512 307.642 8.73951 307.663 5.97706H307.66Z" fill="#FFF6CC"/>
<path d="M347.052 38.8363C347.062 40.8678 347.945 41.9525 349.517 41.9694C351.135 41.9896 351.989 40.952 351.992 38.9037C351.999 32.1052 352.009 25.3034 351.985 18.5049C351.975 15.136 350.055 13.2157 346.693 13.1988C341.649 13.1753 336.609 13.1753 331.563 13.1921C327.928 13.2056 326.028 15.1326 326.018 18.8014C326.005 23.9154 326.015 29.0294 326.018 34.1434C326.018 35.9424 325.965 37.7414 326.041 39.537C326.104 41.0093 327.147 41.9694 328.493 41.9728C329.858 41.9728 330.849 41.0295 330.971 39.564C331.008 39.1193 330.985 38.6645 330.985 38.2131C330.985 33.6044 330.971 28.9957 331.008 24.387C331.008 23.9929 331.015 23.127 331.583 23.1405C332.261 23.1607 332.244 23.9625 332.234 24.4207C332.244 24.734 332.257 25.0878 332.257 25.4246C332.257 39.0789 332.257 52.7365 332.257 66.394C332.257 68.8028 333.38 69.955 335.264 69.9954C337.261 70.0358 338.364 68.9174 338.37 66.3671C338.384 62.4322 338.37 58.4973 338.37 54.5658C338.37 50.6342 338.38 46.386 338.437 42.6196C338.443 42.1614 338.573 41.8953 339.051 41.8447C339.629 41.8683 339.629 42.4613 339.629 42.6129C339.629 43.2765 339.639 43.4719 339.639 44.1356C339.639 51.6685 339.646 59.198 339.636 66.7276C339.636 68.1358 340.048 69.4732 341.4 69.8438C342.39 70.1167 343.852 70.056 344.586 69.4699C345.341 68.8668 345.812 67.4552 345.819 66.394C345.895 52.568 345.869 38.7453 345.862 24.9193C345.862 24.6936 345.842 24.579 345.852 24.2523C345.869 23.8817 345.796 23.2045 346.4 23.2146C347.015 23.2247 347.015 23.7806 347.015 24.1478C347.005 24.8924 347.042 25.4011 347.038 26.0176C347.042 30.286 347.025 34.5578 347.042 38.8296L347.052 38.8363Z" fill="#FFF6CC"/>
<path d="M343.968 6.05001C343.988 3.25044 341.789 0.996635 339.045 1C336.294 1 334.045 3.26728 334.065 6.01969C334.081 8.71482 336.271 10.9316 338.935 10.9619C341.759 10.9956 343.952 8.85295 343.972 6.05001H343.968Z" fill="#FFF6CC"/>
</svg>
