<svg width="61" height="87" viewBox="0 0 61 87" fill="none" xmlns="http://www.w3.org/2000/svg">
<path d="M35.8739 86.0375H35.1939C34.5739 86.0375 33.5239 85.4875 33.5239 84.8775L34.0739 59.8475C34.0739 59.2275 34.5739 58.7275 35.1939 58.7275H35.8739C36.4939 58.7275 36.9939 59.2275 36.9939 59.8475L37.4639 84.8775C37.4639 85.4975 36.4839 86.0375 35.8739 86.0375Z" fill="#3E1E14"/>
<path d="M24.394 86.0375H23.714C23.094 86.0375 22.094 85.5675 22.094 84.9475L22.594 59.8475C22.594 59.2275 23.094 58.7275 23.714 58.7275H24.394C25.014 58.7275 25.514 59.2275 25.514 59.8475L25.964 84.8775C25.964 85.4975 25.014 86.0375 24.394 86.0375Z" fill="#3E1E14"/>
<path d="M42.7139 79.3176H42.0339C41.4139 79.3176 40.3639 78.7676 40.3639 78.1576L40.9139 53.1276C40.9139 52.5076 41.4139 52.0076 42.0339 52.0076H42.7139C43.3339 52.0076 43.8339 52.5076 43.8339 53.1276L44.3039 78.1576C44.3039 78.7776 43.3239 79.3176 42.7139 79.3176Z" fill="#3E1E14"/>
<path d="M17.7639 79.6776H17.0839C16.4639 79.6776 15.4639 79.2076 15.4639 78.5876L15.9639 53.4876C15.9639 52.8676 16.4639 52.3676 17.0839 52.3676H17.7639C18.3839 52.3676 18.8839 52.8676 18.8839 53.4876L19.3339 78.5176C19.3339 79.1376 18.3839 79.6776 17.7639 79.6776Z" fill="#3E1E14"/>
<path d="M60.1039 40.0675C60.2139 52.4475 52.3739 65.0375 41.1239 70.0975C39.3839 70.8775 37.5639 71.4775 35.6939 71.8675C21.4639 74.7975 6.9339 64.7875 2.4539 51.4075C2.4139 51.2775 2.3739 51.1575 2.3339 51.0275C-1.7561 38.2575 3.34387 24.7075 13.5439 16.4675C15.2439 15.0875 17.1939 14.0175 18.6439 12.3775C19.9239 10.9275 21.2439 9.02752 23.2539 8.58752C27.4839 7.64752 31.8939 7.50752 35.9039 9.38752C38.0339 10.3875 39.7639 11.8875 41.6239 13.2975C45.5139 16.2375 50.0239 18.3075 53.2439 22.0275C56.2839 25.5275 58.4538 29.7875 59.4638 34.3175C59.8838 36.2175 60.0939 38.1475 60.1139 40.0775L60.1039 40.0675Z" fill="white"/>
<path d="M28.4339 31.2976C20.8139 30.8276 11.6239 -0.822454 30.3239 0.317546C46.1339 1.28755 35.0939 31.6976 28.4339 31.2976Z" fill="#3E1E14"/>
<path d="M34.4839 5.17758C34.4839 5.17758 42.5339 1.38758 51.8939 8.53758C52.4839 8.98758 52.2339 9.93758 51.4839 10.0276C47.8639 10.4476 39.7839 10.6576 34.4839 5.18758V5.17758Z" fill="#3E1E14"/>
<path d="M23.684 4.8176C23.684 4.8176 17.474 11.4776 5.99398 7.9076C5.47398 7.7476 5.40399 7.0376 5.87399 6.7776C8.74399 5.1476 16.494 1.5076 23.684 4.8276V4.8176Z" fill="#3E1E14"/>
<path d="M27.9539 30.2375C27.8839 30.2875 26.3939 28.5975 26.5639 28.4675C26.7439 28.3275 28.0239 30.1875 27.9539 30.2375Z" fill="white"/>
<path d="M29.0439 30.3076C29.1039 30.3676 30.7939 28.8676 30.6339 28.7176C30.4739 28.5576 28.9739 30.2476 29.0439 30.3076Z" fill="white"/>
<path d="M25.4838 13.2775C25.4538 13.7775 25.0239 14.1475 24.5339 14.1175C24.0339 14.0875 23.6638 13.6575 23.6938 13.1675C23.7238 12.6675 24.1539 12.2975 24.6439 12.3275C25.1439 12.3575 25.5138 12.7875 25.4838 13.2775Z" fill="white"/>
<path d="M33.6739 13.5675C33.6439 14.0675 33.2139 14.4375 32.7239 14.4075C32.2239 14.3775 31.8539 13.9475 31.8839 13.4575C31.9139 12.9675 32.3439 12.5875 32.8339 12.6175C33.3339 12.6475 33.7039 13.0775 33.6739 13.5675Z" fill="white"/>
</svg>
