<svg width="1920" height="364" viewBox="0 0 1920 364" fill="none" xmlns="http://www.w3.org/2000/svg">
<path d="M1920 0V341.194C1880.7 357.274 1804.74 374.647 1675.91 355.791C1387.23 313.541 1372.41 101.089 1015.55 150.513C733.541 189.567 671.761 20.9872 409.409 64.1089C302.449 81.6922 160.465 169.819 0 71.7935V0H1920Z" fill="#7DA2EA"/>
<path d="M1920 0V230.602C1879.62 241.97 1805.95 256.208 1709.42 247.097C1419.11 219.695 1403.05 81.8373 1029.52 130.873C766.304 165.421 756.282 -7.02399 451.381 41.7413C348.467 58.2071 116.606 101.985 -0.5 6V0H1920Z" fill="#4A4AAF"/>
</svg>
