<svg width="151" height="111" viewBox="0 0 151 111" fill="none" xmlns="http://www.w3.org/2000/svg">
<path d="M53.7339 110.318H54.3239C54.8539 110.318 55.7639 109.848 55.7639 109.318L55.2939 87.6877C55.2939 87.1577 54.8539 86.7177 54.3239 86.7177H53.7339C53.2039 86.7177 52.7639 87.1577 52.7639 87.6877L52.3539 109.318C52.3539 109.848 53.2039 110.318 53.7339 110.318Z" fill="#3E1E14"/>
<path d="M61.0639 110.318H61.6539C62.1839 110.318 63.0539 109.908 63.0539 109.378L62.6139 87.6877C62.6139 87.1577 62.1739 86.7177 61.6439 86.7177H61.0539C60.5239 86.7177 60.0839 87.1577 60.0839 87.6877L59.6939 109.318C59.6939 109.848 60.5139 110.318 61.0439 110.318H61.0639Z" fill="#3E1E14"/>
<path d="M13.8139 110.318H14.4039C14.9339 110.318 15.8439 109.848 15.8439 109.318L15.3739 87.6877C15.3739 87.1577 14.9339 86.7177 14.4039 86.7177H13.8139C13.2839 86.7177 12.8439 87.1577 12.8439 87.6877L12.4339 109.318C12.4339 109.848 13.2839 110.318 13.8139 110.318Z" fill="#3E1E14"/>
<path d="M21.1439 110.318H21.7339C22.2639 110.318 23.1339 109.908 23.1339 109.378L22.6939 87.6877C22.6939 87.1577 22.2539 86.7177 21.7239 86.7177H21.1339C20.6039 86.7177 20.1639 87.1577 20.1639 87.6877L19.7739 109.318C19.7739 109.848 20.5939 110.318 21.1239 110.318H21.1439Z" fill="#3E1E14"/>
<path d="M71.3339 38.2576C68.4939 30.4076 61.1239 28.0176 54.3039 32.8376C54.2139 32.8976 54.1339 32.9576 54.0439 33.0276C48.2239 37.2976 49.1239 47.1276 46.2839 48.4576C43.4439 49.7876 25.8339 44.9076 12.0139 49.2576C-1.80611 53.6076 -8.49611 87.7176 18.8939 95.0976C44.7439 102.068 78.1539 101.198 78.2139 65.2176C78.2339 52.9576 73.1639 43.3176 71.3339 38.2576Z" fill="white"/>
<path d="M62.1239 53.8676C68.7139 53.4676 76.6439 26.1076 60.4839 27.0976C46.8239 27.9276 56.3639 54.2176 62.1239 53.8676Z" fill="#3E1E14"/>
<path d="M56.9439 31.7476C56.9439 31.7476 51.4839 26.3276 41.7939 29.4376C41.1839 29.6376 41.1139 30.4776 41.6939 30.7676C44.5139 32.1576 51.0339 34.6776 56.9439 31.7576V31.7476Z" fill="#3E1E14"/>
<path d="M67.0439 32.6976C67.0439 32.6976 74.9139 32.7176 79.4539 23.3776C79.6639 22.9576 79.2539 22.4876 78.8139 22.6276C76.0939 23.4676 69.2139 26.1976 67.0539 32.6876L67.0439 32.6976Z" fill="#3E1E14"/>
<path d="M62.5439 52.9576C62.6039 53.0076 63.8939 51.5376 63.7439 51.4276C63.5839 51.3076 62.4839 52.9076 62.5439 52.9576Z" fill="white"/>
<path d="M61.6039 53.0176C61.5539 53.0676 60.0939 51.7776 60.2239 51.6476C60.3639 51.5076 61.6539 52.9676 61.6039 53.0176Z" fill="white"/>
<path d="M64.6739 38.3076C64.7039 38.7376 65.0739 39.0676 65.4939 39.0376C65.9239 39.0076 66.2539 38.6376 66.2239 38.2176C66.1939 37.7876 65.8239 37.4576 65.4039 37.4876C64.9739 37.5176 64.6439 37.8876 64.6739 38.3076Z" fill="white"/>
<path d="M57.5939 38.5476C57.6239 38.9776 57.9939 39.3076 58.4139 39.2776C58.8439 39.2476 59.1739 38.8776 59.1439 38.4576C59.1139 38.0276 58.7439 37.6976 58.3239 37.7276C57.8939 37.7576 57.5639 38.1276 57.5939 38.5476Z" fill="white"/>
<path d="M117.804 23.1375C117.284 23.2475 116.844 23.3175 116.504 23.3475C116.154 23.3775 115.804 23.3475 115.444 23.2275C115.084 23.1075 114.704 22.7875 114.304 22.2475C113.904 21.7075 113.614 21.1975 113.434 20.7075C113.254 20.2175 112.944 19.3275 112.504 18.0275C112.064 16.7275 111.614 15.3275 111.154 13.8175C110.694 12.2975 110.234 10.7775 109.774 9.2375C109.314 7.6975 109.124 6.7775 109.194 6.4775C109.264 6.1775 109.404 5.9475 109.604 5.7975C109.804 5.6475 110.414 5.3975 111.434 5.0475C112.454 4.6975 113.354 4.4575 114.124 4.3175C114.894 4.1775 115.804 4.0875 116.864 4.0575C117.914 4.0275 118.624 4.0875 118.994 4.2475C119.364 4.4075 119.694 4.6375 119.984 4.9375C120.274 5.2475 120.494 5.5175 120.644 5.7475C120.794 5.9875 121.014 6.5375 121.314 7.4075C121.614 8.2775 121.764 8.8775 121.784 9.2175C121.794 9.5475 121.744 9.9775 121.614 10.4875C121.484 11.0075 120.884 11.9975 119.794 13.4575C120.004 13.5075 120.344 13.5575 120.814 13.6075C121.274 13.6575 121.794 13.8075 122.364 14.0575C122.934 14.3175 123.444 14.7175 123.894 15.2675C124.344 15.8175 124.654 16.3375 124.814 16.8075C124.974 17.2775 125.024 17.7675 124.964 18.2475C124.904 18.7275 124.724 19.1875 124.414 19.6275C124.104 20.0675 123.834 20.3975 123.594 20.6075C123.354 20.8175 123.014 21.0675 122.584 21.3275C122.154 21.5975 120.554 22.1975 117.794 23.1275L117.804 23.1375ZM122.074 19.2775C122.234 18.7275 122.274 18.2775 122.184 17.9275C122.094 17.5775 121.964 17.2875 121.814 17.0575C121.664 16.8275 121.404 16.5575 121.054 16.2475C120.704 15.9375 120.244 15.7275 119.674 15.6275C119.104 15.5275 118.654 15.4875 118.324 15.5175C117.994 15.5475 117.684 15.6075 117.394 15.7075C117.104 15.8075 116.814 15.9375 116.514 16.0875C116.214 16.2475 116.074 16.5375 116.074 16.9875C116.074 17.4275 116.184 17.9475 116.384 18.5475L116.934 20.1675C117.094 20.6475 117.304 20.8975 117.554 20.9075C117.804 20.9275 118.464 20.7575 119.544 20.3875C120.624 20.0175 121.464 19.6575 122.074 19.2775ZM117.544 13.1575C118.084 12.4875 118.394 12.0175 118.474 11.7775C118.554 11.5275 118.584 11.2375 118.564 10.9075C118.554 10.5775 118.444 10.1675 118.254 9.6675C118.054 9.1775 117.784 8.7875 117.424 8.5175C117.064 8.2475 116.764 8.0675 116.504 7.9675C116.244 7.8775 115.864 7.8375 115.354 7.8675C114.844 7.8975 114.404 7.9575 114.044 8.0575C113.684 8.1575 113.474 8.3275 113.414 8.5675C113.364 8.8075 113.434 9.2175 113.634 9.8175C113.834 10.4175 114.004 10.9275 114.124 11.3575C114.254 11.7875 114.354 12.1875 114.434 12.5575C114.514 12.9175 114.664 13.2475 114.884 13.5275C115.094 13.8075 115.284 13.9675 115.444 13.9875C115.604 14.0075 115.854 13.9675 116.214 13.8375C116.574 13.7075 117.014 13.4875 117.544 13.1575Z" fill="white"/>
<path d="M130.304 18.8776C129.734 18.8476 129.354 18.8076 129.164 18.7676C128.974 18.7276 128.604 18.5176 128.054 18.1476C127.504 17.7776 127.164 17.3476 127.044 16.8476C126.924 16.3576 126.824 15.9176 126.744 15.5276C126.664 15.1376 126.644 14.7576 126.704 14.3876C126.764 14.0176 126.944 13.6576 127.244 13.2976C127.544 12.9376 127.964 12.6676 128.474 12.4676C128.984 12.2676 129.474 12.0576 129.934 11.8376C130.394 11.6076 130.724 11.3476 130.914 11.0476C131.104 10.7476 131.214 10.4776 131.254 10.2476C131.284 10.0176 131.264 9.78759 131.194 9.56759C131.124 9.34759 130.984 9.07759 130.794 8.77759C130.604 8.47759 130.374 8.31759 130.114 8.30759C129.854 8.28759 129.624 8.30759 129.434 8.37759C129.244 8.44759 128.994 8.57759 128.684 8.78759C128.374 8.99759 128.194 9.31759 128.154 9.73759C128.114 10.1576 128.064 10.5476 127.994 10.9076C127.924 11.2676 127.734 11.5476 127.404 11.7476C127.084 11.9476 126.814 12.0676 126.594 12.0976C126.384 12.1276 126.044 12.0376 125.594 11.8176C125.144 11.5976 124.854 11.1476 124.724 10.4776C124.604 9.79759 124.584 9.26759 124.674 8.87759C124.764 8.48759 124.874 8.06759 124.994 7.61759C125.114 7.16759 125.284 6.75759 125.494 6.40759C125.714 6.05759 125.974 5.77759 126.294 5.58759C126.614 5.39759 126.944 5.20759 127.284 5.01759C127.624 4.82759 128.194 4.66759 128.994 4.52759C129.794 4.38759 130.434 4.42759 130.914 4.64759C131.394 4.86759 131.894 5.19759 132.414 5.63759C132.934 6.08759 133.414 6.98759 133.854 8.34759C134.294 9.70759 134.934 10.9176 135.764 11.9876C136.594 13.0576 137.334 14.1576 137.994 15.3276C138.064 15.7776 138.004 16.0576 137.824 16.1476C137.644 16.2476 137.264 16.3276 136.714 16.3976C136.154 16.4676 135.724 16.2976 135.414 15.8776C135.104 15.4576 134.804 15.2476 134.504 15.2276C134.174 16.3076 133.954 16.9576 133.854 17.1776C133.754 17.3976 133.494 17.6376 133.074 17.8876C132.654 18.1376 132.194 18.3376 131.684 18.4776C131.174 18.6176 130.704 18.7476 130.274 18.8776H130.304ZM131.714 16.2976C132.084 16.1076 132.344 15.8776 132.514 15.6276C132.684 15.3776 132.784 15.1276 132.824 14.8776C132.864 14.6276 132.744 14.2176 132.444 13.6376C132.154 13.0576 131.654 13.0176 130.954 13.5176C130.254 14.0176 129.804 14.4476 129.614 14.8276C129.424 15.2076 129.424 15.6476 129.634 16.1276C129.844 16.3076 130.144 16.4276 130.524 16.4976C130.904 16.5676 131.294 16.4976 131.704 16.2876L131.714 16.2976Z" fill="white"/>
<path d="M142.574 14.7075C142.004 14.6775 141.624 14.6375 141.434 14.5975C141.244 14.5575 140.874 14.3475 140.324 13.9775C139.774 13.6075 139.434 13.1775 139.314 12.6775C139.194 12.1875 139.094 11.7475 139.014 11.3575C138.934 10.9675 138.914 10.5875 138.974 10.2175C139.034 9.84755 139.214 9.48755 139.514 9.12755C139.814 8.76755 140.234 8.49755 140.744 8.29755C141.254 8.09755 141.744 7.88755 142.204 7.66755C142.664 7.43755 142.994 7.17755 143.184 6.87755C143.374 6.57755 143.484 6.30755 143.524 6.07755C143.554 5.84755 143.534 5.61755 143.464 5.39755C143.394 5.17755 143.254 4.90755 143.064 4.60755C142.874 4.30755 142.644 4.14755 142.384 4.13755C142.124 4.11755 141.894 4.13755 141.704 4.20755C141.514 4.27755 141.264 4.40755 140.954 4.61755C140.644 4.82755 140.464 5.14755 140.424 5.56755C140.384 5.98755 140.334 6.37755 140.264 6.73755C140.194 7.09755 140.004 7.37755 139.674 7.57755C139.354 7.77755 139.084 7.89755 138.864 7.92755C138.654 7.95755 138.314 7.86755 137.864 7.64755C137.414 7.42755 137.124 6.97755 136.994 6.30755C136.874 5.62755 136.854 5.09755 136.944 4.70755C137.034 4.31755 137.144 3.89755 137.264 3.44755C137.384 2.99755 137.554 2.58755 137.764 2.23755C137.984 1.88755 138.244 1.60755 138.564 1.41755C138.884 1.22755 139.214 1.03755 139.554 0.847546C139.894 0.657546 140.464 0.497546 141.264 0.357546C142.064 0.217546 142.704 0.257546 143.184 0.477546C143.664 0.697546 144.164 1.02755 144.684 1.46755C145.204 1.91755 145.684 2.81755 146.124 4.17755C146.564 5.53755 147.204 6.74755 148.034 7.81755C148.864 8.87755 149.604 9.98755 150.264 11.1575C150.334 11.6075 150.274 11.8875 150.094 11.9775C149.914 12.0775 149.534 12.1575 148.984 12.2275C148.424 12.2975 147.994 12.1275 147.684 11.7075C147.374 11.2875 147.074 11.0775 146.774 11.0575C146.444 12.1375 146.224 12.7875 146.124 13.0075C146.024 13.2275 145.764 13.4675 145.344 13.7175C144.924 13.9675 144.464 14.1675 143.954 14.3075C143.444 14.4475 142.974 14.5775 142.544 14.7075H142.574ZM143.984 12.1275C144.354 11.9375 144.614 11.7075 144.784 11.4575C144.954 11.2075 145.054 10.9575 145.094 10.7075C145.134 10.4575 145.014 10.0475 144.714 9.46755C144.424 8.88755 143.924 8.84755 143.224 9.34755C142.524 9.84755 142.074 10.2775 141.884 10.6575C141.694 11.0375 141.694 11.4775 141.904 11.9575C142.114 12.1375 142.414 12.2575 142.794 12.3275C143.174 12.3975 143.564 12.3275 143.974 12.1175L143.984 12.1275Z" fill="white"/>
<path d="M95.2139 17.0776C95.6939 13.6476 97.8939 11.1976 99.7239 8.4776C101.334 5.6476 102.264 2.4676 104.694 0.137599C104.884 -0.0524014 105.194 -0.0424014 105.384 0.147599C105.504 0.267599 105.544 0.437599 105.514 0.597599C104.804 3.8876 102.574 6.3476 101.004 9.1976C100.194 10.5976 99.8639 12.2676 99.0639 13.6676C98.7639 14.2776 95.5539 19.3076 95.2139 17.0776Z" fill="white"/>
<path d="M102.204 31.2477C105.474 29.7177 108.894 30.1677 112.334 30.1577C115.734 29.9077 119.064 28.8877 122.504 29.5977C122.764 29.6477 122.944 29.9077 122.884 30.1677C122.854 30.3377 122.734 30.4677 122.574 30.5277C119.284 31.7777 115.844 31.3177 112.444 31.6177C110.754 31.7377 109.104 32.3877 107.404 32.5177C106.714 32.5977 100.474 32.7977 102.194 31.2477H102.204Z" fill="white"/>
</svg>
