<svg width="1103" height="368" viewBox="0 0 1103 368" fill="none" xmlns="http://www.w3.org/2000/svg">
<path opacity="0.15" d="M1085.97 320.618C1084.21 297.247 1060.71 278.693 1031.69 278.693C1027.14 278.693 1022.79 279.282 1018.56 280.14C1009.94 271.571 997.046 266 982.433 266C966.982 266 953.392 272.181 944.839 281.598C938.934 279.809 932.636 278.693 925.976 278.693C897.721 278.693 874.752 296.306 871.928 318.809C858.763 321.62 849 331.316 849 342.955C849 356.785 862.714 368 879.633 368C887.131 368 893.905 365.716 899.231 362.057C907.164 365.736 916.202 368 925.976 368C929.533 368 932.967 367.628 936.338 367.09C941.499 367.638 946.815 368 952.348 368C970.901 368 987.676 364.734 1000.01 359.493C1008.93 364.796 1019.81 368 1031.69 368C1040.07 368 1047.92 366.336 1055.01 363.576C1059.95 366.357 1065.91 368 1072.37 368C1089.29 368 1103 356.785 1103 342.955C1103 333.135 1096.03 324.721 1085.97 320.618Z" fill="white"/>
<path opacity="0.15" d="M434.751 67.4751C431.526 38.6083 388.413 15.6864 335.175 15.6864C326.827 15.6864 318.836 16.4118 311.08 17.4764C295.287 6.88694 271.624 0 244.803 0C216.459 0 191.527 7.64065 175.828 19.2665C164.998 17.0619 153.434 15.677 141.213 15.677C89.3663 15.677 47.2308 37.4401 42.0508 65.2328C17.909 68.6999 0 80.6837 0 95.0606C0 112.151 25.1572 126 56.1994 126C69.9531 126 82.3813 123.174 92.149 118.651C106.711 123.192 123.295 126 141.213 126C147.747 126 154.045 125.538 160.222 124.879C169.689 125.548 179.438 126 189.6 126C223.641 126 254.42 121.968 277.049 115.486C293.416 122.034 313.355 126 335.175 126C350.546 126 364.948 123.937 377.969 120.526C387.022 123.965 397.965 126 409.801 126C440.833 126 466 112.151 466 95.0606C466 82.9354 453.205 72.5437 434.751 67.4657V67.4751Z" fill="white"/>
</svg>
