<svg width="193" height="52" viewBox="0 0 193 52" fill="none" xmlns="http://www.w3.org/2000/svg">
<path opacity="0.15" d="M180.058 27.8469C178.722 15.9336 160.866 6.47375 138.817 6.47375C135.36 6.47375 132.05 6.77314 128.838 7.2125C122.297 2.84223 112.497 0 101.388 0C89.6493 0 79.3235 3.15328 72.8213 7.95125C68.3359 7.04142 63.5468 6.46987 58.4852 6.46987C37.0122 6.46987 19.5613 15.4515 17.4159 26.9215C7.41724 28.3523 0 33.298 0 39.2313C0 46.2844 10.4192 52 23.2757 52C28.972 52 34.1193 50.8336 38.1647 48.9672C44.1958 50.8413 51.0641 52 58.4852 52C61.1912 52 63.7999 51.8095 66.358 51.5373C70.2788 51.8134 74.3164 52 78.5254 52C92.624 52 105.371 50.3359 114.743 47.6608C121.522 50.3631 129.78 52 138.817 52C145.183 52 151.148 51.1485 156.541 49.741C160.29 51.1602 164.822 52 169.724 52C182.577 52 193 46.2844 193 39.2313C193 34.2273 187.701 29.9387 180.058 27.843V27.8469Z" fill="white"/>
</svg>
