<svg width="105" height="42" viewBox="0 0 105 42" fill="none" xmlns="http://www.w3.org/2000/svg">
<path opacity="0.15" d="M97.9587 22.4897C97.2319 12.8664 87.5185 5.22659 75.5222 5.22659C73.6411 5.22659 71.8412 5.46919 70.0926 5.82245C66.5313 2.29408 61.2001 0 55.1592 0C48.772 0 43.1543 2.5452 39.6187 6.42258C37.1775 5.68626 34.5739 5.22659 31.8206 5.22659C20.1407 5.22659 10.6454 12.4791 9.47821 21.7448C4.03582 22.9025 0 26.8948 0 31.6873C0 37.382 5.66897 42 12.6633 42C15.7628 42 18.5631 41.0594 20.7649 39.5527C24.044 41.0679 27.7805 42 31.8206 42C33.2913 42 34.7107 41.8468 36.1044 41.6255C38.2378 41.851 40.4353 42 42.7225 42C50.3923 42 57.3268 40.655 62.4271 38.4972C66.1124 40.6806 70.61 42 75.5222 42C78.9852 42 82.23 41.3148 85.1629 40.1784C87.2021 41.3233 89.669 42 92.3367 42C99.331 42 105 37.382 105 31.6873C105 27.6439 102.118 24.1794 97.9587 22.4897Z" fill="white"/>
</svg>
