<svg width="678" height="140" viewBox="0 0 678 140" fill="none" xmlns="http://www.w3.org/2000/svg">
<path d="M38.4293 103.708L69.4582 127.377C71.3266 128.797 73.6168 129.568 75.9673 129.558L608.149 129.708C611.575 129.688 614.769 128.027 616.748 125.256L640.434 92.0335C643.467 87.7719 642.925 81.9397 639.158 78.3084L601.63 42.1548C599.621 40.224 596.929 39.1536 594.147 39.1837L345.906 37.1329C341.857 37.1629 337.92 35.7824 334.776 33.2514L312.848 15.5448C310.999 14.0542 308.237 15.2447 308.066 17.6056L306.981 32.131C306.7 35.8924 303.576 38.8135 299.789 38.8535L66.4849 42.0548C62.5171 42.0948 58.9009 44.3356 57.1129 47.8569L35.4259 90.563C33.1155 95.1047 34.3912 100.637 38.4494 103.738L38.4293 103.708Z" fill="white"/>
<path d="M304.49 9.47251C306.942 9.47251 308.93 7.49287 308.93 5.05085C308.93 2.60884 306.942 0.629181 304.49 0.629181C302.038 0.629181 300.05 2.60884 300.05 5.05085C300.05 7.49287 302.038 9.47251 304.49 9.47251Z" fill="white"/>
<path d="M32.8343 43.4853C45.6717 55.2297 17.9075 63.0526 15.798 95.8249C15.1451 105.979 20.941 113.622 15.0245 113.772C5.4517 114.012 -0.032856 92.6137 0.800876 77.488C1.99623 55.9099 20.9008 32.5812 32.8343 43.4853Z" fill="white"/>
<path d="M645.225 132.549C632.328 120.874 660.052 112.911 662 80.129C662.603 69.9652 656.767 62.3624 662.684 62.1823C672.256 61.8922 677.851 83.2602 677.088 98.3959C676.003 119.984 657.209 143.403 645.225 132.549Z" fill="white"/>
<path d="M657.687 55.7408C660.397 53.3803 659.835 48.3246 656.431 44.4485C653.028 40.5723 648.071 39.3436 645.361 41.7041C642.651 44.0645 643.213 49.1203 646.617 52.9964C650.02 56.8725 654.977 58.1012 657.687 55.7408Z" fill="white"/>
<path d="M33.7479 134.829C36.4582 132.469 35.896 127.413 32.4924 123.537C29.0887 119.661 24.1323 118.432 21.4221 120.792C18.7118 123.153 19.2739 128.209 22.6776 132.085C26.0813 135.961 31.0376 137.19 33.7479 134.829Z" fill="white"/>
<path d="M123.701 84.2906C121.632 85.7912 119.462 87.1117 117.272 88.2521L114.289 105.108C113.023 112.251 105.158 114.472 97.4937 109.79C96.4088 109.13 96.218 108.17 96.67 106.969C97.1321 105.709 98.1165 105.288 99.6534 105.409C103.933 105.769 104.997 105.168 105.429 102.708L107.187 92.8038C106.223 93.1639 105.309 93.5241 104.415 93.8242C100.939 95.0847 98.8799 94.1243 98.5183 91.0632C98.1466 88.062 99.4726 85.6611 103.209 85.0009C105.078 84.6407 106.956 84.2806 108.774 83.8604L110.783 72.5262H104.154C102.526 72.5262 101.783 71.6258 102.084 69.9452C102.386 68.2646 103.45 67.3643 105.068 67.3643H111.697L113.053 59.6814C113.525 57.0404 115.334 55.6599 118.407 55.6599C121.481 55.6599 122.807 57.0404 122.335 59.6814L120.979 67.3643H125.68C127.307 67.3643 128.05 68.2646 127.749 69.9452C127.448 71.6258 126.393 72.5262 124.766 72.5262H120.065L118.538 81.1694L122.646 79.7289C124.063 79.1887 125.087 79.5488 125.489 80.6893C125.931 81.9497 125.208 83.2702 123.711 84.2906H123.701ZM158.216 62.2123C157.884 64.073 156.809 65.0334 155.122 65.0334H147.95L141.099 103.728C139.472 112.911 129.497 114.472 121.692 109.55C120.557 108.83 120.376 107.809 120.888 106.609C121.391 105.469 122.465 104.868 123.982 105.108C130.26 106.069 131.335 105.108 132.028 101.207L138.437 65.0334H127.588C125.901 65.0334 125.168 64.073 125.499 62.2123C125.831 60.3516 126.905 59.3913 128.593 59.3913H156.126C157.814 59.3913 158.547 60.3516 158.216 62.2123Z" fill="#E28F3B"/>
<path d="M211.062 106.069C210.53 109.07 208.772 110.51 205.557 110.63C197.612 110.931 190.54 111.051 184.754 110.751C175.864 110.27 170.822 107.749 169.426 103.068C169.265 102.587 168.964 102.587 168.652 103.008C167.206 105.048 165.227 107.749 162.927 110.15C160.415 112.791 157.563 112.551 156.116 110.15C154.569 107.629 155.534 105.288 158.748 103.428C161.098 102.047 163.188 100.787 164.484 99.5863L166.663 87.2917C166.734 86.8716 166.493 86.5715 166.071 86.5715H162.454C160.827 86.5715 160.084 85.6711 160.365 84.0505C160.656 82.4299 161.711 81.5296 163.338 81.5296H173.162C175.694 81.5296 176.839 82.9101 176.387 85.431L174.117 98.2659C174.8 101.207 178.064 102.828 184.021 102.888C192.198 103.008 199.42 102.708 206.763 102.047C210.068 101.747 211.554 103.248 211.052 106.069H211.062ZM164.755 71.2157C163.961 70.2554 164.132 69.295 164.976 68.2746C165.809 67.3142 166.764 67.0141 167.879 67.5543C170.37 68.4547 172.992 70.0153 175.091 71.7559C177.321 73.4366 177.08 75.8374 174.79 77.8782C172.499 79.919 170.189 79.6789 168.823 77.218C167.638 75.0572 166.141 72.9564 164.765 71.2157H164.755ZM170.149 60.8318C169.355 59.8714 169.315 58.731 170.219 57.7106C171.123 56.6903 172.218 56.6302 173.333 57.1104C175.714 57.9507 178.245 59.3312 180.234 61.0119C182.364 62.5725 182.213 64.7933 180.063 66.714C177.914 68.6347 175.704 68.8748 174.298 66.594C173.082 64.6132 171.595 62.4524 170.139 60.8318H170.149ZM179.953 71.4558C181.691 68.8148 183.8 64.3731 185.407 60.0615C186.311 57.6606 188.421 56.6402 191.022 57.2405C193.503 57.8407 193.895 59.7614 192.901 61.9222C192.489 62.8826 191.957 63.8429 191.434 64.7433H194.628L195.422 60.2416C195.894 57.6006 197.763 56.2201 200.776 56.2201C203.789 56.2201 205.176 57.6006 204.704 60.2416L203.91 64.7433H213.071C214.698 64.7433 215.442 65.6436 215.16 67.2642C214.869 68.8848 213.814 69.7852 212.187 69.7852H203.026L201.991 75.6073H213.322C214.949 75.6073 215.703 76.4477 215.422 78.0683C215.13 79.6889 214.065 80.6492 212.438 80.6492H179.782C178.215 80.6492 177.371 79.6289 177.642 78.0683C177.914 76.5077 179.099 75.6073 180.666 75.6073H192.72L193.755 69.7852H187.728C186.221 71.4658 184.634 72.9664 183.238 74.0468C181.982 75.0071 180.837 75.0071 180.053 74.3469C179.169 73.5666 179.22 72.6062 179.963 71.4658L179.953 71.4558ZM207.315 82.9701C209.847 82.9701 210.992 84.3506 210.54 86.8716L208.902 96.115C208.46 98.636 206.823 100.017 204.292 100.017H181.46C178.928 100.017 177.783 98.636 178.235 96.115L179.872 86.8716C180.314 84.3506 181.952 82.9701 184.483 82.9701H207.315ZM200.957 88.6122C201.027 88.1921 200.786 87.892 200.364 87.892H189.696C189.275 87.892 188.923 88.1921 188.843 88.6122L187.818 94.3744C187.748 94.7946 187.989 95.0947 188.411 95.0947H199.078C199.5 95.0947 199.852 94.7946 199.932 94.3744L200.957 88.6122Z" fill="#E28F3B"/>
<path d="M238.746 71.1457L232.136 108.46C231.694 110.981 229.826 112.301 226.873 112.301C223.92 112.301 222.523 110.981 222.975 108.46L227.074 85.301C226.059 86.2613 225.055 87.1617 224.151 87.882C222.955 88.8423 221.87 88.8423 221.107 88.062C220.293 87.2217 220.484 86.1413 221.408 85.0009C229.083 75.3373 232.428 66.644 235.471 58.661C236.466 56.08 239.067 54.9996 241.8 55.5998C244.582 56.2001 245.496 57.8807 244.431 60.8218C243.377 63.7029 241.287 67.3643 238.746 71.1457ZM249.936 86.2013C247.334 92.7438 242.804 99.2762 238.053 103.658C236.847 104.678 235.793 104.858 234.949 104.198C234.005 103.418 234.065 102.397 234.828 101.137C238.103 95.915 240.313 90.583 242.222 84.5807C243.156 81.6996 245.185 80.4392 247.786 81.0394C250.448 81.6396 251.071 83.5603 249.946 86.2013H249.936ZM263.366 70.6055L257.49 103.788C256.063 111.831 248.54 114.522 238.756 110.21C237.53 109.67 237.179 108.59 237.751 107.389C238.334 106.129 239.319 105.709 240.906 105.889C246.641 106.489 247.756 105.649 248.228 103.008L253.964 70.6055H250.107C247.475 74.567 244.582 77.9882 241.599 80.8693C240.574 81.8897 239.268 82.1298 238.404 81.5296C237.551 80.9294 237.51 79.7889 238.274 78.5285C241.428 73.3065 244.783 66.594 246.802 59.9915C247.927 57.0504 249.936 55.91 252.789 56.4502C255.581 56.9904 256.305 59.0311 254.969 61.8522C254.386 63.1127 253.743 64.3731 253.1 65.5736H269.373C270.94 64.1931 273.733 63.7729 275.711 64.8533C277.861 65.9937 278.112 68.3346 276.555 70.9756C274.315 74.757 271.051 78.2383 268.61 80.4592C267.665 81.3595 266.56 81.1194 265.777 80.4592C264.993 79.7989 265.094 78.8986 265.676 77.6381C266.56 75.7174 267.585 73.3165 268.228 71.3958C268.439 70.9156 268.188 70.6155 267.706 70.6155H263.366V70.6055ZM268.911 103.968C266.048 104.808 264.16 103.908 263.888 100.667C263.808 95.3248 263.055 89.3925 262.05 84.5307C261.859 83.2102 262.332 82.2498 263.517 81.7096C264.692 81.1694 265.606 81.4696 266.279 82.4299C269.021 86.3314 271.372 92.4537 272.477 98.1458C273.029 101.147 271.904 103.068 268.921 103.968H268.911Z" fill="#E28F3B"/>
<path d="M330.778 103.968C328.598 112.551 320.04 114.592 310.125 109.01C308.98 108.35 308.749 107.269 309.392 106.009C309.965 104.808 311.019 104.328 312.476 104.568C320.361 105.949 321.336 105.589 322.38 101.387C324.148 94.1243 326.087 83.5103 328.096 72.166C328.206 71.5658 327.895 71.2657 327.353 71.2657H319.156C316.052 75.8874 312.476 80.089 309.352 82.72C308.639 83.3202 307.996 83.5603 307.393 83.5603L303.104 107.799C302.672 110.26 300.864 111.581 298.041 111.581C295.219 111.581 293.873 110.26 294.315 107.799L294.797 105.098H289.734L289.202 108.1C288.76 110.62 286.952 111.941 284.059 111.941C281.166 111.941 279.83 110.62 280.282 108.1L286.901 70.7255C287.343 68.2045 288.981 66.824 291.512 66.824H294.345C295.068 64.4231 295.882 61.542 296.394 59.3212C297.067 56.5602 299.207 55.3597 302.16 55.6598C305.183 55.9599 305.876 58.1808 304.631 60.7617C303.586 62.9226 302.25 65.0233 300.844 66.824H306.449C308.98 66.824 310.125 68.2045 309.673 70.7255L308.599 76.7878C311.602 71.7459 314.003 65.6936 316.012 59.7514C317.046 56.6302 319.116 55.4898 322.039 55.9699C324.741 56.3901 325.836 58.0107 324.45 61.432C323.807 62.9926 323.053 64.5532 322.23 66.1138H334.344C336.875 66.1138 337.839 67.4943 337.367 70.1353C334.746 85.9712 332.576 96.8353 330.778 103.968ZM295.701 99.9465L297.881 87.6518H292.818L290.638 99.9465H295.701ZM299.93 71.986H296.314C295.892 71.986 295.54 72.2861 295.46 72.7062L293.712 82.6099H298.775L300.522 72.7062C300.593 72.2861 300.352 71.986 299.93 71.986ZM314.314 92.1435C313.812 89.8627 313.119 86.6215 312.335 83.5603C311.974 82.1798 312.596 81.0394 313.892 80.199C315.128 79.3587 316.243 79.5388 317.207 80.5592C319.447 82.9001 321.316 86.2613 322.179 88.5422C323.124 91.0631 322.049 93.0439 319.548 94.2443C317.046 95.4448 314.947 95.0246 314.314 92.1435Z" fill="#E28F3B"/>
<path d="M397.456 83.6904C397.145 85.431 396.01 86.3914 394.332 86.3914H386.015L382.841 104.328C381.475 112.071 373.358 114.352 364.087 109.85C362.872 109.25 362.61 108.35 363.143 107.029C363.665 105.769 364.73 105.228 366.247 105.469C371.671 106.129 373.017 105.349 373.6 102.047L376.372 86.3914H368.115C366.427 86.3914 365.634 85.431 365.945 83.6904L365.995 83.3902C364.609 87.1116 362.992 90.4729 361.124 93.5341C362.751 94.5544 364.298 95.6949 365.664 96.8353C367.914 98.756 367.934 101.037 365.614 103.258C363.293 105.479 360.642 105.479 358.954 103.078C358.241 101.997 357.397 100.977 356.614 99.9565C352.485 104.878 347.583 108.78 341.938 111.711C340.542 112.431 339.437 112.251 338.965 111.171C338.492 110.09 339.055 108.95 340.301 108.05C345.202 104.508 349.12 100.427 352.294 95.4548C351.681 94.8545 350.998 94.2543 350.325 93.6541C349.1 96.175 346.97 97.3155 344.61 96.6552C342.199 95.995 341.657 94.2543 342.792 91.6133C344.891 86.5714 347.181 80.099 349.451 73.3765H347.463C345.775 73.3765 345.032 72.4761 345.323 70.7955C345.624 69.1149 346.679 68.2146 348.367 68.2146H351.199L354.012 59.4513C354.795 57.0504 356.543 55.7299 359.326 55.9699C362.058 56.21 363.283 57.4705 362.349 60.3516C361.525 62.9326 360.702 65.5736 359.808 68.2146H365.533C368.909 68.2146 369.883 69.8352 369.009 73.4365C368.256 76.6777 367.362 79.6789 366.307 82.5599C366.849 81.5396 367.784 80.9994 369.049 80.9994H377.306L378.311 75.2972C378.833 72.3561 380.792 70.7955 383.926 70.7955C384.649 70.7955 385.242 70.8556 385.814 71.0356C387.803 68.6347 389.43 66.2938 390.395 64.5532C390.666 64.073 390.545 63.7129 390.003 63.7129H373.61C371.982 63.7129 371.249 62.7525 371.54 61.1319C371.832 59.5113 372.896 58.5509 374.524 58.5509H392.062C394.573 56.9303 397.476 56.8703 399.536 58.5509C401.424 60.1115 401.283 62.9926 399.094 65.4535C396.161 68.7548 391.821 72.4762 387.984 75.1171L387.954 75.2972L386.949 80.9994H395.267C396.954 80.9994 397.748 81.9597 397.436 83.7004L397.456 83.6904ZM355.247 90.3529C357.518 85.6711 359.366 80.3891 360.943 74.1568C361.094 73.6166 360.903 73.3765 360.421 73.3765H358.07C356.101 79.0786 354.102 84.5407 352.274 89.0924C353.238 89.4525 354.243 89.8727 355.247 90.3529Z" fill="#E28F3B"/>
<path d="M447.862 110.681C443.844 110.921 440.047 110.921 436.099 110.741C430.193 110.44 429.269 108.82 430.102 104.138L430.484 101.977H426.928C422.147 109.24 412.464 112.241 402.007 112.721C400.43 112.781 399.817 112.181 399.837 111.041C399.887 109.72 400.58 108.88 402.137 108.58C409.561 107.139 414.432 105.519 417.647 101.977H414.694C412.042 101.977 411.017 100.597 411.469 98.0758L413.568 86.2013C414.01 83.6804 415.648 82.2999 418.179 82.2999H444.869C447.4 82.2999 448.545 83.6804 448.093 86.2013L445.994 98.0758C445.572 100.477 444.216 101.977 441.383 101.977H439.032L438.932 102.517C438.671 104.018 439.093 104.318 441.313 104.378C443.111 104.438 444.919 104.438 446.988 104.318C448.816 104.198 449.339 103.298 450.293 98.9161C450.614 97.4156 451.458 96.7553 452.663 96.7553C453.989 96.7553 454.472 97.4155 454.492 98.676C454.622 108.16 452.854 110.31 447.852 110.671L447.862 110.681ZM405.322 84.1606L406.065 79.959C406.507 77.4381 408.144 76.0575 410.676 76.0575H411.399L413.368 61.9022C413.779 58.9011 415.035 57.9407 417.717 57.7607C419.063 57.6406 420.047 57.8807 420.67 58.4209C422.167 57.8207 423.483 57.1605 424.869 56.5002C426.908 55.5398 428.465 55.9 428.907 57.5206C429.379 59.2612 428.475 61.0019 426.326 61.5421C424.748 61.9622 422.94 62.2624 421.032 62.5025C420.931 63.0427 420.841 63.5829 420.801 64.1231H424.658C426.044 64.1231 426.637 64.8433 426.406 66.1638C426.175 67.4843 425.321 68.2046 423.935 68.2046H420.198C420.088 68.8048 420.047 69.4051 419.937 70.0053H423.613C425 70.0053 425.592 70.7255 425.361 72.046C425.13 73.3665 424.276 74.0868 422.89 74.0868H419.395C419.274 74.747 419.163 75.4073 419.103 76.0676H446.335C446.516 75.4073 446.626 74.747 446.807 74.0868H442.95C441.564 74.0868 440.971 73.3665 441.202 72.046C441.433 70.7255 442.287 70.0053 443.673 70.0053H447.772C447.882 69.4051 448.043 68.8048 448.153 68.2046H443.995C442.608 68.2046 442.016 67.4843 442.247 66.1638C442.478 64.8433 443.332 64.1231 444.718 64.1231H448.997C449.128 63.7029 449.218 63.2227 449.288 62.8026C449.369 62.3224 449.238 62.0823 448.756 62.0823H445.019C443.573 62.0823 442.88 61.242 443.131 59.8014C443.382 58.3609 444.376 57.5206 445.823 57.5206H454.14C456.732 57.5206 457.867 58.9611 457.224 61.5421C456.239 66.4039 455.034 71.2057 453.809 76.0575H454.532C457.063 76.0575 458.208 77.4381 457.756 79.959L457.013 84.1606C456.621 86.3814 454.964 87.5819 452.372 87.5819C449.781 87.5819 448.545 86.3814 448.937 84.1606L449.439 81.3395C449.509 80.9194 449.268 80.6192 448.846 80.6192H414.744C414.322 80.6192 413.97 80.9194 413.89 81.3395L413.388 84.1606C412.996 86.3814 411.338 87.5819 408.747 87.5819C406.155 87.5819 404.92 86.3814 405.311 84.1606H405.322ZM420.65 97.2955C420.58 97.7157 420.821 98.0158 421.243 98.0158H436.25C436.672 98.0158 437.023 97.7157 437.104 97.2955L437.275 96.3351H420.821L420.65 97.2955ZM421.434 92.8539H437.887L438.159 91.2933H421.705L421.434 92.8539ZM422.328 87.812H438.781L438.932 86.9716C439.002 86.5515 438.761 86.2514 438.339 86.2514H423.332C422.91 86.2514 422.559 86.5515 422.478 86.9716L422.328 87.812ZM428.335 63.3928C429.57 62.8526 430.886 62.2524 432.152 61.5921C431.438 61.172 430.796 60.7518 430.183 60.4517C429.178 59.9715 429.158 59.0712 429.671 58.2308C430.193 57.3305 430.956 57.0904 432.051 57.3905C433.327 57.6906 434.844 58.2909 436.411 58.9511C437.104 58.4709 437.867 57.8707 438.5 57.3305C439.846 56.1901 441.162 56.2501 442.076 57.2105C443.101 58.2308 442.578 59.7914 441.192 60.8118L440.569 61.292C440.84 61.4721 441.102 61.7121 441.363 61.8922C442.629 62.9126 442.779 64.1131 441.524 65.4336C441.082 65.9137 440.589 66.2739 440.087 66.3939C440.198 66.4539 440.238 66.574 440.348 66.634C441.323 67.5943 440.941 69.0949 439.555 70.1153L438.932 70.5955C439.203 70.7756 439.464 71.0156 439.726 71.1957C440.991 72.2161 441.142 73.4165 439.886 74.737C438.771 75.9375 437.395 76.2376 436.21 75.0972C435.657 74.497 434.904 73.9567 434.171 73.3565C431.8 74.4969 429.419 75.3373 427.36 75.7574C426.426 75.9375 425.683 75.6974 425.492 74.737C425.291 73.8367 425.663 73.1164 426.697 72.6963C427.923 72.2161 429.249 71.5558 430.575 70.8956C429.881 70.4154 429.218 70.0553 428.545 69.7552C427.541 69.275 427.521 68.3747 428.033 67.5343C428.556 66.634 429.319 66.3939 430.414 66.694C431.679 67.0541 433.206 67.5944 434.763 68.3146C435.386 67.8345 436.089 67.2943 436.652 66.8141C437.144 66.3939 437.626 66.0938 438.068 65.9737L437.857 65.7937C437.234 65.2535 436.551 64.6533 435.758 64.053C433.447 65.1935 431.007 66.0338 429.008 66.4539C428.073 66.634 427.26 66.4539 427.139 65.4336C426.938 64.5332 427.31 63.8129 428.345 63.3928H428.335Z" fill="#E28F3B"/>
<path d="M462.347 107.089C478.027 97.7857 486.183 83.0301 489.488 64.3731L490.201 60.3516C490.754 57.2304 493.135 55.6699 496.449 55.6699C499.764 55.6699 501.783 57.1704 501.281 60.3516C500.889 62.9326 500.246 66.5339 500.066 68.5747C499.121 79.3687 504.837 92.6938 513.807 100.557C516.469 102.898 516.74 106.139 513.988 109.08C511.095 112.141 507.388 112.681 504.837 109.74C498.127 102.057 494.893 88.6822 496.058 75.6073C492.12 90.723 481.513 105.369 463.713 111.961C462.106 112.561 461.091 112.141 460.649 110.881C460.207 109.62 460.8 108 462.347 107.099V107.089Z" fill="#E28F3B"/>
<path d="M575.413 106.909C575.081 108.77 573.816 109.79 571.947 109.79H524.766C522.898 109.79 521.994 108.77 522.325 106.909C522.657 105.048 523.922 104.028 525.791 104.028H545.248L547.498 91.3132H534.841C533.094 91.3132 532.24 90.3529 532.571 88.4922C532.903 86.6315 534.098 85.6711 535.846 85.6711H548.502L550.311 75.4673H541.27C538.066 79.969 534.209 84.0505 530.321 86.9316C529.005 87.892 527.89 88.072 527.067 87.2917C526.193 86.4514 526.273 85.311 527.207 84.1105C531.908 77.9882 535.303 71.0356 538.186 62.5724C539.342 59.0911 541.632 57.7707 544.736 58.2508C547.779 58.731 548.934 60.7118 547.438 64.4332C546.684 66.2939 545.74 68.2146 544.695 70.0753H551.265L552.962 60.4717C553.485 57.5305 555.574 55.9099 558.949 55.9099C562.324 55.9099 563.841 57.5305 563.319 60.4717L561.661 69.8352H575.825C577.633 69.8352 578.426 70.7955 578.095 72.6562C577.763 74.5169 576.568 75.4773 574.82 75.4773H560.657L558.849 85.6811H571.325C573.133 85.6811 573.926 86.6415 573.595 88.5022C573.263 90.3629 572.068 91.3233 570.32 91.3233H557.844L555.594 104.038H572.942C574.81 104.038 575.714 105.058 575.383 106.919L575.413 106.909Z" fill="#E28F3B"/>
<path d="M397.456 83.6904C397.145 85.431 396.01 86.3914 394.332 86.3914H386.015L382.841 104.328C381.475 112.071 373.358 114.352 364.087 109.85C362.872 109.25 362.61 108.35 363.143 107.029C363.665 105.769 364.73 105.228 366.247 105.469C371.671 106.129 373.017 105.349 373.6 102.047L376.372 86.3914H368.115C366.427 86.3914 365.634 85.431 365.945 83.6904L365.995 83.3902C364.609 87.1116 362.992 90.4729 361.124 93.5341C362.751 94.5544 364.298 95.6949 365.664 96.8353C367.914 98.756 367.934 101.037 365.614 103.258C363.293 105.479 360.642 105.479 358.954 103.078C358.241 101.997 357.397 100.977 356.614 99.9565C352.485 104.878 347.583 108.78 341.938 111.711C340.542 112.431 339.437 112.251 338.965 111.171C338.492 110.09 339.055 108.95 340.301 108.05C345.202 104.508 349.12 100.427 352.294 95.4548C351.681 94.8545 350.998 94.2543 350.325 93.6541C349.1 96.175 346.97 97.3155 344.61 96.6552C342.199 95.995 341.657 94.2543 342.792 91.6133C344.891 86.5714 347.181 80.099 349.451 73.3765H347.463C345.775 73.3765 345.032 72.4761 345.323 70.7955C345.624 69.1149 346.679 68.2146 348.367 68.2146H351.199L354.012 59.4513C354.795 57.0504 356.543 55.7299 359.326 55.9699C362.058 56.21 363.283 57.4705 362.349 60.3516C361.525 62.9326 360.702 65.5736 359.808 68.2146H365.533C368.909 68.2146 369.883 69.8352 369.009 73.4365C368.256 76.6777 367.362 79.6789 366.307 82.5599C366.849 81.5396 367.784 80.9994 369.049 80.9994H377.306L378.311 75.2972C378.833 72.3561 380.792 70.7955 383.926 70.7955C384.649 70.7955 385.242 70.8556 385.814 71.0356C387.803 68.6347 389.43 66.2938 390.395 64.5532C390.666 64.073 390.545 63.7129 390.003 63.7129H373.61C371.982 63.7129 371.249 62.7525 371.54 61.1319C371.832 59.5113 372.896 58.5509 374.524 58.5509H392.062C394.573 56.9303 397.476 56.8703 399.536 58.5509C401.424 60.1115 401.283 62.9926 399.094 65.4535C396.161 68.7548 391.821 72.4762 387.984 75.1171L387.954 75.2972L386.949 80.9994H395.267C396.954 80.9994 397.748 81.9597 397.436 83.7004L397.456 83.6904ZM355.247 90.3529C357.518 85.6711 359.366 80.3891 360.943 74.1568C361.094 73.6166 360.903 73.3765 360.421 73.3765H358.07C356.101 79.0786 354.102 84.5407 352.274 89.0924C353.238 89.4525 354.243 89.8727 355.247 90.3529Z" fill="#C43030"/>
<path d="M447.862 110.68C443.844 110.921 440.047 110.921 436.099 110.741C430.193 110.44 429.269 108.82 430.103 104.138L430.484 101.977H426.928C422.147 109.24 412.464 112.241 402.007 112.721C400.43 112.781 399.817 112.181 399.837 111.041C399.887 109.72 400.58 108.88 402.137 108.58C409.561 107.139 414.432 105.519 417.647 101.977H414.694C412.042 101.977 411.017 100.597 411.469 98.0758L413.569 86.2013C414.011 83.6804 415.648 82.2998 418.179 82.2998H444.869C447.4 82.2998 448.545 83.6804 448.093 86.2013L445.994 98.0758C445.572 100.477 444.216 101.977 441.383 101.977H439.032L438.932 102.517C438.671 104.018 439.093 104.318 441.313 104.378C443.111 104.438 444.919 104.438 446.988 104.318C448.816 104.198 449.339 103.298 450.293 98.9161C450.614 97.4155 451.458 96.7553 452.664 96.7553C453.989 96.7553 454.472 97.4155 454.492 98.676C454.622 108.16 452.854 110.31 447.852 110.671L447.862 110.68ZM405.322 84.1606L406.065 79.959C406.507 77.438 408.144 76.0575 410.676 76.0575H411.399L413.368 61.9022C413.779 58.9011 415.035 57.9407 417.717 57.7606C419.063 57.6406 420.047 57.8807 420.67 58.4209C422.167 57.8207 423.483 57.1604 424.869 56.5002C426.908 55.5398 428.465 55.8999 428.907 57.5206C429.379 59.2612 428.475 61.0018 426.326 61.542C424.749 61.9622 422.94 62.2623 421.032 62.5024C420.931 63.0426 420.841 63.5828 420.801 64.123H424.658C426.044 64.123 426.637 64.8433 426.406 66.1638C426.175 67.4843 425.321 68.2046 423.935 68.2046H420.198C420.088 68.8048 420.047 69.405 419.937 70.0052H423.613C425 70.0052 425.592 70.7255 425.361 72.046C425.13 73.3665 424.276 74.0868 422.89 74.0868H419.395C419.274 74.747 419.164 75.4073 419.103 76.0675H446.335C446.516 75.4073 446.626 74.747 446.807 74.0868H442.95C441.564 74.0868 440.971 73.3665 441.202 72.046C441.433 70.7255 442.287 70.0052 443.673 70.0052H447.772C447.882 69.405 448.043 68.8048 448.153 68.2046H443.995C442.608 68.2046 442.016 67.4843 442.247 66.1638C442.478 64.8433 443.332 64.123 444.718 64.123H448.997C449.128 63.7029 449.218 63.2227 449.288 62.8025C449.369 62.3224 449.238 62.0823 448.756 62.0823H445.019C443.573 62.0823 442.88 61.2419 443.131 59.8014C443.382 58.3609 444.376 57.5206 445.823 57.5206H454.14C456.732 57.5206 457.867 58.9611 457.224 61.542C456.239 66.4039 455.034 71.2057 453.809 76.0575H454.532C457.063 76.0575 458.208 77.438 457.756 79.959L457.013 84.1606C456.621 86.3814 454.964 87.5818 452.372 87.5818C449.781 87.5818 448.545 86.3814 448.937 84.1606L449.439 81.3395C449.509 80.9193 449.268 80.6192 448.846 80.6192H414.744C414.322 80.6192 413.97 80.9193 413.89 81.3395L413.388 84.1606C412.996 86.3814 411.339 87.5818 408.747 87.5818C406.155 87.5818 404.92 86.3814 405.312 84.1606H405.322ZM420.65 97.2955C420.58 97.7156 420.821 98.0158 421.243 98.0158H436.25C436.672 98.0158 437.024 97.7156 437.104 97.2955L437.275 96.3351H420.821L420.65 97.2955ZM421.434 92.8538H437.887L438.159 91.2932H421.705L421.434 92.8538ZM422.328 87.8119H438.781L438.932 86.9716C439.002 86.5515 438.761 86.2513 438.339 86.2513H423.332C422.91 86.2513 422.559 86.5515 422.478 86.9716L422.328 87.8119ZM428.335 63.3927C429.57 62.8525 430.886 62.2523 432.152 61.5921C431.439 61.1719 430.796 60.7518 430.183 60.4516C429.178 59.9715 429.158 59.0711 429.671 58.2308C430.193 57.3305 430.956 57.0904 432.051 57.3905C433.327 57.6906 434.844 58.2908 436.411 58.9511C437.104 58.4709 437.867 57.8707 438.5 57.3305C439.846 56.19 441.162 56.2501 442.076 57.2104C443.101 58.2308 442.578 59.7914 441.192 60.8118L440.569 61.292C440.841 61.472 441.102 61.7121 441.363 61.8922C442.629 62.9126 442.779 64.113 441.524 65.4335C441.082 65.9137 440.589 66.2738 440.087 66.3939C440.198 66.4539 440.238 66.5739 440.348 66.634C441.323 67.5943 440.941 69.0949 439.555 70.1153L438.932 70.5955C439.203 70.7755 439.464 71.0156 439.726 71.1957C440.991 72.216 441.142 73.4165 439.886 74.737C438.771 75.9375 437.395 76.2376 436.21 75.0972C435.657 74.4969 434.904 73.9567 434.171 73.3565C431.8 74.4969 429.419 75.3372 427.36 75.7574C426.426 75.9375 425.683 75.6974 425.492 74.737C425.291 73.8367 425.663 73.1164 426.697 72.6962C427.923 72.216 429.249 71.5558 430.575 70.8956C429.882 70.4154 429.219 70.0553 428.546 69.7552C427.541 69.275 427.521 68.3746 428.033 67.5343C428.556 66.634 429.319 66.3939 430.414 66.694C431.68 67.0541 433.206 67.5943 434.763 68.3146C435.386 67.8344 436.089 67.2942 436.652 66.814C437.144 66.3939 437.626 66.0938 438.068 65.9737L437.857 65.7936C437.234 65.2534 436.551 64.6532 435.758 64.053C433.447 65.1934 431.007 66.0337 429.008 66.4539C428.073 66.634 427.26 66.4539 427.139 65.4335C426.938 64.5332 427.31 63.8129 428.345 63.3927H428.335Z" fill="#C43030"/>
</svg>
