<svg width="1287" height="944" viewBox="0 0 1287 944" fill="none" xmlns="http://www.w3.org/2000/svg">
<path d="M844.021 124.92V196.299" stroke="#A8825A" stroke-width="2.16" stroke-miterlimit="10"/>
<path d="M859.986 504.92C888.084 504.92 910.863 499.933 910.863 493.782C910.863 487.63 888.084 482.643 859.986 482.643C831.887 482.643 809.108 487.63 809.108 493.782C809.108 499.933 831.887 504.92 859.986 504.92Z" fill="#D1AB7D"/>
<path d="M859.986 493.782V76.9195" stroke="#D1AB7D" stroke-width="4.32" stroke-miterlimit="10"/>
<path d="M815.266 9.78867H904.705L931.349 121.604H931.2C931.2 130.221 899.321 137.2 859.986 137.2C820.66 137.2 788.771 130.221 788.771 121.604H788.623L815.266 9.78867Z" fill="#7DA2EA"/>
<mask id="mask0_5_18" style="mask-type:luminance" maskUnits="userSpaceOnUse" x="788" y="9" width="144" height="129">
<path d="M815.266 9.78867H904.705L931.349 121.604H931.2C931.2 130.221 899.321 137.2 859.986 137.2C820.66 137.2 788.771 130.221 788.771 121.604H788.623L815.266 9.78867Z" fill="white"/>
</mask>
<g mask="url(#mask0_5_18)">
<path d="M898.686 10.7417L920.154 142.66" stroke="#F4E7C9" stroke-width="2.88" stroke-miterlimit="10"/>
<path d="M883.862 10.7119L897.08 142.66" stroke="#F4E7C9" stroke-width="2.88" stroke-miterlimit="10"/>
<path d="M868.067 13.8392L874.006 145.202" stroke="#F4E7C9" stroke-width="2.88" stroke-miterlimit="10"/>
<path d="M823.169 10.7417L801.701 142.66" stroke="#F4E7C9" stroke-width="2.88" stroke-miterlimit="10"/>
<path d="M837.993 10.7119L824.775 142.66" stroke="#F4E7C9" stroke-width="2.88" stroke-miterlimit="10"/>
<path d="M853.788 13.8392L847.849 145.202" stroke="#F4E7C9" stroke-width="2.88" stroke-miterlimit="10"/>
</g>
<path d="M815.266 9.78867C815.266 15.1992 835.286 19.5773 859.986 19.5773C884.686 19.5773 904.705 15.1893 904.705 9.78867C904.705 4.38802 884.676 0 859.986 0C835.286 0 815.266 4.38802 815.266 9.78867Z" fill="#F4E7C9"/>
<path d="M901.701 12.211C895.226 8.54771 878.994 5.95659 859.986 5.95659C841.979 5.95659 826.451 8.28959 819.361 11.6451" stroke="#FCF2DB" stroke-width="1.44" stroke-miterlimit="10"/>
<path d="M840.392 196.637C840.392 198.642 842.018 200.271 844.021 200.271C846.024 200.271 847.65 198.642 847.65 196.637C847.65 194.632 846.024 193.004 844.021 193.004C842.018 193.004 840.392 194.632 840.392 196.637Z" fill="#A8825A"/>
<path d="M78.7601 734.636C98.4526 729.385 117.629 723.011 136.886 716.846C169.231 706.482 202.26 698.609 234.882 689.297C264.461 703.751 297.46 714.771 327.653 726.992C380.652 748.436 433.681 769.84 486.651 791.333C506.581 799.394 528.703 806.374 546.968 816.688C560.364 824.253 570.032 831.064 585.738 836.067C608.068 843.175 630.448 849.946 652.322 857.918C657.567 859.834 677.23 869.623 692.966 876.234C619.323 896.457 542.397 910.237 470.032 935.383C464.39 937.349 425.223 917.236 418.005 914.605C399.324 907.804 380.206 902.017 361.138 895.941C347.723 891.672 339.473 885.854 328.03 879.391C312.433 870.586 293.543 864.629 276.518 857.739C231.273 839.393 185.998 821.106 140.733 802.8C100.099 786.359 53.5049 772.471 21.7946 745.606C27.0994 750.094 71.5315 736.572 78.7501 734.646L78.7601 734.636Z" fill="#FFF2EB"/>
<mask id="mask1_5_18" style="mask-type:luminance" maskUnits="userSpaceOnUse" x="21" y="689" width="672" height="247">
<path d="M78.7601 734.636C98.4526 729.385 117.629 723.011 136.886 716.846C169.231 706.482 202.26 698.609 234.882 689.297C264.461 703.751 297.46 714.771 327.653 726.992C380.652 748.436 433.681 769.84 486.651 791.333C506.581 799.394 528.703 806.374 546.968 816.688C560.364 824.253 570.032 831.064 585.738 836.067C608.068 843.175 630.448 849.946 652.322 857.918C657.567 859.834 677.23 869.623 692.966 876.234C619.323 896.457 542.397 910.237 470.032 935.383C464.39 937.349 425.223 917.236 418.005 914.605C399.324 907.804 380.206 902.017 361.138 895.941C347.723 891.672 339.473 885.854 328.03 879.391C312.433 870.586 293.543 864.629 276.518 857.739C231.273 839.393 185.998 821.106 140.733 802.8C100.099 786.359 53.5049 772.471 21.7946 745.606C27.0994 750.094 71.5315 736.572 78.7501 734.646L78.7601 734.636Z" fill="white"/>
</mask>
<g mask="url(#mask1_5_18)">
<path d="M665.887 892.466C601.742 861.303 535.535 834.171 469.041 808.458C435.456 795.473 401.515 783.341 368.149 769.8C336.756 757.063 306.354 742.152 275.646 727.895C258.809 720.082 241.853 712.498 224.6 705.628C215.953 702.183 207.237 698.927 198.422 695.928C189.607 692.93 180.406 689.595 170.877 688.711C165.77 688.234 163.599 696.335 168.229 698.51C175.785 702.064 183.797 704.089 191.719 706.73C199.642 709.37 207.604 712.259 215.438 715.297C230.906 721.294 246.087 727.965 261.159 734.894C291.56 748.853 321.525 763.774 352.353 776.789C384.916 790.529 418.193 802.353 451.341 814.554C484.489 826.755 518.361 839.76 551.747 852.696C589.248 867.23 626.452 882.499 663.903 897.142C666.591 898.194 668.475 893.727 665.877 892.466H665.887Z" fill="#EDCCBC"/>
<path d="M115.091 705.022C179.781 740.037 246.117 772.103 315.358 797.101C350.459 809.769 386.275 820.779 420.672 835.332C452.462 848.784 483.22 864.56 514.851 878.359C550.696 894.005 587.384 907.983 625.847 915.627C633.988 917.246 637.429 904.687 629.278 903.158C561.187 890.401 499.204 858.037 435.694 831.808C401.941 817.87 367.643 805.659 333.246 793.428C298.848 781.197 264.58 767.368 231.094 752.149C193.316 734.974 155.924 717.005 118.234 699.631C114.645 697.973 111.482 703.086 115.081 705.032L115.091 705.022Z" fill="#EDCCBC"/>
<path d="M524.41 927.004C498.639 908.728 469.209 896.725 439.78 885.735C408.248 873.961 376.954 862.286 346.483 847.891C282.596 817.711 218.829 787.59 153.732 760.071C135.458 752.347 117.124 744.763 98.7302 737.347C80.3367 729.931 61.4374 721.403 42.2407 715.476C35.1609 713.292 30.1436 724.46 37.0944 727.687C52.9992 735.073 69.7765 740.811 86.058 747.334C102.34 753.856 118.75 760.557 135.022 767.328C167.892 780.989 200.554 795.155 233.008 809.769C265.462 824.382 296.587 839.591 328.575 854.086C359.235 867.975 390.3 880.215 422.278 890.709C456.329 901.888 490.706 913.155 520.801 933.15C524.648 935.701 528.059 929.625 524.38 927.014L524.41 927.004Z" fill="#EDCCBC"/>
</g>
<path d="M702.168 865.344C695.852 867.568 689.426 869.384 682.852 870.685C678.172 871.608 671.648 871.003 668.663 875.202C667.622 876.671 668.683 878.994 670.359 879.381C675.128 880.474 681.672 877.515 686.234 876.095C692.243 874.229 698.093 871.886 703.804 869.255C705.976 868.253 704.439 864.559 702.168 865.354V865.344Z" fill="#EFDEBD"/>
<path d="M679.303 851.465C674.206 853.172 669.07 854.662 664.022 856.508C658.975 858.355 653.819 859.387 649.308 861.899C644.33 864.679 647.989 871.221 652.917 870.476C657.845 869.732 662.952 866.912 667.533 864.857C672.49 862.634 677.002 859.764 681.544 856.796C684.181 855.079 682.575 850.373 679.303 851.475V851.465Z" fill="#EFDEBD"/>
<path d="M648.296 842.044C638.371 845.121 628.386 847.911 618.291 850.363C613.74 851.465 613.244 859.357 618.291 860.092C624.31 860.966 628.733 858.136 633.958 855.426C639.184 852.716 644.865 849.708 650.319 846.849C652.947 845.469 651.142 841.16 648.296 842.044Z" fill="#EFDEBD"/>
<path d="M614.028 827.787C608.554 829.614 603.051 831.302 597.478 832.801C591.906 834.3 586.244 835.025 581.385 837.755C577.27 840.068 578.876 847.434 583.894 847.027C589.625 846.561 594.95 843.781 600.126 841.428C605.629 838.926 611.043 836.216 616.378 833.377C619.392 831.768 617.329 826.686 614.028 827.787Z" fill="#EFDEBD"/>
<path d="M577.746 808.856C571.767 809.193 565.837 810.365 560.116 812.082C555.218 813.551 547.136 814.504 543.874 818.664C542.516 820.391 542.099 823.697 544.667 824.799C550.2 827.172 555.317 824.015 560.463 821.742C566.462 819.091 572.114 815.934 578.46 814.147C581.316 813.343 580.86 808.667 577.746 808.846V808.856Z" fill="#EFDEBD"/>
<path d="M539.125 793.984C534.663 796.873 530.151 799.871 525.203 801.876C522.793 802.849 520.315 803.554 517.756 804.001C515.01 804.487 512.243 804.229 509.645 805.272C506.274 806.622 504.807 811.556 508.565 813.581C520.235 819.885 535.228 806.681 543.517 799.672C546.661 797.022 542.565 791.76 539.135 793.984H539.125Z" fill="#EFDEBD"/>
<path d="M510.409 780.423C504.965 782.269 499.502 784.096 494.068 785.962C489.179 787.64 483.607 788.96 479.69 792.405C476.993 794.778 479.006 800.387 482.804 799.931C488.049 799.295 492.709 796.168 497.29 793.607C502.338 790.787 507.355 787.938 512.382 785.099C514.851 783.709 513.205 779.48 510.409 780.423Z" fill="#EFDEBD"/>
<path d="M477.915 766.316C472.7 769.443 467.474 772.024 461.693 773.97C459.145 774.833 456.606 775.628 453.919 775.955C450.806 776.323 448.476 775.876 445.739 777.623C443.161 779.271 443.498 782.418 445.739 784.126C450.657 787.868 459.204 784.354 464.113 781.932C470.171 778.944 475.278 773.861 480.414 769.552C482.229 768.033 479.888 765.134 477.915 766.316Z" fill="#EFDEBD"/>
<path d="M441.832 755.316C437.043 757.381 432.164 758.919 427.167 760.399C422.804 761.689 418.084 762.454 414.128 764.727C409.229 767.547 412.68 774.367 417.797 773.434C422.497 772.57 426.969 769.641 431.183 767.477C435.754 765.124 440.246 762.752 444.916 760.597C448.515 758.939 445.382 753.797 441.832 755.316Z" fill="#EFDEBD"/>
<path d="M404.926 736.781C400.613 739.273 396.052 741.06 391.361 742.708C387.167 744.177 383.012 744.961 379.482 747.721C376.349 750.173 378.927 756.08 382.794 755.733C387.524 755.296 391.421 752.586 395.447 750.173C399.73 747.622 403.835 744.802 408.149 742.301C411.708 740.246 408.496 734.716 404.926 736.781Z" fill="#EFDEBD"/>
<path d="M374.227 728.7C364.777 730.05 355.11 733.505 345.928 736.135C338.927 738.141 341.981 747.929 348.873 746.828C358.64 745.269 366.394 737.764 376.19 735.828C380.93 734.885 378.808 728.044 374.227 728.7Z" fill="#EFDEBD"/>
<path d="M347.941 712.627C342.447 714.334 336.895 715.833 331.411 717.551C326.731 719.02 320.147 720.162 317.014 724.093C315.169 726.416 315.298 730.963 318.987 731.579C324.47 732.492 329.478 729.385 334.426 727.171C339.929 724.699 345.303 721.919 350.786 719.387C354.594 717.63 351.897 711.406 347.941 712.637V712.627Z" fill="#EFDEBD"/>
<path d="M310.341 697.646C300.296 703.116 289.161 704.397 278.571 708.199C272.661 710.324 274.951 718.971 281.179 717.66C292.215 715.327 304.48 709.897 313.781 703.533C317.371 701.081 314.237 695.521 310.341 697.646Z" fill="#EFDEBD"/>
<path d="M283.717 688.443C277.936 691.322 271.233 691.312 265.026 692.672C260.217 693.734 250.519 695.253 249.29 701.011C248.655 704 250.589 706.313 253.534 706.591C256.479 706.869 258.839 704.476 261.397 703.235C264.292 701.816 267.376 700.843 270.37 699.651C275.665 697.557 281.387 695.77 286.364 692.98C289.339 691.322 286.721 686.944 283.717 688.443Z" fill="#EFDEBD"/>
<path d="M259.661 682.476C249.994 685.187 240.623 688.87 230.866 691.243C223.588 693.02 227.564 704.387 235.021 701.111C243.955 697.189 252.185 691.838 261.248 688.225C264.718 686.835 263.459 681.404 259.661 682.467V682.476Z" fill="#EFDEBD"/>
<path d="M464.351 928.821C458.034 931.045 451.609 932.862 445.035 934.162C440.355 935.086 433.83 934.48 430.846 938.68C429.804 940.149 430.865 942.472 432.541 942.859C437.311 943.951 443.855 940.993 448.416 939.573C454.425 937.707 460.275 935.364 465.987 932.733C468.158 931.73 466.621 928.037 464.351 928.831V928.821Z" fill="#EFDEBD"/>
<path d="M441.475 914.942C436.379 916.65 431.242 918.139 426.195 919.986C421.148 921.832 415.992 922.865 411.48 925.376C406.503 928.156 410.162 934.698 415.09 933.954C420.018 933.209 425.124 930.39 429.705 928.335C434.663 926.111 439.175 923.242 443.716 920.273C446.354 918.556 444.747 913.85 441.475 914.952V914.942Z" fill="#EFDEBD"/>
<path d="M410.469 905.521C400.543 908.599 390.558 911.388 380.464 913.841C375.913 914.943 375.417 922.835 380.464 923.57C386.483 924.443 390.905 921.614 396.131 918.904C401.356 916.193 407.038 913.185 412.492 910.326C415.119 908.946 413.315 904.638 410.469 905.521Z" fill="#EFDEBD"/>
<path d="M376.2 891.265C370.727 893.092 365.224 894.779 359.651 896.278C354.079 897.778 348.417 898.502 343.558 901.232C339.443 903.546 341.049 910.912 346.067 910.505C351.798 910.038 357.123 907.258 362.299 904.906C367.802 902.404 373.216 899.694 378.55 896.854C381.565 895.246 379.502 890.163 376.2 891.265Z" fill="#EFDEBD"/>
<path d="M339.919 872.333C333.94 872.671 328.01 873.842 322.289 875.56C317.391 877.029 309.309 877.982 306.047 882.142C304.689 883.869 304.272 887.175 306.84 888.277C312.373 890.65 317.49 887.493 322.636 885.219C328.635 882.568 334.287 879.411 340.633 877.624C343.489 876.82 343.032 872.144 339.919 872.323V872.333Z" fill="#EFDEBD"/>
<path d="M301.297 857.471C296.835 860.36 292.324 863.358 287.376 865.364C284.966 866.337 282.487 867.042 279.929 867.488C277.182 867.975 274.416 867.717 271.818 868.759C268.447 870.109 266.979 875.043 270.737 877.068C282.408 883.373 297.401 870.169 305.69 863.16C308.833 860.509 304.738 855.247 301.307 857.471H301.297Z" fill="#EFDEBD"/>
<path d="M272.582 843.9C267.138 845.747 261.674 847.573 256.241 849.44C251.352 851.118 245.78 852.438 241.863 855.883C239.166 858.256 241.179 863.865 244.976 863.408C250.222 862.773 254.882 859.645 259.463 857.084C264.51 854.265 269.528 851.415 274.555 848.576C277.024 847.186 275.378 842.957 272.582 843.9Z" fill="#EFDEBD"/>
<path d="M240.088 829.793C234.872 832.92 229.647 835.501 223.866 837.447C221.318 838.311 218.779 839.105 216.092 839.433C212.979 839.8 210.648 839.353 207.912 841.101C205.334 842.749 205.671 845.896 207.912 847.603C212.83 851.346 221.377 847.831 226.285 845.409C232.344 842.421 237.45 837.338 242.577 833.029C244.391 831.51 242.051 828.612 240.078 829.793H240.088Z" fill="#EFDEBD"/>
<path d="M204.005 818.793C199.216 820.858 194.337 822.397 189.34 823.876C184.977 825.167 180.257 825.931 176.3 828.205C171.402 831.024 174.853 837.844 179.969 836.911C184.659 836.047 189.141 833.119 193.355 830.955C197.927 828.602 202.418 826.229 207.089 824.075C210.688 822.417 207.555 817.274 204.005 818.793Z" fill="#EFDEBD"/>
<path d="M167.099 800.258C162.785 802.75 158.224 804.537 153.534 806.185C149.34 807.654 145.185 808.439 141.655 811.198C138.522 813.651 141.1 819.558 144.967 819.21C149.697 818.773 153.594 816.063 157.619 813.651C161.903 811.099 166.008 808.28 170.321 805.778C173.881 803.723 170.668 798.193 167.099 800.258Z" fill="#EFDEBD"/>
<path d="M136.4 792.177C126.95 793.527 117.282 796.982 108.101 799.613C101.1 801.618 104.154 811.407 111.045 810.305C120.812 808.746 128.566 801.241 138.363 799.305C143.103 798.362 140.981 791.522 136.4 792.177Z" fill="#EFDEBD"/>
<path d="M110.113 776.104C104.62 777.812 99.0674 779.311 93.584 781.028C88.9038 782.498 82.3198 783.639 79.1864 787.571C77.3421 789.894 77.471 794.441 81.1597 795.056C86.643 795.969 91.6504 792.862 96.5984 790.648C102.102 788.176 107.476 785.397 112.959 782.865C116.767 781.108 114.07 774.883 110.113 776.114V776.104Z" fill="#EFDEBD"/>
<path d="M80.1086 763.943C75.6961 766.316 71.1944 768.43 66.4845 770.148C61.7745 771.865 57.3125 772.689 52.8802 774.347C47.0101 776.551 49.2411 785.089 55.488 783.808C65.3938 781.773 75.359 775.528 83.5493 769.83C87.119 767.348 84.0253 761.838 80.1086 763.943Z" fill="#EFDEBD"/>
<path d="M49.7766 754.412C44.7295 756.179 39.6328 757.271 34.4469 758.582C29.8163 759.753 23.9264 760.577 20.0494 763.407C16.797 765.779 17.5209 771.796 22.2705 771.617C27.0201 771.438 31.6011 768.758 35.9045 766.802C41.0508 764.459 45.9293 761.63 51.1747 759.475C54.2188 758.225 53.0289 753.261 49.7766 754.402V754.412Z" fill="#EFDEBD"/>
<path d="M32.6522 746.291C23.1133 748.843 13.4753 750.957 3.8571 753.181C-3.40117 754.859 0.495684 766.276 8.01176 763.049C16.7276 759.317 25.4038 755.484 34.2387 752.05C37.7389 750.689 36.44 745.279 32.6522 746.291Z" fill="#EFDEBD"/>
<path d="M1277.93 646.072L1276.38 696.445C1276.38 696.445 1272.25 700.038 1266.51 697.765L1255.09 648.852" fill="#9D7746"/>
<path d="M384.837 653.974L386.384 704.347C386.384 704.347 390.519 707.941 396.26 705.667L407.683 656.754" fill="#9D7746"/>
<path d="M698.212 787.739L705.113 837.666C705.113 837.666 709.605 840.803 715.078 837.924L721.226 788.067" fill="#9D7746"/>
<path d="M1280.03 359.381V653.051L956.326 521.688V228.753C956.326 223.69 961.453 220.225 966.143 222.131L1270.9 345.81C1276.41 348.054 1280.03 353.415 1280.03 359.381Z" fill="white"/>
<path d="M956.336 404.959L1280.04 536.322V653.041L710.963 801.489C707.969 802.273 704.796 802.065 701.92 800.903L384.817 672.221C383.498 671.685 382.636 670.404 382.636 668.975V554.608L956.326 404.949L956.336 404.959Z" fill="white"/>
<path d="M505.124 697.924C485.263 691.183 467.206 683.092 449.1 672.4C431.669 662.105 414.326 651.224 395.05 644.662C391.044 643.302 386.899 642.309 383.092 640.473C374.505 636.313 370.915 634.02 373.483 624.559C378.253 606.957 374.534 593.008 376.22 578.137C377.648 565.539 376.042 552.285 388.149 544.562C394.594 540.452 402.616 540.035 410.181 538.942C451.44 533.036 486.929 504.553 528.247 499.073C544.43 496.929 560.909 498.418 577.151 496.76C615.089 492.888 649.278 472.219 686.551 464.108C702.634 460.613 719.124 459.491 735.385 456.96C788.236 448.75 837.755 427.882 887.928 410.32C898.538 406.607 908.84 405.217 919.886 403.708C935.484 397.354 953.213 390.991 968.632 397.781C974.462 400.352 979.36 404.601 984.784 407.937C1001.47 418.192 1022.17 419.225 1040.23 426.78C1051.46 431.476 1061.48 438.604 1072.27 444.223C1084.57 450.616 1097.78 455.014 1110.89 459.501C1163.52 477.53 1215.47 497.574 1266.57 519.574C1271.47 521.678 1276.56 523.962 1279.87 528.151C1283.64 532.926 1284.45 539.34 1284.97 545.405C1286.76 565.966 1287.01 586.665 1285.73 607.265C1285.48 611.434 1285.11 615.763 1283.09 619.416C1280.88 623.407 1276.92 626.147 1272.78 628.083C1259.83 634.129 1244.85 633.364 1230.89 636.432C1213.27 640.304 1197.6 650.202 1180.54 656.029C1160.05 663.008 1138.11 663.961 1116.67 666.91C1090.52 670.504 1064.88 677.125 1039.32 683.727C1019.45 688.86 999.588 693.993 979.717 699.125C936.445 710.304 897.933 734.527 853.174 742.966C841.919 745.09 830.516 746.391 819.351 748.942C808.742 751.374 798.419 754.919 788.077 758.354C773.055 763.337 758.836 768.053 743.417 770.048C728.762 771.944 715.544 782.915 700.215 779.619C692.044 777.861 685.401 772.163 678.45 767.517C652.044 749.885 618.787 746.599 589.615 734.1C574.157 727.479 559.898 718.286 544.459 711.624C531.708 706.124 518.282 702.401 505.134 697.944L505.124 697.924Z" fill="#FFF2EB"/>
<mask id="mask2_5_18" style="mask-type:luminance" maskUnits="userSpaceOnUse" x="372" y="394" width="915" height="387">
<path d="M505.124 697.924C485.263 691.183 467.206 683.092 449.1 672.4C431.669 662.105 414.326 651.224 395.05 644.662C391.044 643.302 386.899 642.309 383.092 640.473C374.505 636.313 370.915 634.02 373.483 624.559C378.253 606.957 374.534 593.008 376.22 578.137C377.648 565.539 376.042 552.285 388.149 544.562C394.594 540.452 402.616 540.035 410.181 538.942C451.44 533.036 486.929 504.553 528.247 499.073C544.43 496.929 560.909 498.418 577.151 496.76C615.089 492.888 649.278 472.219 686.551 464.108C702.634 460.613 719.124 459.491 735.385 456.96C788.236 448.75 837.755 427.882 887.928 410.32C898.538 406.607 908.84 405.217 919.886 403.708C935.484 397.354 953.213 390.991 968.632 397.781C974.462 400.352 979.36 404.601 984.784 407.937C1001.47 418.192 1022.17 419.225 1040.23 426.78C1051.46 431.476 1061.48 438.604 1072.27 444.223C1084.57 450.616 1097.78 455.014 1110.89 459.501C1163.52 477.53 1215.47 497.574 1266.57 519.574C1271.47 521.678 1276.56 523.962 1279.87 528.151C1283.64 532.926 1284.45 539.34 1284.97 545.405C1286.76 565.966 1287.01 586.665 1285.73 607.265C1285.48 611.434 1285.11 615.763 1283.09 619.416C1280.88 623.407 1276.92 626.147 1272.78 628.083C1259.83 634.129 1244.85 633.364 1230.89 636.432C1213.27 640.304 1197.6 650.202 1180.54 656.029C1160.05 663.008 1138.11 663.961 1116.67 666.91C1090.52 670.504 1064.88 677.125 1039.32 683.727C1019.45 688.86 999.588 693.993 979.717 699.125C936.445 710.304 897.933 734.527 853.174 742.966C841.919 745.09 830.516 746.391 819.351 748.942C808.742 751.374 798.419 754.919 788.077 758.354C773.055 763.337 758.836 768.053 743.417 770.048C728.762 771.944 715.544 782.915 700.215 779.619C692.044 777.861 685.401 772.163 678.45 767.517C652.044 749.885 618.787 746.599 589.615 734.1C574.157 727.479 559.898 718.286 544.459 711.624C531.708 706.124 518.282 702.401 505.134 697.944L505.124 697.924Z" fill="white"/>
</mask>
<g mask="url(#mask2_5_18)">
<g opacity="0.35">
<path d="M1253.85 658.561C1255.41 650.45 1255.19 642.091 1255.21 633.851C1255.23 625.611 1254.95 617.043 1254.62 608.654C1253.95 591.648 1253.34 574.364 1251.46 557.448C1250.71 550.746 1250.33 543.837 1245.53 538.635C1240.73 533.433 1233.39 530.037 1227.14 526.89C1212.86 519.683 1197.71 514.282 1182.83 508.494C1118.71 483.536 1054.99 457.506 991.656 430.592C973.788 422.997 955.959 415.323 938.171 407.55C920.67 399.906 903.347 391.715 885.657 384.538C881.523 382.86 878.637 389.77 882.613 391.755C912.34 406.587 943.327 419.294 973.778 432.548C1004.23 445.801 1033.88 458.548 1064.15 470.988C1094.96 483.645 1125.86 496.045 1156.88 508.177C1171.96 514.084 1187.12 519.782 1202.19 525.749C1209.64 528.697 1217.04 531.834 1224.18 535.517C1230.04 538.535 1239.15 542.099 1241.2 548.93C1242.44 553.06 1242.46 557.646 1243.01 561.895C1243.57 566.382 1244.33 570.85 1244.9 575.337C1246.12 584.769 1246.72 594.329 1247.34 603.81C1247.95 612.844 1248.37 621.888 1248.7 630.932C1249.04 640.115 1248.83 649.487 1250.41 658.551C1250.7 660.258 1253.51 660.229 1253.83 658.551L1253.85 658.561Z" fill="#CB8569"/>
</g>
<g opacity="0.35">
<path d="M829.634 411.968C843.476 416.723 855.752 425.539 867.879 433.511C880.63 441.89 893.758 447.886 908.096 453.029C923.426 458.519 938.151 464.555 952.41 472.497C966.668 480.439 980.094 489.155 993.788 497.683C1020.82 514.511 1047.93 531.258 1076.58 545.207C1090.55 552.007 1104.87 558.172 1119.53 563.315C1131.87 567.653 1145.17 570.383 1156.68 576.797C1162.4 579.983 1167.64 584.252 1170.43 590.328C1174.12 598.389 1173.44 608.525 1173.96 617.192C1175.14 636.988 1176.32 656.794 1177.49 676.589C1177.84 682.645 1187.25 682.715 1186.95 676.589C1186.06 658.412 1185.17 640.234 1184.27 622.067C1183.54 607.364 1184.89 590.675 1175.06 578.574C1167.15 568.845 1154.92 563.95 1143.36 560.108C1128.31 555.105 1113.35 550.339 1098.8 543.966C1068.86 530.841 1040.61 514.163 1012.68 497.246C984.745 480.33 956.911 461.11 925.766 450.209C908.196 444.054 891.161 438.902 875.325 428.785C861.205 419.761 847.928 409.744 830.982 407.054C827.76 406.547 826.441 410.915 829.614 412.008L829.634 411.968Z" fill="#CB8569"/>
</g>
<g opacity="0.35">
<path d="M1112.03 687.788C1110.19 671.318 1108.08 654.868 1105.68 638.467C1104.4 629.731 1103.03 621.014 1101.53 612.308C1100.45 606.024 1098.95 600.226 1094.08 595.768C1089.22 591.311 1083.66 589.087 1077.79 586.764C1070.04 583.686 1062.31 580.529 1054.66 577.223C1039.54 570.711 1024.59 563.801 1010.01 556.137C981.473 541.136 955.523 522.046 925.439 510.023C910.546 504.067 895.335 498.924 880.68 492.382C866.024 485.839 851.805 477.947 837.795 469.836C822.366 460.911 806.362 454.438 789.515 448.73C780.175 445.563 770.834 442.396 761.493 439.229C752.153 436.062 742.911 432.101 733.264 430.493C729.089 429.798 725.857 435.536 730.17 437.829C737.19 441.572 744.875 443.736 752.401 446.298C760.492 449.048 768.583 451.798 776.684 454.557C791.875 459.72 807.324 464.465 821.592 471.921C835.861 479.377 848.593 487.616 862.653 494.496C876.714 501.376 890.645 506.906 905.023 512.217C919.4 517.529 934.046 522.969 947.72 530.305C961.393 537.642 974.72 546.547 988.384 554.4C1015.68 570.076 1044.56 582.723 1073.9 594.021C1081.22 596.84 1090.72 598.727 1093.5 607.106C1096.28 615.485 1096.9 624.092 1098.39 632.382C1101.72 650.996 1104.67 669.68 1107.28 688.413C1107.66 691.104 1112.37 690.498 1112.06 687.768L1112.03 687.788Z" fill="#CB8569"/>
</g>
<g opacity="0.35">
<path d="M629.447 457.397C644.776 459.382 659.858 466.907 673.274 474.244C686.957 481.719 700.482 489.562 714.92 495.539C722.971 498.874 731.29 501.475 739.332 504.841C747.374 508.206 754.592 512.604 761.781 517.3C775.792 526.444 790.001 534.942 805.033 542.318C834.235 556.653 864.805 567.951 894.145 581.979C908.91 589.037 923.159 596.91 936.912 605.785C944.279 610.541 951.656 615.336 959.698 618.89C967.184 622.196 974.978 624.578 982.831 626.832C987.382 628.132 991.934 629.413 996.425 630.882C999.678 631.945 1004.23 632.699 1005.45 636.323C1006.85 640.473 1006.3 645.863 1006.56 650.172C1006.87 655.364 1007.17 660.556 1007.49 665.758C1008.73 686.527 1009.85 707.305 1011.02 728.084C1011.45 735.599 1023.22 735.609 1022.73 728.084C1021.47 708.934 1020.18 689.783 1018.96 670.623C1018.37 661.211 1017.8 651.79 1017.2 642.379C1016.72 634.943 1015.74 627.845 1008.67 623.834C1001.6 619.823 993.332 618.225 985.816 616.011C977.487 613.559 969.147 611.047 961.374 607.106C945.766 599.193 931.666 588.571 916.148 580.41C886.054 564.576 854.046 552.881 823.139 538.793C807.601 531.705 792.292 524.011 777.795 514.947C770.378 510.311 763.209 505.278 755.554 501.039C747.899 496.8 739.163 493.464 730.656 490.436C722.148 487.408 712.946 484.052 704.399 479.972C695.852 475.892 688.147 471.702 679.897 467.821C671.648 463.939 663.874 460.524 655.525 457.784C647.176 455.044 638.45 453.932 629.447 453.455C626.849 453.316 627.007 457.089 629.447 457.407V457.397Z" fill="#CB8569"/>
</g>
<g opacity="0.35">
<path d="M930.04 741.735C932.053 723.845 931.617 705.737 930.566 687.778C930.08 679.498 930.576 670.126 928.305 662.105C926.47 655.632 921.483 651.631 915.682 648.722C900.898 641.316 884.944 636.482 869.495 630.724C854.046 624.966 839.451 616.467 824.726 608.019C810.269 599.72 794.632 595.431 779.054 589.842C763.477 584.252 749.664 574.89 734.979 567.197C720.294 559.503 705.034 554.092 690.101 547.45C674.86 540.67 661.276 531.824 647.533 522.443C631.757 511.671 614.96 502.945 597.578 495.082C588.713 491.071 579.809 487.17 570.914 483.228C562.02 479.287 552.838 474.611 543.349 471.693C538.748 470.283 536.021 476.984 540.106 479.396C547.503 483.755 555.624 486.862 563.478 490.317C571.331 493.772 579.105 497.167 586.908 500.612C601.822 507.204 616.715 514.024 630.597 522.631C644.201 531.07 656.645 541.295 670.775 548.9C684.905 556.504 700.056 561.994 714.731 568.438C729.228 574.801 742.485 583.16 756.427 590.576C770.368 597.992 786.144 602.221 801.236 607.86C816.327 613.499 829.574 623.506 844.111 630.793C858.647 638.08 873.213 642.835 888.047 648.047C896.376 650.976 904.993 653.825 912.787 657.995C916.783 660.129 919.202 662.472 920.204 666.979C921.275 671.804 921.572 676.977 922.058 681.901C924.031 701.806 924.309 721.8 925.687 741.725C925.885 744.564 929.723 744.475 930.03 741.725L930.04 741.735Z" fill="#CB8569"/>
</g>
<g opacity="0.35">
<path d="M417.241 504.573C434.247 511.512 450.905 519.137 468.039 525.768C485.174 532.4 501.693 538.188 518.56 544.293C534.385 550.032 550.399 555.492 565.719 562.501C581.038 569.51 594.186 578.137 607.245 588.283C620.304 598.429 634.305 606.629 649.883 613.102C665.46 619.575 681.851 626.068 697.597 633.176C713.353 640.284 729.069 647.511 745.212 653.706C761.335 659.891 777.924 664.756 793.918 671.278C801.116 674.217 811.22 677.255 816.466 683.36C819.282 686.636 819.629 690.905 819.877 695.045C820.184 700.237 820.442 705.429 820.69 710.621C821.672 731.241 822.723 751.851 823.546 772.471C823.813 779.063 834.076 779.092 833.808 772.471C833.045 753.489 832.46 734.507 831.855 715.526C831.577 706.779 831.905 697.805 830.834 689.118C829.862 681.295 826.173 675.319 819.837 670.702C806.332 660.854 788.563 655.791 772.966 650.37C756.02 644.483 739.362 638.159 722.981 630.843C706.6 623.526 689.853 615.534 672.927 608.704C657.339 602.4 641.345 596.95 627.206 587.638C613.066 578.325 599.868 566.452 584.39 558.242C569.685 550.449 554.058 544.552 538.421 538.942C518.738 531.884 499.085 524.667 479.284 517.936C459.482 511.205 438.867 505.655 418.669 499.361C415.268 498.309 414.108 503.292 417.231 504.563L417.241 504.573Z" fill="#CB8569"/>
</g>
<g opacity="0.35">
<path d="M741.603 778.705C740.373 761.927 739.044 745.179 737.408 728.441C736.714 721.333 736.853 713.411 734.394 706.63C731.935 699.85 726.531 696.822 720.393 693.923C689.863 679.538 659.352 665.103 628.772 650.827C614.157 644.007 599.372 637.891 584.142 632.58C568.911 627.269 553.75 621.253 539.145 613.866C510.359 599.312 481.653 585.195 451.758 573.034C434.693 566.085 417.45 559.592 400.137 553.318C391.619 550.23 383.092 547.192 374.525 544.244C365.957 541.295 357.37 537.404 348.248 536.868C343.766 536.6 342.943 542.536 346.126 544.72C352.452 549.069 359.939 550.955 367.137 553.457C374.336 555.958 381.882 558.589 389.259 561.151C404.291 566.382 419.274 571.753 434.148 577.402C463.468 588.541 492.144 601.04 520.037 615.405C533.602 622.394 547.156 629.413 561.375 634.982C576.328 640.84 591.757 645.347 606.551 651.621C636.199 664.2 665.133 678.674 694.305 692.315C702.674 696.226 711.211 699.889 719.441 704.099C727.671 708.308 727.294 716.677 728.415 724.758C730.943 743.005 733.73 761.183 736.694 779.37C737.151 782.14 741.811 781.515 741.603 778.705Z" fill="#CB8569"/>
</g>
<g opacity="0.35">
<path d="M334.723 583.418C352.165 601.04 374.931 611.107 397.737 619.972C421.723 629.294 445.719 637.772 467.91 651.046C480.136 658.352 492.105 666.007 505.124 671.854C518.48 677.85 532.313 682.705 545.976 687.937C574.058 698.708 601.931 710.036 629.556 721.949C637.151 725.225 644.915 728.303 652.352 731.936C659.213 735.292 662.109 743.611 665.44 750.143C673.016 764.965 678.985 780.542 685.292 795.93C687.215 800.606 694.166 798.978 693.026 793.795C689.902 779.549 684.707 766.206 678.727 752.923C675.733 746.262 672.55 739.64 669.03 733.227C665.54 726.873 661.405 723.488 654.771 720.559C626.67 708.1 598.262 696.296 569.665 685.028C541.068 673.76 513.463 665.222 487.841 649.934C475.704 642.696 463.795 635.191 450.955 629.225C439.413 623.864 427.524 619.317 415.625 614.829C388.962 604.783 362.437 594.508 339.324 577.412C335.774 574.781 331.729 580.41 334.703 583.408L334.723 583.418Z" fill="#CB8569"/>
</g>
<g opacity="0.35">
<path d="M1304.48 571.088C1286.72 584.093 1263.07 584.193 1242.44 589.226C1230.43 592.165 1218.67 596.046 1207.05 600.295C1195.44 604.544 1183.92 610.173 1171.99 613.995C1149.21 621.292 1124.83 620.2 1101.61 625.353C1078.39 630.505 1056.27 640.641 1033.76 648.703C1010.47 657.042 986.629 660.735 962.345 664.855C938.062 668.975 917.368 675.716 895.871 685.673C876.01 694.866 856.585 705.419 835.484 711.555C824.161 714.851 812.956 716.111 801.206 716.449C788.871 716.796 777.269 718.127 765.817 722.932C753.759 727.995 742.604 735.073 729.972 738.736C717.339 742.4 704.359 743.402 691.459 745.209C678.559 747.016 666.829 750.183 655.267 755.832C643.705 761.481 632.798 768.271 619.848 768.897C614.048 769.175 613.968 778.05 619.848 777.981C631.152 777.851 641.256 773.414 651.241 768.509C661.226 763.605 671.598 758.87 682.991 756.666C694.384 754.462 706.273 753.777 717.904 752.327C729.535 750.878 741.295 747.88 752.47 742.906C763.645 737.932 773.61 732.472 785.351 731.023C797.091 729.573 809.674 730.626 821.771 728.938C844.2 725.831 864.904 716.449 885.162 706.779C905.905 696.881 926.391 687.192 948.959 682.218C973.312 676.857 998.329 675.011 1022.31 667.903C1046.28 660.794 1068.13 650.212 1091.67 643.183C1115.21 636.154 1139.18 635.946 1162.78 630.734C1176.2 627.775 1188.43 621.918 1201.04 616.606C1213.64 611.295 1227.33 605.577 1240.95 601.298C1263.32 594.269 1291.17 593.971 1308.06 575.734C1310.23 573.391 1307.3 569.003 1304.47 571.078L1304.48 571.088Z" fill="#CB8569"/>
</g>
<g opacity="0.35">
<path d="M1265.74 503.004C1239.69 503.55 1213.89 512.565 1189.29 520.487C1176.61 524.567 1163.89 528.558 1150.96 531.725C1138.03 534.892 1125.4 536.729 1112.52 538.784C1099.64 540.839 1086.02 543.618 1073.31 548.284C1061.34 552.682 1049.81 558.192 1038.39 563.821C1026.97 569.45 1015.51 575.327 1003.67 580.182C991.517 585.166 978.924 588.978 966.183 592.145C939.906 598.667 913.094 602.718 886.798 609.151C860.501 615.584 836.03 623.248 810.943 631.26C760.224 647.462 709.327 664.438 656.179 670.385C630.131 673.303 599.848 674.822 578.242 691.55C568.842 698.827 564.886 708.824 563.22 720.291C561.633 731.231 561.663 743.81 554.563 752.963C551.737 756.606 556.229 761.54 559.769 758.175C574.861 743.839 566.432 720.728 577.35 704.506C584.221 694.3 598.163 689.247 609.397 685.852C621.256 682.268 633.512 680.491 645.788 679.002C671.291 675.914 696.486 671.923 721.484 665.937C746.481 659.951 772.232 652.068 797.349 644.255C822.465 636.442 847.68 628.599 873.193 622.007C898.706 615.415 924.894 611.146 950.803 605.756C976.713 600.365 1000.79 592.979 1024.42 581.8C1048.05 570.622 1069.86 558.331 1094.82 552.295C1109.48 548.751 1124.51 547.113 1139.3 544.214C1154.09 541.315 1167.56 537.344 1181.4 532.916C1195.54 528.389 1209.51 523.336 1223.66 518.839C1237.81 514.342 1251.99 510.629 1266.26 506.876C1268.39 506.31 1267.99 502.945 1265.73 502.994L1265.74 503.004Z" fill="#CB8569"/>
</g>
<g opacity="0.35">
<path d="M1163.17 462.609C1138.17 462.301 1114.67 469.856 1091.34 478.126C1079.8 482.216 1068.2 486.197 1056.29 489.076C1042.91 492.302 1029.23 493.99 1015.61 495.827C990.407 499.212 966.411 504.424 942.742 513.915C919.43 523.257 897.1 534.803 874.086 544.82C825.529 565.956 773.412 572.091 721.87 581.969C695.961 586.933 670.706 593.535 645.51 601.308C620.165 609.121 594.742 617.182 568.435 621.054C555.634 622.94 542.248 623.328 529.953 627.706C518.52 631.786 509.596 639.341 502.913 649.398C487.861 672.023 486.978 700.932 477.608 725.86C475.664 731.023 483.934 733.256 485.848 728.134C494.445 705.27 492.531 679.24 505.025 657.727C510.974 647.482 519.551 640.353 530.736 636.492C541.921 632.63 553.036 631.826 564.34 630.416C615.693 624.003 663.656 602.618 714.424 593.217C765.192 583.815 815.851 580.212 863.922 561.389C886.778 552.434 908.642 541.246 931.061 531.308C954.036 521.112 977.486 513.19 1002.37 509.308C1016.51 507.105 1030.76 505.665 1044.83 503.074C1058.9 500.483 1072.52 496.383 1085.98 491.588C1111.52 482.494 1136.72 470.72 1163.72 466.639C1166.04 466.292 1165.41 462.658 1163.18 462.629L1163.17 462.609Z" fill="#CB8569"/>
</g>
<g opacity="0.35">
<path d="M1061.8 413.616C1038.66 422.521 1015.47 431.754 991.755 439.011C968.037 446.268 942.385 450.378 917.298 454.468C892.43 458.529 868.166 464.138 844.2 471.961C820.234 479.784 797.586 488.728 774.235 496.998C750.884 505.268 726.402 513.16 701.652 518.114C676.903 523.068 651.191 524.855 626.303 530.494C578.797 541.256 534.395 561.369 488.069 575.873C475.704 579.745 463.21 583.041 450.657 586.248C440.404 588.859 429.537 591.936 422.735 600.633C414.852 610.7 414.921 625.541 413.176 637.673C411.044 652.555 408.912 667.426 406.77 682.308C405.66 690.022 416.319 691.55 417.36 683.747C419.095 670.792 420.821 657.836 422.556 644.89C423.339 639.063 424.113 633.235 424.896 627.408C425.729 621.163 425.977 613.946 428.872 608.228C433.305 599.501 444.202 596.622 453.007 594.786C464.519 592.383 475.962 589.931 487.305 586.784C532.848 574.136 576.755 555.909 622.694 544.691C646.729 538.823 671.281 536.381 695.574 531.924C719.867 527.466 743.487 520.13 766.709 511.84C813.025 495.31 858.27 475.991 906.897 467.146C934.472 462.132 962.177 458.558 989.058 450.298C1015.07 442.297 1039.79 431.347 1064.48 420.009C1068.03 418.381 1065.49 412.206 1061.79 413.636L1061.8 413.616Z" fill="#CB8569"/>
</g>
<g opacity="0.35">
<path d="M997.278 383.148C951.954 398.814 906.411 413.993 860.878 429.043C837.923 436.638 815.326 445.424 792.192 452.453C769.178 459.452 746.094 466.232 722.971 472.864C629.813 499.55 535.952 523.694 442.506 549.327C429.338 552.94 416.071 556.336 403.022 560.386C393.444 563.355 385.065 567.663 382.695 578.246C379.869 590.884 379.135 604.306 377.608 617.153C375.962 630.992 374.505 644.861 372.502 658.65C371.55 665.232 380.821 666.572 381.545 659.871C384.113 636.194 387.851 612.645 390.707 588.998C391.242 584.53 391.173 578.504 394.326 574.91C397.261 571.555 402.031 570.304 406.166 569.222C417.886 566.144 429.576 562.977 441.267 559.751C487.058 547.133 532.878 534.654 578.49 521.43C624.102 508.206 669.873 495.618 715.425 482.216C760.165 469.052 804.775 455.491 849.475 442.178C900.174 427.078 949.633 407.987 998.756 388.479C1001.99 387.198 1000.71 381.966 997.288 383.148H997.278Z" fill="#CB8569"/>
</g>
</g>
<path d="M1241.41 550.508C1231.38 542.506 1218.99 537.513 1206.22 536.322" stroke="#A58276" stroke-width="2.12" stroke-miterlimit="10"/>
<path d="M1154.22 552.186C1161.03 551.799 1166.44 554.866 1172.56 557.209C1185.06 561.985 1201.07 563.484 1206.32 578.077" stroke="#A58276" stroke-width="2.12" stroke-miterlimit="10"/>
<path d="M1182.11 572.071C1177.51 571.823 1173.6 569.619 1168.95 569.381C1163.82 569.113 1158.66 570.334 1153.91 572.18C1146.02 575.248 1138.84 579.964 1130.86 582.773C1118.74 587.042 1105.35 586.724 1093.3 591.182C1085.11 594.21 1077.69 599.402 1069.14 601.149" stroke="#A58276" stroke-width="2.12" stroke-miterlimit="10"/>
<path d="M697.161 712.716C690.13 722.286 684.449 732.839 680.334 743.968" stroke="#A58276" stroke-width="2.12" stroke-miterlimit="10"/>
<path d="M684.082 709.936C675.673 716.866 665.748 721.929 655.207 724.669" stroke="#A58276" stroke-width="2.12" stroke-miterlimit="10"/>
<path d="M681.325 700.038C641.018 695.343 601.345 685.405 563.537 670.672C526.324 656.168 493.394 634 455.972 620.429C432.333 611.861 409.963 599.819 389.795 584.798" stroke="#A58276" stroke-width="2.12" stroke-miterlimit="10"/>
<path d="M796.892 666.414C768.613 673.015 739.511 676.033 710.487 675.398C705.986 675.299 701.375 675.09 697.19 673.412" stroke="#A58276" stroke-width="2.12" stroke-miterlimit="10"/>
<path d="M736.308 688.264C723.626 688.85 710.844 687.142 698.767 683.251" stroke="#A58276" stroke-width="2.12" stroke-miterlimit="10"/>
<path d="M975.196 657.806C943.971 662.671 915.097 676.818 885.271 687.262C830.487 706.432 771.974 713.113 713.938 713.173" stroke="#A58276" stroke-width="2.12" stroke-miterlimit="10"/>
<path d="M802.802 353.583C803.407 352.084 804.636 350.982 805.866 349.999C810.179 346.564 815.008 343.894 820.105 342.107C822.048 341.432 824.111 340.826 825.628 339.357C827.036 337.997 827.799 336.051 828.553 334.195C834.879 318.638 843.833 304.292 854.83 292.042C860.799 285.39 867.7 278.749 869.505 269.754C870.477 264.87 869.812 259.797 870.447 254.853C871.081 249.909 873.62 244.607 878.151 243.396C880.501 242.771 882.97 243.357 885.281 244.111C892.043 246.315 898.399 249.929 903.872 254.694C906.381 256.878 908.771 259.34 911.755 260.68C914.284 261.822 917.08 262.07 919.827 262.358C965.439 267.034 1009.97 282.412 1049.46 306.963C1060.82 308.224 1072.02 310.815 1082.81 314.717C1085.54 315.699 1088.61 317.208 1089.24 320.207C1090.01 323.91 1086.59 327.007 1083.47 328.873C1078.73 331.723 1073.71 334.036 1068.51 335.783C1066.32 336.518 1064.06 337.173 1062.18 338.583C1059.3 340.727 1057.72 344.301 1056.18 347.656C1049.01 363.253 1039.95 377.856 1029.3 391.01C1021.27 400.918 1011.75 411.6 1012.23 424.635C1012.36 427.961 1012.6 432.359 1009.66 433.531C1008.38 434.037 1006.97 433.63 1005.67 433.193C997.903 430.562 990.416 426.998 983.406 422.58C980.045 420.466 976.782 418.153 973.223 416.445C968.186 414.023 962.712 412.881 957.338 411.511C908.87 399.111 865.182 366.698 815.355 363.759C812.242 363.571 808.989 363.471 806.263 361.883C803.536 360.294 801.563 356.661 802.792 353.583H802.802Z" fill="#C5D3FF"/>
<path d="M985.905 313.406C986.341 316.603 989.058 319.075 992.023 320.326C994.987 321.586 998.25 321.894 1001.4 322.569C1006.09 323.562 1010.61 325.379 1014.7 327.9C1017.3 329.499 1019.78 331.455 1021.36 334.056C1022.93 336.617 1023.59 339.734 1025.58 341.988C1028.06 344.797 1032.35 345.989 1033.82 349.443C1035.08 352.392 1033.58 355.996 1031.04 357.951C1028.5 359.907 1025.17 360.523 1021.97 360.662C1018.77 360.791 1015.53 360.513 1012.35 360.93C1003.91 362.052 995.9 368.088 987.66 365.993C983.793 365.01 981.036 362.022 977.913 359.748C974.145 357.008 969.94 356.125 965.34 355.827C960.501 355.519 955.622 355.886 950.813 355.241C939.628 353.752 929.207 342.564 931.21 330.7" fill="#3F241F"/>
<path d="M980.907 302.098C982.583 307.757 982.097 314.031 979.549 319.363C976.019 326.749 969.068 331.792 963.932 338.166C961.106 341.66 958.775 345.641 955.255 348.441C949.792 352.789 941.74 353.573 935.553 350.337C933.461 349.245 931.597 347.756 929.871 346.147C920.362 337.332 914.452 323.9 917.06 311.192C918.785 302.764 924.061 295.328 930.744 289.907C945.736 277.736 974.948 282.045 980.907 302.108V302.098Z" fill="#FF8983"/>
<path d="M974.759 310.596C973.361 313.426 976.108 320.206 978.468 321.894C980.253 323.165 982.087 322.678 983.951 323.711C987.015 325.409 989.96 327.871 993.679 327.483C996.901 327.146 1000.74 324.604 1000.5 320.961C1000.14 315.531 994.462 312.513 991.229 308.958C985.885 303.081 985.419 294.226 981.244 287.465C976.743 280.178 968.314 276.088 959.886 274.658C954.76 273.785 949.484 273.765 944.348 274.579C941.344 275.056 938.389 275.82 935.384 276.366C931.259 277.111 927.035 277.428 923.039 278.709C914.799 281.36 907.482 290.91 903.942 298.524C902.782 301.026 901.869 303.667 900.273 305.911C897.774 309.425 893.858 311.609 890.536 314.349C887.402 316.94 884.725 320.097 882.702 323.632C877.874 332.03 879.668 343.675 888.156 349.106C890.238 350.436 892.569 351.32 894.77 352.442C900.233 355.251 904.864 359.669 907.928 365C910.08 368.753 911.458 372.893 913.272 376.814C915.087 380.745 917.457 384.577 921.026 387.01C924.596 389.442 929.604 390.157 933.233 387.814C933.778 387.456 934.304 387.029 934.621 386.454C935.057 385.679 935.077 384.746 935.107 383.863C935.265 379.326 936.088 374.809 937.536 370.5C938.458 367.76 939.648 365.01 939.579 362.111C939.46 357.594 936.336 353.792 933.371 350.377C931.478 348.202 929.435 346.128 927.928 343.656C927.313 342.643 926.401 341.283 926.232 340.101C926.024 338.652 926.758 337.163 927.214 335.823C927.69 334.433 927.958 332.973 928.017 331.514C928.057 330.551 927.987 329.568 927.67 328.665C927.293 327.613 926.579 326.719 925.885 325.835C924.497 324.058 923.129 322.162 922.643 319.958C921.889 316.523 923.535 312.989 926.034 310.676C928.632 308.273 932.182 307.946 935.037 306.03C939.291 303.181 942.831 299.071 944.318 294.176C948.909 297.164 950.347 303.548 954.918 306.566C956.118 307.36 957.972 307.757 958.805 306.586C959.222 306 959.212 305.216 959.479 304.551C959.747 303.885 960.63 303.339 961.155 303.826C959.945 309.435 964.219 315.62 969.891 316.454C970.486 316.543 971.15 316.563 971.656 316.235C972.092 315.957 972.34 315.471 972.568 315.004C973.302 313.525 974.026 312.046 974.759 310.577V310.596Z" fill="#3F241F"/>
<path d="M957.546 328.466C957.625 329.816 957.714 331.167 957.794 332.517C957.814 332.854 957.824 333.212 957.635 333.49C957.486 333.698 957.229 333.817 956.991 333.907C955.771 334.383 954.482 334.671 953.173 334.76" stroke="#231F20" stroke-width="2.12" stroke-miterlimit="10"/>
<path d="M954.869 318.529C952.112 318.479 949.326 318.102 946.807 316.98C944.288 315.858 942.067 313.902 941.036 311.341" stroke="#231F20" stroke-width="2.12" stroke-miterlimit="10"/>
<path d="M964.239 325.518C965.558 328.705 969.345 330.65 972.707 329.866" stroke="#231F20" stroke-width="2.12" stroke-miterlimit="10"/>
<path d="M947.947 337.749C946.202 338.414 944.17 337.222 943.327 335.545C942.484 333.877 942.573 331.891 942.861 330.045" stroke="#231F20" stroke-width="2.12" stroke-miterlimit="10"/>
<path d="M934.075 312.88C933.451 306.486 926.52 302.714 922.365 306.496C919.192 309.375 917.982 314.419 919.46 318.916C921.006 323.641 926.758 327.335 929.95 322.847" fill="#FF8983"/>
<path d="M928.552 318.757L925.835 310.239" stroke="#231F20" stroke-width="2.12" stroke-miterlimit="10"/>
<path d="M933.937 313.128C933.937 311.917 932.608 308.512 932.072 307.33" stroke="#231F20" stroke-width="2.12" stroke-miterlimit="10"/>
<path d="M929.663 323.393C928.969 324.178 927.888 324.634 926.718 324.644C925.369 324.644 923.495 323.86 921.869 322.222" stroke="#231F20" stroke-width="2.12" stroke-miterlimit="10"/>
<path d="M786.114 436.926C775.752 457.168 765.4 477.421 755.038 497.663C749.823 507.859 744.28 518.452 735.019 525.193C725.638 532.023 713.66 533.998 702.128 535.239C677.894 537.84 653.482 538.039 629.149 539.528C617.111 540.263 602.03 539.965 598.133 542.894C593.453 546.418 586.313 556.892 581.99 560.843C578.619 563.92 572.6 568.944 567.612 567.097C562.228 565.112 561.663 551.928 561.851 547.143C562.109 540.581 566.67 535.031 568.445 528.707C570.676 520.755 568.683 511.155 574.157 504.97C578.748 499.768 586.254 499.361 592.64 498.368C612.044 495.35 635.059 489.403 653.978 484.062C663.636 481.342 689.486 480.846 689.486 480.846C689.486 480.846 697.656 459.005 701.315 451.639C712.242 429.649 721.563 415.78 739.312 398.685" fill="#FF8983"/>
<path d="M840.135 455.272C837.755 476.329 833.332 497.157 826.957 517.37C822.633 531.06 816.952 545.127 805.767 554.102C771.935 581.244 725.311 564.119 687.066 560.118C680.304 559.413 673.472 559.105 666.729 559.979C654.474 561.568 642.912 567.008 630.597 568.15C627.88 564.804 628.554 559.701 630.825 556.038C633.095 552.375 636.645 549.734 639.848 546.855C644.28 542.864 648.177 538.257 651.37 533.214C656.516 525.093 661.424 514.709 670.963 513.547C675.881 512.942 680.651 515.146 685.42 516.506C698.906 520.348 710.656 517.767 724.111 515.265C734.929 513.26 746.025 512.733 756.982 513.706C760.442 494.357 761.662 474.512 766.243 455.362C770.854 436.082 777.349 417.259 785.618 399.25" fill="#FF8983"/>
<path d="M916.436 394.992C910.645 403.192 899.886 405.813 890.119 408.096C874.8 411.68 849.475 415.115 845.172 433.431C841.88 447.459 849.128 459.76 849.049 473.549C849.019 479.565 847.234 485.7 848.801 491.508C850.348 497.236 855.077 502.448 853.907 508.266C853.035 512.594 848.999 515.642 844.805 517.012C840.61 518.382 836.119 518.482 831.785 519.296C823.665 520.815 815.504 524.845 807.532 522.691C798.221 520.179 792.986 510.252 784.607 505.476C777.368 501.346 768.573 501.456 760.234 501.307C748.841 501.118 736.149 499.619 728.762 490.932C723.001 484.152 721.662 474.184 715.118 468.158C708.226 461.815 697.825 461.765 688.474 462.073C694.523 440.133 706.283 422.451 721.494 405.892C730.834 395.716 742.376 387.754 755.108 382.433C769.059 376.605 783.347 374.908 797.834 370.51C813.005 365.903 826.867 357.554 839.054 347.398C857.854 331.742 887.214 317.685 910.903 330.531C914.413 332.437 917.705 334.82 920.263 337.888C924.507 342.971 926.5 349.662 926.797 356.274C927.154 364.385 924.943 371.562 922.643 379.127C921.096 384.23 919.847 390.713 916.445 394.972L916.436 394.992Z" fill="#322E68"/>
<path d="M775.197 435.635C774.79 444.352 774.622 453.187 776.635 461.676C778.657 470.164 783.1 478.364 790.289 483.288" stroke="#231F20" stroke-width="2.12" stroke-miterlimit="10"/>
<path d="M822.098 474.701C811.151 470.491 801.811 462.241 796.287 451.887" stroke="#231F20" stroke-width="2.12" stroke-miterlimit="10"/>
<path d="M745.123 514.213C741.156 520.149 737.012 526.265 730.943 530.008C723.982 534.296 715.435 534.892 707.275 535.378C687.562 536.54 667.86 537.702 648.147 538.853" stroke="#231F20" stroke-width="2.12" stroke-miterlimit="10"/>
<path d="M637.934 560.396C635.693 562.709 632.312 563.871 629.119 563.404" stroke="#231F20" stroke-width="2.12" stroke-miterlimit="10"/>
<path d="M638.291 564.586C636.14 566.005 633.631 566.879 631.053 567.097" stroke="#231F20" stroke-width="2.12" stroke-miterlimit="10"/>
<path d="M567.642 550.697C567.077 553.119 565.371 555.244 563.13 556.306" stroke="#231F20" stroke-width="2.12" stroke-miterlimit="10"/>
<path d="M572.57 554.132C571.004 557.289 568.049 559.721 564.648 560.654" stroke="#231F20" stroke-width="2.12" stroke-miterlimit="10"/>
<path d="M575.575 559.006C573.552 562.114 570.062 564.228 566.373 564.566" stroke="#231F20" stroke-width="2.12" stroke-miterlimit="10"/>
<path d="M577.786 562.789C576.17 564.695 574.077 566.184 571.747 567.107" stroke="#231F20" stroke-width="2.12" stroke-miterlimit="10"/>
<path d="M757.884 513.806C756.893 518.938 756.546 524.19 756.833 529.412" stroke="#231F20" stroke-width="2.12" stroke-miterlimit="10"/>
<path d="M690.458 481.442C688.564 486.376 687.027 491.439 685.857 496.591" stroke="#231F20" stroke-width="2.12" stroke-miterlimit="10"/>
<path d="M1076.78 488.51C1091.64 496.025 1106.38 503.918 1121.18 511.711C1126.82 514.669 1132.53 517.697 1137.08 522.204C1141.16 526.255 1144.21 531.407 1148.78 534.872C1152.67 537.821 1157.4 539.33 1162.02 540.789C1164.92 541.712 1167.84 542.626 1170.74 543.549C1171.88 543.906 1173.12 544.264 1174.23 543.807C1175.15 543.43 1175.78 542.576 1176.27 541.702C1180.44 534.286 1177.26 524.915 1173.63 517.211C1185.1 513.696 1197.72 508.365 1207.43 501.128C1222.48 489.9 1232.1 469.449 1235.94 451.559C1237.3 445.216 1239.13 438.286 1243.95 433.62C1248.82 428.914 1255.73 426.8 1260.22 421.548C1265.29 415.631 1268.6 407.431 1266.61 399.826C1266.39 398.982 1266.08 398.129 1265.47 397.533C1264.75 396.838 1263.73 396.61 1262.77 396.421C1252.96 394.505 1242.91 393.899 1232.95 394.614C1231.43 394.723 1229.83 394.853 1228.41 394.247C1227.13 393.691 1226.17 392.599 1225.24 391.547C1217.55 382.761 1211.15 373.508 1201.78 366.469C1193.05 359.907 1183.8 353.961 1174.51 348.272C1161.02 340.002 1147.07 332.507 1132.77 325.836C1117.66 318.797 1103.15 316.146 1086.87 313.148C1084.88 312.781 1082.85 312.403 1081.1 311.381C1079.85 310.656 1078.78 309.624 1077.71 308.641C1070.71 302.188 1062.67 296.936 1054.03 293.154C1052.14 292.33 1049.74 291.645 1048.2 293.044C1047.43 293.749 1047.09 294.831 1046.82 295.854C1044.41 304.62 1043.25 313.763 1043.4 322.867C1043.42 324.158 1023.04 335.168 1020.74 336.835C1013.32 342.256 1006.31 348.272 999.807 354.814C993.302 361.357 987.303 368.425 981.879 375.93C976.505 383.376 974.165 391.11 964.735 393.046C957.496 394.525 950.684 398.119 945.3 403.301C943.684 404.86 942.087 406.815 942.206 409.089C942.365 412.186 945.498 414.082 948.235 415.403C953.015 417.716 957.843 420.049 962.99 421.32C972.32 423.623 977.873 429.947 985.102 435.903C993.381 442.734 1003.19 447.221 1012.26 452.77C1018.89 456.821 1025.17 461.467 1031.77 465.547C1039.36 470.243 1047.38 474.204 1055.69 477.361C1063.45 480.31 1069.4 484.747 1076.8 488.49L1076.78 488.51Z" fill="#AAC1F7"/>
<path d="M1217.84 402.259C1203.14 404.701 1190.02 414.132 1181.16 426.442C1172.31 438.753 1167.46 453.743 1165.43 468.903" stroke="#6373AD" stroke-width="2.12" stroke-miterlimit="10"/>
<path d="M1173.73 517.092C1173.81 516.407 1173.31 515.801 1172.83 515.325C1169.25 511.731 1164.73 509.13 1159.89 507.869" stroke="#6373AD" stroke-width="2.12" stroke-miterlimit="10"/>
<path d="M1175.88 436.3C1171.63 438.087 1167.32 439.894 1163.62 442.694C1159.84 445.563 1156.82 449.375 1154.01 453.257C1150.8 457.695 1147.8 462.291 1145.02 467.027" stroke="#6373AD" stroke-width="2.12" stroke-miterlimit="10"/>
<path d="M1090.84 363.928C1084.52 363.531 1078.14 363.144 1071.84 363.908C1065.55 364.672 1059.26 366.678 1054.22 370.639" stroke="#6373AD" stroke-width="2.12" stroke-miterlimit="10"/>
<path d="M1080.33 311.421C1084.42 315.451 1089.37 318.519 1094.75 320.355" stroke="#6373AD" stroke-width="2.12" stroke-miterlimit="10"/>
<path d="M1006.99 404.433C1004.42 406.845 1000.63 407.252 997.129 407.629C975.444 409.982 953.282 416.316 937.189 431.059C931.131 436.608 925.548 443.538 926.411 452.085C926.817 456.106 928.106 460.047 930.149 463.532C931.319 465.537 934.918 471.454 937.516 471.732C934.185 471.375 927.353 469.846 924.656 472.467C923.595 473.499 922.901 474.86 921.869 475.922C920.561 477.282 918.796 478.066 917.179 479.039C911.319 482.573 907.254 488.937 906.5 495.747C906.451 496.164 906.421 496.601 906.599 496.988C906.847 497.514 907.432 497.792 908.007 497.931C910.328 498.477 912.668 497.306 914.869 496.393C918.181 495.013 922.296 493.643 925.935 493.801C928.572 493.921 930.903 495.251 933.55 495.509C942.038 496.353 950.625 494.913 959.133 495.906C966.827 496.81 973.659 498.507 981.522 496.998C988.899 495.579 996.019 491.895 1000.62 485.949C1005.23 480.002 1007.01 471.693 1004.29 464.674C1003.35 462.251 1001.88 459.65 1002.8 457.218C1003.18 456.215 1003.92 455.401 1004.65 454.617C1011.31 447.4 1017.97 440.182 1024.63 432.965" fill="#322E68"/>
<path d="M989.613 417.914C999.41 412.146 1012.16 409.545 1021.01 418.292C1024.97 422.223 1027.77 425.728 1030.96 430.532C1037.8 425.311 1040.8 425.311 1045.87 423.275C1049.21 421.935 1055.56 419.662 1058.9 422.521C1059.71 423.216 1060.08 424.268 1060.96 424.943C1061.59 425.43 1062.48 425.618 1062.98 426.274C1063.47 426.909 1063.69 427.862 1063.59 428.646C1064.48 429.282 1065.37 429.996 1065.77 431.009C1066.16 432.022 1065.84 433.382 1064.84 433.789C1065.15 435.189 1065.26 436.628 1065.16 438.058C1065.1 438.842 1064.92 439.716 1064.26 440.123C1063.75 440.43 1063.1 440.381 1062.56 440.123C1062.03 439.874 1061.59 439.457 1061.16 439.05C1060.19 439.606 1059.22 440.162 1058.24 440.718C1057.54 441.125 1056.82 441.522 1056.07 441.81C1054.69 442.327 1053.16 442.436 1051.72 442.168C1051.3 442.088 1050.87 441.989 1050.46 442.078C1050.11 442.148 1049.8 442.346 1049.51 442.555C1045.44 445.503 1041.61 448.879 1037.36 451.619C1032.54 454.726 1025.87 457.019 1020.38 454.359C1015.38 451.937 1011.39 447.956 1007.63 443.955C1003.74 439.815 1002.13 438.187 999.013 434.097" fill="#F48F8C"/>
<path d="M1030.74 430.294C1032.66 433.143 1034.43 436.082 1036.04 439.11" stroke="#231F20" stroke-width="1.41" stroke-miterlimit="10"/>
<path d="M1063.7 428.795C1062.87 427.991 1059.45 427.862 1057.93 428.825" stroke="#231F20" stroke-width="1.41" stroke-miterlimit="10"/>
<path d="M1061.28 425.519C1060.08 424.933 1057.01 425.221 1054.88 426.234" stroke="#231F20" stroke-width="1.41" stroke-miterlimit="10"/>
<path d="M1059.38 423.017C1057.77 422.839 1054.78 422.521 1053.42 423.395" stroke="#231F20" stroke-width="1.41" stroke-miterlimit="10"/>
<path d="M1065.28 433.58C1064.43 432.588 1062.96 432.399 1061.66 432.588C1060.37 432.766 1059.12 433.253 1057.81 433.312" stroke="#231F20" stroke-width="1.41" stroke-miterlimit="10"/>
<path d="M1061.07 439.904C1061.17 438.911 1060.81 437.889 1060.05 437.085" stroke="#231F20" stroke-width="1.41" stroke-miterlimit="10"/>
<path d="M1051.14 442.207C1049.69 441.999 1048.19 442.188 1046.83 442.763" stroke="#231F20" stroke-width="1.41" stroke-miterlimit="10"/>
<path d="M1027.89 421.171C1028.26 421.508 1028.65 421.866 1028.8 422.342C1029.23 423.712 1027.55 424.755 1026.16 425.102C1023.99 425.648 1021.75 425.906 1019.51 425.867C1018.96 430.046 1015.3 433.6 1011.13 434.007C1010.82 435.844 1010.46 437.75 1009.32 439.209C1008.18 440.669 1005.99 441.493 1004.42 440.53C1004.25 442.535 1002.92 444.401 1001.09 445.206C1000.92 445.285 1000.73 445.355 1000.54 445.315C1000.28 445.275 1000.09 445.047 999.926 444.848C996.624 440.768 992.41 437.532 988.751 433.769C985.092 430.006 981.859 425.44 981.314 420.208C981.225 419.334 981.215 418.421 981.483 417.587C981.75 416.743 982.276 416.018 982.841 415.343C985.211 412.504 987.948 411.223 991.497 410.409C997.893 408.94 1004.64 409.099 1010.97 410.806C1017.74 412.633 1022.72 416.574 1027.9 421.171H1027.89Z" fill="#322E68"/>
<path d="M1003.66 441.403C1004.13 442.237 1003.63 443.389 1002.78 443.836C1001.93 444.282 1000.87 444.133 1000.01 443.707C999.152 443.28 998.448 442.605 997.744 441.949C993.322 437.859 988.344 434.365 982.98 431.615" stroke="#231F20" stroke-width="1.41" stroke-miterlimit="10"/>
<path d="M1001.21 458.548C992.033 451.202 979.846 449.127 968.245 447.32" stroke="#231F20" stroke-width="1.41" stroke-miterlimit="10"/>
<path d="M977.001 443.359C971.428 442.088 965.597 441.969 959.995 443.031" stroke="#231F20" stroke-width="1.41" stroke-miterlimit="10"/>
<path d="M963.852 481.442C955.622 479.744 947.561 477.272 939.797 474.055" stroke="#231F20" stroke-width="1.41" stroke-miterlimit="10"/>
<path d="M927.432 491.002C924.249 490.218 920.987 489.731 917.715 489.552" stroke="#231F20" stroke-width="1.41" stroke-miterlimit="10"/>
<path d="M923.793 485.413C921.85 485.333 919.906 485.254 917.963 485.164" stroke="#231F20" stroke-width="1.41" stroke-miterlimit="10"/>
<path d="M1009.71 373.915C1012.28 370.788 1015.18 367.83 1018.72 365.874C1028.4 360.503 1043.29 360.87 1051.46 368.862C1055.17 372.495 1057.64 377.717 1057.99 382.929C1058.36 388.499 1057.58 394.326 1056.73 399.806C1056.34 402.408 1055.81 404.84 1055.64 407.49C1055.48 410.092 1055.28 412.762 1054.08 415.125C1052.15 418.858 1048 421.022 1043.84 421.608C1025.09 424.248 1000.59 411.69 1002.2 390.127C1002.65 384.002 1005.91 378.551 1009.72 373.915H1009.71Z" fill="#F48F8C"/>
<path d="M1037.9 355.35C1038.45 355.519 1039 355.698 1039.55 355.887C1045.58 357.912 1051.57 360.553 1056.14 364.98C1057.85 366.638 1059.34 368.524 1061.11 370.123C1063.32 372.128 1065.93 373.667 1067.93 375.891C1070.13 378.353 1071.46 381.708 1071.05 384.994C1070.64 388.28 1068.31 391.358 1065.13 392.232C1062.16 393.046 1059.58 391.676 1057.68 389.502C1055.56 387.059 1053.05 384.816 1050.79 382.383C1050.34 384.478 1047.91 385.63 1045.79 385.421C1043.66 385.213 1041.78 383.992 1040 382.81C1037.31 381.023 1034.61 379.236 1031.91 377.449C1031.72 380.08 1029.4 382.393 1026.78 382.572C1024.72 382.711 1022.3 381.808 1020.83 383.257C1020.29 383.783 1020.03 384.508 1019.58 385.104C1018.58 386.434 1016.81 386.881 1015.38 387.734C1012 389.75 1010.59 394.068 1010.78 398.01C1010.97 401.951 1012.44 405.694 1013.56 409.476C1013.9 410.628 1014.21 411.829 1014.06 413.02C1013.9 414.192 1013.3 415.244 1012.72 416.266C1011.89 417.716 1010.89 419.294 1009.28 419.672C1006.8 420.257 1004.8 417.785 1003.15 415.85C1000.61 412.871 997.337 410.528 993.708 409.079C989.455 407.381 983.813 406.2 979.241 406.796C975.285 407.312 971.527 406.925 968.076 404.572C965.082 402.527 963.039 398.704 964.051 395.22C965.092 391.636 968.959 389.283 969.574 385.6C969.851 383.962 969.425 382.244 969.772 380.616C970.526 377.181 974.373 375.404 977.853 374.918C981.334 374.431 985.042 374.67 988.146 373.032C990.892 371.582 992.727 368.902 994.74 366.539C1003.21 356.641 1016.91 351.508 1029.79 353.415C1032.55 353.822 1035.25 354.526 1037.91 355.36L1037.9 355.35Z" fill="#6B2E26"/>
<path d="M1038.16 396.788C1036.53 397.642 1034.58 397.712 1032.79 397.344C1030.98 396.977 1029.3 396.193 1027.63 395.428" stroke="#231F20" stroke-width="2.12" stroke-miterlimit="10"/>
<path d="M1057.93 400.571C1055.62 401.087 1053.08 400.491 1051.24 399.012" stroke="#231F20" stroke-width="2.12" stroke-miterlimit="10"/>
<path d="M1045.46 401.722C1045.58 402.864 1045.91 403.976 1046.46 404.989C1046.77 405.555 1047.14 406.12 1047.16 406.756C1047.18 407.361 1046.85 407.957 1046.32 408.255C1045.8 408.553 1045.11 408.533 1044.6 408.205" stroke="#231F20" stroke-width="2.12" stroke-miterlimit="10"/>
<path d="M1037.49 411.144C1037.76 410.985 1038.75 410.449 1039.39 410.578C1040.35 410.767 1042.06 412.196 1040.68 413.129C1040.26 413.407 1038.62 413.02 1038.16 412.822C1037.52 412.534 1036.28 411.819 1037.49 411.144Z" fill="white"/>
<path d="M1016.21 391.179C1012.24 386.454 1004.7 387.228 1003.46 392.49C1002.5 396.501 1004.28 401.157 1007.9 403.916C1011.69 406.815 1018.26 406.627 1018.35 401.325" fill="#F48F8C"/>
<path d="M1015.01 398.843L1008.23 393.572" stroke="#231F20" stroke-width="2.12" stroke-miterlimit="10"/>
<path d="M1016.23 391.447C1015.56 390.484 1014.66 389.64 1013.59 388.995" stroke="#231F20" stroke-width="2.12" stroke-miterlimit="10"/>
<path d="M1018.41 401.911C1018.29 402.914 1017.67 403.867 1016.75 404.502C1014.68 405.952 1009.4 406.041 1005.22 401.583" stroke="#231F20" stroke-width="2.12" stroke-miterlimit="10"/>
<path d="M831.667 483.417C778.995 485.601 727.522 509.209 691.469 547.719" stroke="#231F20" stroke-width="2.12" stroke-miterlimit="10"/>
<path d="M1081.39 449.752C1092.2 458.618 1101.82 459.521 1114.86 459.223" stroke="#231F20" stroke-width="2.12" stroke-miterlimit="10"/>
<path d="M925.747 502.756C935.91 497.633 946.064 492.501 956.227 487.378C960.878 485.035 964.933 483.715 969.782 482.265C975.028 480.697 982.038 474.81 987.442 474.81C989.286 474.035 991.131 473.261 992.985 472.536C1021.61 461.338 1053.19 461.05 1083.24 454.538C1084.52 454.26 1085.83 453.972 1087.13 454.041C1089.08 454.15 1090.88 455.044 1092.64 455.888C1108.32 463.373 1125.64 467.414 1143.02 467.642C1149.39 490.426 1142.25 514.778 1130.08 534.326C1118.31 553.238 1096.63 562.173 1076.75 569.857C1052.16 579.358 1028.25 588.551 1001.91 592.174C996.832 584.113 991.755 576.052 986.678 567.991C984.051 563.821 981.433 559.652 978.458 555.72C974.68 550.717 970.377 546.13 966.074 541.563C952.648 527.287 938.578 512.565 920.313 505.486C922.118 504.573 923.932 503.66 925.737 502.746L925.747 502.756Z" fill="white"/>
<path d="M1148.8 427.048L1156.99 441.522C1156.99 441.522 1146.13 456.106 1143.34 466.798C1140.54 477.49 1109.15 468.416 1098.13 463.77C1085.92 458.618 1083.73 450.12 1083.73 450.12L1104.68 433.948" fill="#ED8080"/>
<path d="M1162.47 423.256C1165.43 417.309 1166.84 410.578 1165.61 404.135C1163.53 393.214 1153.24 382.929 1141.11 379.604C1128.6 376.169 1118.65 383.217 1109.91 390.117C1104.25 394.594 1099.62 399.36 1094.56 404.909C1089.5 410.449 1082.53 416.346 1081.78 423.762C1080.83 433.124 1089.28 440.688 1098.27 444.56C1107.11 448.372 1117.69 449.633 1127.39 448.045C1127.48 448.025 1127.58 448.015 1127.67 447.995C1142.89 445.394 1156.34 435.596 1162.47 423.246V423.256Z" fill="#ED8080"/>
<path d="M1171.92 441.324C1175.03 439.338 1177.86 437.085 1180.23 434.801C1185.73 429.51 1189.49 422.64 1189.57 415.502C1189.65 408.463 1187.11 401.266 1185.82 394.386C1185.15 390.792 1184.45 387.099 1182.55 383.972C1181.11 381.599 1179 379.633 1176.53 378.363C1174.44 377.281 1172.11 376.705 1170.06 375.563C1164.32 372.386 1161.64 365.576 1156.72 361.238C1154.45 359.232 1151.69 357.783 1148.75 357.038C1146.09 356.363 1143.01 356.373 1140.95 358.17C1139.77 359.202 1139.07 360.691 1138.02 361.853C1135.68 364.434 1131.86 365.099 1128.39 364.871C1124.92 364.653 1121.5 363.71 1118.02 363.729C1114.54 363.749 1110.76 365 1109.02 368.018C1108.3 369.249 1107.99 370.669 1107.28 371.9C1105.7 374.68 1102.47 375.99 1099.57 377.31C1096.65 378.631 1093.56 380.497 1092.77 383.605C1091.78 387.466 1095.16 391.378 1099.01 392.371C1102.87 393.363 1106.94 392.232 1110.7 390.931C1113.11 390.097 1115.72 389.194 1118.13 389.988C1119.76 390.524 1121.05 391.775 1122.57 392.539C1127.53 395.031 1133.37 392.013 1138.9 391.755C1143.56 391.537 1148.28 393.443 1151.5 396.838C1152.11 397.483 1152.71 398.327 1152.49 399.191C1152.39 399.618 1152.09 399.975 1151.79 400.293C1150.52 401.633 1148.89 402.556 1147.5 403.778C1146.11 404.999 1144.93 406.696 1145.07 408.533C1145.23 410.747 1147.2 412.405 1147.82 414.539C1148.98 418.59 1145.39 422.094 1144.73 425.886C1143.92 430.622 1143.03 435.655 1143.26 440.51C1143.39 443.23 1151.45 448.601 1151.45 448.601C1152.16 449.077 1156.58 447.727 1157.38 447.558C1162.4 446.496 1167.45 444.173 1171.94 441.304L1171.92 441.324Z" fill="#32343D"/>
<path d="M1144.61 421.2C1153.76 418.053 1161.52 425.32 1157.75 433.491C1154.88 439.715 1148.28 444.56 1141.47 445.334C1134.32 446.149 1127.07 440.47 1132.18 433.213" fill="#ED8080"/>
<path d="M1138.42 432.587L1151.29 431.009" stroke="#231F20" stroke-width="2.12" stroke-miterlimit="10"/>
<path d="M1144.31 421.558C1146 420.793 1147.86 420.396 1149.71 420.396" stroke="#231F20" stroke-width="2.12" stroke-miterlimit="10"/>
<path d="M1131.55 433.948C1130.7 435.407 1130.46 437.194 1130.86 438.832C1131.78 442.495 1137.66 446.973 1146.79 444.372" stroke="#231F20" stroke-width="2.12" stroke-miterlimit="10"/>
<path d="M1115.9 405.455C1113.84 406.805 1111.71 408.185 1109.31 408.721C1108.1 408.99 1106.84 409.029 1105.66 409.426C1104.48 409.814 1103.34 410.657 1103.07 411.869C1102.81 413.05 1103.46 414.271 1104.33 415.105" stroke="#231F20" stroke-width="2.12" stroke-miterlimit="10"/>
<path d="M1135.18 414.519C1130.58 414.777 1125.91 412.841 1122.86 409.397" stroke="#231F20" stroke-width="2.12" stroke-miterlimit="10"/>
<path d="M1109.87 402.249C1107.02 402.298 1104.17 401.305 1101.97 399.499C1101.36 399.002 1100.78 398.377 1100.72 397.593" stroke="#231F20" stroke-width="2.12" stroke-miterlimit="10"/>
<path d="M1110.73 421.25C1109.37 423.196 1106.71 423.951 1104.38 423.454C1102.06 422.958 1100.08 421.379 1098.63 419.503" stroke="#231F20" stroke-width="2.12" stroke-miterlimit="10"/>
<path d="M1123.18 447.916C1113.01 449.762 1102.14 447.102 1093.17 442.843" stroke="#231F20" stroke-width="2.12" stroke-miterlimit="10"/>
<path d="M1164.09 658.283C1142.7 671.635 1108.47 652.098 1087.34 646.36C1071.65 642.091 1055.25 640.443 1039.97 634.834C1021.17 627.934 1004.9 615.346 990.407 601.397C979.638 591.043 969.584 579.775 957.407 571.168C945.161 562.501 937.526 560.277 922.782 560.932C908.493 561.568 894.294 564.347 880.809 569.172C865.073 574.811 850.407 583.15 834.899 589.405C810.943 599.064 785.42 603.552 760.036 607.384C737.597 610.779 708.494 610.6 688.802 623.109C680.502 628.381 673.7 636.452 664.31 639.271C650.716 643.342 635.535 642.24 621.217 644.116C606.006 646.111 594.464 654.758 580.146 659.196C565.302 663.793 548.584 664.954 538.183 678.188C522.05 698.698 506.145 719.497 489.854 739.898C487.454 742.906 484.628 746.142 480.831 746.47C476.061 746.877 472.313 742.559 469.596 738.558C458.005 721.452 449.348 702.302 444.143 682.228C441.931 673.72 440.325 664.994 436.934 656.893C433.642 649.01 428.624 641.346 422.516 635.4C417.588 630.595 411.49 629.572 405.551 626.197C391.966 618.473 379.988 607.83 370.707 595.143C369.428 593.396 368.189 591.579 367.574 589.494C366.939 587.34 367.018 585.056 367.108 582.813C367.425 574.593 367.732 566.382 368.05 558.162C368.536 545.395 368.674 533.413 378.451 524.418C387.108 516.446 397.638 510.758 408.139 505.715C436.18 492.263 472.501 493.345 497.142 474.542C507.593 466.57 516.567 456.712 527.166 448.948C554.613 428.855 590.468 424.407 619.432 406.647C635.426 396.838 648.881 383.227 664.776 373.25C689.615 357.664 720.314 353.017 748.98 352.918C757.378 352.888 765.777 352.859 774.176 352.829C777.646 352.819 781.126 352.799 784.557 352.243C787.829 351.707 791.003 350.684 794.166 349.702C799.56 348.034 805.013 346.465 810.606 345.76C818.528 344.758 826.868 345.582 833.868 349.473C837.705 351.608 841.017 354.586 844.379 357.425C853.709 365.318 863.942 371.344 873.848 378.353C883.883 385.451 893.858 392.857 904.408 399.28C907.482 401.345 910.615 403.43 914.125 404.552C919.609 406.309 925.509 405.604 931.25 405.555C947.918 405.416 964.576 411.184 977.685 421.627C988.007 429.857 995.979 440.688 1005.46 449.881C1008.26 452.612 1011.29 455.242 1014.91 456.692C1018.87 458.29 1023.26 458.36 1027.39 459.442C1037.62 462.122 1045.33 470.739 1050.66 479.992C1055.99 489.245 1059.56 499.47 1065.14 508.564C1081.19 534.693 1113.62 545.505 1135.96 565.211C1161.34 587.687 1173.37 652.495 1164.08 658.293L1164.09 658.283Z" fill="#7DA2EA"/>
<path d="M705.757 437.244L715.98 441.761L705.757 447.519V437.244Z" fill="white"/>
<path d="M890.248 523.783L900.471 528.3L890.248 534.058V523.783Z" fill="white"/>
<path d="M466.512 674.078L476.735 678.595L466.512 684.343V674.078Z" fill="white"/>
<path d="M1032.86 569.599L1043.08 574.116L1032.86 579.864V569.599Z" fill="white"/>
<path d="M985.935 448.174L996.158 452.691L985.935 458.439V448.174Z" fill="white"/>
<path d="M846.362 472.914L850.814 462.539L856.485 472.914H846.362Z" fill="white"/>
<path d="M412.819 539.29L417.261 528.916L422.933 539.29H412.819Z" fill="white"/>
<path d="M586.442 459.273L590.894 448.899L596.566 459.273H586.442Z" fill="white"/>
<path d="M491.47 553.685L495.922 543.311L501.594 553.685H491.47Z" fill="white"/>
<path d="M823.913 565.469L813.422 561.647L823.248 555.224L823.913 565.469Z" fill="white"/>
<path d="M510.766 499.5L500.275 495.678L510.102 489.255L510.766 499.5Z" fill="white"/>
<path d="M643.497 564.069L632.996 560.247L642.833 553.824L643.497 564.069Z" fill="white"/>
<path d="M565.223 656.128L554.732 652.306L564.558 645.883L565.223 656.128Z" fill="white"/>
<path d="M797.438 372.307L786.937 368.485L796.773 362.061L797.438 372.307Z" fill="white"/>
<path d="M716.585 531.318L706.095 527.496L715.921 521.073L716.585 531.318Z" fill="white"/>
<path d="M1129.07 628.559L1118.57 624.737L1128.4 618.314L1129.07 628.559Z" fill="white"/>
<path d="M671.757 480.548L676.1 487.388L666.055 490.347L661.712 483.516L671.757 480.548Z" fill="#7673E0"/>
<path d="M386.523 544.373L390.876 551.213L380.831 554.172L376.478 547.331L386.523 544.373Z" fill="#7673E0"/>
<path d="M615.009 613.42L619.362 620.26L609.318 623.218L604.965 616.378L615.009 613.42Z" fill="#7673E0"/>
<path d="M1056.91 515.116L1061.25 521.946L1051.21 524.915L1046.86 518.075L1056.91 515.116Z" fill="#7673E0"/>
<path d="M1056.11 613.42L1060.45 620.26L1050.41 623.218L1046.06 616.378L1056.11 613.42Z" fill="#7673E0"/>
<path d="M798.757 515.821L798.608 523.952L788.643 520.735L788.781 512.594L798.757 515.821Z" fill="#7673E0"/>
<path d="M485.659 575.039L485.521 583.18L475.555 579.963L475.694 571.823L485.659 575.039Z" fill="#7673E0"/>
<path d="M498.123 706.938L497.975 715.079L488.009 711.852L488.148 703.722L498.123 706.938Z" fill="#7673E0"/>
<path d="M713.512 391.398L713.363 399.528L703.398 396.312L703.536 388.181L713.512 391.398Z" fill="#7673E0"/>
<path d="M623.547 426.988L623.398 435.129L613.433 431.912L613.572 423.772L623.547 426.988Z" fill="#7673E0"/>
<path d="M835.901 389.958L835.752 398.099L825.787 394.872L825.925 386.742L835.901 389.958Z" fill="#7673E0"/>
<path d="M701.543 589.335L701.404 597.466L691.429 594.249L691.578 586.119L701.543 589.335Z" fill="#7673E0"/>
<path d="M939.014 472.596L948.612 471.643L950.893 479.535L941.294 480.488L939.014 472.596Z" fill="#7673E0"/>
<path d="M523.071 548.86L532.67 547.897L534.95 555.79L525.352 556.753L523.071 548.86Z" fill="#7673E0"/>
<path d="M1112.63 587.707L1122.24 586.754L1124.52 594.647L1114.91 595.6L1112.63 587.707Z" fill="#7673E0"/>
<path d="M1005.94 584.848L1015.54 583.895L1017.82 591.777L1008.23 592.74L1005.94 584.848Z" fill="#7673E0"/>
<path d="M884.874 421.915C858.479 420.436 831.091 422.789 807.75 428.557" stroke="#6373AD" stroke-width="2.12" stroke-miterlimit="10"/>
<path d="M818.479 441.205C810.794 441.691 803 441.86 795.246 441.711" stroke="#6373AD" stroke-width="2.12" stroke-miterlimit="10"/>
<path d="M714.374 359.51C732.143 359.629 749.892 362.975 766.521 369.348" stroke="#6373AD" stroke-width="2.12" stroke-miterlimit="10"/>
<path d="M930.318 506.261C937.854 507.085 944.715 510.907 951.339 514.64C961.73 520.507 972.162 526.384 981.82 533.433C994.819 542.914 1006.44 554.489 1020.66 561.945" stroke="#6373AD" stroke-width="2.12" stroke-miterlimit="10"/>
<path d="M689.654 536.838C680.344 543.906 675.148 555.263 666.66 563.325C658.599 570.989 647.89 575.317 637.032 577.382C626.174 579.447 615.039 579.417 603.993 579.368" stroke="#6373AD" stroke-width="2.12" stroke-miterlimit="10"/>
<path d="M585.847 599.63C575.267 611.742 558.639 616.507 542.724 617.639C526.819 618.771 510.786 616.845 494.911 618.314" stroke="#6373AD" stroke-width="2.12" stroke-miterlimit="10"/>
<path d="M464.133 547.222C456.805 550.915 450.31 559.274 447.554 567.028C442.933 580.003 447.653 594.428 453.751 606.768C459.849 619.108 467.484 631.17 469.051 644.88" stroke="#6373AD" stroke-width="2.12" stroke-miterlimit="10"/>
<path d="M468.981 533.373C458.431 535.448 449.1 541.514 440.256 547.719C434.742 551.59 429.219 555.641 425.124 561.012C421.019 566.382 418.461 573.342 419.71 580.023" stroke="#6373AD" stroke-width="2.12" stroke-miterlimit="10"/>
<path d="M803.05 508.455C777.269 509.437 754.443 525.054 734.334 541.444C714.225 557.845 694.454 576.052 669.873 583.974" stroke="#6373AD" stroke-width="2.12" stroke-miterlimit="10"/>
<path d="M385.63 571.644C394.713 589.464 405.65 606.302 418.203 621.799C423.994 628.947 426.354 636.045 429.378 644.672" stroke="#6373AD" stroke-width="2.12" stroke-miterlimit="10"/>
<path d="M1069.53 566.055C1077.76 572.25 1087.48 575.923 1097.35 578.445C1106.45 580.778 1115.77 581.214 1124.09 585.841C1132.09 590.288 1137.53 598.22 1142.66 605.875" stroke="#6373AD" stroke-width="2.12" stroke-miterlimit="10"/>
<path d="M1104.49 596.056C1099.41 591.609 1092.68 589.663 1086.07 588.432C1079.47 587.201 1072.71 586.546 1066.43 584.133" stroke="#6373AD" stroke-width="2.12" stroke-miterlimit="10"/>
<path d="M1052.66 619.148C1042.51 614.581 1030.19 617.321 1020.23 612.348" stroke="#6373AD" stroke-width="2.12" stroke-miterlimit="10"/>
<path d="M686.59 432.329C656.774 422.839 624.568 421.191 593.958 427.594" stroke="#6373AD" stroke-width="2.12" stroke-miterlimit="10"/>
<path d="M642.069 413.417C634.493 413.08 626.918 412.752 619.342 412.415" stroke="#6373AD" stroke-width="2.12" stroke-miterlimit="10"/>
<path d="M568.634 459.541C560.225 458.548 551.728 458.29 543.27 458.767" stroke="#6373AD" stroke-width="2.12" stroke-miterlimit="10"/>
<path d="M460.632 526.463C462.546 521.917 465.084 517.658 468.386 514.004C473.295 508.574 479.7 504.702 486.373 501.714C498.778 496.154 512.432 493.414 526.026 493.762C540.989 494.149 553.552 497.822 565.005 507.69C571.301 513.121 579.343 518.76 585.451 527.883C591.598 526.99 601.861 527.843 601.861 527.843C603.339 527.784 606.631 523.644 607.791 522.651C609.199 521.44 612.58 517.519 614.404 519.683C615.009 520.398 615.336 521.659 615.703 522.512C616.745 524.984 617.667 527.506 618.569 530.028C618.976 531.149 619.253 533.165 620.007 534.108C620.007 534.108 626.432 542.149 628.832 551.362C631.003 559.721 629.774 563.523 630.398 572.131C636.853 573.193 643.368 576.965 646.184 583.081C647.642 586.238 648.237 588.968 647.077 592.353C644.647 599.442 637.528 603.294 630.587 604.753C627.047 605.498 623.358 605.637 619.759 605.597C617.528 605.577 615.277 605.398 613.115 604.812C612.6 604.674 607.374 602.211 607.582 602.053C604.409 606.391 596.011 607.92 590.508 608.009C580.86 608.168 571.519 612.308 562.337 609.518C558.48 608.347 553.869 606.153 549.804 606.51C545.104 606.927 540.344 606.907 535.714 605.944C531.539 605.081 527.097 604.922 523.428 602.44C519.928 605.885 514.425 606.044 509.536 605.597C493.909 604.167 478.659 598.687 465.689 589.842C461.366 586.883 457.092 583.309 455.337 578.365C454.038 574.712 454.266 570.711 454.514 566.829C455.05 558.589 455.615 543.986 457.548 535.964C458.332 532.728 459.343 529.521 460.632 526.454V526.463Z" fill="white"/>
<path d="M516.636 588.789C518.341 588.948 520.106 589.673 521.019 591.132C522.328 593.237 521.306 596.195 519.343 597.704C517.38 599.213 514.762 599.551 512.283 599.501C509.398 599.432 491.648 596.88 496.12 592.065C497.905 590.14 501.544 589.236 504.033 589.028C507.92 588.71 512.779 588.442 516.646 588.799L516.636 588.789Z" fill="#E28F3B"/>
<path d="M596.586 564.248C596.755 564.725 597.131 565.102 597.548 565.39C598.877 566.333 600.711 566.522 602.218 565.896C603.428 565.39 605.312 563.643 604.449 562.163C603.259 560.108 595.733 561.915 596.586 564.238V564.248Z" fill="#231F20"/>
<path d="M613.928 560.644C617.191 559.632 620.532 558.877 623.913 558.381" stroke="#231F20" stroke-width="1.41" stroke-miterlimit="10"/>
<path d="M615.257 565.092C617.974 564.973 620.711 565.281 623.339 565.995" stroke="#231F20" stroke-width="1.41" stroke-miterlimit="10"/>
<path d="M601.633 565.837C601.742 567.673 601.851 569.51 601.95 571.346" stroke="#231F20" stroke-width="1.41" stroke-miterlimit="10"/>
<path d="M605.996 603.711C607.166 602.668 608.019 601.01 608.336 599.144C608.653 597.277 608.415 595.242 607.692 593.555C605.302 587.945 600.721 585.89 596.229 585.741C590.647 585.563 584.955 586.665 579.432 587.36C576.358 587.747 572.907 588.025 570.498 586.069" stroke="#231F20" stroke-width="1.41" stroke-miterlimit="10"/>
<path d="M632.679 578.048C625.282 578.266 628.286 579.011 621.058 580.778C616.269 581.949 605.827 584.371 605.808 590.735" stroke="#231F20" stroke-width="1.41" stroke-miterlimit="10"/>
<path d="M581.891 563.414C575.446 563.365 569.01 563.593 562.585 564.109" stroke="#231F20" stroke-width="1.41" stroke-miterlimit="10"/>
<path d="M583.944 569.43C578.45 570.542 573.026 571.992 567.712 573.769" stroke="#231F20" stroke-width="1.41" stroke-miterlimit="10"/>
<path d="M523.418 602.44C527.414 598.747 530.458 590.229 524.916 585.434C523.587 584.282 521.951 583.488 520.225 583.15C515.109 582.148 510.31 585.007 505.302 585.454C500.543 585.88 495.218 584.997 490.657 583.677C480.87 580.857 472.144 574.871 465.114 567.554" stroke="#231F20" stroke-width="1.41" stroke-miterlimit="10"/>
<path d="M617.191 551.342C615.495 553.04 612.62 553.04 610.894 554.708C610.141 555.432 609.655 556.435 608.762 556.981" stroke="#231F20" stroke-width="2.83" stroke-miterlimit="10"/>
<path d="M577.141 555.244C579.194 556.485 581.98 555.81 584.053 557.021C584.955 557.547 585.669 558.411 586.66 558.728" stroke="#231F20" stroke-width="2.83" stroke-miterlimit="10"/>
<path d="M612.332 547.977C607.493 547.48 602.555 544.869 600.671 540.382C599.818 538.357 599.64 536.113 598.797 534.088C597.825 531.745 596.031 529.829 595.039 527.496C598.807 527.585 601.861 527.833 601.861 527.833C603.338 527.774 606.631 523.634 607.791 522.641C609.199 521.43 612.58 517.509 614.404 519.673C615.009 520.388 615.336 521.649 615.703 522.502C616.744 524.974 617.667 527.496 618.569 530.018C618.976 531.139 619.253 533.155 620.007 534.098C620.007 534.098 624.092 539.221 626.958 545.961L626.73 546.021C622.02 547.242 617.181 548.483 612.342 547.987L612.332 547.977Z" fill="#49403D"/>
<path d="M558.678 539.042C559.085 538.377 559.521 537.712 559.799 536.987C560.285 535.716 560.305 534.316 560.334 532.956C560.414 529.432 560.721 525.669 562.863 522.88C563.061 522.621 563.289 522.363 563.587 522.254C563.914 522.135 564.271 522.205 564.608 522.294C566.026 522.691 568.991 523.723 570.21 524.538C571.827 525.62 575.495 528.141 577.102 529.223C578.649 530.266 581.227 527.704 582.555 528.697C583.874 529.68 582.536 532.122 581.891 533.155C579.184 537.513 573.483 538.575 570.29 542.467C567.156 546.289 567.156 551.988 564.013 555.79C560.85 559.622 555.446 560.515 550.518 561.161C551.886 553.08 554.415 546.11 558.688 539.022L558.678 539.042Z" fill="#E28F3B"/>
<path d="M454.881 560.625C455.357 552.504 456.041 542.239 457.548 535.974C458.332 532.738 459.343 529.531 460.632 526.463C462.546 521.917 465.084 517.658 468.386 514.004C473.295 508.574 479.7 504.702 486.373 501.714C498.143 496.432 511.044 493.732 523.934 493.762C523.389 497.643 522.01 501.406 521.395 505.298C520.791 509.13 520.939 513.071 521.842 516.844C522.437 519.345 523.359 521.778 523.726 524.329C524.38 528.945 523.091 533.82 520.225 537.493C517.36 541.176 512.957 543.618 508.317 544.105C504.668 544.482 500.989 543.708 497.32 543.906C485.074 544.581 475.982 555.641 464.301 559.393C461.277 560.366 458.054 560.793 454.881 560.625Z" fill="#E28F3B"/>
<path d="M502.437 507.442C502.913 506.549 503.299 505.625 503.498 504.623C503.656 503.789 503.389 496.065 503.726 495.986C511.034 494.348 518.54 493.563 526.026 493.762C540.939 494.139 553.473 497.802 564.896 507.601C561.316 510.579 555.624 509.209 551.033 510.569C547.454 511.632 544.658 514.352 541.643 516.566C538.619 518.789 535.258 520.547 531.718 521.788C527.702 523.187 523.517 522.76 519.531 523.862C515.684 524.925 511.708 525.759 507.702 525.56C504.588 525.411 500.672 525.63 498.639 522.671C496.12 519.018 498.451 514.272 500.374 510.927C501.039 509.765 501.822 508.643 502.457 507.452L502.437 507.442Z" fill="#49403D"/>
<path d="M646.174 583.071C647.632 586.228 648.227 588.958 647.067 592.343C644.816 598.906 638.529 602.698 632.104 604.386C631.608 602.896 631.985 601.229 632.501 599.72C633.829 595.768 635.902 592.065 638.569 588.869C639.541 587.707 640.622 586.546 640.969 585.066C641.187 584.133 641.097 583.16 641.048 582.197C640.959 580.48 641.048 578.713 641.445 577.045C643.428 578.693 645.093 580.698 646.184 583.071H646.174Z" fill="#E28F3B"/>
<path d="M472.293 593.118C479.125 590.368 486.839 589.871 493.969 591.738C496.309 592.353 498.599 593.207 501.009 593.445C504.539 593.783 508.089 592.76 511.609 593.167C515.129 593.574 518.897 596.324 518.401 599.839C518.183 601.368 517.191 602.678 516.11 603.78C515.416 604.505 514.643 605.15 513.85 605.756C512.402 605.795 510.934 605.726 509.526 605.597C496.16 604.376 483.091 600.186 471.47 593.465C471.738 593.346 472.015 593.217 472.283 593.108L472.293 593.118Z" fill="#49403D"/>
<path d="M585.441 527.873C581.683 528.34 578.182 529.958 577.102 529.233C575.485 528.151 571.817 525.63 570.21 524.547C568.991 523.723 566.026 522.701 564.608 522.304C564.271 522.214 563.914 522.145 563.587 522.264C563.279 522.373 563.061 522.631 562.863 522.89C560.721 525.689 560.414 529.442 560.334 532.966C560.304 534.326 560.285 535.726 559.799 536.997C559.521 537.731 559.095 538.387 558.678 539.052C554.593 545.664 551.777 553.06 550.458 560.724C549.873 564.109 549.576 567.584 550.121 570.979C550.666 574.374 552.114 577.69 554.613 580.053" stroke="#231F20" stroke-width="1.41" stroke-miterlimit="10"/>
<path d="M606.75 591.569C605.114 591.222 603.398 591.212 601.762 591.549" stroke="#231F20" stroke-width="1.41" stroke-miterlimit="10"/>
<path d="M607.999 597.913C607.533 597.605 606.978 597.446 606.422 597.347C605.034 597.099 603.606 597.238 602.198 597.377" stroke="#231F20" stroke-width="1.41" stroke-miterlimit="10"/>
<path d="M908.533 421.071C915.494 430.81 949.167 454.25 959.281 462.281L992.4 453.098C980.987 441.91 949.098 412.99 942.663 402.685C940.164 398.685 935.741 386.454 934.204 382.036C931.626 374.61 929.009 367.194 925.935 359.967C920.233 346.584 912.172 328.655 894.829 329.548C883.922 330.104 872.47 333.053 865.102 341.72C863.109 344.063 861.374 346.674 860.442 349.602C859.51 352.531 859.45 355.817 860.739 358.617C862.008 361.376 864.646 363.134 867.224 364.712C873.352 368.465 882.435 368.495 882.435 368.495C882.435 368.495 901.235 410.876 908.533 421.091V421.071Z" fill="#FF8983"/>
<path d="M986.311 447.687C994.006 450.825 1001.81 455.232 1008.89 459.769C1012.79 462.271 1015.49 463.423 1018.2 466.987C1020.45 469.955 1022.24 475.415 1022.8 478.493C1023.43 481.918 1022.39 484.727 1021.1 487.845C1020.35 489.632 1019.6 491.409 1018.85 493.196C1018.51 494.01 1018.12 494.893 1017.38 495.281C1016.63 495.678 1015.48 495.221 1015.45 494.318C1013.77 494.844 1011.79 494.208 1010.6 492.749C1008.41 493.355 1006.22 491.727 1004.4 490.188C1001.15 487.418 997.833 484.559 993.946 483.139C991.765 482.345 989.484 482.037 987.243 481.541C979.628 479.863 960.987 464.614 955.107 458.975" fill="#FF8983"/>
<path d="M952.489 456.94C954.016 458.131 957.288 460.097 958.815 461.288C959.678 461.963 963.595 466.788 967.442 469.399" stroke="#231F20" stroke-width="2.12" stroke-miterlimit="10"/>
<path d="M1000.14 478.523C1001.86 479.525 1003.44 480.766 1004.96 482.067C1006.58 483.447 1007.81 485.512 1008.73 487.398C1009.16 488.252 1009.52 489.145 1010.06 489.94C1010.36 490.376 1010.7 490.793 1010.95 491.26C1011.2 491.736 1011.33 492.292 1011.14 492.769" stroke="#231F20" stroke-width="2.12" stroke-miterlimit="10"/>
<path d="M1007.88 474.959C1009.17 476.627 1010.4 478.344 1011.57 480.121C1012.15 481.005 1012.72 481.898 1013.17 482.871C1013.73 484.052 1014.1 485.323 1014.45 486.604C1015.09 488.977 1015.6 491.399 1016 493.831" stroke="#231F20" stroke-width="2.12" stroke-miterlimit="10"/>
<path d="M1015.13 473.301C1016.62 475.872 1018.09 478.989 1018.52 482.097C1019 485.631 1019.1 489.642 1018.83 493.196" stroke="#231F20" stroke-width="2.12" stroke-miterlimit="10"/>
<path d="M983.188 446.496C985.32 447.568 987.521 448.472 989.782 449.177" stroke="#231F20" stroke-width="2.12" stroke-miterlimit="10"/>
<path d="M882.375 367.79C879.52 364.206 876.347 360.87 872.896 357.852" stroke="#231F20" stroke-width="2.12" stroke-miterlimit="10"/>
<path d="M1073.02 506.797C1070.8 504.752 1067.42 504.394 1064.31 504.226C1038.73 502.776 1014.84 502.22 989.812 497.048C966.113 492.153 945.042 477.739 924.14 466.173C924.14 466.173 917.943 423.047 929.425 425.648C945.38 429.272 969.217 438.882 984.18 444.054C988.83 445.662 993.51 447.251 998.399 448.005C1002.75 448.68 1007.19 448.67 1011.61 448.651C1031.63 448.551 1051.7 448.184 1071.64 449.911C1077 450.378 1082.42 451.003 1087.41 452.9C1092.61 454.865 1097.13 458.102 1101.45 461.437C1107.18 465.845 1110.31 469.856 1110.31 469.856" fill="#ED8080"/>
<path d="M946.123 430.126C935.563 424.864 923.555 420.674 912.083 417.388C905.776 415.582 901.998 413.775 895.672 414.231C890.397 414.619 882.921 417.835 879.113 420.128C874.889 422.67 872.856 426.413 870.764 430.721C869.564 433.193 868.364 435.665 867.175 438.137C866.629 439.269 866.064 440.51 866.332 441.671C866.609 442.833 868.166 443.637 869.158 442.813C870.179 445.106 872.708 446.615 875.375 446.506C876.783 449.415 880.571 450.229 883.922 450.715C889.911 451.589 896.069 452.433 901.225 455.252C904.11 456.831 906.579 458.975 909.217 460.911C918.151 467.453 929.108 471.484 940.62 472.467" fill="#ED8080"/>
<path d="M933.044 469.846C930.347 469.34 927.65 468.824 924.943 468.317C923.416 468.029 921.879 467.741 920.422 467.205" stroke="#231F20" stroke-width="2.12" stroke-miterlimit="10"/>
<path d="M900.333 444.302C897.655 443.409 894.849 442.892 892.043 442.495C889.049 442.068 885.707 442.694 882.832 443.478C881.523 443.836 880.234 444.272 878.885 444.441C878.131 444.54 877.368 444.55 876.634 444.729C875.9 444.908 875.186 445.305 874.849 445.94" stroke="#231F20" stroke-width="2.12" stroke-miterlimit="10"/>
<path d="M896.862 432.707C893.888 432.895 890.893 433.203 887.908 433.62C886.431 433.829 884.944 434.057 883.476 434.484C881.701 435 879.986 435.794 878.3 436.628C875.177 438.177 872.123 439.894 869.158 441.761" stroke="#231F20" stroke-width="2.12" stroke-miterlimit="10"/>
<path d="M891.825 423.414C887.69 424.228 882.99 425.589 879.282 428.051C875.067 430.85 870.705 434.513 867.165 438.127" stroke="#231F20" stroke-width="2.12" stroke-miterlimit="10"/>
<path d="M950.318 432.339C947.174 431.079 944.15 429.57 941.275 427.822" stroke="#231F20" stroke-width="2.12" stroke-miterlimit="10"/>
<path d="M1138.73 472.467C1133.14 463.999 1119.34 454.21 1110.02 451.083C1105.72 449.633 1101.23 448.76 1096.73 448.134C1078.07 445.533 1057.28 447.022 1038.5 448.621C1036.37 471.186 1036.21 494.923 1044.95 515.831C1045.2 516.427 1045.5 517.062 1046.04 517.399C1046.64 517.757 1047.38 517.687 1048.08 517.608C1070.62 515.007 1093.26 513.111 1115.93 511.929" fill="white"/>
<path d="M1046.04 517.39C1069.27 514.888 1092.58 513.061 1115.93 511.919" stroke="#231F20" stroke-width="2.12" stroke-miterlimit="10"/>
<path d="M1058.55 447.092C1060.07 458.658 1060.99 470.243 1063.67 481.63C1066.36 493.027 1070.27 504.116 1075.31 514.659" stroke="#231F20" stroke-width="2.12" stroke-miterlimit="10"/>
<path d="M1123.36 458.36C1129.15 462.202 1136.06 467.473 1138.51 474.244" stroke="#231F20" stroke-width="2.12" stroke-miterlimit="10"/>
<path d="M830.616 562.898C829.445 566.144 827.433 570.522 826.768 572.091C825.449 575.198 824.012 578.256 822.425 581.224C812.609 599.581 796.704 613.052 782.772 628.113C778.37 632.868 774.057 637.971 771.974 644.116C769.892 650.291 769.912 657.717 765.093 662.105C762.078 664.845 757.854 665.699 753.848 666.433C749.505 667.516 745.014 667.525 740.74 668.677C735.425 670.107 730.15 671.725 724.865 673.254C723.536 673.641 722.198 674.028 720.849 674.376C718.459 674.991 716.04 675.497 713.581 675.676C708.395 676.053 703.179 674.981 698.003 675.448C694.394 675.775 690.805 676.848 687.215 676.411C685.173 676.163 683.229 675.438 681.305 674.713C675.525 672.549 669.734 670.385 664.062 667.942C660.651 666.473 657.091 664.736 655.168 661.559C654.355 660.219 653.908 658.491 654.612 657.101C655.049 656.248 655.852 655.642 656.645 655.096C664.667 649.586 674.047 646.241 682.327 641.048C691.241 635.449 699.203 628.51 706.68 621.124C725.083 602.926 740.036 581.631 753.967 559.91C764.22 543.906 772.916 527.099 782.941 510.947C794.324 492.61 807.819 480.985 829.594 483.864C852.48 486.892 879.5 497.058 901.473 506.797C918.26 514.233 930.774 533.274 943.01 546.964L943.456 547.46C944.348 548.463 945.231 549.466 946.103 550.488C949.009 553.864 951.874 557.398 953.411 561.578C954.492 564.526 954.869 567.693 955.077 570.83C955.265 573.62 955.345 576.449 954.7 579.169C954.026 582.029 952.588 584.669 950.754 586.953C944.269 595.054 933.411 598.439 923.059 599.005C906.807 599.908 847.452 571.485 830.616 562.898Z" fill="#ED8080"/>
<path d="M869.654 493.454C869.654 493.454 899.847 503.084 904.13 504.891C912.688 508.504 914.641 508.921 922.395 514.034C937.903 524.26 951.577 537.285 962.444 552.365C965.379 556.435 968.106 560.654 970.595 565.013C973.709 570.443 976.485 576.062 979.261 581.671C981.909 587.022 988.721 600.901 988.265 601.229C980.352 606.867 968.929 608.942 959.252 609.826C938.24 611.742 917.705 605.527 898.558 597.317C889.614 593.485 880.918 589.077 872.331 584.51C872.014 584.342 871.409 584.044 870.586 583.647C881.87 557.329 869.654 493.454 869.654 493.454Z" fill="#322E68"/>
<path d="M830.288 563.772C824.071 561.329 820.254 557.021 814.87 551.392" stroke="#231F20" stroke-width="2.12" stroke-miterlimit="10"/>
<path d="M688.038 667.178C684.399 668.3 681.077 670.404 678.509 673.214" stroke="#231F20" stroke-width="2.12" stroke-miterlimit="10"/>
<path d="M681.077 662.105C679.838 663.098 678.241 663.465 676.764 664.031C673.819 665.143 671.201 667.109 669.307 669.63" stroke="#231F20" stroke-width="2.12" stroke-miterlimit="10"/>
<path d="M674.87 658.054C672.986 658.829 671.102 659.593 669.218 660.368C667.999 660.864 666.769 661.37 665.649 662.085C664.736 662.671 663.913 663.396 663.1 664.11C662.238 664.875 661.365 665.629 660.502 666.394" stroke="#231F20" stroke-width="2.12" stroke-miterlimit="10"/>
<path d="M670.924 652.406C668.028 653.508 665.093 654.62 662.505 656.327C660.027 657.965 657.924 660.09 655.862 662.234" stroke="#231F20" stroke-width="2.12" stroke-miterlimit="10"/>
<path d="M887.542 499.679C891.657 513.319 893.749 525.808 894.978 540.839C896.178 555.492 896.575 571.197 891.924 585.344C891.141 587.727 890.189 590.05 889.029 592.274" stroke="#6D5050" stroke-width="1.41" stroke-miterlimit="10"/>
<path d="M979.351 581.641C970.714 582.584 961.75 583.021 953.243 581.314C944.398 579.537 935.682 577.134 927.105 574.345C909.673 568.666 892.826 561.379 876.019 554.102" stroke="#231F20" stroke-width="2.12" stroke-miterlimit="10"/>
<path d="M971.527 566.621C964.388 570.056 958.567 575.665 952.876 581.185" stroke="#231F20" stroke-width="2.12" stroke-miterlimit="10"/>
<path d="M1196.16 776.055C1201 767.269 1202.84 765.839 1211.36 766.703C1220.94 767.666 1230.64 770.038 1240 772.252C1246.44 773.781 1252.85 775.459 1259.08 777.702C1264.08 779.509 1269.48 781.574 1273.29 785.426C1276.47 788.643 1278.64 794.689 1275.17 797.955C1265.14 807.426 1242.82 803.514 1229.7 799.95C1221.58 797.746 1213.49 795.404 1205.38 793.16C1197.65 791.025 1189.46 788.226 1196.16 776.055Z" fill="#755959"/>
<path d="M1230.51 762.315C1235.22 760.905 1239.44 760.389 1244.11 762.672C1247.96 764.548 1248.62 772.074 1249.37 776.005L1219.87 769.959C1222.4 766.345 1226.23 763.595 1230.51 762.315Z" fill="#755959"/>
<path d="M1184.84 768.817C1193.53 758.244 1208.26 754.869 1221.3 757.301C1229.26 758.79 1236.66 759.475 1244.11 762.672C1239.24 760.667 1233.4 761.868 1229.22 765.075C1225.03 768.271 1222.41 773.225 1221.29 778.368C1220.17 783.52 1220.05 792.286 1220.84 797.498C1217.01 796.823 1191.9 789.308 1184.53 786.618C1183.57 786.27 1182.58 785.893 1181.88 785.148C1181.31 784.553 1180.99 783.768 1180.78 782.974C1179.42 777.891 1181.47 772.917 1184.84 768.817Z" fill="#322E68"/>
<path d="M1249.13 774.615C1249.13 774.615 1234.13 771.508 1226.84 769.651" stroke="#231F20" stroke-width="2.12" stroke-miterlimit="10"/>
<path d="M1089.03 786.449C1094.93 778.338 1096.94 777.156 1105.28 779.072C1114.67 781.237 1123.99 784.791 1133 788.166C1139.19 790.489 1145.36 792.951 1151.25 795.959C1155.99 798.372 1161.09 801.102 1164.39 805.401C1167.14 808.984 1168.53 815.259 1164.68 818.068C1153.54 826.209 1131.89 819.528 1119.32 814.345C1111.54 811.139 1103.81 807.793 1096.04 804.557C1088.64 801.479 1080.87 797.667 1089.03 786.429V786.449Z" fill="#755959"/>
<path d="M1124.83 777.127C1129.68 776.323 1133.93 776.332 1138.28 779.182C1141.86 781.525 1141.57 789.07 1141.83 793.07L1113.31 783.381C1116.27 780.115 1120.41 777.861 1124.82 777.137L1124.83 777.127Z" fill="#755959"/>
<path d="M1078.72 777.841C1088.66 768.44 1103.69 766.931 1116.33 770.991C1124.04 773.463 1131.29 775.072 1138.28 779.182C1133.7 776.581 1127.76 777.047 1123.21 779.698C1118.66 782.349 1115.44 786.925 1113.68 791.899C1111.92 796.863 1110.71 805.549 1110.83 810.821C1107.11 809.669 1083.15 799.067 1076.17 795.483C1075.26 795.016 1074.33 794.52 1073.73 793.696C1073.24 793.031 1073.02 792.217 1072.9 791.393C1072.2 786.181 1074.85 781.505 1078.72 777.851V777.841Z" fill="#322E68"/>
<path d="M1141.39 791.671C1134.9 788.573 1128.18 785.942 1121.31 783.798" stroke="#231F20" stroke-width="2.12" stroke-miterlimit="10"/>
<path d="M384.133 775.826C377.975 768.42 375.972 767.408 368.089 769.77C359.225 772.431 350.499 776.422 342.071 780.224C336.28 782.835 330.519 785.585 325.055 788.841C320.663 791.452 315.943 794.391 313.047 798.719C310.628 802.333 309.686 808.438 313.543 810.891C324.738 817.999 345.075 810.245 356.815 804.487C364.083 800.923 371.282 797.24 378.54 793.646C385.442 790.231 392.66 786.091 384.133 775.826Z" fill="#6D5067"/>
<path d="M349.22 769.115C344.52 768.648 340.444 768.917 336.448 771.925C333.166 774.397 333.9 781.614 333.91 785.466L360.653 774.387C357.608 771.438 353.503 769.542 349.22 769.115Z" fill="#6D5067"/>
<path d="M393.483 766.931C383.359 758.532 368.853 758.026 356.984 762.712C349.735 765.571 342.884 767.556 336.439 771.935C340.663 769.155 346.394 769.234 350.925 771.488C355.457 773.741 358.828 777.941 360.821 782.587C362.814 787.243 364.52 795.493 364.728 800.556C368.218 799.226 390.548 787.561 397.023 783.679C397.866 783.173 398.729 782.637 399.254 781.813C399.681 781.147 399.839 780.343 399.899 779.559C400.256 774.516 397.42 770.197 393.483 766.941V766.931Z" fill="#322E68"/>
<path d="M333.89 784.106C333.89 784.106 347.475 778.447 354.019 775.37" stroke="#231F20" stroke-width="2.12" stroke-miterlimit="10"/>
<path d="M466.026 816.798C463.329 809.104 461.892 807.664 453.731 806.84C444.539 805.917 434.951 806.066 425.699 806.165C419.343 806.235 412.978 806.413 406.661 807.078C401.594 807.615 396.101 808.28 391.708 810.623C388.05 812.568 384.758 816.917 387.316 820.074C394.743 829.217 416.488 830.061 429.547 829.574C437.628 829.277 445.699 828.86 453.781 828.532C461.465 828.224 469.745 827.46 466.016 816.798H466.026Z" fill="#6D5067"/>
<path d="M436.686 800.079C432.571 798.163 428.724 793.865 423.855 794.828C419.859 795.622 417.658 804.527 416.131 807.466L445.065 807.902C443.448 804.646 440.444 801.827 436.686 800.079Z" fill="#6D5067"/>
<path d="M478.659 807.416C473.096 798.888 460.751 792.832 452.125 792.584C444.341 792.356 431.52 793.626 423.865 794.818C428.853 794.103 434.078 799.216 437.33 802.442C440.583 805.669 442.001 809.987 441.981 814.197C441.951 818.406 440.226 825.266 438.401 829.197C442.14 829.346 467.256 827.867 474.732 827.053C475.704 826.944 476.706 826.825 477.519 826.368C478.173 826.001 478.639 825.445 479.006 824.859C482.913 818.624 482.02 812.558 478.659 807.396V807.416Z" fill="#322E68"/>
<path d="M416.983 806.532C423.865 805.966 430.786 805.798 437.697 806.056" stroke="#231F20" stroke-width="2.12" stroke-miterlimit="10"/>
<path d="M923.248 803.773C926.49 796.525 927.859 795.274 934.631 795.384C942.256 795.513 950.07 796.744 957.606 797.875C962.781 798.66 967.967 799.553 973.024 800.923C977.09 802.015 981.492 803.296 984.755 806.086C987.481 808.409 989.584 813.045 987.065 815.854C979.767 823.995 961.899 822.377 951.299 820.421C944.745 819.22 938.201 817.9 931.656 816.669C925.419 815.497 918.766 813.819 923.248 803.773Z" fill="#755959"/>
<path d="M949.465 790.668C953.084 789.248 956.386 788.553 960.223 790.053C963.376 791.284 964.398 797.181 965.251 800.228L941.562 797.399C943.317 794.381 946.163 791.959 949.465 790.668Z" fill="#755959"/>
<path d="M913.848 798.799C920.015 789.884 931.418 786.24 941.869 787.313C948.255 787.968 954.135 788.017 960.223 790.053C956.247 788.792 951.716 790.122 948.632 792.932C945.538 795.731 943.793 799.811 943.248 803.951C942.702 808.091 943.188 815.021 944.14 819.081C941.076 818.803 920.759 814.524 914.76 812.886C913.987 812.678 913.173 812.439 912.579 811.903C912.093 811.467 911.785 810.871 911.567 810.255C910.159 806.334 911.458 802.274 913.848 798.809V798.799Z" fill="#322E68"/>
<path d="M964.963 799.146C964.963 799.146 952.925 797.677 947.045 796.694" stroke="#231F20" stroke-width="2.12" stroke-miterlimit="10"/>
<path d="M867.839 822.943C871.18 816.083 872.539 814.921 879.043 815.259C886.361 815.636 893.828 817.066 901.036 818.396C905.984 819.309 910.932 820.342 915.751 821.821C919.618 823.002 923.803 824.372 926.847 827.152C929.385 829.475 931.259 833.992 928.751 836.603C921.473 844.178 904.368 842.054 894.254 839.84C887.997 838.47 881.76 836.99 875.504 835.601C869.554 834.27 863.218 832.454 867.849 822.943H867.839Z" fill="#755959"/>
<path d="M893.441 811.208C896.961 809.958 900.154 809.402 903.793 810.96C906.788 812.241 907.571 817.939 908.295 820.898L885.638 817.413C887.422 814.574 890.229 812.34 893.441 811.198V811.208Z" fill="#755959"/>
<path d="M858.974 817.87C865.182 809.501 876.257 806.374 886.262 807.744C892.37 808.578 898.022 808.816 903.803 810.96C900.025 809.62 895.633 810.762 892.569 813.343C889.515 815.934 887.7 819.796 887.046 823.747C886.381 827.708 886.629 834.37 887.413 838.311C884.477 837.943 865.102 833.178 859.391 831.411C858.647 831.183 857.884 830.935 857.328 830.399C856.872 829.962 856.605 829.376 856.406 828.78C855.187 824.968 856.555 821.116 858.964 817.86L858.974 817.87Z" fill="#322E68"/>
<path d="M907.789 819.915C902.514 818.456 897.13 817.373 891.696 816.678" stroke="#231F20" stroke-width="2.12" stroke-miterlimit="10"/>
</svg>
