<svg width="27" height="48" viewBox="0 0 27 48" fill="none" xmlns="http://www.w3.org/2000/svg">
<path d="M14.4671 47.4144C14.2009 47.4144 14.2699 42.306 12.5145 35.8565C11.4889 32.0696 10.8085 29.6732 8.70794 27.5727C5.74944 24.6043 1.82441 24.0816 0 23.9633C1.42994 23.4111 3.59952 22.3558 5.55213 20.3046C8.33313 17.3757 9.1024 14.072 9.93078 10.4528C10.4633 8.1353 11.0156 4.68372 10.7887 0.403751C10.7493 -0.326013 11.2226 10.9163 17.6623 16.5276C20.6997 19.1804 24.3387 19.92 26.5576 20.1764C24.4176 20.847 20.7885 22.3559 18.471 25.8469C17.4651 27.3656 16.7847 28.8941 16.2522 32.7796C15.0786 41.2015 14.8222 47.4045 14.4869 47.4144H14.4671Z" fill="#AAC1F7"/>
</svg>
