<svg width="171" height="65" viewBox="0 0 171 65" fill="none" xmlns="http://www.w3.org/2000/svg">
<path d="M108.72 0.38H67.68C54.25 0.38 41.85 7.55 35.14 19.18L19.53 46.26H39.98C47.43 46.26 54.37 42.45 58.37 36.16L67.56 21.72H75.27L63.86 39.65C58.64 47.86 49.71 52.76 39.98 52.76H6.71L0 64.4H62.88C81.41 64.4 96.56 51.95 97.52 33.44V14.35C97.52 9.54 100.39 5.82 106.75 5.82H108.72V0.38ZM79.18 11.02C79.18 9.95 79.59 8.97 80.25 8.23C81.02 7.36 82.14 6.81 83.4 6.81C84.22 6.81 84.99 7.05 85.64 7.46C86.83 8.21 87.62 9.52 87.62 11.02C87.62 13.35 85.73 15.23 83.41 15.23C82.17 15.23 81.06 14.69 80.29 13.84C79.62 13.09 79.2 12.11 79.2 11.02H79.18Z" fill="white"/>
<path d="M133.43 12.22H137.48C139.4 12.22 140.95 10.67 140.95 8.75V0.79C140.95 0.57 140.77 0.38 140.54 0.38H127.16C125.24 0.38 123.69 1.93 123.69 3.85V11.81C123.69 12.03 123.87 12.22 124.1 12.22H131.31V15.16H120.92C120.7 15.16 120.51 15.34 120.51 15.57V16.7C120.51 16.92 120.69 17.11 120.92 17.11H131.31V22.55C131.31 22.77 131.49 22.96 131.72 22.96H133.03C133.25 22.96 133.44 22.78 133.44 22.55V17.11H143.74C143.96 17.11 144.15 16.93 144.15 16.7V15.57C144.15 15.35 143.97 15.16 143.74 15.16H133.44V12.22H133.43ZM125.63 3.86C125.63 2.96 126.36 2.24 127.25 2.24H138.97V5.39H125.62V3.86H125.63ZM125.63 10.38V7.23H138.98V8.76C138.98 9.66 138.25 10.38 137.36 10.38H125.63Z" fill="white"/>
<path d="M149.38 4.69C149.38 4.34 149.66 4.05 150.02 4.05H167.25C167.6 4.05 167.89 4.33 167.89 4.69V8.48C167.89 8.65 168.03 8.79 168.2 8.79H169.48C169.65 8.79 169.79 8.65 169.79 8.48V4.69C169.79 3.29 168.65 2.15 167.25 2.15H159.59V0.31C159.59 0.14 159.45 0 159.28 0H158C157.83 0 157.69 0.14 157.69 0.31V2.15H150.03C148.63 2.15 147.49 3.29 147.49 4.69V8.48C147.49 8.65 147.63 8.79 147.8 8.79H149.08C149.25 8.79 149.39 8.65 149.39 8.48V4.69H149.38Z" fill="white"/>
<path d="M164.59 8.03H163.27C163.11 8.03 162.98 8.15 162.96 8.31C162.85 9.23 162.73 10.08 162.57 10.86H155.21C155.75 9.7 156.55 8.2 157.69 6.23C157.81 6.02 157.66 5.76 157.42 5.76H155.91C155.8 5.76 155.69 5.82 155.64 5.92C154.45 8 153.64 9.6 153.1 10.86H147.58C147.41 10.86 147.27 11 147.27 11.17V12.39C147.27 12.56 147.41 12.7 147.58 12.7H152.44C152.03 14.21 152.2 15.04 152.49 15.84C152.98 17.17 154.24 18.34 156.32 19.38C154.32 20.28 151.77 20.82 148.55 21.01C148.39 21.01 148.26 21.15 148.26 21.32V23.03C152.72 22.72 156.08 21.86 158.58 20.35C161.2 21.32 164.67 22.17 168.9 22.88C169.09 22.91 169.26 22.77 169.26 22.57V21.15C169.26 20.99 169.15 20.86 168.99 20.84C166.05 20.45 162.88 19.72 160.46 18.94C160.61 18.8 160.77 18.66 160.91 18.51C162.16 17.24 163.09 15.68 163.76 13.75C163.88 13.41 163.99 13.06 164.09 12.69H169.65C169.82 12.69 169.96 12.55 169.96 12.38V11.16C169.96 10.99 169.82 10.85 169.65 10.85H164.52C164.67 10.08 164.79 9.26 164.89 8.37C164.91 8.19 164.77 8.02 164.58 8.02L164.59 8.03ZM161.97 13.13C161.39 14.79 160.6 16.12 159.56 17.18C159.2 17.54 158.81 17.88 158.39 18.19C155.5 16.99 154.56 15.91 154.29 15.18C154.13 14.74 153.94 14.21 154.46 12.69H162.12C162.07 12.84 162.03 12.98 161.98 13.12L161.97 13.13Z" fill="white"/>
<path d="M125.75 41.55H124.48C124.33 41.55 124.2 41.66 124.18 41.81C123.39 46.27 121.33 50.38 119.55 52.45C119.41 52.61 119.52 52.87 119.74 52.87H121.32C121.51 52.87 121.7 52.78 121.81 52.62C122.16 52.12 122.52 51.54 122.89 50.9V64.02C122.89 64.19 123.03 64.33 123.2 64.33H124.42C124.59 64.33 124.73 64.19 124.73 64.02V50.58C124.73 50.41 124.59 50.27 124.42 50.27H123.24C124.45 47.99 125.6 45.03 126.07 41.92C126.1 41.73 125.95 41.56 125.76 41.56L125.75 41.55Z" fill="white"/>
<path d="M136.15 47.1H131.45C131.28 47.1 131.14 47.24 131.14 47.41V48.42C131.14 48.59 131.28 48.73 131.45 48.73H136.15V50.59H132.7C132.53 50.59 132.39 50.73 132.39 50.9V51.91C132.39 52.08 132.53 52.22 132.7 52.22H136.15V54.16H132.52C132.35 54.16 132.21 54.3 132.21 54.47V55.54C132.21 55.71 132.35 55.85 132.52 55.85H136.15V57.57H132.52C132.35 57.57 132.21 57.71 132.21 57.88V58.95C132.21 59.12 132.35 59.26 132.52 59.26H136.15V61.45C136.15 61.62 136.29 61.76 136.46 61.76H137.53C137.7 61.76 137.84 61.62 137.84 61.45V59.26H142.21C142.38 59.26 142.52 59.12 142.52 58.95V57.88C142.52 57.71 142.38 57.57 142.21 57.57H137.84V55.85H142.21C142.38 55.85 142.52 55.71 142.52 55.54V54.47C142.52 54.3 142.38 54.16 142.21 54.16H137.84V52.22H139.94C141.25 52.22 142.3 51.16 142.3 49.86V48.74H143.51C143.68 48.74 143.82 48.6 143.82 48.43V47.42C143.82 47.25 143.68 47.11 143.51 47.11H142.3V45.79C142.3 44.48 141.24 43.43 139.94 43.43H137.84V41.88C137.84 41.71 137.7 41.57 137.53 41.57H136.46C136.29 41.57 136.15 41.71 136.15 41.88V43.43H132.7C132.53 43.43 132.39 43.57 132.39 43.74V44.75C132.39 44.92 132.53 45.06 132.7 45.06H136.15V47.12V47.1ZM140.68 49.85C140.68 50.26 140.35 50.58 139.95 50.58H137.85V48.72H140.69V49.84L140.68 49.85ZM139.95 45.04C140.36 45.04 140.68 45.37 140.68 45.77V47.09H137.84V45.03H139.94L139.95 45.04Z" fill="white"/>
<path d="M132.63 61.23C131.76 60.73 130.96 60.08 130.24 59.28C130.99 57.11 131.4 54.76 131.4 52.63V52.17C131.4 51.22 130.63 50.45 129.68 50.45H128.39L130.99 45.48C131.52 44.46 131.67 42.51 129.4 42.51H126.88C126.71 42.51 126.57 42.65 126.57 42.82V43.89C126.57 44.06 126.71 44.2 126.88 44.2H129.18C129.35 44.2 129.44 44.3 129.47 44.36C129.51 44.42 129.56 44.55 129.48 44.7L125.83 51.69C125.72 51.9 125.87 52.15 126.11 52.15H129.45C129.59 52.15 129.7 52.26 129.7 52.4V52.64C129.7 54.24 129.45 55.96 128.98 57.63C128.13 56.28 127.67 54.99 127.48 54.2C127.45 54.06 127.32 53.97 127.18 53.97H125.93C125.73 53.97 125.59 54.15 125.62 54.34C125.88 55.65 126.69 57.74 128.12 59.63C128.16 59.68 128.2 59.73 128.24 59.78C127.61 61.3 126.8 62.69 125.85 63.89C125.71 64.07 125.84 64.33 126.07 64.33H127.26C127.5 64.33 127.73 64.21 127.87 64.02C128.48 63.14 129.02 62.18 129.49 61.17C131.19 62.8 133.68 64.26 137.17 64.26H142.58C142.83 64.26 143.07 64.12 143.19 63.9L143.76 62.88C143.88 62.67 143.73 62.42 143.49 62.42H137.18C135.52 62.42 134 62.03 132.64 61.25L132.63 61.23Z" fill="white"/>
<path d="M167.18 49.06C167.18 47.91 166.25 46.98 165.1 46.98H160.39V45.81C160.39 45.67 160.28 45.56 160.14 45.56H158.8C158.66 45.56 158.55 45.67 158.55 45.81V46.98H152.53C152.39 46.98 152.28 47.09 152.28 47.23V48.42C152.28 48.56 152.39 48.67 152.53 48.67H158.55V50.25H151.26C151.12 50.25 151.01 50.36 151.01 50.5V51.69C151.01 51.83 151.12 51.94 151.26 51.94H158.55V53.52H152.53C152.39 53.52 152.28 53.63 152.28 53.77V54.96C152.28 55.1 152.39 55.21 152.53 55.21H158.55V57.87C157.68 58 156.87 58.21 156.12 58.5L156.14 57.48C156.14 57.29 156 57.14 155.82 57.12C154.59 57.01 152.92 56.74 151.67 56.29C151.47 56.22 151.27 56.37 151.27 56.58V57.55C151.27 57.78 151.42 57.99 151.64 58.07C152.33 58.31 153.9 58.79 155.51 58.78C153.15 59.85 151.44 61.69 150.46 64.02C150.38 64.21 150.53 64.43 150.74 64.43H152.14C152.26 64.43 152.36 64.36 152.41 64.26C153.59 61.76 156.01 59.91 158.58 59.62V62.52H155.2C155.07 62.52 154.98 62.66 155.04 62.78L155.67 64.06C155.73 64.19 155.87 64.27 156.01 64.27H158.91C159.75 64.27 160.43 63.59 160.43 62.75V59.46C160.43 59.46 160.53 59.46 160.58 59.46C160.96 59.44 161.4 59.42 161.75 59.6C162.16 59.8 162.47 60.3 162.68 61.07C162.85 61.72 163.1 62.22 163.45 62.6C163.95 63.15 164.65 63.44 165.47 63.44C166.44 63.44 167.54 63.1 168.83 62.38C169.01 62.28 169.13 62.08 169.13 61.87V60.38C169.13 60.16 168.87 60.03 168.7 60.17C167.38 61.17 166.28 61.71 165.47 61.71C164.92 61.71 164.56 61.56 164.31 60.63C163.98 59.37 163.45 58.54 162.5 58.08C161.72 57.7 160.93 57.75 160.44 57.78V55.23H165.15C166.3 55.23 167.23 54.3 167.23 53.15V51.97H168.88C169.02 51.97 169.13 51.86 169.13 51.72V50.53C169.13 50.39 169.02 50.28 168.88 50.28H167.23V49.1L167.18 49.06ZM165.49 53.12C165.49 53.34 165.31 53.51 165.1 53.51H160.39V51.93H165.49V53.12ZM160.39 50.25V48.67H165.1C165.32 48.67 165.49 48.85 165.49 49.06V50.24H160.39V50.25Z" fill="white"/>
<path d="M159.68 43.16V41.32C159.68 41.15 159.54 41.01 159.37 41.01H158.09C157.92 41.01 157.78 41.15 157.78 41.32V43.16H150.73C149.33 43.16 148.19 44.3 148.19 45.7V54.53C148.19 57.09 148.19 60.95 146.73 63.88C146.63 64.08 146.78 64.32 147.01 64.32H148.49C148.61 64.32 148.73 64.25 148.78 64.13C149.16 63.24 149.47 62.24 149.68 61.15C150.16 58.75 150.16 56.3 150.16 54.52V45.54C150.16 45.19 150.44 44.9 150.8 44.9H168.78C168.95 44.9 169.09 44.76 169.09 44.59V43.46C169.09 43.29 168.95 43.15 168.78 43.15H159.69L159.68 43.16Z" fill="white"/>
<path d="M164.72 58.9C165.8 58.53 167.58 58.22 168.78 58.23C168.95 58.23 169.09 58.09 169.09 57.92V56.76C169.09 56.59 168.95 56.44 168.77 56.45C167.05 56.5 165.71 56.84 164.53 57.21C164.4 57.25 164.32 57.37 164.32 57.51V58.61C164.32 58.82 164.53 58.97 164.73 58.9H164.72Z" fill="white"/>
<path d="M152.94 28.95H152.03V31.42H152.94V28.95Z" fill="white"/>
<path d="M151.56 31.57H148.94V28.95H148.07V35.13H148.94V32.38H152.07V35.13H152.94V32.95C152.94 32.19 152.32 31.57 151.56 31.57Z" fill="white"/>
<path d="M158.23 31.89C158.6 31.44 158.74 31.1 158.74 30.66C158.74 29.62 157.8 28.77 156.65 28.77C155.5 28.77 154.56 29.62 154.56 30.66V30.75H155.44V30.66C155.44 30.09 156 29.59 156.65 29.59C157.33 29.59 157.86 30.02 157.86 30.58C157.86 30.78 157.82 31.03 157.55 31.33C157.36 31.54 156.35 32.33 154.63 33.61C154.33 33.83 154.22 34.2 154.33 34.55C154.45 34.9 154.76 35.13 155.13 35.13H158.68V34.25H155.15C156.33 33.41 157.99 32.17 158.22 31.88L158.23 31.89Z" fill="white"/>
<path d="M164.37 28.95V32.59C164.37 33.09 164.2 34.27 162.67 34.27C161.14 34.27 160.97 33.1 160.97 32.59V28.95H160.1V32.59C160.1 34.14 161.11 35.14 162.67 35.14C164.23 35.14 165.24 34.14 165.24 32.59V28.95H164.37Z" fill="white"/>
<path d="M129.54 32.76H126.59V33.61H129.54V32.76Z" fill="white"/>
<path d="M132.56 28.95H131.66V35.13H132.56V28.95Z" fill="white"/>
<path d="M137.21 35.13H136.33V28.95H137.21V31.98L136.93 32.79L137.21 33.85V35.13Z" fill="white"/>
<path d="M127.55 28.95L125.14 35.13H126.08L128.02 30.09L129.96 35.13H130.9L128.49 28.95H127.55Z" fill="white"/>
<path d="M138.57 35.21C137.56 35.21 136.91 34.24 136.91 32.91C136.91 31.58 137.56 30.61 138.57 30.61C139.73 30.61 140.38 31.58 140.38 32.91C140.38 34.24 139.73 35.21 138.57 35.21ZM138.37 31.43C137.58 31.43 137.16 32.21 137.16 32.91C137.16 33.61 137.58 34.37 138.37 34.37C139.16 34.37 139.52 33.61 139.52 32.91C139.52 32.21 139.16 31.43 138.37 31.43Z" fill="white"/>
<path d="M166.94 26.97H123.84C122.11 26.97 120.69 28.38 120.69 30.12V33.97C120.69 35.7 122.1 37.12 123.84 37.12H140.55C141.76 37.12 142.44 36.54 142.83 35.56L144.73 30.68H143.82L142.67 33.63L141.52 30.68H140.58L142.2 34.83L142 35.35C141.76 35.98 141.33 36.39 140.41 36.39H123.85C122.51 36.39 121.42 35.3 121.42 33.96V30.11C121.42 28.77 122.51 27.68 123.85 27.68H166.95C168.29 27.68 169.38 28.77 169.38 30.11V33.96C169.38 35.3 168.29 36.39 166.95 36.39H143.66L143.38 37.1H166.95C168.68 37.1 170.1 35.69 170.1 33.95V30.1C170.1 28.37 168.69 26.95 166.95 26.95L166.94 26.97Z" fill="white"/>
</svg>
