<svg width="321" height="92" viewBox="0 0 321 92" fill="none" xmlns="http://www.w3.org/2000/svg">
<path d="M24.9957 76.5517C26.5797 72.7351 23.1069 67.6668 17.2388 65.2313C11.3708 62.7959 5.32969 63.9156 3.74565 67.7323C2.16162 71.549 5.63449 76.6173 11.5025 79.0527C17.3706 81.4881 23.4117 80.3684 24.9957 76.5517Z" fill="#4A4AAF"/>
<path d="M7.78604 82.0913C4.68434 80.8012 1.33024 81.7716 0.303822 84.2563C-0.728208 86.741 0.95445 89.7979 4.05615 91.0879C7.15785 92.3779 10.5119 91.4076 11.5384 88.9229C12.5704 86.4381 10.8877 83.3813 7.78604 82.0913Z" fill="#4A4AAF"/>
<path d="M320.929 35.3022C320.929 23.316 311.214 13.6015 299.228 13.6015C296.53 13.6015 293.945 14.1007 291.561 14.9981C286.412 11.4421 280.214 9.31071 273.523 9.14805C269.591 3.61211 263.129 0 255.827 0C248.524 0 242.399 3.42141 238.439 8.71617C232.556 4.96384 225.573 2.782 218.073 2.782C210.574 2.782 203.277 5.0648 197.309 8.96857C193.35 4.72266 187.707 2.06406 181.442 2.06406C175.177 2.06406 169.86 4.57122 165.917 8.6096C161.833 6.87646 157.341 5.91735 152.624 5.91735C147.907 5.91735 143.526 6.85403 139.482 8.5479C135.612 4.96945 130.441 2.782 124.753 2.782C119.066 2.782 114.119 4.8741 110.282 8.31794C104.511 4.67779 97.6793 2.56325 90.3541 2.56325C84.6387 2.56325 79.2205 3.85329 74.3745 6.1417C70.0556 2.32207 64.3851 0 58.1648 0C47.407 0 38.2758 6.94377 34.989 16.591C33.856 16.4115 32.7006 16.3106 31.5171 16.3106C19.531 16.3106 9.81645 26.0251 9.81645 38.0112C9.81645 49.9974 19.531 59.7119 31.5171 59.7119C31.5732 59.7119 31.6349 59.7119 31.691 59.7119C33.0259 70.4193 42.1515 78.7035 53.2178 78.7035C59.797 78.7035 65.6863 75.7701 69.6686 71.1484C75.5972 75.0914 82.7036 77.3911 90.3541 77.3911C98.4477 77.3911 105.936 74.811 112.06 70.4417C116.547 75.5626 123.132 78.8045 130.48 78.8045C136.313 78.8045 141.664 76.7629 145.871 73.3583C148.058 73.7958 150.313 74.0314 152.629 74.0314C155.843 74.0314 158.95 73.577 161.895 72.7469C166.203 76.5161 171.834 78.8045 178.009 78.8045C184.919 78.8045 191.157 75.9384 195.61 71.3335C201.903 75.9664 209.671 78.7035 218.085 78.7035C224.653 78.7035 230.834 77.0321 236.224 74.0931C240.268 77.0489 245.254 78.7989 250.655 78.7989C255.771 78.7989 260.516 77.2284 264.442 74.5474C267.089 75.226 269.86 75.585 272.721 75.585C277.959 75.585 282.912 74.3679 287.32 72.2085C290.17 74.0706 293.58 75.1587 297.237 75.1587C307.266 75.1587 315.398 67.0259 315.398 56.9972C315.398 54.8491 315.023 52.785 314.338 50.8724C318.405 46.9293 320.94 41.4102 320.94 35.2966L320.929 35.3022Z" fill="#4A4AAF"/>
</svg>
