<svg width="56" height="33" viewBox="0 0 56 33" fill="none" xmlns="http://www.w3.org/2000/svg">
<path d="M22.8039 23.1375C22.2839 23.2475 21.8439 23.3175 21.5039 23.3475C21.1539 23.3775 20.8039 23.3475 20.4439 23.2275C20.0839 23.1075 19.7039 22.7875 19.3039 22.2475C18.9039 21.7075 18.6139 21.1975 18.4339 20.7075C18.2539 20.2175 17.9439 19.3275 17.5039 18.0275C17.0639 16.7275 16.6139 15.3275 16.1539 13.8175C15.6939 12.2975 15.2339 10.7775 14.7739 9.2375C14.3139 7.6975 14.1239 6.7775 14.1939 6.4775C14.2639 6.1775 14.4039 5.9475 14.6039 5.7975C14.8039 5.6475 15.4139 5.3975 16.4339 5.0475C17.4539 4.6975 18.3539 4.4575 19.1239 4.3175C19.8939 4.1775 20.8039 4.0875 21.8639 4.0575C22.9139 4.0275 23.6239 4.0875 23.9939 4.2475C24.3639 4.4075 24.6939 4.6375 24.9839 4.9375C25.2739 5.2475 25.4939 5.5175 25.6439 5.7475C25.7939 5.9875 26.0139 6.5375 26.3139 7.4075C26.6139 8.2775 26.7639 8.8775 26.7839 9.2175C26.7939 9.5475 26.7439 9.9775 26.6139 10.4875C26.4839 11.0075 25.8839 11.9975 24.7939 13.4575C25.0039 13.5075 25.3439 13.5575 25.8139 13.6075C26.2739 13.6575 26.7939 13.8075 27.3639 14.0575C27.9339 14.3175 28.4439 14.7175 28.8939 15.2675C29.3439 15.8175 29.6539 16.3375 29.8139 16.8075C29.9739 17.2775 30.0239 17.7675 29.9639 18.2475C29.9039 18.7275 29.7239 19.1875 29.4139 19.6275C29.1039 20.0675 28.8339 20.3975 28.5939 20.6075C28.3539 20.8175 28.0139 21.0675 27.5839 21.3275C27.1539 21.5975 25.5539 22.1975 22.7939 23.1275L22.8039 23.1375ZM27.0739 19.2775C27.2339 18.7275 27.2739 18.2775 27.1839 17.9275C27.0939 17.5775 26.9639 17.2875 26.8139 17.0575C26.6639 16.8275 26.4039 16.5575 26.0539 16.2475C25.7039 15.9375 25.2439 15.7275 24.6739 15.6275C24.1039 15.5275 23.6539 15.4875 23.3239 15.5175C22.9939 15.5475 22.6839 15.6075 22.3939 15.7075C22.1039 15.8075 21.8139 15.9375 21.5139 16.0875C21.2139 16.2475 21.0739 16.5375 21.0739 16.9875C21.0739 17.4275 21.1839 17.9475 21.3839 18.5475L21.9339 20.1675C22.0939 20.6475 22.3039 20.8975 22.5539 20.9075C22.8039 20.9275 23.4639 20.7575 24.5439 20.3875C25.6239 20.0175 26.4639 19.6575 27.0739 19.2775ZM22.5439 13.1575C23.0839 12.4875 23.3939 12.0175 23.4739 11.7775C23.5539 11.5275 23.5839 11.2375 23.5639 10.9075C23.5539 10.5775 23.4439 10.1675 23.2539 9.6675C23.0539 9.1775 22.7839 8.7875 22.4239 8.5175C22.0639 8.2475 21.7639 8.0675 21.5039 7.9675C21.2439 7.8775 20.8639 7.8375 20.3539 7.8675C19.8439 7.8975 19.4039 7.9575 19.0439 8.0575C18.6839 8.1575 18.4739 8.3275 18.4139 8.5675C18.3639 8.8075 18.4339 9.2175 18.6339 9.8175C18.8339 10.4175 19.0039 10.9275 19.1239 11.3575C19.2539 11.7875 19.3539 12.1875 19.4339 12.5575C19.5139 12.9175 19.6639 13.2475 19.8839 13.5275C20.0939 13.8075 20.2839 13.9675 20.4439 13.9875C20.6039 14.0075 20.8539 13.9675 21.2139 13.8375C21.5739 13.7075 22.0139 13.4875 22.5439 13.1575Z" fill="white"/>
<path d="M35.3039 18.8776C34.7339 18.8476 34.3539 18.8076 34.1639 18.7676C33.9739 18.7276 33.6039 18.5176 33.0539 18.1476C32.5039 17.7776 32.1639 17.3476 32.0439 16.8476C31.9239 16.3576 31.8239 15.9176 31.7439 15.5276C31.6639 15.1376 31.6439 14.7576 31.7039 14.3876C31.7639 14.0176 31.9439 13.6576 32.2439 13.2976C32.5439 12.9376 32.9639 12.6676 33.4739 12.4676C33.9839 12.2676 34.4739 12.0576 34.9339 11.8376C35.3939 11.6076 35.7239 11.3476 35.9139 11.0476C36.1039 10.7476 36.2139 10.4776 36.2539 10.2476C36.2839 10.0176 36.2639 9.78759 36.1939 9.56759C36.1239 9.34759 35.9839 9.07759 35.7939 8.77759C35.6039 8.47759 35.3739 8.31759 35.1139 8.30759C34.8539 8.28759 34.6239 8.30759 34.4339 8.37759C34.2439 8.44759 33.9939 8.57759 33.6839 8.78759C33.3739 8.99759 33.1939 9.31759 33.1539 9.73759C33.1139 10.1576 33.0639 10.5476 32.9939 10.9076C32.9239 11.2676 32.7339 11.5476 32.4039 11.7476C32.0839 11.9476 31.8139 12.0676 31.5939 12.0976C31.3839 12.1276 31.0439 12.0376 30.5939 11.8176C30.1439 11.5976 29.8539 11.1476 29.7239 10.4776C29.6039 9.79759 29.5839 9.26759 29.6739 8.87759C29.7639 8.48759 29.8739 8.06759 29.9939 7.61759C30.1139 7.16759 30.2839 6.75759 30.4939 6.40759C30.7139 6.05759 30.9739 5.77759 31.2939 5.58759C31.6139 5.39759 31.9439 5.20759 32.2839 5.01759C32.6239 4.82759 33.1939 4.66759 33.9939 4.52759C34.7939 4.38759 35.4339 4.42759 35.9139 4.64759C36.3939 4.86759 36.8939 5.19759 37.4139 5.63759C37.9339 6.08759 38.4139 6.98759 38.8539 8.34759C39.2939 9.70759 39.9339 10.9176 40.7639 11.9876C41.5939 13.0576 42.3339 14.1576 42.9939 15.3276C43.0639 15.7776 43.0039 16.0576 42.8239 16.1476C42.6439 16.2476 42.2639 16.3276 41.7139 16.3976C41.1539 16.4676 40.7239 16.2976 40.4139 15.8776C40.1039 15.4576 39.8039 15.2476 39.5039 15.2276C39.1739 16.3076 38.9539 16.9576 38.8539 17.1776C38.7539 17.3976 38.4939 17.6376 38.0739 17.8876C37.6539 18.1376 37.1939 18.3376 36.6839 18.4776C36.1739 18.6176 35.7039 18.7476 35.2739 18.8776H35.3039ZM36.7139 16.2976C37.0839 16.1076 37.3439 15.8776 37.5139 15.6276C37.6839 15.3776 37.7839 15.1276 37.8239 14.8776C37.8639 14.6276 37.7439 14.2176 37.4439 13.6376C37.1539 13.0576 36.6539 13.0176 35.9539 13.5176C35.2539 14.0176 34.8039 14.4476 34.6139 14.8276C34.4239 15.2076 34.4239 15.6476 34.6339 16.1276C34.8439 16.3076 35.1439 16.4276 35.5239 16.4976C35.9039 16.5676 36.2939 16.4976 36.7039 16.2876L36.7139 16.2976Z" fill="white"/>
<path d="M47.5739 14.7075C47.0039 14.6775 46.6239 14.6375 46.4339 14.5975C46.2439 14.5575 45.8739 14.3475 45.3239 13.9775C44.7739 13.6075 44.4339 13.1775 44.3139 12.6775C44.1939 12.1875 44.0939 11.7475 44.0139 11.3575C43.9339 10.9675 43.9139 10.5875 43.9739 10.2175C44.0339 9.84755 44.2139 9.48755 44.5139 9.12755C44.8139 8.76755 45.2339 8.49755 45.7439 8.29755C46.2539 8.09755 46.7439 7.88755 47.2039 7.66755C47.6639 7.43755 47.9939 7.17755 48.1839 6.87755C48.3739 6.57755 48.4839 6.30755 48.5239 6.07755C48.5539 5.84755 48.5339 5.61755 48.4639 5.39755C48.3939 5.17755 48.2539 4.90755 48.0639 4.60755C47.8739 4.30755 47.6439 4.14755 47.3839 4.13755C47.1239 4.11755 46.8939 4.13755 46.7039 4.20755C46.5139 4.27755 46.2639 4.40755 45.9539 4.61755C45.6439 4.82755 45.4639 5.14755 45.4239 5.56755C45.3839 5.98755 45.3339 6.37755 45.2639 6.73755C45.1939 7.09755 45.0039 7.37755 44.6739 7.57755C44.3539 7.77755 44.0839 7.89755 43.8639 7.92755C43.6539 7.95755 43.3139 7.86755 42.8639 7.64755C42.4139 7.42755 42.1239 6.97755 41.9939 6.30755C41.8739 5.62755 41.8539 5.09755 41.9439 4.70755C42.0339 4.31755 42.1439 3.89755 42.2639 3.44755C42.3839 2.99755 42.5539 2.58755 42.7639 2.23755C42.9839 1.88755 43.2439 1.60755 43.5639 1.41755C43.8839 1.22755 44.2139 1.03755 44.5539 0.847546C44.8939 0.657546 45.4639 0.497546 46.2639 0.357546C47.0639 0.217546 47.7039 0.257546 48.1839 0.477546C48.6639 0.697546 49.1639 1.02755 49.6839 1.46755C50.2039 1.91755 50.6839 2.81755 51.1239 4.17755C51.5639 5.53755 52.2039 6.74755 53.0339 7.81755C53.8639 8.87755 54.6039 9.98755 55.2639 11.1575C55.3339 11.6075 55.2739 11.8875 55.0939 11.9775C54.9139 12.0775 54.5339 12.1575 53.9839 12.2275C53.4239 12.2975 52.9939 12.1275 52.6839 11.7075C52.3739 11.2875 52.0739 11.0775 51.7739 11.0575C51.4439 12.1375 51.2239 12.7875 51.1239 13.0075C51.0239 13.2275 50.7639 13.4675 50.3439 13.7175C49.9239 13.9675 49.4639 14.1675 48.9539 14.3075C48.4439 14.4475 47.9739 14.5775 47.5439 14.7075H47.5739ZM48.9839 12.1275C49.3539 11.9375 49.6139 11.7075 49.7839 11.4575C49.9539 11.2075 50.0539 10.9575 50.0939 10.7075C50.1339 10.4575 50.0139 10.0475 49.7139 9.46755C49.4239 8.88755 48.9239 8.84755 48.2239 9.34755C47.5239 9.84755 47.0739 10.2775 46.8839 10.6575C46.6939 11.0375 46.6939 11.4775 46.9039 11.9575C47.1139 12.1375 47.4139 12.2575 47.7939 12.3275C48.1739 12.3975 48.5639 12.3275 48.9739 12.1175L48.9839 12.1275Z" fill="white"/>
<path d="M0.213898 17.0776C0.693898 13.6476 2.8939 11.1976 4.7239 8.4776C6.3339 5.6476 7.2639 2.4676 9.6939 0.137599C9.8839 -0.0524014 10.1939 -0.0424014 10.3839 0.147599C10.5039 0.267599 10.5439 0.437599 10.5139 0.597599C9.8039 3.8876 7.5739 6.3476 6.0039 9.1976C5.1939 10.5976 4.8639 12.2676 4.0639 13.6676C3.7639 14.2776 0.553898 19.3076 0.213898 17.0776Z" fill="white"/>
<path d="M7.2039 31.2477C10.4739 29.7177 13.8939 30.1677 17.3339 30.1577C20.7339 29.9077 24.0639 28.8877 27.5039 29.5977C27.7639 29.6477 27.9439 29.9077 27.8839 30.1677C27.8539 30.3377 27.7339 30.4677 27.5739 30.5277C24.2839 31.7777 20.8439 31.3177 17.4439 31.6177C15.7539 31.7377 14.1039 32.3877 12.4039 32.5177C11.7139 32.5977 5.47391 32.7977 7.19391 31.2477H7.2039Z" fill="white"/>
</svg>
