<svg width="80" height="89" viewBox="0 0 80 89" fill="none" xmlns="http://www.w3.org/2000/svg">
<path d="M26.1438 88.0376H25.5538C25.0238 88.0376 24.1138 87.5676 24.1138 87.0376L24.5837 65.4076C24.5837 64.8776 25.0238 64.4376 25.5538 64.4376H26.1438C26.6738 64.4376 27.1138 64.8776 27.1138 65.4076L27.5238 87.0376C27.5238 87.5676 26.6738 88.0376 26.1438 88.0376Z" fill="#3E1E14"/>
<path d="M18.8138 88.0376H18.2238C17.6938 88.0376 16.8237 87.6276 16.8237 87.0976L17.2638 65.4076C17.2638 64.8776 17.7038 64.4376 18.2338 64.4376H18.8237C19.3537 64.4376 19.7938 64.8776 19.7938 65.4076L20.1838 87.0376C20.1838 87.5676 19.3637 88.0376 18.8337 88.0376H18.8138Z" fill="#3E1E14"/>
<path d="M66.0638 88.0376H65.4738C64.9438 88.0376 64.0338 87.5676 64.0338 87.0376L64.5038 65.4076C64.5038 64.8776 64.9438 64.4376 65.4738 64.4376H66.0638C66.5938 64.4376 67.0338 64.8776 67.0338 65.4076L67.4437 87.0376C67.4437 87.5676 66.5938 88.0376 66.0638 88.0376Z" fill="#3E1E14"/>
<path d="M58.7438 88.0376H58.1538C57.6238 88.0376 56.7538 87.6276 56.7538 87.0976L57.1937 65.4076C57.1937 64.8776 57.6338 64.4376 58.1638 64.4376H58.7538C59.2838 64.4376 59.7238 64.8776 59.7238 65.4076L60.1138 87.0376C60.1138 87.5676 59.2938 88.0376 58.7638 88.0376H58.7438Z" fill="#3E1E14"/>
<path d="M8.54388 15.9777C11.3839 8.12766 18.7538 5.73766 25.5738 10.5577C25.6638 10.6177 25.7438 10.6777 25.8338 10.7477C31.6538 15.0177 30.7538 24.8477 33.5938 26.1777C36.4338 27.5077 54.0438 22.6277 67.8638 26.9777C81.6838 31.3277 88.3738 65.4377 60.9838 72.8177C35.1338 79.7877 1.72388 78.9177 1.66388 42.9377C1.64388 30.6777 6.71388 21.0377 8.54388 15.9777Z" fill="white"/>
<path d="M17.7538 31.5976C11.1638 31.1976 3.23383 3.83762 19.3938 4.82762C33.0538 5.65762 23.5138 31.9476 17.7538 31.5976Z" fill="#3E1E14"/>
<path d="M22.9338 9.47756C22.9338 9.47756 28.3937 4.05756 38.0837 7.16756C38.6937 7.36756 38.7638 8.20756 38.1838 8.49756C35.3638 9.88756 28.8438 12.4076 22.9338 9.48757V9.47756Z" fill="#3E1E14"/>
<path d="M12.8437 10.4276C12.8437 10.4276 4.97383 10.4476 0.433835 1.1076C0.223835 0.6876 0.633728 0.2176 1.07373 0.3576C3.79373 1.1976 10.6737 3.9276 12.8337 10.4176L12.8437 10.4276Z" fill="#3E1E14"/>
<path d="M17.3338 30.6775C17.2738 30.7275 15.9838 29.2575 16.1338 29.1475C16.2938 29.0275 17.3938 30.6275 17.3338 30.6775Z" fill="white"/>
<path d="M18.2838 30.7376C18.3338 30.7876 19.7938 29.4976 19.6638 29.3676C19.5238 29.2276 18.2338 30.6876 18.2838 30.7376Z" fill="white"/>
<path d="M15.2037 16.0276C15.1737 16.4576 14.8037 16.7876 14.3837 16.7576C13.9537 16.7276 13.6237 16.3576 13.6537 15.9376C13.6837 15.5076 14.0537 15.1776 14.4737 15.2076C14.9037 15.2376 15.2337 15.6076 15.2037 16.0276Z" fill="white"/>
<path d="M22.2838 16.2677C22.2538 16.6977 21.8837 17.0276 21.4637 16.9976C21.0337 16.9676 20.7037 16.5976 20.7337 16.1776C20.7637 15.7576 21.1338 15.4176 21.5538 15.4476C21.9838 15.4776 22.3138 15.8477 22.2838 16.2677Z" fill="white"/>
</svg>
