<svg width="450" height="164" viewBox="0 0 450 164" fill="none" xmlns="http://www.w3.org/2000/svg">
<path d="M44.579 136.488C47.4031 129.683 41.2114 120.647 30.7493 116.305C20.2872 111.962 9.51656 113.959 6.6924 120.763C3.86824 127.568 10.06 136.604 20.5221 140.947C30.9842 145.289 41.7548 143.292 44.579 136.488Z" fill="white"/>
<path d="M20.5832 158.524C22.4208 154.096 19.4238 148.645 13.8893 146.348C8.35473 144.051 2.37841 145.778 0.540797 150.206C-1.29681 154.633 1.70015 160.085 7.2347 162.382C12.7693 164.679 18.7456 162.952 20.5832 158.524Z" fill="white"/>
<path d="M449.267 62.94C449.267 41.57 431.947 24.25 410.577 24.25C405.767 24.25 401.157 25.14 396.907 26.74C387.357 20.15 375.777 16.28 363.297 16.28C362.027 16.28 360.767 16.33 359.527 16.41C352.527 6.49 340.977 0 327.907 0C314.837 0 303.787 6.21 296.747 15.77C289.217 12.43 280.897 10.55 272.127 10.55C263.817 10.55 255.907 12.22 248.697 15.24C241.797 8.86 232.577 4.96 222.437 4.96C212.297 4.96 203.477 8.69 196.637 14.83C186.347 8.34 174.167 4.57 161.107 4.57C150.917 4.57 141.257 6.87 132.617 10.95C124.907 4.14 114.797 0 103.707 0C84.5268 0 68.2468 12.38 62.3868 29.58C60.3668 29.26 58.3068 29.08 56.1968 29.08C34.8268 29.08 17.5068 46.4 17.5068 67.77C17.5068 89.14 34.8268 106.46 56.1968 106.46C56.2968 106.46 56.4068 106.46 56.5068 106.46C58.8868 125.55 75.1568 140.32 94.8868 140.32C106.617 140.32 117.117 135.09 124.217 126.85C134.787 133.88 147.457 137.98 161.097 137.98C175.527 137.98 188.877 133.38 199.797 125.59C207.797 134.72 219.537 140.5 232.637 140.5C243.037 140.5 252.577 136.86 260.077 130.79C263.977 131.57 267.997 131.99 272.127 131.99C279.657 131.99 286.857 130.61 293.507 128.11C301.367 135.77 312.107 140.5 323.957 140.5C333.077 140.5 341.537 137.7 348.537 132.92C353.257 134.13 358.197 134.77 363.297 134.77C372.637 134.77 381.467 132.6 389.327 128.75C394.407 132.07 400.487 134.01 407.007 134.01C424.887 134.01 439.387 119.51 439.387 101.63C439.387 97.8 438.717 94.12 437.497 90.71C444.747 83.68 449.267 73.84 449.267 62.94Z" fill="white"/>
</svg>
