<svg width="1920" height="420" viewBox="0 0 1920 420" fill="none" xmlns="http://www.w3.org/2000/svg">
<path d="M1919.5 292.278C1796.83 216.632 1684.92 249.962 1591.16 277.885C1561.89 286.602 1534.39 294.793 1508.89 298.976C1378.61 320.343 1297.84 289.572 1214.95 257.994C1131.06 226.039 1045.01 193.257 903.305 212.839C695.922 241.492 604.156 181.826 506.913 118.599C436.974 73.1245 364.202 25.8083 243.547 8.18374C115.188 -10.5635 39.3609 6.6111 0 22.6146V419.502H1919.5V292.278Z" fill="#7DA2EA"/>
<path d="M213.444 119.359C80.371 109.863 24.4936 128.846 0 135.839V420H1920V359.572C1901 346.086 1888.21 316.045 1766.04 301.142C1594.08 280.165 1473.12 344.588 1299.16 325.111C1198.91 313.887 1129.21 248.205 1015.74 232.224C902.265 216.243 815.071 253.813 694.319 242.212C486.373 222.234 420.89 134.162 213.444 119.359Z" fill="#4A4AAF"/>
</svg>
