<svg width="723" height="164" viewBox="0 0 723 164" fill="none" xmlns="http://www.w3.org/2000/svg">
<path d="M30.75 116.3C20.29 111.96 9.51998 113.95 6.68998 120.76C3.85998 127.57 10.06 136.6 20.52 140.95C30.98 145.3 41.75 143.3 44.58 136.49C47.41 129.68 41.21 120.65 30.75 116.3Z" fill="white"/>
<path d="M13.89 146.36C8.35998 144.06 2.37998 145.79 0.549983 150.22C-1.29002 154.65 1.70998 160.1 7.23998 162.4C12.77 164.7 18.75 162.97 20.58 158.54C22.42 154.11 19.42 148.66 13.89 146.36Z" fill="white"/>
<path d="M722.17 62.94C722.17 41.57 704.85 24.25 683.48 24.25C678.67 24.25 674.06 25.14 669.81 26.74C660.63 20.4 649.58 16.6 637.65 16.31C630.64 6.44 619.12 0 606.1 0C594.1 0 583.37 5.47 576.28 14.04C567.77 10.07 558.29 7.84 548.27 7.84C537.1 7.84 526.58 10.61 517.34 15.49C508.64 10.62 498.62 7.84 487.94 7.84C476.14 7.84 465.14 11.24 455.84 17.1C450.11 11.03 441.99 7.23 432.97 7.23C425.81 7.23 419.2 9.63 413.91 13.66C405.75 9.85 396.65 7.71 387.05 7.71C374.58 7.71 362.96 11.32 353.14 17.52C346.04 9.06 335.4 3.68 323.49 3.68C312.64 3.68 302.84 8.15 295.81 15.35C288.53 12.26 280.52 10.55 272.11 10.55C263.7 10.55 255.89 12.22 248.68 15.24C241.78 8.86 232.56 4.96 222.42 4.96C212.28 4.96 203.46 8.69 196.62 14.83C186.33 8.34 174.15 4.57 161.09 4.57C150.9 4.57 141.24 6.87 132.6 10.95C124.91 4.14 114.8 0 103.71 0C84.53 0 68.25 12.38 62.39 29.58C60.37 29.26 58.31 29.08 56.2 29.08C34.83 29.08 17.51 46.4 17.51 67.77C17.51 89.14 34.83 106.46 56.2 106.46C56.3 106.46 56.41 106.46 56.51 106.46C58.89 125.55 75.16 140.32 94.89 140.32C106.62 140.32 117.12 135.09 124.22 126.85C134.79 133.88 147.46 137.98 161.1 137.98C175.53 137.98 188.88 133.38 199.8 125.59C207.8 134.72 219.54 140.5 232.64 140.5C243.04 140.5 252.58 136.86 260.08 130.79C263.98 131.57 268 131.99 272.13 131.99C277.86 131.99 283.4 131.18 288.65 129.7C296.33 136.42 306.37 140.5 317.38 140.5C331.23 140.5 343.56 134.04 351.55 123.99C361.69 130.83 373.91 134.83 387.06 134.83C399.35 134.83 410.81 131.33 420.54 125.3C428.55 134.64 440.42 140.56 453.68 140.56C465.43 140.56 476.08 135.91 483.93 128.36C485.26 128.45 486.59 128.51 487.94 128.51C494.38 128.51 500.58 127.49 506.4 125.62C517.82 134.92 532.39 140.51 548.26 140.51C559.26 140.51 569.63 137.81 578.77 133.07C584.79 136.2 591.63 137.99 598.89 137.99C606.56 137.99 613.76 136.01 620.02 132.53C625.16 133.99 630.58 134.78 636.19 134.78C645.53 134.78 654.36 132.61 662.22 128.76C667.3 132.08 673.38 134.02 679.9 134.02C697.78 134.02 712.28 119.52 712.28 101.64C712.28 97.81 711.61 94.13 710.39 90.72C717.64 83.69 722.16 73.85 722.16 62.95L722.17 62.94Z" fill="white"/>
</svg>
