<svg width="253" height="92" viewBox="0 0 253 92" fill="none" xmlns="http://www.w3.org/2000/svg">
<path d="M25.0069 76.5642C26.5912 72.747 23.1178 67.678 17.249 65.2423C11.3802 62.8065 5.3383 63.9264 3.75405 67.7436C2.16981 71.5607 5.64314 76.6297 11.512 79.0655C17.3808 81.5012 23.4227 80.3813 25.0069 76.5642Z" fill="#4A4AAF"/>
<path d="M11.5462 88.9257C12.5771 86.442 10.8959 83.3839 7.79122 82.0954C4.68655 80.8069 1.33407 81.7758 0.303244 84.2595C-0.727584 86.7432 0.953597 89.8013 4.05826 91.0898C7.16293 92.3783 10.5154 91.4094 11.5462 88.9257Z" fill="#4A4AAF"/>
<path d="M252.021 35.3069C252.021 23.3191 242.305 13.6033 230.317 13.6033C227.619 13.6033 225.033 14.1026 222.649 15.0001C217.292 11.3034 210.796 9.13244 203.795 9.13244C203.083 9.13244 202.376 9.16049 201.68 9.20536C197.754 3.64063 191.274 0 183.943 0C176.611 0 170.412 3.48357 166.463 8.84635C162.239 6.97274 157.572 5.91814 152.652 5.91814C147.991 5.91814 143.554 6.85494 139.509 8.54904C135.638 4.97011 130.466 2.78236 124.778 2.78236C119.09 2.78236 114.142 4.87475 110.305 8.31905C104.533 4.67841 97.7006 2.56359 90.3744 2.56359C84.6583 2.56359 79.2394 3.8538 74.3927 6.14252C70.0677 2.32238 64.3964 0 58.1753 0C47.4161 0 38.2836 6.94469 34.9964 16.5932C33.8633 16.4137 32.7077 16.3127 31.5241 16.3127C19.5363 16.3127 9.82049 26.0286 9.82049 38.0163C9.82049 50.004 19.5363 59.7199 31.5241 59.7199C31.5802 59.7199 31.6419 59.7199 31.698 59.7199C33.033 70.4286 42.1599 78.714 53.2276 78.714C59.8077 78.714 65.6978 75.7802 69.6806 71.1579C75.61 75.1014 82.7173 77.4014 90.3688 77.4014C98.4635 77.4014 105.952 74.8209 112.078 70.451C116.566 75.5726 123.151 78.815 130.5 78.815C136.334 78.815 141.686 76.7731 145.893 73.368C148.08 73.8056 150.336 74.0412 152.652 74.0412C156.876 74.0412 160.915 73.2671 164.646 71.8647C169.055 76.1616 175.079 78.815 181.727 78.815C186.843 78.815 191.589 77.2443 195.515 74.5629C198.163 75.2417 200.934 75.6007 203.795 75.6007C209.034 75.6007 213.988 74.3834 218.397 72.2237C221.247 74.0861 224.657 75.1743 228.315 75.1743C238.345 75.1743 246.479 67.0404 246.479 57.0104C246.479 54.8619 246.103 52.7976 245.418 50.8847C249.485 46.9412 252.021 41.4213 252.021 35.3069Z" fill="#4A4AAF"/>
</svg>
