<svg width="573" height="164" viewBox="0 0 573 164" fill="none" xmlns="http://www.w3.org/2000/svg">
<path d="M44.5647 136.484C47.3888 129.679 41.1971 120.643 30.735 116.301C20.2729 111.958 9.50226 113.955 6.6781 120.759C3.85393 127.564 10.0457 136.6 20.5078 140.942C30.9699 145.285 41.7405 143.288 44.5647 136.484Z" fill="#4A4AAF"/>
<path d="M13.8817 146.36C8.35168 144.06 2.37168 145.79 0.541682 150.22C-1.29832 154.65 1.70168 160.1 7.23168 162.4C12.7617 164.7 18.7417 162.97 20.5717 158.54C22.4117 154.11 19.4117 148.66 13.8817 146.36Z" fill="#4A4AAF"/>
<path d="M572.182 62.94C572.182 41.57 554.862 24.25 533.492 24.25C528.682 24.25 524.072 25.14 519.822 26.74C510.642 20.4 499.592 16.6 487.662 16.31C480.652 6.44 469.132 0 456.112 0C443.092 0 432.172 6.1 425.112 15.54C414.622 8.85 402.172 4.96 388.802 4.96C375.432 4.96 362.422 9.03 351.782 15.99C344.722 8.42 334.662 3.68 323.492 3.68C312.322 3.68 302.842 8.15 295.812 15.35C288.532 12.26 280.522 10.55 272.112 10.55C263.702 10.55 255.892 12.22 248.682 15.24C241.782 8.86 232.562 4.96 222.422 4.96C212.282 4.96 203.462 8.69 196.622 14.83C186.332 8.34 174.152 4.57 161.092 4.57C150.902 4.57 141.242 6.87 132.602 10.95C124.902 4.14 114.792 0 103.702 0C84.5217 0 68.2417 12.38 62.3817 29.58C60.3617 29.26 58.3017 29.08 56.1917 29.08C34.8217 29.08 17.5017 46.4 17.5017 67.77C17.5017 89.14 34.8217 106.46 56.1917 106.46C56.2917 106.46 56.4017 106.46 56.5017 106.46C58.8817 125.55 75.1517 140.32 94.8817 140.32C106.612 140.32 117.112 135.09 124.212 126.85C134.782 133.88 147.452 137.98 161.092 137.98C175.522 137.98 188.872 133.38 199.792 125.59C207.792 134.72 219.532 140.5 232.632 140.5C243.032 140.5 252.572 136.86 260.072 130.79C263.972 131.57 267.992 131.99 272.122 131.99C277.852 131.99 283.392 131.18 288.642 129.7C296.322 136.42 306.362 140.5 317.372 140.5C329.692 140.5 340.812 135.39 348.752 127.18C359.972 135.44 373.822 140.32 388.822 140.32C400.532 140.32 411.552 137.34 421.162 132.1C428.372 137.37 437.262 140.49 446.892 140.49C456.012 140.49 464.472 137.69 471.472 132.91C476.192 134.12 481.132 134.76 486.232 134.76C495.572 134.76 504.402 132.59 512.262 128.74C517.342 132.06 523.422 134 529.942 134C547.822 134 562.322 119.5 562.322 101.62C562.322 97.79 561.652 94.11 560.432 90.7C567.682 83.67 572.202 73.83 572.202 62.93L572.182 62.94Z" fill="#4A4AAF"/>
</svg>
