<svg width="459" height="405" viewBox="0 0 459 405" fill="none" xmlns="http://www.w3.org/2000/svg">
<path d="M212.98 100.6C210.86 91.8701 208.69 83.1101 205.09 74.8601C201.39 66.3701 196.7 58.5301 193.27 49.8801C189.68 40.8401 185.05 32.3101 180.09 23.9601C175.6 16.4101 170.62 7.81006 162.66 3.20006C152.36 -2.76994 140.22 1.08006 129.39 3.20006C120.91 4.86006 112.51 6.92006 104.19 9.24006C87.17 13.9701 70.47 19.7501 53.76 25.4401C44.18 28.7001 34.6 31.9701 25.02 35.2301C17.74 37.7101 6.76999 38.9701 1.92 45.7201C0.289995 47.9801 0.0499952 50.9401 -4.83636e-06 53.7401C-0.270005 72.7901 6.86 91.9001 12.81 109.75C16.34 120.33 20.58 130.68 25.5 140.7C29.69 149.23 34.63 162.6 42.96 167.95C46.85 170.45 52.38 169.52 56.72 169.29C62.23 169 67.73 168.44 73.18 167.61C90.54 164.95 108.42 159.74 125.09 154.25C138.6 149.79 151.81 144.4 164.57 138.12C174.99 132.99 186.49 127.7 195.84 120.74C202.05 116.11 208.33 111.21 212.12 104.32C212.38 103.85 212.48 103.39 212.49 102.94C212.96 102.36 213.19 101.58 212.96 100.62L212.98 100.6Z" fill="#FFE2CC"/>
<path d="M131.43 118.16C131.5 117.48 131.29 116.77 130.68 116.14C122.77 108.1 111.98 103.67 100.82 103.83C99.7001 100.13 97.8801 96.8701 94.8601 94.5801C96.5101 91.5301 95.8601 87.5701 92.4001 85.6301C90.3101 84.4601 87.5101 84.5801 85.7501 86.2801C84.3101 87.6701 83.8201 89.5101 83.9301 91.3801C79.1601 91.5801 74.3801 93.4701 70.9001 96.6001C69.3801 97.9701 68.4601 99.5801 67.5401 101.37C67.6601 101.14 64.9201 100.98 64.6801 101.02C63.6201 101.17 62.5901 101.63 61.7801 102.32C59.9401 103.87 59.3101 106.49 59.5901 108.8C59.9501 111.73 61.7601 114.84 64.7601 115.69C66.3201 116.13 67.7501 115.86 69.0301 115.22C70.3801 117.48 72.21 119.31 74.34 120.68C71.05 133.38 71.8101 146.76 76.6201 159.05C77.3301 160.87 79.3301 161.15 80.6501 160.45C91.9401 161.07 104.18 156.31 112.9 149.4C122.01 142.17 127.19 130.17 131.32 119.62C131.53 119.07 131.55 118.59 131.44 118.17L131.43 118.16Z" fill="#E6B1D4"/>
<path d="M101.68 62.9902C99.5799 60.3702 96.7399 58.3202 93.3999 57.2202C90.8299 56.3802 89.1399 59.1902 89.9799 61.0702C88.2599 64.4502 87.8799 68.4802 89.3499 71.9802C89.6599 72.7402 90.0699 73.4702 90.5599 74.1702C93.6299 78.5002 99.3099 79.9002 104.12 77.9502C105 77.5902 105.59 76.6002 105.67 75.6902C106.01 71.0202 104.5 66.4902 101.68 62.9902Z" fill="#974A30"/>
<path d="M142.76 75.3499C146.48 69.8299 148.17 63.5099 145.25 56.2299C137.47 36.8399 106.25 37.2399 95.86 54.1299C90.81 62.3399 94.3 72.6099 97.47 80.8699C101.14 90.4399 102.35 101.38 112.37 106.69C120.19 110.84 129.7 104.38 136.97 99.9699C145.11 95.0299 143.24 79.2399 142.77 75.3699L142.76 75.3499Z" fill="#FF8F5C"/>
<path d="M140.1 39.6803C139.72 39.6403 139.35 39.6103 138.96 39.6103C138.74 39.1303 138.49 38.6703 138.2 38.2403C134.14 32.2903 123.17 32.3203 117.57 37.5403C117.24 37.8503 116.93 38.1703 116.64 38.5103C115.81 38.2503 114.95 38.0303 114.05 37.8603C105.61 36.2403 94.57 38.6703 92.24 46.6403C92.11 47.1103 91.99 47.6203 91.92 48.1303C91.67 48.1503 91.43 48.1603 91.18 48.1903C87.23 48.5903 83.43 50.3203 80.67 53.2203C76.39 57.7203 76.14 64.5403 81.48 68.5403C84.08 70.4803 87.77 70.8003 91.26 70.1903C93.65 69.7803 95.95 68.9503 97.74 67.9203C99.39 66.9703 100.85 65.7403 102.01 64.2403C102.75 63.3003 103.17 62.2503 103.58 61.2003C104.02 60.0403 104.42 58.8803 105.11 57.8403C105.44 57.3503 105.82 56.9103 106.23 56.5103C106.66 56.1003 107.13 55.7303 107.64 55.4303C112.04 52.6603 119.07 53.1803 123.35 54.6803C123.41 54.7003 123.48 54.7303 123.54 54.7503C123.81 54.8503 124.08 54.8903 124.33 54.9103C124.4 55.2803 124.47 55.6503 124.56 56.0103C125.46 60.1803 127.18 64.4103 130.48 66.8303C131.38 67.4903 132.64 68.1603 133.94 68.5303C134.72 68.7603 135.54 68.8903 136.29 68.8403C136.73 68.8403 137.15 68.7503 137.54 68.6003C137.72 68.5303 137.91 68.4803 138.1 68.4203C138.21 68.6303 138.35 68.8603 138.53 69.1403C138.96 71.2103 140.38 73.4803 141.22 75.4303C141.99 77.2303 145.05 77.4103 145.96 75.6303C147.17 73.2603 147.91 71.0003 148.33 68.4003C156.14 59.7603 152.76 40.9803 140.09 39.6703L140.1 39.6803Z" fill="#974A30"/>
<path d="M96.79 123.72C91.65 120.97 83.4 117.51 79.35 123.73C79 124.27 78.87 124.81 78.9 125.32C78.06 125.34 77.21 125.38 76.37 125.46C71.87 125.86 63.7 126.95 63.49 132.83C63.46 133.75 63.82 134.51 64.42 135.02C63.3 135.7 62.47 136.59 62.2 137.82C61.55 140.73 63.32 141.79 65.47 142.09C64.89 142.62 64.41 143.23 64.06 143.95C63.66 144.78 63.97 145.9 64.53 146.56C66.69 149.13 69.88 148.44 72.93 148.25C78.3 147.9 83.23 148.84 88.42 150.16C89.1 150.33 89.72 150.24 90.24 150C91.32 150.78 92.95 150.88 94 149.52C97.54 144.93 101.93 139.39 103.7 133.79C105.17 129.13 100.57 125.77 96.96 123.83C96.9 123.8 96.84 123.77 96.78 123.73L96.79 123.72Z" fill="#FF8F5C"/>
<path d="M138.56 49.8102C142.6 55.2602 141.27 62.6702 136.26 66.7102C136.63 66.9702 136.99 67.2302 137.32 67.5402C137.48 67.6002 137.64 67.6402 137.8 67.6902C142.07 63.9702 143.89 58.0502 141.93 52.4502C141.34 50.7702 140.43 49.2102 139.27 47.8702C138.49 46.9802 138.33 46.7702 138.8 45.6302C139.13 44.8302 139.5 44.0602 139.71 43.2202C140.02 42.0402 140.15 40.8502 140.11 39.6802C139.73 39.6402 139.36 39.6102 138.97 39.6102C138.75 39.1302 138.5 38.6702 138.21 38.2402C138.54 40.2202 138.34 42.2802 137.52 44.2102C137.07 45.2602 136.25 46.1502 136.64 47.3402C136.95 48.3102 137.96 49.0102 138.55 49.8002L138.56 49.8102Z" fill="#662C1A"/>
<path d="M140.94 63.8298C136.98 60.2598 134.78 68.7098 134.71 71.8898C134.66 74.1498 135.87 77.5098 137.35 78.9398C138.63 80.1798 140.49 78.9398 141 77.3698C141.75 75.0598 142.22 72.5998 142.32 70.1198C142.41 67.9998 142.51 65.2398 140.95 63.8398L140.94 63.8298Z" fill="#FF8F5C"/>
<path d="M449.44 299.43C441.42 289.62 431.95 281.18 422.1 273.22C421.41 272.66 421.02 271.85 420.99 270.96C420.84 266.54 420.15 262.12 418.87 257.81C415.62 246.88 409.35 237.02 403.82 227.14C391.74 205.58 381.41 182.8 366.56 163.04C352.13 143.84 336.78 125.04 319.62 108.69C315.89 105.12 312.06 101.67 308.14 98.3603C283.86 77.8403 255.97 62.5603 222.29 57.5003C208.6 55.4403 194.77 55.4203 180.97 56.1103C160.76 57.1403 139.62 66.5702 131.44 85.2102C131.29 85.5502 131.07 85.8702 130.8 86.1302C123.5 93.2302 117.74 101.89 114.12 111.57C113.92 112.12 113.56 112.59 113.09 112.94C96.0499 125.45 79.4 138.68 66.37 155.47C60 163.67 53.45 173.91 49.58 184.72C46.64 192.9 45.24 201.41 46.61 209.63C46.79 210.71 47.02 211.78 47.2999 212.85C47.66 214.23 47.0399 215.68 45.7599 216.31C39.8899 219.22 34.22 222.5 28.99 226.28C19.09 233.43 11.84 243.95 13.39 256.65C14.89 268.88 24.13 277.09 34.86 281.83C47.96 287.61 62.64 290.11 76.62 292.85C87.81 295.05 99.03 297.17 110.02 300.16C112.27 300.77 114.38 301.76 116.25 303.13C121.09 306.69 125.65 310.62 129.79 315.07C142.42 328.66 158.36 341.29 173.11 352.48C186.19 362.41 198.3 373.56 211.12 383.82C224.47 394.51 237.73 405.05 255.65 404.96C292.75 404.78 317.82 372.9 349.49 358.75C367.11 350.89 386.58 352.56 405.3 353.73C422.61 354.81 440.09 352.27 452.7 339.24C463.41 328.16 458.08 309.97 449.45 299.42L449.44 299.43Z" fill="#6369BA"/>
<path d="M135.83 84.6303C143.67 78.1603 153.32 74.1603 163.44 73.1903C164.44 73.0903 164.45 71.5203 163.44 71.6203C152.87 72.6403 142.91 76.7603 134.72 83.5203C133.94 84.1603 135.06 85.2703 135.83 84.6303Z" fill="#1E2047"/>
<path d="M341.23 295.79C339.88 295.46 338.53 295.12 337.19 294.79C337.11 293.54 336.91 292.3 336.54 291.08C336.16 289.84 334.15 288.91 333.37 290.41C332.34 292.39 331.3 294.37 330.27 296.35C327.92 297.79 325.7 299.42 323.66 301.28C323.29 301.62 323.68 302.21 324.14 302.01L325.43 301.46C325.43 301.73 325.62 301.99 325.93 301.89C325.97 301.88 326 301.86 326.04 301.85C327.75 301.28 329.41 300.64 331.05 299.93C331.6 300 332.21 299.85 332.56 299.43C332.62 299.43 332.68 299.45 332.75 299.45C333.66 299.45 334.5 299.29 335.32 298.86C335.53 298.75 335.71 298.6 335.86 298.42C336.16 298.37 336.44 298.25 336.67 298.06C338.26 297.75 339.8 297.26 341.29 296.59C341.61 296.44 341.62 295.87 341.25 295.78L341.23 295.79Z" fill="white"/>
<path d="M115.54 113.84C138.13 101.37 164.16 93.9501 190.06 97.7801C197.26 98.8401 204.3 100.78 211.02 103.58C211.95 103.97 212.36 102.45 211.44 102.06C186.91 91.8401 159.2 93.8801 134.73 103.16C127.85 105.77 121.19 108.92 114.75 112.48C113.86 112.97 114.66 114.33 115.54 113.84Z" fill="#1E2047"/>
<path d="M400.69 281.19C374.86 284.31 350.24 293 325.64 301.04C301.04 309.08 275.75 316.77 249.63 316.79C236.49 316.79 222.44 315.31 210.87 308.6C201.12 302.94 194.26 293.73 187 285.35C179.79 277.03 171.8 269.48 161.01 266.27C148.56 262.56 135.36 264.03 122.6 262.52C97.15 259.49 76.21 242.97 57.71 226.47C55.37 224.38 53.05 222.28 50.73 220.17C49.98 219.49 48.87 220.6 49.62 221.28C67.66 237.71 86.94 255.07 110.99 261.8C123.54 265.32 136.44 264.39 149.28 265.68C155.92 266.34 162.54 267.8 168.43 271.04C173.3 273.72 177.49 277.41 181.32 281.4C189 289.43 195.34 298.8 204.07 305.79C213.92 313.69 226.23 316.84 238.61 317.9C264.43 320.12 289.93 313.92 314.4 306.3C339.62 298.44 364.46 288.88 390.57 284.27C393.94 283.68 397.32 283.17 400.71 282.76C401.7 282.64 401.71 281.07 400.71 281.19H400.69Z" fill="#1E2047"/>
<path d="M383.75 304.02C380.59 311.12 374.37 315.93 367.73 319.61C360.17 323.79 352.02 327.08 343.8 329.71C327.07 335.06 309.11 337.11 291.81 333.41C282.45 331.41 273.51 327.77 265.56 322.42C264.72 321.85 263.93 323.21 264.77 323.78C295.34 344.37 335.61 338.08 366.65 321.97C374.2 318.05 381.55 312.82 385.11 304.82C385.52 303.9 384.16 303.1 383.75 304.03V304.02Z" fill="#1E2047"/>
<path d="M372.58 334.95C369.18 341.59 363.98 347.01 357.49 350.69C356.61 351.19 357.4 352.55 358.28 352.05C364.99 348.26 370.42 342.61 373.93 335.75C374.39 334.85 373.03 334.05 372.57 334.96L372.58 334.95Z" fill="#1E2047"/>
<path d="M92.47 260.82C95.01 275.28 102.29 288.66 113.04 298.65C113.78 299.34 114.89 298.23 114.15 297.54C103.57 287.71 96.48 274.62 93.98 260.4C93.81 259.41 92.29 259.83 92.46 260.82H92.47Z" fill="#1E2047"/>
<path d="M127.74 220.88C131.68 235.07 139.13 248.08 149.37 258.66C150.07 259.39 151.19 258.28 150.48 257.55C140.42 247.16 133.12 234.39 129.25 220.46C128.98 219.49 127.46 219.9 127.73 220.88H127.74Z" fill="#1E2047"/>
<path d="M341.62 186.39C348.19 195.4 348.41 207.18 346.43 217.76C344.47 228.22 340.56 238.25 335.19 247.42C324.01 266.52 306.87 281.34 287.31 291.42C275.87 297.32 263.68 301.61 251.18 304.64C250.2 304.88 250.61 306.39 251.6 306.16C274.17 300.69 295.97 290.93 313.63 275.64C330.2 261.3 342.9 241.9 347.52 220.33C350 208.76 350.27 195.57 342.99 185.59C342.4 184.78 341.04 185.56 341.63 186.38L341.62 186.39Z" fill="#1E2047"/>
<path d="M341.12 274.84C339.35 280.29 334.21 283.43 329.41 285.96C323.67 288.99 317.58 292.03 310.92 291.7C309.91 291.65 309.91 293.22 310.92 293.27C318.03 293.62 324.61 290.31 330.71 287.04C335.74 284.34 340.78 280.93 342.63 275.25C342.94 274.29 341.43 273.87 341.11 274.83L341.12 274.84Z" fill="#1E2047"/>
<path d="M120.07 73.29C118.7 75.37 116.61 76.76 114.07 77.22C113.04 77.41 113.07 78.64 113.77 79.04C113.87 79.21 114.02 79.35 114.23 79.46C115.83 80.25 117.71 79.84 119.08 78.83C120.6 77.7 121.3 75.88 121.91 74.2C122.28 73.17 120.72 72.32 120.08 73.29H120.07Z" fill="#30201A"/>
<path d="M104.79 81.1802C103.79 82.0502 101.95 82.4102 100.9 81.5802C99.83 80.7302 99.3 81.9902 99.42 82.8602C99.63 84.3802 101.76 85.3402 103.23 85.2202C105.04 85.0702 106.35 83.6502 106.53 82.0202C106.62 81.2002 105.46 80.6102 104.79 81.1902V81.1802Z" fill="#30201A"/>
<path d="M124.57 56.01C124.48 55.64 124.41 55.27 124.34 54.91C124.09 54.89 123.82 54.85 123.55 54.75C123.49 54.73 123.42 54.7 123.36 54.68C125.85 51.36 123.39 46.06 121.21 43.12C119.37 40.63 116.89 38.8 114.06 37.86C114.96 38.03 115.82 38.25 116.65 38.51C116.94 38.17 117.25 37.85 117.58 37.54C119.94 38.92 121.96 40.91 123.47 43.32C125.74 46.97 127.54 52.4 124.58 56.02L124.57 56.01Z" fill="#662C1A"/>
<path d="M107.65 55.4401C107.14 55.7401 106.67 56.1101 106.24 56.5201C103.68 52.4001 98.5699 50.3801 93.5699 52.1301C93.0299 52.3201 92.4699 52.1001 92.3299 51.5001C92.0799 50.4801 91.7299 49.2501 91.1799 48.1901C91.4299 48.1601 91.6699 48.1401 91.9199 48.1301C91.9999 47.6201 92.1099 47.1101 92.2399 46.6401C92.9399 47.7201 93.4499 49.0001 93.7999 50.2401C99.2599 48.7801 104.77 50.9701 107.65 55.4401Z" fill="#662C1A"/>
<path d="M149.45 64.7002C146.63 66.4402 144.16 68.6202 142.1 71.2202C141.48 72.0002 142.58 73.1202 143.21 72.3302C145.19 69.8302 147.53 67.7302 150.24 66.0502C151.1 65.5202 150.31 64.1602 149.45 64.6902V64.7002Z" fill="#1E2047"/>
<path d="M73.8199 64.7399C60.9899 59.9399 46.8799 59.3899 33.7099 63.1299C32.7399 63.4099 33.1499 64.9199 34.1299 64.6499C47.0499 60.9799 60.83 61.5499 73.41 66.2599C74.36 66.6099 74.7699 65.0999 73.8299 64.7399H73.8199Z" fill="#1E2047"/>
<path d="M60.12 74.3002C52.16 76.1702 44.9 80.1602 39.03 85.8602C38.3 86.5702 39.42 87.6802 40.14 86.9702C45.82 81.4502 52.82 77.6302 60.53 75.8102C61.51 75.5802 61.1 74.0602 60.11 74.2902L60.12 74.3002Z" fill="#1E2047"/>
<path d="M103.29 76.4202C106.61 77.5302 107.53 82.0002 108.71 84.9302C109.08 85.8602 110.6 85.4502 110.23 84.5102C108.81 80.9802 107.73 76.2502 103.71 74.9002C102.75 74.5802 102.34 76.0902 103.29 76.4202Z" fill="#BA6138"/>
<path d="M120.35 66.4C119.33 65.86 117.77 65.7 116.95 65.73C114.21 65.83 111.09 67.1 109.72 69.61C108.42 71.98 110.84 73.6 112.9 72.37C114.56 71.38 115.72 70.01 117.75 69.67C118.91 69.48 120.39 69.84 121.08 68.61C121.67 67.54 121.2 66.83 120.36 66.39L120.35 66.4Z" fill="#974A30"/>
<path d="M103.57 74.7401C103.48 74.5301 103.35 74.3401 103.2 74.1701C101.93 72.7501 99.4 73.0801 97.93 74.1401C97.2 74.6701 95.43 78.0201 97.82 78.1701C98.8 78.2301 99.41 77.0001 100.44 76.9501C101.33 76.9101 102.82 77.0601 103.45 76.2701C103.82 75.8101 103.8 75.2401 103.58 74.7401H103.57Z" fill="#974A30"/>
<path d="M118.41 85.6202C116.08 87.3402 113.56 88.7802 110.8 89.9302C110.77 89.9402 110.75 89.9702 110.72 89.9802C110.17 90.0202 109.66 90.4202 109.96 90.9502C110.99 92.7502 113.14 93.0602 115.06 91.9502C117.36 90.6202 118.91 88.5702 119.76 86.3502C120 85.7302 118.96 85.2102 118.4 85.6202H118.41Z" fill="#A84D23"/>
<path d="M78.1901 105.12C77.9501 104.02 76.6201 103.19 75.6201 103.98C74.4401 104.9 75.2001 107.24 76.5701 107.59C77.9801 107.95 78.4201 106.16 78.1901 105.12Z" fill="#1E2047"/>
<path d="M86.7799 99.8003C86.3799 98.9503 85.3599 98.2003 84.3799 98.3503C81.4199 98.8203 85.54 104.09 86.87 101.45C87.13 100.94 87.0099 100.3 86.7799 99.8003Z" fill="#1E2047"/>
<path d="M87.37 105.29C86.67 105.85 85.77 106.1 84.88 105.99C84.93 105.35 84.93 104.56 84.57 104.1C84.03 103.42 83.14 103.79 82.53 104.16C81.88 104.55 81.06 105.24 81.46 106.1C81.68 106.59 82.21 106.82 82.73 107C82.86 107.97 81.91 108.63 81.23 109.16C80.33 109.85 81.48 111.19 82.37 110.5C83.32 109.77 84.23 108.85 84.45 107.7C85.91 107.92 87.32 107.57 88.51 106.63C89.4 105.93 88.26 104.59 87.37 105.29Z" fill="#1E2047"/>
<path d="M91.09 87.3498C88.96 86.5598 87.64 88.2998 87.13 90.1298C86.83 91.2198 88.48 91.8198 88.78 90.7298C89.04 89.8098 89.5 88.4198 90.72 89.1098C91.73 89.6898 91.62 91.0698 91.43 92.0298C91.2 93.1398 92.96 93.2698 93.18 92.1698C93.57 90.2898 93.07 88.0798 91.08 87.3398L91.09 87.3498Z" fill="#1E2047"/>
<path d="M66.48 109.8C63.62 109.62 63.87 105.3 66.69 105.88C67.8 106.11 67.93 104.35 66.83 104.13C64.78 103.71 62.8 105.32 62.62 107.37C62.42 109.61 64.15 111.42 66.34 111.55C67.47 111.62 67.61 109.87 66.48 109.8Z" fill="#1E2047"/>
<path d="M124.19 180.83C122.59 178.31 120.4 176.44 117.66 175.34C117.31 175.2 117.08 174.88 117.06 174.51C117.01 173.08 116.9 171.66 116.69 170.24C116.55 169.28 116.44 167.4 115.06 167.37C113.91 167.34 112.6 168.92 111.87 169.65C111.03 170.5 110.27 171.42 109.58 172.4C109.4 172.66 109.1 172.81 108.78 172.8C107.01 172.73 105.24 172.66 103.48 172.59C102.53 172.55 101.06 172.27 100.75 173.48C100.48 174.52 101.3 176.12 101.73 177.03C102.06 177.71 102.45 178.35 102.88 178.96C103.14 179.32 103.08 179.81 102.78 180.13C101.99 180.99 101.29 181.93 100.7 182.95C100.05 184.07 98.63 186.2 99.2 187.53C99.79 188.92 101.76 188.31 102.89 188.13C104.44 187.88 105.96 187.52 107.45 187.08C107.94 186.93 108.45 187.21 108.61 187.7C108.88 188.57 109.18 189.43 109.52 190.28C109.93 191.3 110.36 192.9 111.73 192.87C112.85 192.85 113.76 191.7 114.41 190.92C115.14 190.05 115.95 187.84 116.4 186.49C116.62 185.82 117.13 185.29 117.79 185.04C120.04 184.17 122.03 183.57 123.95 181.89C124.22 181.66 124.38 181.16 124.17 180.84L124.19 180.83Z" fill="white"/>
<path d="M232.24 252.15C230.22 249.76 228.18 249.1 225.54 247.74C225.17 247.55 224.92 247.19 224.87 246.78C224.62 244.72 224.19 241.71 223.85 239.91C223.58 238.48 222.75 237.3 221.16 237.3C219.41 237.3 218.02 239.07 216.89 240.17C215.93 241.11 215.01 242.08 214.09 243.06C213.82 243.36 213.42 243.5 213.02 243.45C210.9 243.2 208.77 243.09 206.64 243.14C204.97 243.19 203.11 243.35 202.53 245.21C202.02 246.82 203 248.96 203.75 250.35C204.17 251.13 204.66 251.84 205.2 252.5C205.53 252.9 205.61 253.44 205.38 253.9C204.48 255.7 203.58 257.5 202.72 259.31C201.83 261.19 201.24 263.25 203.23 264.66C205.86 266.52 209.28 265.47 212.28 263.9C212.99 263.53 213.88 263.88 214.09 264.66C214.31 265.45 214.56 266.23 214.83 267C215.47 268.78 216.44 271.03 218.79 270.42C220.48 269.98 222.07 268.08 222.98 266.67C223.95 265.18 224.78 262.59 225.1 260.65C225.17 260.23 225.46 259.88 225.85 259.71C228.91 258.38 230.99 256.98 232.55 253.89C232.82 253.35 232.6 252.58 232.23 252.15H232.24Z" fill="white"/>
<path d="M322.74 197.99C320.15 196.96 318.28 197.29 315.63 197.32C315.26 197.32 314.91 197.14 314.7 196.84C313.64 195.32 312.05 193.14 311.03 191.86C310.22 190.85 309.08 190.26 307.83 190.93C306.46 191.66 306.1 193.63 305.67 194.97C305.31 196.11 304.98 197.26 304.68 198.41C304.59 198.76 304.34 199.03 304 199.17C302.23 199.86 300.51 200.65 298.86 201.59C297.56 202.32 296.17 203.22 296.49 204.93C296.76 206.4 298.42 207.68 299.59 208.47C300.24 208.91 300.92 209.26 301.63 209.55C302.05 209.72 302.34 210.12 302.35 210.57C302.39 212.36 302.44 214.15 302.52 215.93C302.6 217.78 303 219.64 305.16 219.92C308.01 220.29 310.26 218.03 311.96 215.55C312.37 214.96 313.21 214.87 313.7 215.39C314.2 215.92 314.72 216.43 315.26 216.92C316.51 218.05 318.21 219.42 319.8 217.96C320.95 216.91 321.4 214.75 321.53 213.27C321.67 211.69 321.24 209.31 320.69 207.66C320.57 207.3 320.65 206.9 320.89 206.61C322.74 204.29 323.79 202.32 323.73 199.24C323.72 198.7 323.23 198.19 322.76 198L322.74 197.99Z" fill="white"/>
<path d="M228.3 84.07C226.81 81.56 224.72 79.59 222.13 78.35C221.78 78.18 221.56 77.82 221.62 77.43C221.76 76.4 222.14 72.63 221.36 72.22C221.34 72.15 221.32 72.09 221.29 72.03C220.91 71.24 219.75 70.71 218.94 71.21C217.29 72.22 215.81 73.39 214.46 74.74C214.28 74.91 214.05 75.01 213.8 74.99C211.35 74.85 208.92 75.11 206.56 75.82C205.59 76.11 204.65 77.25 205.31 78.31C205.92 79.31 206.62 80.21 207.42 81.02C207.74 81.34 207.77 81.84 207.5 82.2C206.18 83.92 205.15 85.81 204.46 87.9C204.15 88.84 204.61 89.6 205.28 89.98C205.59 90.57 206.21 90.96 207.06 90.76C209 90.29 210.83 89.61 212.57 88.74C213.08 88.48 213.7 88.75 213.83 89.31C214.14 90.67 214.67 92.49 215.01 92.64C215.06 92.92 215.17 93.2 215.38 93.46C215.93 94.12 217.22 94.35 217.86 93.66C219.27 92.14 220.47 90.51 221.51 88.76C221.64 88.54 221.86 88.39 222.12 88.34C223.87 88.06 225.56 87.51 227.15 86.71C227.42 86.57 227.62 86.4 227.77 86.2C228.45 85.78 228.84 84.98 228.3 84.09V84.07Z" fill="white"/>
<path d="M300.54 348.08C298.6 348.05 296.7 348.25 294.82 348.69C293.75 346.78 292.28 345.11 290.51 343.76C289.78 343.2 289.01 343.35 288.48 343.81C288.07 343.96 287.72 344.29 287.53 344.81C286.77 346.86 286.31 348.98 286.12 351.14C283.85 352.67 281.93 354.6 280.49 356.97C279.81 358.09 280.41 359.61 281.79 359.73C283.53 359.88 285.26 359.79 286.95 359.45C286.95 360.66 286.98 361.87 287.07 363.09C287.18 364.55 287.35 366.5 289.23 366.66C290.78 366.79 291.77 365.07 292.42 363.94C293.05 362.84 293.5 361.7 293.83 360.52C295.25 361.5 296.8 362.23 298.53 362.62C299.67 362.88 300.73 362.35 300.88 361.11C301.17 358.85 300.6 356.64 299.39 354.81C300.7 353.68 301.64 352.14 302.04 350.44C302.28 349.41 301.79 348.11 300.53 348.09L300.54 348.08Z" fill="white"/>
<path d="M220.99 160.91C219.65 159.61 218.31 158.31 216.97 157.01C217.01 156.94 217.06 156.88 217.1 156.81C218.25 154.52 219.41 152.24 220.56 149.95C221.15 148.79 219.79 147.27 218.57 147.62C215.84 148.42 213.32 149.6 211 151.18C209.92 149.4 208.41 147.94 206.52 146.95C205.31 146.32 203.97 146.83 203.76 148.25C203.38 150.79 203.58 153.3 204.3 155.72C202.36 156.39 200.42 157.05 198.48 157.72C197.55 158.04 197.33 159.28 197.66 160.07C198.22 161.41 199.44 161.97 200.77 162.32C202.62 162.8 204.48 163.26 206.34 163.73C206.22 165.2 206.22 166.67 206.34 168.16C206.43 169.32 207.9 169.85 208.83 169.41C211.04 168.36 212.84 166.58 213.87 164.38C215.92 164.36 217.97 164.17 219.99 163.77C221.19 163.53 221.98 161.85 221 160.9L220.99 160.91Z" fill="white"/>
<path d="M55.0801 202.34C54.3101 203.81 52.0501 203.92 50.6101 203.96C49.9701 203.98 49.3501 203.94 48.7301 203.86C48.7601 205.26 48.7501 206.65 48.6601 208.04C48.5901 209.09 47.5701 209.79 46.6101 209.63C45.2401 201.41 46.6401 192.9 49.5801 184.72C50.4601 184.86 51.2601 185.59 51.1101 186.58C50.8001 188.6 50.4901 190.62 50.1801 192.66C50.2801 192.73 50.3801 192.82 50.4801 192.92C51.8201 194.31 52.9701 195.85 53.9201 197.53C54.6701 198.86 55.8901 200.78 55.0901 202.33L55.0801 202.34Z" fill="white"/>
<path d="M404.98 256.93C404.59 255.87 403.94 254.95 403.11 254.21C403.23 254.11 403.35 253.99 403.43 253.84C404.11 252.53 404.56 251.26 404.83 249.8C404.95 249.13 404.37 248.16 403.68 248.01C402.28 247.7 400.91 247.62 399.52 247.81C398.64 245.8 397.33 244.09 395.55 242.69C394.54 241.9 392.79 242.69 392.79 243.99C392.79 245.98 392.92 247.95 393.18 249.91C391.5 250.98 390.09 252.43 389.13 254.2C388.47 255.42 389.04 256.72 390.43 256.96C391.3 257.11 392.17 257.13 393.02 257.06C392.92 258.51 392.81 259.96 392.71 261.41C392.62 262.69 394.03 263.78 395.23 263.13C396.95 262.21 398.26 260.78 399 259.07C400.4 259.34 401.81 259.49 403.26 259.44C404.66 259.4 405.47 258.25 404.98 256.92V256.93Z" fill="white"/>
<path d="M319.58 111.54C319.52 113.17 317.5 113.56 316.49 112.55C315.65 111.7 314.9 110.77 314.23 109.79C313 110.91 311.58 111.79 309.98 112.36C308.8 112.79 307.31 112.08 307.46 110.63C307.7 108.46 307.94 106.28 308.18 104.11C307.01 103.17 305.9 102.16 304.88 101.05C303.86 99.95 304.86 97.98 306.35 98.16C306.94 98.23 307.53 98.3 308.12 98.37C312.04 101.68 315.87 105.13 319.6 108.7C319.62 109.65 319.6 110.59 319.57 111.54H319.58Z" fill="white"/>
<path d="M437.93 324.44C436.99 324.31 436.05 324.33 435.13 324.47C434.92 321.87 433.74 319.61 431.74 317.84C430.95 317.14 429.32 317.65 429.08 318.68L427.9 323.82C426.36 323.95 424.85 324.22 423.36 324.69C422.18 325.06 421.37 326.49 422.35 327.56C423.26 328.55 424.3 329.37 425.45 330.01C424.75 331.67 424.24 333.39 423.94 335.2C423.76 336.31 424.98 337.32 426.03 337.07C428.37 336.51 430.37 335.37 432.03 333.73C433.13 334.55 434.36 335.19 435.69 335.59C436.81 335.93 437.91 335.25 438.04 334.08C438.22 332.56 438.04 331.03 437.54 329.6C438.36 328.85 439.02 327.91 439.44 326.8C439.87 325.68 439.03 324.6 437.93 324.45V324.44Z" fill="white"/>
<path d="M272.86 374.12C271.64 371.23 270.2 368.46 268.6 365.77C268.56 365.71 268.52 365.66 268.48 365.61C267.71 361.11 265.27 356.76 261.91 353.45C261.55 353.1 256.35 348.54 256.73 348.86C257.11 349.18 253.71 339.99 252.98 337.15C261.31 317.91 271.83 307.98 257 295.79C253.91 293.25 247.53 288.41 243.74 286.79C240.78 285.53 237.48 287.73 237.55 290.95C237.63 294.75 238.64 299.47 242.42 302.86C244.19 304.45 242.47 306.08 241.34 307.62C240.03 309.4 238.62 311.09 237.14 312.71C228.14 303.61 215.94 294.89 203.65 291.36C190.75 287.65 177.08 287.7 163.87 289.47C150.72 291.23 120.5 300.7 119.55 300.24C118.9 299.93 118.28 297.42 118 296.75C117.06 294.49 116.19 292.2 114.95 290.08C114.59 289.47 114.67 288.69 115.12 288.15C116.24 286.78 118.23 284.37 118.67 283.97C121.07 281.77 123.33 280.1 124.38 276.87C125.62 273.05 125.21 268.82 122.26 266.37C119.59 265.22 116.74 267.18 114.57 268.57C108.69 272.36 101.98 275.98 96.3 280.26C93.36 282.48 93.02 285.92 93.09 289.45C93.26 297.93 95.75 307.33 99.45 314.96C100.63 317.39 99.78 320.41 97.42 321.74C92.28 324.62 84.25 322.42 79.85 321.83C70.11 320.52 55.5 314.61 59.54 302.03C59.7 301.54 59.48 300.86 59.01 300.61C53.58 297.71 46.97 301.09 46.01 307.18C44.74 315.26 51.73 322.6 57.92 326.64C66.13 332 75.97 333.72 85.48 335.2C85.74 335.24 86.02 335.29 86.3 335.33C86.1 335.88 86 336.48 86.06 337.11C86.33 340.24 89.9 341.07 92.32 341.88C102.34 345.23 112.64 347.64 123 349.63C127.22 350.44 131.45 351.18 135.69 351.88C135.72 351.88 189.75 360.62 223.5 367.13C223.83 367.19 224.07 367.46 224.12 367.79C224.54 370.71 230.12 375.45 231.86 377.96C232.26 378.55 232.56 379.2 232.67 379.9C233.04 382.23 233.47 384.54 233.97 386.84C234.36 388.63 234.63 391.46 236.72 392.14C238.65 392.77 241.07 390.96 242.61 390.04C244.5 388.9 246.27 387.6 247.94 386.17C248.08 386.05 248.25 385.99 248.44 385.98C253.63 385.93 258.87 384.22 262.77 380.96C262.93 380.82 263.14 380.76 263.35 380.78C266 381.06 268.64 381.34 271.29 381.6C272.71 381.74 274.27 381.85 274.7 380.14C275.16 378.32 273.56 375.74 272.87 374.1L272.86 374.12Z" fill="#B8B1CC"/>
<path d="M258.36 364.21C256.53 361.47 252.88 362.02 251.2 364.6C250.73 365.32 251.58 366.13 252.3 365.77C253.69 365.08 255.32 364.25 256.81 365.15C256.94 365.23 257.06 365.26 257.18 365.27C257.85 365.68 258.89 364.99 258.37 364.21H258.36Z" fill="#1E2047"/>
<path d="M243.04 368.1C240.48 367.52 238.01 369.38 238.11 372.07C238.14 372.84 239.02 373.08 239.49 372.73C239.72 372.72 239.95 372.62 240.11 372.37C240.89 371.18 241.93 370.26 243.2 369.62C243.81 369.31 243.74 368.26 243.05 368.1H243.04Z" fill="#1E2047"/>
<path d="M248.1 361.95C247.06 361.48 245.99 361.06 244.92 360.68C245.12 359.94 245.49 359.32 246.05 358.81C246.83 358.08 245.7 356.88 244.91 357.6C244.27 358.19 243.79 358.93 243.49 359.74C242.69 359.56 241.88 359.56 241.09 359.79C240.07 360.08 240.46 361.7 241.48 361.4C241.99 361.25 242.5 361.22 243.02 361.33C242.68 362.59 241.88 365.18 243.88 365.16C245.38 365.16 246.95 364.49 248.17 363.67C248.76 363.28 248.81 362.28 248.11 361.95H248.1Z" fill="#1E2047"/>
<path d="M240.82 382.75C239.93 384.56 238.83 386.24 237.52 387.78C236.87 388.55 238.01 389.62 238.67 388.85C240.07 387.21 241.25 385.42 242.2 383.49C242.65 382.58 241.26 381.84 240.82 382.75Z" fill="#1E2047"/>
<path d="M265.06 376.4C266.65 377.81 269.22 377.83 271.22 378.18C272.21 378.35 272.58 376.82 271.58 376.65C270.63 376.48 269.67 376.32 268.72 376.15C267.81 375.99 266.85 375.89 266.13 375.25C265.37 374.58 264.3 375.73 265.06 376.4Z" fill="#1E2047"/>
<path d="M208.95 362.66C213.46 361.29 217.82 359.19 221.45 356.16C222.52 355.27 223.6 354.28 224.36 353.1C225.26 351.7 225.09 350.07 225.12 348.45C225.22 342.41 224.65 336.17 223.08 330.32C222.27 327.32 219.61 322.84 215.88 325.04C214.17 326.05 213.44 328.21 213.1 330.05C212.49 333.31 212.43 336.73 212.13 340.03C212.45 339.77 212.77 339.5 213.1 339.24C204.01 336.38 194.13 334.98 184.6 335.91C177.18 336.64 168.84 340.26 167.58 348.49C167.43 349.48 168.96 349.85 169.11 348.85C170.44 340.13 179.96 337.59 187.48 337.29C196.03 336.96 204.57 338.2 212.72 340.77C213.26 340.94 213.65 340.44 213.69 339.98C213.9 337.63 213.76 323.68 218.98 326.41C221.17 327.55 221.67 331.08 222.11 333.22C222.77 336.42 223.2 339.68 223.4 342.94C223.49 344.42 223.54 345.91 223.54 347.39C223.54 348.57 223.76 350.36 223.4 351.49C223.04 352.61 222 353.55 221.16 354.32C217.61 357.59 213.04 359.77 208.46 361.16C207.49 361.45 207.96 362.95 208.93 362.66H208.95Z" fill="#1E2047"/>
<path d="M90.0399 332.27C96.8899 325.79 104.94 320.65 113.74 317.24C117.73 315.69 122.6 313.7 126.94 313.77C129.01 313.8 131.07 314.9 129.89 317.51C129.41 318.57 128.65 319.6 127.96 320.52C126.49 322.49 124.76 324.24 122.82 325.76C122.33 326.14 122.33 327.06 123.06 327.19C127.96 328.09 132.71 330.24 135.99 334.1C139.41 338.12 140.77 343.84 138.84 348.83C138.48 349.76 139.86 350.52 140.22 349.57C142.25 344.32 141.24 338.37 137.84 333.89C134.36 329.31 128.99 326.68 123.42 325.65C123.5 326.13 123.58 326.6 123.66 327.08C125.87 325.34 127.83 323.36 129.48 321.07C130.56 319.56 132.6 317.09 132.11 315.07C131.58 312.91 128.77 312.21 126.88 312.18C124.2 312.14 121.41 313.05 118.87 313.8C107.66 317.12 97.3699 323.14 88.8899 331.17C88.1499 331.87 89.3099 332.93 90.0399 332.24V332.27Z" fill="#1E2047"/>
</svg>
