<svg width="393" height="166" viewBox="0 0 393 166" fill="none" xmlns="http://www.w3.org/2000/svg">
<path opacity="0.9" d="M39.8068 84.3304C39.8068 84.3304 41.0831 79.7533 41.9193 79.6653C42.7555 79.5773 44.0759 83.4942 44.3839 83.7583C44.692 84.0223 49.0931 83.6262 49.6652 83.7583C50.2374 83.8903 47.8168 86.1149 47.0246 86.815C46.2324 87.5192 46.3644 87.7833 46.5845 88.0473C46.8045 88.3114 48.3889 91.9843 48.4769 92.2483C48.565 92.5124 48.609 93.0845 48.0648 93.1446C47.6607 93.1886 43.2837 90.3999 42.7556 90.3119C42.2274 90.2239 39.4107 94.0968 38.7066 93.9648C38.0024 93.8327 39.1627 88.6195 38.9866 88.3554C38.8106 88.0913 38.0624 87.5712 37.6543 87.3231C37.4343 87.1911 33.4613 85.0266 34.4855 84.7705C35.5418 84.5065 38.8866 84.3304 39.8108 84.3304H39.8068Z" fill="#A5B5E5"/>
<g opacity="0.9">
<path d="M43.2159 78.5689H42.7158V77.2326H43.2159V78.5689ZM43.2159 75.2321H42.7158V73.8958H43.2159V75.2321ZM43.2159 71.8913H42.7158V70.555H43.2159V71.8913ZM43.2159 68.5545H42.7158V67.2181H43.2159V68.5545ZM43.2159 65.2177H42.7158V63.8813H43.2159V65.2177ZM43.2159 61.8809H42.7158V60.5445H43.2159V61.8809ZM43.2159 58.544H42.7158V57.2077H43.2159V58.544ZM43.2159 55.2072H42.7158V53.8709H43.2159V55.2072ZM43.2159 51.8704H42.7158V50.5341H43.2159V51.8704ZM43.2159 48.5336H42.7158V47.1973H43.2159V48.5336ZM43.2159 45.1968H42.7158V43.8605H43.2159V45.1968ZM43.2159 41.86H42.7158V40.5237H43.2159V41.86ZM43.2159 38.5232H42.7158V37.1868H43.2159V38.5232ZM43.2159 35.1864H42.7158V33.85H43.2159V35.1864ZM43.2159 31.8495H42.7158V30.5132H43.2159V31.8495ZM43.2159 28.5127H42.7158V27.1764H43.2159V28.5127ZM43.2159 25.1759H42.7158V23.8396H43.2159V25.1759ZM43.2159 21.8391H42.7158V20.5028H43.2159V21.8391ZM43.2159 18.5023H42.7158V17.166H43.2159V18.5023ZM43.2159 15.1655H42.7158V13.8292H43.2159V15.1655ZM43.2159 11.8287H42.7158V10.4923H43.2159V11.8287ZM43.2159 8.49185H42.7158V7.15553H43.2159V8.49185ZM43.2159 5.15504H42.7158V3.81872H43.2159V5.15504ZM43.2159 1.81823H42.7158V0.441895H43.2159V1.77822V1.81823Z" fill="#A5B5E5"/>
</g>
<path opacity="0.9" d="M11.5722 27.1773C11.5722 27.1773 6.19485 26.113 4.13435 30.158C2.06984 34.203 3.49819 37.5638 5.5667 39.3403C8.56343 41.9129 14.0408 41.2527 16.0172 36.2395C15.6932 35.4913 14.965 36.3235 14.4569 36.5956C12.7564 37.5158 9.84374 37.4358 8.33537 35.0832C6.57894 32.3466 8.8715 28.4296 11.2121 28.0935C11.7682 28.0135 12.0563 27.4094 11.5682 27.1773H11.5722Z" fill="#A5B5E5"/>
<g opacity="0.9">
<path d="M9.82383 25.633H9.3237V25.0249H9.82383V25.633ZM9.82383 23.0204H9.3237V21.6841H9.82383V23.0204ZM9.82383 19.6836H9.3237V18.3472H9.82383V19.6836ZM9.82383 16.3468H9.3237V15.0104H9.82383V16.3468ZM9.82383 13.0099H9.3237V11.6736H9.82383V13.0099ZM9.82383 9.67314H9.3237V8.33681H9.82383V9.67314ZM9.82383 6.33632H9.3237V5H9.82383V6.33632Z" fill="#A5B5E5"/>
</g>
<path d="M72.6072 24.6039C71.811 24.2999 71.4149 23.4076 71.723 22.6154C72.0271 21.8192 72.9193 21.4232 73.7115 21.7312C74.5077 22.0353 74.9038 22.9275 74.5957 23.7197C74.2916 24.5159 73.3994 24.912 72.6072 24.6039Z" fill="#A5B5E5"/>
<path d="M65.0733 19.5508C64.5491 19.3507 64.2851 18.7626 64.4891 18.2345C64.6892 17.7103 65.2773 17.4463 65.8054 17.6503C66.3336 17.8544 66.5936 18.4385 66.3896 18.9667C66.1895 19.4908 65.6014 19.7548 65.0733 19.5508Z" fill="#A5B5E5"/>
<path d="M67.8059 29.157C67.2818 28.957 67.0177 28.3688 67.2218 27.8407C67.4218 27.3166 68.01 27.0525 68.5381 27.2565C69.0622 27.4566 69.3263 28.0447 69.1222 28.5729C68.9222 29.097 68.334 29.361 67.8059 29.157Z" fill="#A5B5E5"/>
<path opacity="0.9" d="M336.275 30.3251C336.275 30.3251 337.063 27.4964 337.579 27.4404C338.095 27.3844 338.912 29.809 339.104 29.973C339.296 30.1371 342.016 29.893 342.368 29.973C342.72 30.053 341.224 31.4294 340.736 31.8655C340.248 32.3016 340.328 32.4656 340.464 32.6257C340.6 32.7897 341.58 35.0623 341.632 35.2223C341.684 35.3823 341.712 35.7384 341.376 35.7784C341.128 35.8064 338.419 34.082 338.091 34.026C337.763 33.97 336.023 36.3666 335.587 36.2866C335.151 36.2065 335.867 32.9778 335.759 32.8177C335.651 32.6537 335.187 32.3336 334.935 32.1776C334.799 32.0935 332.342 30.7572 332.974 30.6012C333.626 30.4371 335.695 30.3291 336.267 30.3291L336.275 30.3251Z" fill="#A5B5E5"/>
<g opacity="0.9">
<path d="M338.476 30.3371H337.976V29.0008H338.476V30.3371ZM338.476 27.0003H337.976V25.6639H338.476V27.0003ZM338.476 23.6635H337.976V22.3271H338.476V23.6635ZM338.476 20.3266H337.976V18.9903H338.476V20.3266ZM338.476 16.9898H337.976V15.6535H338.476V16.9898ZM338.476 13.653H337.976V12.3167H338.476V13.653ZM338.476 10.3162H337.976V8.97988H338.476V10.3162ZM338.476 6.97939H337.976V5.64307H338.476V6.97939Z" fill="#A5B5E5"/>
</g>
<path d="M355.442 79.3813C354.646 79.0772 354.25 78.185 354.558 77.3928C354.862 76.5966 355.754 76.2005 356.546 76.5086C357.343 76.8126 357.739 77.7049 357.431 78.4971C357.127 79.2933 356.234 79.6893 355.442 79.3813Z" fill="#A5B5E5"/>
<path d="M347.909 74.3279C347.385 74.1278 347.121 73.5397 347.325 73.0116C347.525 72.4875 348.113 72.2234 348.642 72.4274C349.17 72.6315 349.43 73.2156 349.226 73.7438C349.026 74.2679 348.438 74.5319 347.909 74.3279Z" fill="#A5B5E5"/>
<path d="M350.642 83.9343C350.118 83.7343 349.854 83.1462 350.058 82.618C350.258 82.0939 350.846 81.8298 351.374 82.0339C351.898 82.2339 352.162 82.8221 351.958 83.3502C351.758 83.8743 351.17 84.1384 350.642 83.9343Z" fill="#A5B5E5"/>
<path opacity="0.9" d="M385.54 121.656C385.54 121.656 386.528 118.111 387.176 118.043C387.824 117.975 388.844 121.008 389.084 121.212C389.324 121.416 392.729 121.108 393.173 121.212C393.618 121.316 391.741 123.037 391.129 123.581C390.517 124.125 390.617 124.329 390.789 124.537C390.961 124.741 392.185 127.586 392.253 127.79C392.321 127.994 392.357 128.438 391.933 128.486C391.621 128.522 388.232 126.361 387.82 126.293C387.412 126.225 385.231 129.226 384.683 129.122C384.139 129.018 385.035 124.981 384.899 124.777C384.763 124.573 384.183 124.169 383.867 123.977C383.699 123.873 380.618 122.2 381.415 122C382.231 121.796 384.823 121.66 385.54 121.66V121.656Z" fill="#A5B5E5"/>
<g opacity="0.9">
<path d="M386.9 117.451H386.399V116.115H386.9V117.451ZM386.9 114.114H386.399V112.778H386.9V114.114ZM386.9 110.778H386.399V109.441H386.9V110.778ZM386.9 107.441H386.399V106.104H386.9V107.441ZM386.9 104.104H386.399V102.768H386.9V104.104ZM386.9 100.767H386.399V99.4307H386.9V100.767ZM386.9 97.4303H386.399V96.0939H386.9V97.4303ZM386.9 94.0934H386.399V92.7571H386.9V94.0934ZM386.9 90.7566H386.399V89.4203H386.9V90.7566ZM386.9 87.4198H386.399V86.0835H386.9V87.4198ZM386.9 84.083H386.399V82.7467H386.9V84.083ZM386.9 80.7462H386.399V79.4099H386.9V80.7462ZM386.9 77.4094H386.399V76.0731H386.9V77.4094ZM386.9 74.0726H386.399V72.7362H386.9V74.0726ZM386.9 70.7358H386.399V69.3994H386.9V70.7358ZM386.9 67.3989H386.399V66.0626H386.9V67.3989ZM386.9 64.0621H386.399V62.7258H386.9V64.0621ZM386.9 60.7253H386.399V59.389H386.9V60.7253ZM386.9 57.3885H386.399V56.0522H386.9V57.3885ZM386.9 54.0517H386.399V52.7154H386.9V54.0517ZM386.9 50.7149H386.399V49.3786H386.9V50.7149ZM386.9 47.3781H386.399V46.0417H386.9V47.3781ZM386.9 44.0413H386.399V42.7049H386.9V44.0413ZM386.9 40.7045H386.399V39.3681H386.9V40.7045ZM386.9 37.3676H386.399V36.0313H386.9V37.3676ZM386.9 34.0308H386.399V32.6945H386.9V34.0308ZM386.9 30.694H386.399V29.3577H386.9V30.694ZM386.9 27.3572H386.399V26.0209H386.9V27.3572ZM386.9 24.0204H386.399V22.6841H386.9V24.0204ZM386.9 20.6836H386.399V19.3472H386.9V20.6836ZM386.9 17.3468H386.399V16.0104H386.9V17.3468ZM386.9 14.01H386.399V12.6736H386.9V14.01ZM386.9 10.6731H386.399V9.33681H386.9V10.6731ZM386.9 7.33633H386.399V6H386.9V7.33633Z" fill="#A5B5E5"/>
</g>
</svg>
