<svg width="1691" height="413" viewBox="0 0 1691 413" fill="none" xmlns="http://www.w3.org/2000/svg">
<path opacity="0.9" d="M1473.98 74.6899C1473.98 74.6899 1475.95 67.6199 1477.24 67.4799C1478.53 67.3399 1480.57 73.3999 1481.05 73.8099C1481.53 74.2199 1488.33 73.6099 1489.21 73.8099C1490.09 74.0099 1486.35 77.4499 1485.13 78.5399C1483.91 79.6299 1484.11 80.0399 1484.45 80.4399C1484.79 80.8499 1487.24 86.5299 1487.37 86.9299C1487.5 87.3299 1487.57 88.2199 1486.73 88.3199C1486.11 88.3899 1479.34 84.0799 1478.52 83.9399C1477.7 83.7999 1473.35 89.7899 1472.26 89.5899C1471.17 89.3899 1472.96 81.3199 1472.69 80.9199C1472.42 80.5099 1471.26 79.7099 1470.63 79.3199C1470.29 79.1099 1464.15 75.7699 1465.73 75.3799C1467.36 74.9699 1472.53 74.6999 1473.96 74.6999L1473.98 74.6899Z" fill="#A5B5E5"/>
<g opacity="0.9">
<path d="M1479.48 74.72H1478.23V71.38H1479.48V74.72ZM1479.48 66.38H1478.23V63.04H1479.48V66.38ZM1479.48 58.04H1478.23V54.7H1479.48V58.04ZM1479.48 49.7H1478.23V46.36H1479.48V49.7ZM1479.48 41.36H1478.23V38.02H1479.48V41.36ZM1479.48 33.02H1478.23V29.68H1479.48V33.02ZM1479.48 24.68H1478.23V21.34H1479.48V24.68ZM1479.48 16.34H1478.23V13H1479.48V16.34Z" fill="#A5B5E5"/>
</g>
<g opacity="0.9">
<path d="M1675.25 231.64H1674V231.12H1675.25V231.64ZM1675.25 226.11H1674V222.77H1675.25V226.11ZM1675.25 217.77H1674V214.43H1675.25V217.77ZM1675.25 209.43H1674V206.09H1675.25V209.43ZM1675.25 201.09H1674V197.75H1675.25V201.09ZM1675.25 192.75H1674V189.41H1675.25V192.75ZM1675.25 184.41H1674V181.07H1675.25V184.41ZM1675.25 176.07H1674V172.73H1675.25V176.07ZM1675.25 167.73H1674V164.39H1675.25V167.73ZM1675.25 159.39H1674V156.05H1675.25V159.39ZM1675.25 151.05H1674V147.71H1675.25V151.05ZM1675.25 142.71H1674V139.37H1675.25V142.71ZM1675.25 134.37H1674V131.03H1675.25V134.37ZM1675.25 126.03H1674V122.69H1675.25V126.03ZM1675.25 117.69H1674V114.35H1675.25V117.69ZM1675.25 109.35H1674V106.01H1675.25V109.35ZM1675.25 101.01H1674V97.6699H1675.25V101.01Z" fill="#A5B5E5"/>
</g>
<path opacity="0.9" d="M1679.63 228.46C1679.63 228.46 1666.19 225.8 1661.04 235.91C1655.88 246.02 1659.45 254.42 1664.62 258.86C1672.11 265.29 1685.8 263.64 1690.74 251.11C1689.93 249.24 1688.11 251.32 1686.84 252C1682.59 254.3 1675.31 254.1 1671.54 248.22C1667.15 241.38 1672.88 231.59 1678.73 230.75C1680.12 230.55 1680.84 229.04 1679.62 228.45L1679.63 228.46Z" fill="#A5B5E5"/>
<path d="M1670.03 343.14C1670.78 345.13 1669.77 347.35 1667.79 348.1C1665.81 348.85 1663.58 347.84 1662.83 345.86C1662.08 343.87 1663.09 341.65 1665.07 340.9C1667.06 340.15 1669.28 341.16 1670.03 343.15V343.14Z" fill="#A5B5E5"/>
<path d="M1673.11 365.6C1673.61 366.91 1672.94 368.38 1671.63 368.88C1670.32 369.38 1668.85 368.71 1668.35 367.4C1667.85 366.09 1668.52 364.62 1669.83 364.12C1671.14 363.62 1672.61 364.29 1673.11 365.6Z" fill="#A5B5E5"/>
<path d="M1686.51 344.54C1687.01 345.85 1686.34 347.32 1685.03 347.82C1683.72 348.32 1682.25 347.65 1681.75 346.34C1681.25 345.03 1681.92 343.56 1683.23 343.06C1684.54 342.56 1686.01 343.23 1686.51 344.54Z" fill="#A5B5E5"/>
<path d="M1521.89 197.3C1519.9 196.54 1518.91 194.31 1519.68 192.33C1520.44 190.34 1522.67 189.35 1524.65 190.12C1526.64 190.88 1527.63 193.11 1526.86 195.09C1526.1 197.08 1523.87 198.07 1521.89 197.3Z" fill="#A5B5E5"/>
<path d="M1503.06 184.67C1501.75 184.17 1501.09 182.7 1501.6 181.38C1502.1 180.07 1503.57 179.41 1504.89 179.92C1506.21 180.43 1506.86 181.89 1506.35 183.21C1505.85 184.52 1504.38 185.18 1503.06 184.67Z" fill="#A5B5E5"/>
<path d="M1509.89 208.68C1508.58 208.18 1507.92 206.71 1508.43 205.39C1508.93 204.08 1510.4 203.42 1511.72 203.93C1513.03 204.43 1513.69 205.9 1513.18 207.22C1512.68 208.53 1511.21 209.19 1509.89 208.68Z" fill="#A5B5E5"/>
<path opacity="0.9" d="M1597.11 350.07C1597.11 350.07 1599.58 341.21 1601.2 341.04C1602.82 340.87 1605.37 348.45 1605.97 348.96C1606.57 349.47 1615.08 348.7 1616.19 348.96C1617.3 349.22 1612.61 353.52 1611.08 354.88C1609.55 356.24 1609.8 356.75 1610.23 357.27C1610.66 357.78 1613.72 364.89 1613.89 365.4C1614.06 365.91 1614.15 367.02 1613.09 367.14C1612.31 367.23 1603.84 361.83 1602.81 361.66C1601.79 361.49 1596.34 368.99 1594.97 368.73C1593.61 368.47 1595.85 358.38 1595.51 357.87C1595.17 357.36 1593.72 356.35 1592.93 355.87C1592.51 355.61 1584.81 351.43 1586.8 350.93C1588.84 350.42 1595.32 350.08 1597.11 350.08V350.07Z" fill="#A5B5E5"/>
<g opacity="0.9">
<path d="M1600.51 339.56H1599.26V336.22H1600.51V339.56ZM1600.51 331.22H1599.26V327.88H1600.51V331.22ZM1600.51 322.88H1599.26V319.54H1600.51V322.88ZM1600.51 314.54H1599.26V311.2H1600.51V314.54ZM1600.51 306.2H1599.26V302.86H1600.51V306.2ZM1600.51 297.86H1599.26V294.52H1600.51V297.86ZM1600.51 289.52H1599.26V286.18H1600.51V289.52ZM1600.51 281.18H1599.26V277.84H1600.51V281.18ZM1600.51 272.84H1599.26V269.5H1600.51V272.84ZM1600.51 264.5H1599.26V261.16H1600.51V264.5ZM1600.51 256.16H1599.26V252.82H1600.51V256.16ZM1600.51 247.82H1599.26V244.48H1600.51V247.82ZM1600.51 239.48H1599.26V236.14H1600.51V239.48ZM1600.51 231.14H1599.26V227.8H1600.51V231.14ZM1600.51 222.8H1599.26V219.46H1600.51V222.8ZM1600.51 214.46H1599.26V211.12H1600.51V214.46ZM1600.51 206.12H1599.26V202.78H1600.51V206.12ZM1600.51 197.78H1599.26V194.44H1600.51V197.78ZM1600.51 189.44H1599.26V186.1H1600.51V189.44ZM1600.51 181.1H1599.26V177.76H1600.51V181.1ZM1600.51 172.76H1599.26V169.42H1600.51V172.76ZM1600.51 164.42H1599.26V161.08H1600.51V164.42ZM1600.51 156.08H1599.26V152.74H1600.51V156.08ZM1600.51 147.74H1599.26V144.4H1600.51V147.74ZM1600.51 139.4H1599.26V136.06H1600.51V139.4ZM1600.51 131.06H1599.26V127.72H1600.51V131.06ZM1600.51 122.72H1599.26V119.38H1600.51V122.72ZM1600.51 114.38H1599.26V111.04H1600.51V114.38ZM1600.51 106.04H1599.26V102.7H1600.51V106.04ZM1600.51 97.7H1599.26V94.36H1600.51V97.7ZM1600.51 89.36H1599.26V86.02H1600.51V89.36ZM1600.51 81.02H1599.26V77.68H1600.51V81.02ZM1600.51 72.68H1599.26V69.34H1600.51V72.68ZM1600.51 64.34H1599.26V61H1600.51V64.34Z" fill="#A5B5E5"/>
</g>
<path opacity="0.9" d="M70.81 375.78C70.81 375.78 78.8 368.97 80.45 369.85C82.09 370.72 79.67 379.53 79.91 380.39C80.15 381.25 88.7 385.97 89.58 386.92C90.46 387.87 83.28 388.95 80.96 389.26C78.64 389.57 78.55 390.22 78.63 390.97C78.71 391.73 77.07 400.41 76.9 401.01C76.73 401.61 76.11 402.7 75.04 402.14C74.25 401.72 69.67 391.2 68.82 390.39C67.96 389.58 58.02 393.19 56.89 392.08C55.76 390.97 64.33 382.85 64.34 382.14C64.34 381.44 63.61 379.56 63.17 378.6C62.93 378.09 58.32 369.21 60.52 370.01C62.78 370.83 69.13 374.64 70.82 375.79L70.81 375.78Z" fill="#A5B5E5"/>
<path opacity="0.9" d="M59.77 379.77C59.77 379.77 47.71 372.38 33.06 376.66C18.41 380.94 12.05 390.66 12.05 391.83C12.05 393 15.81 402.46 16.59 400.13C17.37 397.8 26.19 383.92 37.73 381.46C51.58 378.5 59.64 382.89 59.77 379.77Z" fill="#A5B5E5"/>
<path opacity="0.9" d="M53.15 382.36C53.15 382.36 40.31 380.29 32.14 389.23C26.23 395.69 21.12 406.87 23.84 408.82C26.56 410.77 28.51 412.97 28.77 411.93C29.03 410.89 31.66 397.5 37.37 390.76C43.08 384.02 51.33 384.44 53.15 382.36Z" fill="#A5B5E5"/>
<g opacity="0.9">
<path d="M70.74 367.24H69.49V363.9H70.74V367.24ZM70.74 358.9H69.49V355.56H70.74V358.9ZM70.74 350.56H69.49V347.22H70.74V350.56ZM70.74 342.22H69.49V338.88H70.74V342.22ZM70.74 333.88H69.49V330.54H70.74V333.88ZM70.74 325.54H69.49V322.2H70.74V325.54ZM70.74 317.2H69.49V313.86H70.74V317.2ZM70.74 308.86H69.49V305.52H70.74V308.86ZM70.74 300.52H69.49V297.18H70.74V300.52ZM70.74 292.18H69.49V288.84H70.74V292.18ZM70.74 283.84H69.49V280.5H70.74V283.84ZM70.74 275.5H69.49V272.16H70.74V275.5ZM70.74 267.16H69.49V263.82H70.74V267.16ZM70.74 258.82H69.49V255.48H70.74V258.82ZM70.74 250.48H69.49V247.14H70.74V250.48ZM70.74 242.14H69.49V238.8H70.74V242.14ZM70.74 233.8H69.49V230.46H70.74V233.8ZM70.74 225.46H69.49V222.12H70.74V225.46ZM70.74 217.12H69.49V213.78H70.74V217.12ZM70.74 208.78H69.49V205.44H70.74V208.78ZM70.74 200.44H69.49V197.1H70.74V200.44ZM70.74 192.1H69.49V188.76H70.74V192.1ZM70.74 183.76H69.49V180.42H70.74V183.76ZM70.74 175.42H69.49V172.08H70.74V175.42ZM70.74 167.08H69.49V163.74H70.74V167.08ZM70.74 158.74H69.49V155.4H70.74V158.74ZM70.74 150.4H69.49V147.06H70.74V150.4ZM70.74 142.06H69.49V138.72H70.74V142.06ZM70.74 133.72H69.49V130.38H70.74V133.72ZM70.74 125.38H69.49V122.04H70.74V125.38ZM70.74 117.04H69.49V113.7H70.74V117.04ZM70.74 108.7H69.49V105.36H70.74V108.7ZM70.74 100.36H69.49V97.02H70.74V100.36ZM70.74 92.02H69.49V88.68H70.74V92.02ZM70.74 83.68H69.49V80.34H70.74V83.68ZM70.74 75.34H69.49V72H70.74V75.34Z" fill="#A5B5E5"/>
</g>
<path opacity="0.9" d="M243.45 209.67C243.45 209.67 246.64 198.23 248.73 198.01C250.82 197.79 254.12 207.58 254.89 208.24C255.66 208.9 266.66 207.91 268.09 208.24C269.52 208.57 263.47 214.13 261.49 215.88C259.51 217.64 259.84 218.3 260.39 218.96C260.94 219.62 264.9 228.8 265.12 229.46C265.34 230.12 265.45 231.55 264.09 231.7C263.08 231.81 252.14 224.84 250.82 224.62C249.5 224.4 242.46 234.08 240.7 233.75C238.94 233.42 241.84 220.39 241.4 219.73C240.96 219.07 239.09 217.77 238.07 217.15C237.52 216.82 227.59 211.41 230.15 210.77C232.79 210.11 241.15 209.67 243.46 209.67H243.45Z" fill="#A5B5E5"/>
<g opacity="0.9">
<path d="M251.97 195.27H250.72V191.93H251.97V195.27ZM251.97 186.93H250.72V183.59H251.97V186.93ZM251.97 178.58H250.72V175.24H251.97V178.58ZM251.97 170.24H250.72V166.9H251.97V170.24ZM251.97 161.9H250.72V158.56H251.97V161.9ZM251.97 153.56H250.72V150.22H251.97V153.56ZM251.97 145.22H250.72V141.88H251.97V145.22ZM251.97 136.88H250.72V133.54H251.97V136.88ZM251.97 128.54H250.72V125.2H251.97V128.54ZM251.97 120.2H250.72V116.86H251.97V120.2ZM251.97 111.86H250.72V108.52H251.97V111.86ZM251.97 103.52H250.72V100.18H251.97V103.52ZM251.97 95.18H250.72V91.84H251.97V95.18ZM251.97 86.84H250.72V83.5H251.97V86.84ZM251.97 78.5H250.72V75.16H251.97V78.5ZM251.97 70.16H250.72V66.82H251.97V70.16ZM251.97 61.82H250.72V58.48H251.97V61.82ZM251.97 53.48H250.72V50.14H251.97V53.48ZM251.97 45.14H250.72V41.8H251.97V45.14ZM251.97 36.8H250.72V33.46H251.97V36.8ZM251.97 28.46H250.72V25.12H251.97V28.46ZM251.97 20.12H250.72V16.78H251.97V20.12ZM251.97 11.78H250.72V8.44H251.97V11.78ZM251.97 3.44H250.72V0H251.97V3.34V3.44Z" fill="#A5B5E5"/>
</g>
<path opacity="0.9" d="M172.88 86.43C172.88 86.43 159.44 83.77 154.29 93.88C149.13 103.99 152.7 112.39 157.87 116.83C165.36 123.26 179.05 121.61 183.99 109.08C183.18 107.21 181.36 109.29 180.09 109.97C175.84 112.27 168.56 112.07 164.79 106.19C160.4 99.35 166.13 89.56 171.98 88.72C173.37 88.52 174.09 87.01 172.87 86.43H172.88Z" fill="#A5B5E5"/>
<g opacity="0.9">
<path d="M168.51 82.57H167.26V81.05H168.51V82.57ZM168.51 76.04H167.26V72.7H168.51V76.04ZM168.51 67.7H167.26V64.36H168.51V67.7ZM168.51 59.36H167.26V56.02H168.51V59.36ZM168.51 51.02H167.26V47.68H168.51V51.02ZM168.51 42.68H167.26V39.34H168.51V42.68ZM168.51 34.34H167.26V31H168.51V34.34Z" fill="#A5B5E5"/>
</g>
<path d="M7.45 292.6C8.2 294.59 7.19 296.81 5.21 297.56C3.23 298.31 1 297.3 0.250003 295.32C-0.499997 293.33 0.510003 291.11 2.49 290.36C4.48 289.61 6.7 290.62 7.45 292.61V292.6Z" fill="#A5B5E5"/>
<path d="M10.53 315.06C11.03 316.37 10.36 317.84 9.05 318.34C7.74 318.84 6.27 318.17 5.77 316.86C5.27 315.55 5.94 314.08 7.25 313.58C8.56 313.08 10.03 313.75 10.53 315.06Z" fill="#A5B5E5"/>
<path d="M23.93 294C24.43 295.31 23.76 296.78 22.45 297.28C21.14 297.78 19.67 297.11 19.17 295.8C18.67 294.49 19.34 293.02 20.65 292.52C21.96 292.02 23.43 292.69 23.93 294Z" fill="#A5B5E5"/>
<path d="M325.43 60.39C323.44 59.63 322.45 57.4 323.22 55.42C323.98 53.43 326.21 52.44 328.19 53.21C330.18 53.97 331.17 56.2 330.4 58.18C329.64 60.17 327.41 61.16 325.43 60.39Z" fill="#A5B5E5"/>
<path d="M306.6 47.7599C305.29 47.2599 304.63 45.7899 305.14 44.4699C305.64 43.1599 307.11 42.5 308.43 43.01C309.75 43.52 310.4 44.9799 309.89 46.2999C309.39 47.6099 307.92 48.2699 306.6 47.7599Z" fill="#A5B5E5"/>
<path d="M313.43 71.7697C312.12 71.2697 311.46 69.7997 311.97 68.4797C312.47 67.1697 313.94 66.5097 315.26 67.0197C316.57 67.5197 317.23 68.9897 316.72 70.3097C316.22 71.6197 314.75 72.2797 313.43 71.7697Z" fill="#A5B5E5"/>
</svg>
